0
SECTION
2
HEADER
9
$ANGDIR
70
1
9
$AUNITS
70
0
9
$PROJECTNAME
1
Relaya_the second
9
$TDCREATE
40
2458492.90572081
9
$INSUNITS
70
4
0
ENDSEC
0
SECTION
2
ENTITIES
0
POLYLINE
66
1
8
outline
10
0.0
20
0.0
30
0.0
70
1
0
VERTEX
8
0
10
0
20
0
30
0
0
VERTEX
8
0
10
134.6
20
0
30
0
0
VERTEX
8
0
10
134.6
20
73.33
30
0
0
VERTEX
8
0
10
0
20
73.33
30
0
0
VERTEX
8
0
10
0
20
0
30
0
0
SEQEND
0
POLYLINE
66
1
8
holes
10
0.0
20
0.0
30
0.0
70
1
0
VERTEX
8
0
10
104.482184375
20
8.636000000000001
30
0
0
VERTEX
8
0
10
104.404853125
20
8.629234375000001
30
0
0
VERTEX
8
0
10
104.32840312500001
20
8.615753125000001
30
0
0
VERTEX
8
0
10
104.25341875000001
20
8.5956625
30
0
0
VERTEX
8
0
10
104.18047187500001
20
8.569112500000001
30
0
0
VERTEX
8
0
10
104.110115625
20
8.536303125
30
0
0
VERTEX
8
0
10
104.042884375
20
8.497490625000001
30
0
0
VERTEX
8
0
10
103.979296875
20
8.4529625
30
0
0
VERTEX
8
0
10
103.91982812500001
20
8.4030625
30
0
0
VERTEX
8
0
10
103.86493750000001
20
8.348171875
30
0
0
VERTEX
8
0
10
103.8150375
20
8.288703125
30
0
0
VERTEX
8
0
10
103.770509375
20
8.225115625
30
0
0
VERTEX
8
0
10
103.73169687500001
20
8.157884375
30
0
0
VERTEX
8
0
10
103.6988875
20
8.087528125
30
0
0
VERTEX
8
0
10
103.67233750000001
20
8.01458125
30
0
0
VERTEX
8
0
10
103.652246875
20
7.939596875
30
0
0
VERTEX
8
0
10
103.638765625
20
7.863146875
30
0
0
VERTEX
8
0
10
103.632
20
7.785815625000001
30
0
0
VERTEX
8
0
10
103.632
20
7.708184375
30
0
0
VERTEX
8
0
10
103.638765625
20
7.630853125000001
30
0
0
VERTEX
8
0
10
103.652246875
20
7.554403125
30
0
0
VERTEX
8
0
10
103.67233750000001
20
7.479418750000001
30
0
0
VERTEX
8
0
10
103.6988875
20
7.406471875
30
0
0
VERTEX
8
0
10
103.73169687500001
20
7.336115625000001
30
0
0
VERTEX
8
0
10
103.770509375
20
7.268884375000001
30
0
0
VERTEX
8
0
10
103.8150375
20
7.205296875
30
0
0
VERTEX
8
0
10
103.86493750000001
20
7.145828125
30
0
0
VERTEX
8
0
10
103.91982812500001
20
7.090937500000001
30
0
0
VERTEX
8
0
10
103.979296875
20
7.041037500000001
30
0
0
VERTEX
8
0
10
104.042884375
20
6.9965093750000005
30
0
0
VERTEX
8
0
10
104.110115625
20
6.957696875
30
0
0
VERTEX
8
0
10
104.18047187500001
20
6.9248875000000005
30
0
0
VERTEX
8
0
10
104.25341875000001
20
6.8983375
30
0
0
VERTEX
8
0
10
104.32840312500001
20
6.878246875
30
0
0
VERTEX
8
0
10
104.404853125
20
6.864765625
30
0
0
VERTEX
8
0
10
104.482184375
20
6.8580000000000005
30
0
0
VERTEX
8
0
10
104.559815625
20
6.8580000000000005
30
0
0
VERTEX
8
0
10
104.637146875
20
6.864765625
30
0
0
VERTEX
8
0
10
104.71359687500001
20
6.878246875
30
0
0
VERTEX
8
0
10
104.78858125000001
20
6.8983375
30
0
0
VERTEX
8
0
10
104.861528125
20
6.9248875000000005
30
0
0
VERTEX
8
0
10
104.93188437500001
20
6.957696875
30
0
0
VERTEX
8
0
10
104.999115625
20
6.9965093750000005
30
0
0
VERTEX
8
0
10
105.062703125
20
7.041037500000001
30
0
0
VERTEX
8
0
10
105.122171875
20
7.090937500000001
30
0
0
VERTEX
8
0
10
105.1770625
20
7.145828125
30
0
0
VERTEX
8
0
10
105.2269625
20
7.205296875
30
0
0
VERTEX
8
0
10
105.271490625
20
7.268884375000001
30
0
0
VERTEX
8
0
10
105.310303125
20
7.336115625000001
30
0
0
VERTEX
8
0
10
105.3431125
20
7.406471875
30
0
0
VERTEX
8
0
10
105.3696625
20
7.479418750000001
30
0
0
VERTEX
8
0
10
105.389753125
20
7.554403125
30
0
0
VERTEX
8
0
10
105.40323437500001
20
7.630853125000001
30
0
0
VERTEX
8
0
10
105.41000000000001
20
7.708184375
30
0
0
VERTEX
8
0
10
105.41000000000001
20
7.785815625000001
30
0
0
VERTEX
8
0
10
105.40323437500001
20
7.863146875
30
0
0
VERTEX
8
0
10
105.389753125
20
7.939596875
30
0
0
VERTEX
8
0
10
105.3696625
20
8.01458125
30
0
0
VERTEX
8
0
10
105.3431125
20
8.087528125
30
0
0
VERTEX
8
0
10
105.310303125
20
8.157884375
30
0
0
VERTEX
8
0
10
105.271490625
20
8.225115625
30
0
0
VERTEX
8
0
10
105.2269625
20
8.288703125
30
0
0
VERTEX
8
0
10
105.1770625
20
8.348171875
30
0
0
VERTEX
8
0
10
105.122171875
20
8.4030625
30
0
0
VERTEX
8
0
10
105.062703125
20
8.4529625
30
0
0
VERTEX
8
0
10
104.999115625
20
8.497490625000001
30
0
0
VERTEX
8
0
10
104.93188437500001
20
8.536303125
30
0
0
VERTEX
8
0
10
104.861528125
20
8.569112500000001
30
0
0
VERTEX
8
0
10
104.78858125000001
20
8.5956625
30
0
0
VERTEX
8
0
10
104.71359687500001
20
8.615753125000001
30
0
0
VERTEX
8
0
10
104.637146875
20
8.629234375000001
30
0
0
VERTEX
8
0
10
104.559815625
20
8.636000000000001
30
0
0
VERTEX
8
0
10
104.482184375
20
8.636000000000001
30
0
0
SEQEND
0
POLYLINE
66
1
8
holes
10
0.0
20
0.0
30
0.0
70
1
0
VERTEX
8
0
10
119.72218437500001
20
8.636000000000001
30
0
0
VERTEX
8
0
10
119.64485312500001
20
8.629234375000001
30
0
0
VERTEX
8
0
10
119.568403125
20
8.615753125000001
30
0
0
VERTEX
8
0
10
119.49341875
20
8.5956625
30
0
0
VERTEX
8
0
10
119.420471875
20
8.569112500000001
30
0
0
VERTEX
8
0
10
119.350115625
20
8.536303125
30
0
0
VERTEX
8
0
10
119.28288437500001
20
8.497490625000001
30
0
0
VERTEX
8
0
10
119.21929687500001
20
8.4529625
30
0
0
VERTEX
8
0
10
119.159828125
20
8.4030625
30
0
0
VERTEX
8
0
10
119.1049375
20
8.348171875
30
0
0
VERTEX
8
0
10
119.05503750000001
20
8.288703125
30
0
0
VERTEX
8
0
10
119.01050937500001
20
8.225115625
30
0
0
VERTEX
8
0
10
118.971696875
20
8.157884375
30
0
0
VERTEX
8
0
10
118.9388875
20
8.087528125
30
0
0
VERTEX
8
0
10
118.9123375
20
8.01458125
30
0
0
VERTEX
8
0
10
118.89224687500001
20
7.939596875
30
0
0
VERTEX
8
0
10
118.878765625
20
7.863146875
30
0
0
VERTEX
8
0
10
118.872
20
7.785815625000001
30
0
0
VERTEX
8
0
10
118.872
20
7.708184375
30
0
0
VERTEX
8
0
10
118.878765625
20
7.630853125000001
30
0
0
VERTEX
8
0
10
118.89224687500001
20
7.554403125
30
0
0
VERTEX
8
0
10
118.9123375
20
7.479418750000001
30
0
0
VERTEX
8
0
10
118.9388875
20
7.406471875
30
0
0
VERTEX
8
0
10
118.971696875
20
7.336115625000001
30
0
0
VERTEX
8
0
10
119.01050937500001
20
7.268884375000001
30
0
0
VERTEX
8
0
10
119.05503750000001
20
7.205296875
30
0
0
VERTEX
8
0
10
119.1049375
20
7.145828125
30
0
0
VERTEX
8
0
10
119.159828125
20
7.090937500000001
30
0
0
VERTEX
8
0
10
119.21929687500001
20
7.041037500000001
30
0
0
VERTEX
8
0
10
119.28288437500001
20
6.9965093750000005
30
0
0
VERTEX
8
0
10
119.350115625
20
6.957696875
30
0
0
VERTEX
8
0
10
119.420471875
20
6.9248875000000005
30
0
0
VERTEX
8
0
10
119.49341875
20
6.8983375
30
0
0
VERTEX
8
0
10
119.568403125
20
6.878246875
30
0
0
VERTEX
8
0
10
119.64485312500001
20
6.864765625
30
0
0
VERTEX
8
0
10
119.72218437500001
20
6.8580000000000005
30
0
0
VERTEX
8
0
10
119.79981562500001
20
6.8580000000000005
30
0
0
VERTEX
8
0
10
119.87714687500001
20
6.864765625
30
0
0
VERTEX
8
0
10
119.953596875
20
6.878246875
30
0
0
VERTEX
8
0
10
120.02858125
20
6.8983375
30
0
0
VERTEX
8
0
10
120.101528125
20
6.9248875000000005
30
0
0
VERTEX
8
0
10
120.171884375
20
6.957696875
30
0
0
VERTEX
8
0
10
120.23911562500001
20
6.9965093750000005
30
0
0
VERTEX
8
0
10
120.30270312500001
20
7.041037500000001
30
0
0
VERTEX
8
0
10
120.362171875
20
7.090937500000001
30
0
0
VERTEX
8
0
10
120.4170625
20
7.145828125
30
0
0
VERTEX
8
0
10
120.46696250000001
20
7.205296875
30
0
0
VERTEX
8
0
10
120.51149062500001
20
7.268884375000001
30
0
0
VERTEX
8
0
10
120.550303125
20
7.336115625000001
30
0
0
VERTEX
8
0
10
120.58311250000001
20
7.406471875
30
0
0
VERTEX
8
0
10
120.6096625
20
7.479418750000001
30
0
0
VERTEX
8
0
10
120.62975312500001
20
7.554403125
30
0
0
VERTEX
8
0
10
120.643234375
20
7.630853125000001
30
0
0
VERTEX
8
0
10
120.65
20
7.708184375
30
0
0
VERTEX
8
0
10
120.65
20
7.785815625000001
30
0
0
VERTEX
8
0
10
120.643234375
20
7.863146875
30
0
0
VERTEX
8
0
10
120.62975312500001
20
7.939596875
30
0
0
VERTEX
8
0
10
120.6096625
20
8.01458125
30
0
0
VERTEX
8
0
10
120.58311250000001
20
8.087528125
30
0
0
VERTEX
8
0
10
120.550303125
20
8.157884375
30
0
0
VERTEX
8
0
10
120.51149062500001
20
8.225115625
30
0
0
VERTEX
8
0
10
120.46696250000001
20
8.288703125
30
0
0
VERTEX
8
0
10
120.4170625
20
8.348171875
30
0
0
VERTEX
8
0
10
120.362171875
20
8.4030625
30
0
0
VERTEX
8
0
10
120.30270312500001
20
8.4529625
30
0
0
VERTEX
8
0
10
120.23911562500001
20
8.497490625000001
30
0
0
VERTEX
8
0
10
120.171884375
20
8.536303125
30
0
0
VERTEX
8
0
10
120.101528125
20
8.569112500000001
30
0
0
VERTEX
8
0
10
120.02858125
20
8.5956625
30
0
0
VERTEX
8
0
10
119.953596875
20
8.615753125000001
30
0
0
VERTEX
8
0
10
119.87714687500001
20
8.629234375000001
30
0
0
VERTEX
8
0
10
119.79981562500001
20
8.636000000000001
30
0
0
VERTEX
8
0
10
119.72218437500001
20
8.636000000000001
30
0
0
SEQEND
0
POLYLINE
66
1
8
holes
10
0.0
20
0.0
30
0.0
70
1
0
VERTEX
8
0
10
119.72218437500001
20
49.276
30
0
0
VERTEX
8
0
10
119.64485312500001
20
49.269234375
30
0
0
VERTEX
8
0
10
119.568403125
20
49.255753125000005
30
0
0
VERTEX
8
0
10
119.49341875
20
49.235662500000004
30
0
0
VERTEX
8
0
10
119.420471875
20
49.2091125
30
0
0
VERTEX
8
0
10
119.350115625
20
49.176303125000004
30
0
0
VERTEX
8
0
10
119.28288437500001
20
49.137490625000005
30
0
0
VERTEX
8
0
10
119.21929687500001
20
49.092962500000006
30
0
0
VERTEX
8
0
10
119.159828125
20
49.043062500000005
30
0
0
VERTEX
8
0
10
119.1049375
20
48.988171875
30
0
0
VERTEX
8
0
10
119.05503750000001
20
48.928703125000006
30
0
0
VERTEX
8
0
10
119.01050937500001
20
48.865115625
30
0
0
VERTEX
8
0
10
118.971696875
20
48.797884375
30
0
0
VERTEX
8
0
10
118.9388875
20
48.727528125
30
0
0
VERTEX
8
0
10
118.9123375
20
48.65458125
30
0
0
VERTEX
8
0
10
118.89224687500001
20
48.579596875
30
0
0
VERTEX
8
0
10
118.878765625
20
48.503146875
30
0
0
VERTEX
8
0
10
118.872
20
48.425815625000006
30
0
0
VERTEX
8
0
10
118.872
20
48.348184375
30
0
0
VERTEX
8
0
10
118.878765625
20
48.270853125
30
0
0
VERTEX
8
0
10
118.89224687500001
20
48.194403125
30
0
0
VERTEX
8
0
10
118.9123375
20
48.11941875
30
0
0
VERTEX
8
0
10
118.9388875
20
48.046471875
30
0
0
VERTEX
8
0
10
118.971696875
20
47.976115625000006
30
0
0
VERTEX
8
0
10
119.01050937500001
20
47.908884375
30
0
0
VERTEX
8
0
10
119.05503750000001
20
47.845296875
30
0
0
VERTEX
8
0
10
119.1049375
20
47.785828125
30
0
0
VERTEX
8
0
10
119.159828125
20
47.7309375
30
0
0
VERTEX
8
0
10
119.21929687500001
20
47.6810375
30
0
0
VERTEX
8
0
10
119.28288437500001
20
47.636509375
30
0
0
VERTEX
8
0
10
119.350115625
20
47.597696875000004
30
0
0
VERTEX
8
0
10
119.420471875
20
47.564887500000005
30
0
0
VERTEX
8
0
10
119.49341875
20
47.538337500000004
30
0
0
VERTEX
8
0
10
119.568403125
20
47.518246875
30
0
0
VERTEX
8
0
10
119.64485312500001
20
47.504765625000005
30
0
0
VERTEX
8
0
10
119.72218437500001
20
47.498000000000005
30
0
0
VERTEX
8
0
10
119.79981562500001
20
47.498000000000005
30
0
0
VERTEX
8
0
10
119.87714687500001
20
47.504765625000005
30
0
0
VERTEX
8
0
10
119.953596875
20
47.518246875
30
0
0
VERTEX
8
0
10
120.02858125
20
47.538337500000004
30
0
0
VERTEX
8
0
10
120.101528125
20
47.564887500000005
30
0
0
VERTEX
8
0
10
120.171884375
20
47.597696875000004
30
0
0
VERTEX
8
0
10
120.23911562500001
20
47.636509375
30
0
0
VERTEX
8
0
10
120.30270312500001
20
47.6810375
30
0
0
VERTEX
8
0
10
120.362171875
20
47.7309375
30
0
0
VERTEX
8
0
10
120.4170625
20
47.785828125
30
0
0
VERTEX
8
0
10
120.46696250000001
20
47.845296875
30
0
0
VERTEX
8
0
10
120.51149062500001
20
47.908884375
30
0
0
VERTEX
8
0
10
120.550303125
20
47.976115625000006
30
0
0
VERTEX
8
0
10
120.58311250000001
20
48.046471875
30
0
0
VERTEX
8
0
10
120.6096625
20
48.11941875
30
0
0
VERTEX
8
0
10
120.62975312500001
20
48.194403125
30
0
0
VERTEX
8
0
10
120.643234375
20
48.270853125
30
0
0
VERTEX
8
0
10
120.65
20
48.348184375
30
0
0
VERTEX
8
0
10
120.65
20
48.425815625000006
30
0
0
VERTEX
8
0
10
120.643234375
20
48.503146875
30
0
0
VERTEX
8
0
10
120.62975312500001
20
48.579596875
30
0
0
VERTEX
8
0
10
120.6096625
20
48.65458125
30
0
0
VERTEX
8
0
10
120.58311250000001
20
48.727528125
30
0
0
VERTEX
8
0
10
120.550303125
20
48.797884375
30
0
0
VERTEX
8
0
10
120.51149062500001
20
48.865115625
30
0
0
VERTEX
8
0
10
120.46696250000001
20
48.928703125000006
30
0
0
VERTEX
8
0
10
120.4170625
20
48.988171875
30
0
0
VERTEX
8
0
10
120.362171875
20
49.043062500000005
30
0
0
VERTEX
8
0
10
120.30270312500001
20
49.092962500000006
30
0
0
VERTEX
8
0
10
120.23911562500001
20
49.137490625000005
30
0
0
VERTEX
8
0
10
120.171884375
20
49.176303125000004
30
0
0
VERTEX
8
0
10
120.101528125
20
49.2091125
30
0
0
VERTEX
8
0
10
120.02858125
20
49.235662500000004
30
0
0
VERTEX
8
0
10
119.953596875
20
49.255753125000005
30
0
0
VERTEX
8
0
10
119.87714687500001
20
49.269234375
30
0
0
VERTEX
8
0
10
119.79981562500001
20
49.276
30
0
0
VERTEX
8
0
10
119.72218437500001
20
49.276
30
0
0
SEQEND
0
POLYLINE
66
1
8
holes
10
0.0
20
0.0
30
0.0
70
1
0
VERTEX
8
0
10
104.482184375
20
49.276
30
0
0
VERTEX
8
0
10
104.404853125
20
49.269234375
30
0
0
VERTEX
8
0
10
104.32840312500001
20
49.255753125000005
30
0
0
VERTEX
8
0
10
104.25341875000001
20
49.235662500000004
30
0
0
VERTEX
8
0
10
104.18047187500001
20
49.2091125
30
0
0
VERTEX
8
0
10
104.110115625
20
49.176303125000004
30
0
0
VERTEX
8
0
10
104.042884375
20
49.137490625000005
30
0
0
VERTEX
8
0
10
103.979296875
20
49.092962500000006
30
0
0
VERTEX
8
0
10
103.91982812500001
20
49.043062500000005
30
0
0
VERTEX
8
0
10
103.86493750000001
20
48.988171875
30
0
0
VERTEX
8
0
10
103.8150375
20
48.928703125000006
30
0
0
VERTEX
8
0
10
103.770509375
20
48.865115625
30
0
0
VERTEX
8
0
10
103.73169687500001
20
48.797884375
30
0
0
VERTEX
8
0
10
103.6988875
20
48.727528125
30
0
0
VERTEX
8
0
10
103.67233750000001
20
48.65458125
30
0
0
VERTEX
8
0
10
103.652246875
20
48.579596875
30
0
0
VERTEX
8
0
10
103.638765625
20
48.503146875
30
0
0
VERTEX
8
0
10
103.632
20
48.425815625000006
30
0
0
VERTEX
8
0
10
103.632
20
48.348184375
30
0
0
VERTEX
8
0
10
103.638765625
20
48.270853125
30
0
0
VERTEX
8
0
10
103.652246875
20
48.194403125
30
0
0
VERTEX
8
0
10
103.67233750000001
20
48.11941875
30
0
0
VERTEX
8
0
10
103.6988875
20
48.046471875
30
0
0
VERTEX
8
0
10
103.73169687500001
20
47.976115625000006
30
0
0
VERTEX
8
0
10
103.770509375
20
47.908884375
30
0
0
VERTEX
8
0
10
103.8150375
20
47.845296875
30
0
0
VERTEX
8
0
10
103.86493750000001
20
47.785828125
30
0
0
VERTEX
8
0
10
103.91982812500001
20
47.7309375
30
0
0
VERTEX
8
0
10
103.979296875
20
47.6810375
30
0
0
VERTEX
8
0
10
104.042884375
20
47.636509375
30
0
0
VERTEX
8
0
10
104.110115625
20
47.597696875000004
30
0
0
VERTEX
8
0
10
104.18047187500001
20
47.564887500000005
30
0
0
VERTEX
8
0
10
104.25341875000001
20
47.538337500000004
30
0
0
VERTEX
8
0
10
104.32840312500001
20
47.518246875
30
0
0
VERTEX
8
0
10
104.404853125
20
47.504765625000005
30
0
0
VERTEX
8
0
10
104.482184375
20
47.498000000000005
30
0
0
VERTEX
8
0
10
104.559815625
20
47.498000000000005
30
0
0
VERTEX
8
0
10
104.637146875
20
47.504765625000005
30
0
0
VERTEX
8
0
10
104.71359687500001
20
47.518246875
30
0
0
VERTEX
8
0
10
104.78858125000001
20
47.538337500000004
30
0
0
VERTEX
8
0
10
104.861528125
20
47.564887500000005
30
0
0
VERTEX
8
0
10
104.93188437500001
20
47.597696875000004
30
0
0
VERTEX
8
0
10
104.999115625
20
47.636509375
30
0
0
VERTEX
8
0
10
105.062703125
20
47.6810375
30
0
0
VERTEX
8
0
10
105.122171875
20
47.7309375
30
0
0
VERTEX
8
0
10
105.1770625
20
47.785828125
30
0
0
VERTEX
8
0
10
105.2269625
20
47.845296875
30
0
0
VERTEX
8
0
10
105.271490625
20
47.908884375
30
0
0
VERTEX
8
0
10
105.310303125
20
47.976115625000006
30
0
0
VERTEX
8
0
10
105.3431125
20
48.046471875
30
0
0
VERTEX
8
0
10
105.3696625
20
48.11941875
30
0
0
VERTEX
8
0
10
105.389753125
20
48.194403125
30
0
0
VERTEX
8
0
10
105.40323437500001
20
48.270853125
30
0
0
VERTEX
8
0
10
105.41000000000001
20
48.348184375
30
0
0
VERTEX
8
0
10
105.41000000000001
20
48.425815625000006
30
0
0
VERTEX
8
0
10
105.40323437500001
20
48.503146875
30
0
0
VERTEX
8
0
10
105.389753125
20
48.579596875
30
0
0
VERTEX
8
0
10
105.3696625
20
48.65458125
30
0
0
VERTEX
8
0
10
105.3431125
20
48.727528125
30
0
0
VERTEX
8
0
10
105.310303125
20
48.797884375
30
0
0
VERTEX
8
0
10
105.271490625
20
48.865115625
30
0
0
VERTEX
8
0
10
105.2269625
20
48.928703125000006
30
0
0
VERTEX
8
0
10
105.1770625
20
48.988171875
30
0
0
VERTEX
8
0
10
105.122171875
20
49.043062500000005
30
0
0
VERTEX
8
0
10
105.062703125
20
49.092962500000006
30
0
0
VERTEX
8
0
10
104.999115625
20
49.137490625000005
30
0
0
VERTEX
8
0
10
104.93188437500001
20
49.176303125000004
30
0
0
VERTEX
8
0
10
104.861528125
20
49.2091125
30
0
0
VERTEX
8
0
10
104.78858125000001
20
49.235662500000004
30
0
0
VERTEX
8
0
10
104.71359687500001
20
49.255753125000005
30
0
0
VERTEX
8
0
10
104.637146875
20
49.269234375
30
0
0
VERTEX
8
0
10
104.559815625
20
49.276
30
0
0
VERTEX
8
0
10
104.482184375
20
49.276
30
0
0
SEQEND
0
POLYLINE
66
1
8
1_copper
10
0.0
20
0.0
30
0.0
70
1
0
VERTEX
8
0
10
105.41000000000001
20
11.176
30
0
0
VERTEX
8
0
10
103.632
20
11.176
30
0
0
VERTEX
8
0
10
103.632
20
9.398
30
0
0
VERTEX
8
0
10
105.41000000000001
20
9.398
30
0
0
SEQEND
0
POLYLINE
66
1
8
16_copper
10
0.0
20
0.0
30
0.0
70
1
0
VERTEX
8
0
10
105.41000000000001
20
11.176
30
0
0
VERTEX
8
0
10
103.632
20
11.176
30
0
0
VERTEX
8
0
10
103.632
20
9.398
30
0
0
VERTEX
8
0
10
105.41000000000001
20
9.398
30
0
0
SEQEND
0
POLYLINE
66
1
8
1_copper
10
0.0
20
0.0
30
0.0
70
1
0
VERTEX
8
0
10
122.427053125
20
50.618671875000004
30
0
42
0.18883090533686178
0
VERTEX
8
0
10
122.31640625
20
50.8733
30
0
0
VERTEX
8
0
10
118.1833
20
55.006406250000005
30
0
42
0.198912367379658
0
VERTEX
8
0
10
117.91389375
20
55.118
30
0
0
VERTEX
8
0
10
101.06647500000001
20
55.118
30
0
0
VERTEX
8
0
10
93.55806875
20
62.62640625
30
0
42
0.198912367379658
0
VERTEX
8
0
10
93.2886625
20
62.738
30
0
0
VERTEX
8
0
10
80.137
20
62.738
30
0
42
0.198912367379658
0
VERTEX
8
0
10
79.86759375
20
62.62640625
30
0
0
VERTEX
8
0
10
77.9471875
20
60.706
30
0
0
VERTEX
8
0
10
74.9720125
20
60.706
30
0
42
0.198912367379658
0
VERTEX
8
0
10
74.70260625
20
60.594406250000006
30
0
0
VERTEX
8
0
10
74.17920000000001
20
60.071000000000005
30
0
0
VERTEX
8
0
10
44.323
20
60.071000000000005
30
0
42
0.198912367379658
0
VERTEX
8
0
10
44.053593750000005
20
59.95940625
30
0
0
VERTEX
8
0
10
40.4821875
20
56.388000000000005
30
0
0
VERTEX
8
0
10
35.545675
20
56.388000000000005
30
0
42
0.198912367379658
0
VERTEX
8
0
10
35.27626875
20
56.27640625
30
0
0
VERTEX
8
0
10
32.791525
20
53.7916625
30
0
0
VERTEX
8
0
10
19.137150000000002
20
53.7916625
30
0
0
VERTEX
8
0
10
17.54140625
20
55.387406250000005
30
0
42
0.198912367379658
0
VERTEX
8
0
10
17.272000000000002
20
55.499
30
0
0
VERTEX
8
0
10
13.081000000000001
20
55.499
30
0
42
0.198912367379658
0
VERTEX
8
0
10
12.81159375
20
55.387406250000005
30
0
0
VERTEX
8
0
10
11.41459375
20
53.99040625
30
0
42
0.250600678677969
0
VERTEX
8
0
10
11.290125
20
53.642478125000004
30
0
0
VERTEX
8
0
10
11.239968750000001
20
53.601315625000005
30
0
42
0.19891291481786078
0
VERTEX
8
0
10
11.0236
20
53.14384375
30
0
0
VERTEX
8
0
10
11.0236
20
51.75815625
30
0
42
0.9520786018124834
0
VERTEX
8
0
10
12.3444
20
51.75815625
30
0
0
VERTEX
8
0
10
12.3444
20
53.14384375
30
0
42
0.20587638170195222
0
VERTEX
8
0
10
12.114353125000001
20
53.612540625
30
0
0
VERTEX
8
0
10
13.2388125
20
54.737
30
0
0
VERTEX
8
0
10
17.1141875
20
54.737
30
0
0
VERTEX
8
0
10
18.70993125
20
53.141256250000005
30
0
42
0.198912367379658
0
VERTEX
8
0
10
18.9793375
20
53.0296625
30
0
0
VERTEX
8
0
10
32.9493375
20
53.0296625
30
0
42
0.198912367379658
0
VERTEX
8
0
10
33.21874375
20
53.141256250000005
30
0
0
VERTEX
8
0
10
35.7034875
20
55.626000000000005
30
0
0
VERTEX
8
0
10
42.8951875
20
55.626000000000005
30
0
0
VERTEX
8
0
10
46.593593750000004
20
51.92759375
30
0
42
0.198912367379658
0
VERTEX
8
0
10
46.863
20
51.816
30
0
0
VERTEX
8
0
10
51.790600000000005
20
51.816
30
0
0
VERTEX
8
0
10
51.790600000000005
20
51.50415625
30
0
42
0.9520786018124834
0
VERTEX
8
0
10
53.1114
20
51.50415625
30
0
0
VERTEX
8
0
10
53.1114
20
52.889843750000004
30
0
42
0.9520786018124834
0
VERTEX
8
0
10
51.790600000000005
20
52.889843750000004
30
0
0
VERTEX
8
0
10
51.790600000000005
20
52.578
30
0
0
VERTEX
8
0
10
47.020812500000005
20
52.578
30
0
0
VERTEX
8
0
10
43.32240625
20
56.27640625
30
0
42
0.198912367379658
0
VERTEX
8
0
10
43.053000000000004
20
56.388000000000005
30
0
0
VERTEX
8
0
10
41.5598125
20
56.388000000000005
30
0
0
VERTEX
8
0
10
44.4808125
20
59.309000000000005
30
0
0
VERTEX
8
0
10
74.3370125
20
59.309000000000005
30
0
42
0.198912367379658
0
VERTEX
8
0
10
74.60641875
20
59.42059375
30
0
0
VERTEX
8
0
10
75.129825
20
59.944
30
0
0
VERTEX
8
0
10
78.105
20
59.944
30
0
42
0.198912367379658
0
VERTEX
8
0
10
78.37440625
20
60.05559375
30
0
0
VERTEX
8
0
10
80.2948125
20
61.976000000000006
30
0
0
VERTEX
8
0
10
93.13085000000001
20
61.976000000000006
30
0
0
VERTEX
8
0
10
100.63925625
20
54.467593750000006
30
0
42
0.198912367379658
0
VERTEX
8
0
10
100.9086625
20
54.356
30
0
0
VERTEX
8
0
10
117.75608125000001
20
54.356
30
0
0
VERTEX
8
0
10
121.66600000000001
20
50.44608125
30
0
0
VERTEX
8
0
10
121.66600000000001
20
39.6548125
30
0
0
VERTEX
8
0
10
120.61918750000001
20
38.608000000000004
30
0
0
VERTEX
8
0
10
119.76100000000001
20
38.608000000000004
30
0
42
0.966963462347794
0
VERTEX
8
0
10
119.735425
20
37.846859375
30
0
0
VERTEX
8
0
10
119.76100000000001
20
37.846000000000004
30
0
0
VERTEX
8
0
10
120.777
20
37.846000000000004
30
0
42
0.198912367379658
0
VERTEX
8
0
10
121.04640625
20
37.95759375
30
0
0
VERTEX
8
0
10
122.31640625
20
39.227593750000004
30
0
42
0.198912367379658
0
VERTEX
8
0
10
122.42800000000001
20
39.497
30
0
0
VERTEX
8
0
10
122.42800000000001
20
50.603893750000005
30
0
0
SEQEND
0
POLYLINE
66
1
8
1_copper
10
0.0
20
0.0
30
0.0
70
1
0
VERTEX
8
0
10
107.44105312500001
20
41.543778125
30
0
42
0.18883090533686178
0
VERTEX
8
0
10
107.33040625000001
20
41.79840625
30
0
0
VERTEX
8
0
10
105.55240625
20
43.576406250000005
30
0
42
0.198912367379658
0
VERTEX
8
0
10
105.283
20
43.688
30
0
0
VERTEX
8
0
10
104.26700000000001
20
43.688
30
0
42
0.198912367379658
0
VERTEX
8
0
10
103.99759375000001
20
43.576406250000005
30
0
0
VERTEX
8
0
10
101.33059375
20
40.90940625
30
0
42
0.198912367379658
0
VERTEX
8
0
10
101.21900000000001
20
40.64
30
0
0
VERTEX
8
0
10
101.21900000000001
20
38.455475
30
0
0
VERTEX
8
0
10
97.77459375000001
20
35.01106875
30
0
42
0.198912367379658
0
VERTEX
8
0
10
97.66300000000001
20
34.741662500000004
30
0
0
VERTEX
8
0
10
97.66300000000001
20
31.6538125
30
0
0
VERTEX
8
0
10
95.7271875
20
29.718
30
0
0
VERTEX
8
0
10
92.684475
20
29.718
30
0
0
VERTEX
8
0
10
89.2556
20
33.146875
30
0
0
VERTEX
8
0
10
89.2556
20
37.3634
30
0
42
0.198912367379658
0
VERTEX
8
0
10
89.14400625
20
37.63280625
30
0
0
VERTEX
8
0
10
88.6714
20
38.1054125
30
0
0
VERTEX
8
0
10
88.6714
20
38.919843750000005
30
0
42
0.9520786018124834
0
VERTEX
8
0
10
87.3506
20
38.919843750000005
30
0
0
VERTEX
8
0
10
87.3506
20
37.53415625
30
0
42
0.6625387761374
0
VERTEX
8
0
10
88.4936
20
37.115253125
30
0
0
VERTEX
8
0
10
88.4936
20
32.9890625
30
0
42
0.198912367379658
0
VERTEX
8
0
10
88.60519375
20
32.71965625
30
0
0
VERTEX
8
0
10
92.25725625
20
29.06759375
30
0
42
0.198912367379658
0
VERTEX
8
0
10
92.5266625
20
28.956000000000003
30
0
0
VERTEX
8
0
10
95.885
20
28.956000000000003
30
0
42
0.198912367379658
0
VERTEX
8
0
10
96.15440625000001
20
29.06759375
30
0
0
VERTEX
8
0
10
98.44040625000001
20
31.35359375
30
0
42
0.43014430751767396
0
VERTEX
8
0
10
98.42500000000001
20
31.906075
30
0
0
VERTEX
8
0
10
98.42500000000001
20
34.58385
30
0
0
VERTEX
8
0
10
101.86940625000001
20
38.02825625
30
0
42
0.198912367379658
0
VERTEX
8
0
10
101.98100000000001
20
38.2976625
30
0
0
VERTEX
8
0
10
101.98100000000001
20
40.4821875
30
0
0
VERTEX
8
0
10
104.4248125
20
42.926
30
0
0
VERTEX
8
0
10
105.12518750000001
20
42.926
30
0
0
VERTEX
8
0
10
106.68
20
41.371187500000005
30
0
0
VERTEX
8
0
10
106.68
20
6.2538125
30
0
0
VERTEX
8
0
10
105.88718750000001
20
5.461
30
0
0
VERTEX
8
0
10
100.4878125
20
5.461
30
0
0
VERTEX
8
0
10
95.84960625000001
20
10.09920625
30
0
42
0.198912367379658
0
VERTEX
8
0
10
95.5802
20
10.2108
30
0
0
VERTEX
8
0
10
73.3298
20
10.2108
30
0
42
0.198912367379658
0
VERTEX
8
0
10
73.06039375
20
10.09920625
30
0
0
VERTEX
8
0
10
67.2791875
20
4.3180000000000005
30
0
0
VERTEX
8
0
10
60.228812500000004
20
4.3180000000000005
30
0
0
VERTEX
8
0
10
55.529812500000006
20
9.017000000000001
30
0
0
VERTEX
8
0
10
65.278
20
9.017000000000001
30
0
42
0.198912367379658
0
VERTEX
8
0
10
65.54740625000001
20
9.12859375
30
0
0
VERTEX
8
0
10
67.96040625
20
11.54159375
30
0
42
0.198912367379658
0
VERTEX
8
0
10
68.072
20
11.811
30
0
0
VERTEX
8
0
10
68.072
20
12.896918750000001
30
0
42
0.230713938450642
0
VERTEX
8
0
10
68.3514
20
13.40415625
30
0
0
VERTEX
8
0
10
68.3514
20
14.789843750000001
30
0
42
0.9520786018124834
0
VERTEX
8
0
10
67.0306
20
14.789843750000001
30
0
0
VERTEX
8
0
10
67.0306
20
13.40415625
30
0
42
0.230713938450642
0
VERTEX
8
0
10
67.31
20
12.896918750000001
30
0
0
VERTEX
8
0
10
67.31
20
11.9688125
30
0
0
VERTEX
8
0
10
65.1201875
20
9.779
30
0
0
VERTEX
8
0
10
39.5278125
20
9.779
30
0
0
VERTEX
8
0
10
36.322
20
12.9848125
30
0
0
VERTEX
8
0
10
36.322
20
14.16691875
30
0
42
0.230713938450642
0
VERTEX
8
0
10
36.601400000000005
20
14.674156250000001
30
0
0
VERTEX
8
0
10
36.601400000000005
20
16.059843750000002
30
0
42
0.9520786018124834
0
VERTEX
8
0
10
35.2806
20
16.059843750000002
30
0
0
VERTEX
8
0
10
35.2806
20
14.674156250000001
30
0
42
0.230713938450642
0
VERTEX
8
0
10
35.56
20
14.16691875
30
0
0
VERTEX
8
0
10
35.56
20
12.827
30
0
42
0.198912367379658
0
VERTEX
8
0
10
35.67159375
20
12.55759375
30
0
0
VERTEX
8
0
10
39.10059375
20
9.12859375
30
0
42
0.198912367379658
0
VERTEX
8
0
10
39.370000000000005
20
9.017000000000001
30
0
0
VERTEX
8
0
10
54.4521875
20
9.017000000000001
30
0
0
VERTEX
8
0
10
59.80159375
20
3.66759375
30
0
42
0.198912367379658
0
VERTEX
8
0
10
60.071000000000005
20
3.556
30
0
0
VERTEX
8
0
10
67.437
20
3.556
30
0
42
0.198912367379658
0
VERTEX
8
0
10
67.70640625
20
3.66759375
30
0
0
VERTEX
8
0
10
73.4876125
20
9.4488
30
0
0
VERTEX
8
0
10
95.4223875
20
9.4488
30
0
0
VERTEX
8
0
10
100.06059375000001
20
4.810593750000001
30
0
42
0.198912367379658
0
VERTEX
8
0
10
100.33
20
4.699
30
0
0
VERTEX
8
0
10
106.045
20
4.699
30
0
42
0.198912367379658
0
VERTEX
8
0
10
106.31440625
20
4.810593750000001
30
0
0
VERTEX
8
0
10
107.33040625000001
20
5.826593750000001
30
0
42
0.198912367379658
0
VERTEX
8
0
10
107.44200000000001
20
6.096
30
0
0
VERTEX
8
0
10
107.44200000000001
20
41.529
30
0
0
SEQEND
0
POLYLINE
66
1
8
16_copper
10
0.0
20
0.0
30
0.0
70
1
0
VERTEX
8
0
10
11.781018750000001
20
51.136559375000004
30
0
42
0.3578051432831595
0
VERTEX
8
0
10
12.3444
20
51.75815625
30
0
0
VERTEX
8
0
10
12.3444
20
53.14384375
30
0
42
0.9520786018124834
0
VERTEX
8
0
10
11.0236
20
53.14384375
30
0
0
VERTEX
8
0
10
11.0236
20
51.75815625
30
0
0
VERTEX
8
0
10
11.029959375
20
51.69358125
30
0
0
VERTEX
8
0
10
11.04261875
20
51.62994375
30
0
0
VERTEX
8
0
10
11.061453125
20
51.56785
30
0
0
VERTEX
8
0
10
11.086284375
20
51.507903125000006
30
0
0
VERTEX
8
0
10
11.116871875000001
20
51.450678125
30
0
0
VERTEX
8
0
10
11.152921875
20
51.396725
30
0
0
VERTEX
8
0
10
11.194084375000001
20
51.34656875
30
0
0
VERTEX
8
0
10
11.239968750000001
20
51.300684375
30
0
0
VERTEX
8
0
10
11.290125
20
51.259521875000004
30
0
0
VERTEX
8
0
10
11.344078125000001
20
51.223471875
30
0
0
VERTEX
8
0
10
11.401303125
20
51.192884375000006
30
0
0
VERTEX
8
0
10
11.46125
20
51.168053125
30
0
0
VERTEX
8
0
10
11.52334375
20
51.14921875
30
0
0
VERTEX
8
0
10
11.586981250000001
20
51.136559375000004
30
0
0
VERTEX
8
0
10
11.65155625
20
51.1302
30
0
0
VERTEX
8
0
10
11.71644375
20
51.1302
30
0
0
SEQEND
0
POLYLINE
66
1
8
16_copper
10
0.0
20
0.0
30
0.0
70
1
0
VERTEX
8
0
10
52.548018750000004
20
50.882559375
30
0
42
0.3578051432831595
0
VERTEX
8
0
10
53.1114
20
51.50415625
30
0
0
VERTEX
8
0
10
53.1114
20
52.889843750000004
30
0
42
0.9520786018124834
0
VERTEX
8
0
10
51.790600000000005
20
52.889843750000004
30
0
0
VERTEX
8
0
10
51.790600000000005
20
51.50415625
30
0
0
VERTEX
8
0
10
51.796959375
20
51.43958125
30
0
0
VERTEX
8
0
10
51.809618750000006
20
51.375943750000005
30
0
0
VERTEX
8
0
10
51.828453125
20
51.31385
30
0
0
VERTEX
8
0
10
51.853284375
20
51.253903125
30
0
0
VERTEX
8
0
10
51.883871875000004
20
51.196678125000005
30
0
0
VERTEX
8
0
10
51.919921875
20
51.142725000000006
30
0
0
VERTEX
8
0
10
51.961084375000006
20
51.092568750000005
30
0
0
VERTEX
8
0
10
52.006968750000006
20
51.046684375000005
30
0
0
VERTEX
8
0
10
52.057125
20
51.005521875
30
0
0
VERTEX
8
0
10
52.111078125000006
20
50.969471875
30
0
0
VERTEX
8
0
10
52.168303125
20
50.938884375
30
0
0
VERTEX
8
0
10
52.22825
20
50.914053125
30
0
0
VERTEX
8
0
10
52.290343750000005
20
50.895218750000005
30
0
0
VERTEX
8
0
10
52.353981250000004
20
50.882559375
30
0
0
VERTEX
8
0
10
52.41855625
20
50.876200000000004
30
0
0
VERTEX
8
0
10
52.48344375
20
50.876200000000004
30
0
0
SEQEND
0
POLYLINE
66
1
8
16_copper
10
0.0
20
0.0
30
0.0
70
1
0
VERTEX
8
0
10
88.10801875
20
36.912559375
30
0
42
0.3578051432831595
0
VERTEX
8
0
10
88.6714
20
37.53415625
30
0
0
VERTEX
8
0
10
88.6714
20
38.919843750000005
30
0
42
0.9520786018124834
0
VERTEX
8
0
10
87.3506
20
38.919843750000005
30
0
0
VERTEX
8
0
10
87.3506
20
37.53415625
30
0
0
VERTEX
8
0
10
87.356959375
20
37.469581250000005
30
0
0
VERTEX
8
0
10
87.36961875
20
37.40594375
30
0
0
VERTEX
8
0
10
87.388453125
20
37.34385
30
0
0
VERTEX
8
0
10
87.413284375
20
37.283903125
30
0
0
VERTEX
8
0
10
87.443871875
20
37.226678125
30
0
0
VERTEX
8
0
10
87.479921875
20
37.172725
30
0
0
VERTEX
8
0
10
87.521084375
20
37.12256875
30
0
0
VERTEX
8
0
10
87.56696875
20
37.076684375
30
0
0
VERTEX
8
0
10
87.617125
20
37.035521875
30
0
0
VERTEX
8
0
10
87.67107812500001
20
36.999471875000005
30
0
0
VERTEX
8
0
10
87.72830312500001
20
36.968884375
30
0
0
VERTEX
8
0
10
87.78825
20
36.944053125
30
0
0
VERTEX
8
0
10
87.85034375000001
20
36.92521875
30
0
0
VERTEX
8
0
10
87.91398125
20
36.912559375
30
0
0
VERTEX
8
0
10
87.97855625000001
20
36.9062
30
0
0
VERTEX
8
0
10
88.04344375000001
20
36.9062
30
0
0
SEQEND
0
POLYLINE
66
1
8
16_copper
10
0.0
20
0.0
30
0.0
70
1
0
VERTEX
8
0
10
36.03801875
20
14.052559375000001
30
0
42
0.3578051432831595
0
VERTEX
8
0
10
36.601400000000005
20
14.674156250000001
30
0
0
VERTEX
8
0
10
36.601400000000005
20
16.059843750000002
30
0
42
0.9520786018124834
0
VERTEX
8
0
10
35.2806
20
16.059843750000002
30
0
0
VERTEX
8
0
10
35.2806
20
14.674156250000001
30
0
0
VERTEX
8
0
10
35.286959375
20
14.609581250000002
30
0
0
VERTEX
8
0
10
35.29961875
20
14.545943750000001
30
0
0
VERTEX
8
0
10
35.318453125000005
20
14.48385
30
0
0
VERTEX
8
0
10
35.343284375
20
14.423903125
30
0
0
VERTEX
8
0
10
35.373871875
20
14.366678125
30
0
0
VERTEX
8
0
10
35.409921875
20
14.312725
30
0
0
VERTEX
8
0
10
35.451084375
20
14.26256875
30
0
0
VERTEX
8
0
10
35.49696875
20
14.216684375
30
0
0
VERTEX
8
0
10
35.547125
20
14.175521875000001
30
0
0
VERTEX
8
0
10
35.601078125
20
14.139471875
30
0
0
VERTEX
8
0
10
35.658303125
20
14.108884375
30
0
0
VERTEX
8
0
10
35.718250000000005
20
14.084053125
30
0
0
VERTEX
8
0
10
35.78034375
20
14.065218750000001
30
0
0
VERTEX
8
0
10
35.84398125
20
14.052559375000001
30
0
0
VERTEX
8
0
10
35.908556250000004
20
14.0462
30
0
0
VERTEX
8
0
10
35.97344375
20
14.0462
30
0
0
SEQEND
0
POLYLINE
66
1
8
16_copper
10
0.0
20
0.0
30
0.0
70
1
0
VERTEX
8
0
10
67.78801875
20
12.782559375
30
0
42
0.3578051432831595
0
VERTEX
8
0
10
68.3514
20
13.40415625
30
0
0
VERTEX
8
0
10
68.3514
20
14.789843750000001
30
0
42
0.9520786018124834
0
VERTEX
8
0
10
67.0306
20
14.789843750000001
30
0
0
VERTEX
8
0
10
67.0306
20
13.40415625
30
0
0
VERTEX
8
0
10
67.03695937500001
20
13.33958125
30
0
0
VERTEX
8
0
10
67.04961875000001
20
13.275943750000001
30
0
0
VERTEX
8
0
10
67.068453125
20
13.21385
30
0
0
VERTEX
8
0
10
67.09328437500001
20
13.153903125000001
30
0
0
VERTEX
8
0
10
67.123871875
20
13.096678125
30
0
0
VERTEX
8
0
10
67.15992187500001
20
13.042725
30
0
0
VERTEX
8
0
10
67.20108437500001
20
12.99256875
30
0
0
VERTEX
8
0
10
67.24696875000001
20
12.946684375
30
0
0
VERTEX
8
0
10
67.29712500000001
20
12.905521875
30
0
0
VERTEX
8
0
10
67.351078125
20
12.869471875
30
0
0
VERTEX
8
0
10
67.408303125
20
12.838884375000001
30
0
0
VERTEX
8
0
10
67.46825
20
12.814053125000001
30
0
0
VERTEX
8
0
10
67.53034375
20
12.79521875
30
0
0
VERTEX
8
0
10
67.59398125
20
12.782559375
30
0
0
VERTEX
8
0
10
67.65855625
20
12.776200000000001
30
0
0
VERTEX
8
0
10
67.72344375
20
12.776200000000001
30
0
0
SEQEND
0
POLYLINE
66
1
8
1_copper
10
0.0
20
0.0
30
0.0
70
1
0
VERTEX
8
0
10
31.55539375
20
12.6492
30
0
42
0.198912367379658
0
VERTEX
8
0
10
31.8248
20
12.760793750000001
30
0
0
VERTEX
8
0
10
32.80680625
20
13.7428
30
0
42
0.198912367379658
0
VERTEX
8
0
10
32.9184
20
14.01220625
30
0
0
VERTEX
8
0
10
32.9184
20
14.255253125000001
30
0
42
0.6625387761374
0
VERTEX
8
0
10
34.0614
20
14.674156250000001
30
0
0
VERTEX
8
0
10
34.0614
20
16.059843750000002
30
0
42
0.9520786018124834
0
VERTEX
8
0
10
32.7406
20
16.059843750000002
30
0
0
VERTEX
8
0
10
32.7406
20
15.2454125
30
0
0
VERTEX
8
0
10
32.26799375
20
14.77280625
30
0
42
0.198912367379658
0
VERTEX
8
0
10
32.156400000000005
20
14.503400000000001
30
0
0
VERTEX
8
0
10
32.156400000000005
20
14.17001875
30
0
0
VERTEX
8
0
10
31.39758125
20
13.411200000000001
30
0
0
VERTEX
8
0
10
31.064200000000003
20
13.411200000000001
30
0
42
0.198912367379658
0
VERTEX
8
0
10
30.79479375
20
13.29960625
30
0
0
VERTEX
8
0
10
26.0041875
20
8.509
30
0
0
VERTEX
8
0
10
21.632393750000002
20
8.509
30
0
0
VERTEX
8
0
10
21.175193750000002
20
8.9662
30
0
0
VERTEX
8
0
10
20.48080625
20
8.9662
30
0
0
VERTEX
8
0
10
19.989800000000002
20
8.47519375
30
0
0
VERTEX
8
0
10
19.989800000000002
20
7.78080625
30
0
0
VERTEX
8
0
10
20.48080625
20
7.2898000000000005
30
0
0
VERTEX
8
0
10
21.175193750000002
20
7.2898000000000005
30
0
0
VERTEX
8
0
10
21.632393750000002
20
7.747000000000001
30
0
0
VERTEX
8
0
10
26.162000000000003
20
7.747000000000001
30
0
42
0.198912367379658
0
VERTEX
8
0
10
26.431406250000002
20
7.858593750000001
30
0
0
VERTEX
8
0
10
31.2220125
20
12.6492
30
0
0
SEQEND
0
POLYLINE
66
1
8
16_copper
10
0.0
20
0.0
30
0.0
70
1
0
VERTEX
8
0
10
33.49801875
20
14.052559375000001
30
0
42
0.3578051432831595
0
VERTEX
8
0
10
34.0614
20
14.674156250000001
30
0
0
VERTEX
8
0
10
34.0614
20
16.059843750000002
30
0
42
0.9520786018124834
0
VERTEX
8
0
10
32.7406
20
16.059843750000002
30
0
0
VERTEX
8
0
10
32.7406
20
14.674156250000001
30
0
0
VERTEX
8
0
10
32.746959375
20
14.609581250000002
30
0
0
VERTEX
8
0
10
32.75961875
20
14.545943750000001
30
0
0
VERTEX
8
0
10
32.778453125
20
14.48385
30
0
0
VERTEX
8
0
10
32.803284375000004
20
14.423903125
30
0
0
VERTEX
8
0
10
32.833871875
20
14.366678125
30
0
0
VERTEX
8
0
10
32.869921875
20
14.312725
30
0
0
VERTEX
8
0
10
32.911084375
20
14.26256875
30
0
0
VERTEX
8
0
10
32.95696875
20
14.216684375
30
0
0
VERTEX
8
0
10
33.007125
20
14.175521875000001
30
0
0
VERTEX
8
0
10
33.061078125
20
14.139471875
30
0
0
VERTEX
8
0
10
33.118303125000004
20
14.108884375
30
0
0
VERTEX
8
0
10
33.17825
20
14.084053125
30
0
0
VERTEX
8
0
10
33.24034375
20
14.065218750000001
30
0
0
VERTEX
8
0
10
33.30398125
20
14.052559375000001
30
0
0
VERTEX
8
0
10
33.368556250000005
20
14.0462
30
0
0
VERTEX
8
0
10
33.43344375
20
14.0462
30
0
0
SEQEND
0
POLYLINE
66
1
8
16_copper
10
0.0
20
0.0
30
0.0
70
1
0
VERTEX
8
0
10
21.6662
20
7.78080625
30
0
0
VERTEX
8
0
10
21.6662
20
8.47519375
30
0
0
VERTEX
8
0
10
21.175193750000002
20
8.9662
30
0
0
VERTEX
8
0
10
20.48080625
20
8.9662
30
0
0
VERTEX
8
0
10
19.989800000000002
20
8.47519375
30
0
0
VERTEX
8
0
10
19.989800000000002
20
7.78080625
30
0
0
VERTEX
8
0
10
20.48080625
20
7.2898000000000005
30
0
0
VERTEX
8
0
10
21.175193750000002
20
7.2898000000000005
30
0
0
SEQEND
0
POLYLINE
66
1
8
1_copper
10
0.0
20
0.0
30
0.0
70
1
0
VERTEX
8
0
10
76.07300000000001
20
24.988187500000002
30
0
0
VERTEX
8
0
10
76.07300000000001
20
22.7638125
30
0
0
VERTEX
8
0
10
74.31040625
20
24.52640625
30
0
42
0.9999999999999999
0
VERTEX
8
0
10
73.77159375000001
20
23.987593750000002
30
0
0
VERTEX
8
0
10
77.07359375
20
20.685593750000002
30
0
42
0.198912367379658
0
VERTEX
8
0
10
77.343
20
20.574
30
0
0
VERTEX
8
0
10
78.45518750000001
20
20.574
30
0
0
VERTEX
8
0
10
80.28200000000001
20
18.747187500000003
30
0
0
VERTEX
8
0
10
80.28200000000001
20
13.13716875
30
0
42
0.198912367379658
0
VERTEX
8
0
10
80.39359375000001
20
12.867762500000001
30
0
0
VERTEX
8
0
10
81.77476250000001
20
11.48659375
30
0
42
0.198912367379658
0
VERTEX
8
0
10
82.04416875
20
11.375
30
0
0
VERTEX
8
0
10
84.65400000000001
20
11.375
30
0
42
0.198912367379658
0
VERTEX
8
0
10
84.92340625
20
11.48659375
30
0
0
VERTEX
8
0
10
86.1368125
20
12.700000000000001
30
0
0
VERTEX
8
0
10
88.519
20
12.700000000000001
30
0
42
0.198912367379658
0
VERTEX
8
0
10
88.78840625000001
20
12.81159375
30
0
0
VERTEX
8
0
10
99.83740625
20
23.86059375
30
0
42
0.198912367379658
0
VERTEX
8
0
10
99.949
20
24.130000000000003
30
0
0
VERTEX
8
0
10
99.949
20
34.1321875
30
0
0
VERTEX
8
0
10
103.6628125
20
37.846000000000004
30
0
0
VERTEX
8
0
10
104.521
20
37.846000000000004
30
0
42
0.9999999999999999
0
VERTEX
8
0
10
104.521
20
38.608000000000004
30
0
0
VERTEX
8
0
10
103.50500000000001
20
38.608000000000004
30
0
42
0.198912367379658
0
VERTEX
8
0
10
103.23559375
20
38.49640625
30
0
0
VERTEX
8
0
10
99.29859375000001
20
34.55940625
30
0
42
0.198912367379658
0
VERTEX
8
0
10
99.18700000000001
20
34.29
30
0
0
VERTEX
8
0
10
99.18700000000001
20
28.321
30
0
0
VERTEX
8
0
10
92.1058125
20
28.321
30
0
0
VERTEX
8
0
10
86.566
20
33.8608125
30
0
0
VERTEX
8
0
10
86.566
20
44.084956250000005
30
0
0
VERTEX
8
0
10
87.55304375
20
45.072
30
0
0
VERTEX
8
0
10
90.84483125
20
45.072
30
0
42
0.198912367379658
0
VERTEX
8
0
10
91.1142375
20
45.18359375
30
0
0
VERTEX
8
0
10
93.16140625
20
47.230762500000004
30
0
42
0.198912367379658
0
VERTEX
8
0
10
93.27300000000001
20
47.50016875
30
0
0
VERTEX
8
0
10
93.27300000000001
20
49.27383125
30
0
42
0.198912367379658
0
VERTEX
8
0
10
93.16140625
20
49.543237500000004
30
0
0
VERTEX
8
0
10
91.6352375
20
51.06940625
30
0
42
0.198912367379658
0
VERTEX
8
0
10
91.36583125
20
51.181000000000004
30
0
0
VERTEX
8
0
10
88.34281250000001
20
51.181000000000004
30
0
0
VERTEX
8
0
10
85.86740625
20
53.65640625
30
0
42
0.198912367379658
0
VERTEX
8
0
10
85.598
20
53.768
30
0
0
VERTEX
8
0
10
83.1688125
20
53.768
30
0
0
VERTEX
8
0
10
82.042
20
54.8948125
30
0
0
VERTEX
8
0
10
82.042
20
56.007000000000005
30
0
42
0.41421356237309503
0
VERTEX
8
0
10
81.661
20
56.388000000000005
30
0
0
VERTEX
8
0
10
80.48624375
20
56.388000000000005
30
0
0
VERTEX
8
0
10
79.75483750000001
20
57.119406250000004
30
0
42
0.198912367379658
0
VERTEX
8
0
10
79.48543125
20
57.231
30
0
0
VERTEX
8
0
10
75.44833750000001
20
57.231
30
0
42
0.198912367379658
0
VERTEX
8
0
10
75.17893125
20
57.119406250000004
30
0
0
VERTEX
8
0
10
73.13659375
20
55.07706875
30
0
42
0.198912367379658
0
VERTEX
8
0
10
73.025
20
54.8076625
30
0
0
VERTEX
8
0
10
73.025
20
50.833768750000004
30
0
42
0.1672105332596532
0
VERTEX
8
0
10
73.10600000000001
20
50.59963125
30
0
0
VERTEX
8
0
10
73.10600000000001
20
48.4988125
30
0
0
VERTEX
8
0
10
72.1051875
20
47.498000000000005
30
0
0
VERTEX
8
0
10
70.3888125
20
47.498000000000005
30
0
0
VERTEX
8
0
10
69.342
20
48.5448125
30
0
0
VERTEX
8
0
10
69.342
20
53.467000000000006
30
0
42
0.198912367379658
0
VERTEX
8
0
10
69.23040625
20
53.73640625
30
0
0
VERTEX
8
0
10
68.08740625
20
54.87940625
30
0
42
0.198912367379658
0
VERTEX
8
0
10
67.818
20
54.991
30
0
0
VERTEX
8
0
10
65.60616875000001
20
54.991
30
0
42
0.198912367379658
0
VERTEX
8
0
10
65.3367625
20
54.87940625
30
0
0
VERTEX
8
0
10
62.976593750000006
20
52.5192375
30
0
42
0.198912367379658
0
VERTEX
8
0
10
62.865
20
52.24983125
30
0
0
VERTEX
8
0
10
62.865
20
48.417812500000004
30
0
0
VERTEX
8
0
10
60.6751875
20
46.228
30
0
0
VERTEX
8
0
10
59.7208125
20
46.228
30
0
0
VERTEX
8
0
10
61.69040625
20
48.19759375
30
0
42
0.9999999999999999
0
VERTEX
8
0
10
61.15159375
20
48.73640625
30
0
0
VERTEX
8
0
10
54.325187500000006
20
41.910000000000004
30
0
0
VERTEX
8
0
10
49.3068125
20
41.910000000000004
30
0
0
VERTEX
8
0
10
46.482
20
44.734812500000004
30
0
0
VERTEX
8
0
10
46.482
20
50.4896625
30
0
42
0.198912367379658
0
VERTEX
8
0
10
46.37040625
20
50.759068750000004
30
0
0
VERTEX
8
0
10
42.250068750000004
20
54.87940625
30
0
42
0.198912367379658
0
VERTEX
8
0
10
41.9806625
20
54.991
30
0
0
VERTEX
8
0
10
36.1243375
20
54.991
30
0
42
0.198912367379658
0
VERTEX
8
0
10
35.85493125
20
54.87940625
30
0
0
VERTEX
8
0
10
33.8597625
20
52.884237500000005
30
0
42
0.198912367379658
0
VERTEX
8
0
10
33.748168750000005
20
52.61483125
30
0
0
VERTEX
8
0
10
33.748168750000005
20
41.529
30
0
0
VERTEX
8
0
10
31.08116875
20
41.529
30
0
42
0.198912367379658
0
VERTEX
8
0
10
30.8117625
20
41.41740625
30
0
0
VERTEX
8
0
10
27.62135625
20
38.227000000000004
30
0
0
VERTEX
8
0
10
22.352
20
38.227000000000004
30
0
42
0.966963462347794
0
VERTEX
8
0
10
22.326425
20
37.465859375
30
0
0
VERTEX
8
0
10
22.352
20
37.465
30
0
0
VERTEX
8
0
10
27.77916875
20
37.465
30
0
42
0.198912367379658
0
VERTEX
8
0
10
28.048575
20
37.57659375
30
0
0
VERTEX
8
0
10
31.238981250000002
20
40.767
30
0
0
VERTEX
8
0
10
37.2411875
20
40.767
30
0
0
VERTEX
8
0
10
37.36959375
20
40.638593750000005
30
0
42
0.9999999999999999
0
VERTEX
8
0
10
37.90840625
20
41.177406250000004
30
0
0
VERTEX
8
0
10
37.668406250000004
20
41.41740625
30
0
42
0.198912367379658
0
VERTEX
8
0
10
37.399
20
41.529
30
0
0
VERTEX
8
0
10
34.51016875
20
41.529
30
0
0
VERTEX
8
0
10
34.51016875
20
52.45701875
30
0
0
VERTEX
8
0
10
36.28215
20
54.229
30
0
0
VERTEX
8
0
10
41.82285
20
54.229
30
0
0
VERTEX
8
0
10
45.72
20
50.33185
30
0
0
VERTEX
8
0
10
45.72
20
44.577000000000005
30
0
42
0.198912367379658
0
VERTEX
8
0
10
45.83159375
20
44.30759375
30
0
0
VERTEX
8
0
10
49.00659375
20
41.132593750000005
30
0
42
0.43014430751767396
0
VERTEX
8
0
10
49.559075
20
41.148
30
0
0
VERTEX
8
0
10
53.563187500000005
20
41.148
30
0
0
VERTEX
8
0
10
52.420187500000004
20
40.005
30
0
0
VERTEX
8
0
10
49.403000000000006
20
40.005
30
0
42
0.966963462347794
0
VERTEX
8
0
10
49.377425
20
39.243859375
30
0
0
VERTEX
8
0
10
49.403000000000006
20
39.243
30
0
0
VERTEX
8
0
10
52.578
20
39.243
30
0
42
0.198912367379658
0
VERTEX
8
0
10
52.847406250000006
20
39.35459375
30
0
0
VERTEX
8
0
10
58.9588125
20
45.466
30
0
0
VERTEX
8
0
10
60.833000000000006
20
45.466
30
0
42
0.198912367379658
0
VERTEX
8
0
10
61.10240625
20
45.577593750000005
30
0
0
VERTEX
8
0
10
63.515406250000005
20
47.99059375
30
0
42
0.198912367379658
0
VERTEX
8
0
10
63.627
20
48.260000000000005
30
0
0
VERTEX
8
0
10
63.627
20
52.09201875
30
0
0
VERTEX
8
0
10
65.76398125
20
54.229
30
0
0
VERTEX
8
0
10
67.6601875
20
54.229
30
0
0
VERTEX
8
0
10
68.58
20
53.3091875
30
0
0
VERTEX
8
0
10
68.58
20
48.387
30
0
42
0.198912367379658
0
VERTEX
8
0
10
68.69159375000001
20
48.117593750000005
30
0
0
VERTEX
8
0
10
69.96159375
20
46.84759375
30
0
42
0.198912367379658
0
VERTEX
8
0
10
70.23100000000001
20
46.736000000000004
30
0
0
VERTEX
8
0
10
72.263
20
46.736000000000004
30
0
42
0.198912367379658
0
VERTEX
8
0
10
72.53240625000001
20
46.84759375
30
0
0
VERTEX
8
0
10
73.75640625
20
48.071593750000005
30
0
42
0.198912367379658
0
VERTEX
8
0
10
73.86800000000001
20
48.341
30
0
0
VERTEX
8
0
10
73.86800000000001
20
50.75276875
30
0
42
0.1672105332596532
0
VERTEX
8
0
10
73.787
20
50.986906250000004
30
0
0
VERTEX
8
0
10
73.787
20
54.64985
30
0
0
VERTEX
8
0
10
75.60615
20
56.469
30
0
0
VERTEX
8
0
10
79.32761875
20
56.469
30
0
0
VERTEX
8
0
10
80.059025
20
55.73759375
30
0
42
0.198912367379658
0
VERTEX
8
0
10
80.32843125000001
20
55.626000000000005
30
0
0
VERTEX
8
0
10
81.28
20
55.626000000000005
30
0
0
VERTEX
8
0
10
81.28
20
54.737
30
0
42
0.198912367379658
0
VERTEX
8
0
10
81.39159375
20
54.467593750000006
30
0
0
VERTEX
8
0
10
82.74159375
20
53.117593750000005
30
0
42
0.198912367379658
0
VERTEX
8
0
10
83.01100000000001
20
53.006
30
0
0
VERTEX
8
0
10
85.44018750000001
20
53.006
30
0
0
VERTEX
8
0
10
87.7826375
20
50.66355
30
0
42
0.030329168709236673
0
VERTEX
8
0
10
87.80315312500001
20
50.618984375000004
30
0
0
VERTEX
8
0
10
87.80593125
20
50.613206250000005
30
0
42
0.2709518668865573
0
VERTEX
8
0
10
88.138
20
50.419000000000004
30
0
0
VERTEX
8
0
10
91.20801875000001
20
50.419000000000004
30
0
0
VERTEX
8
0
10
92.51100000000001
20
49.11601875
30
0
0
VERTEX
8
0
10
92.51100000000001
20
47.65798125
30
0
0
VERTEX
8
0
10
90.68701875000001
20
45.834
30
0
0
VERTEX
8
0
10
87.39523125000001
20
45.834
30
0
42
0.198912367379658
0
VERTEX
8
0
10
87.125825
20
45.72240625
30
0
0
VERTEX
8
0
10
85.91559375
20
44.512175
30
0
42
0.198912367379658
0
VERTEX
8
0
10
85.804
20
44.24276875
30
0
0
VERTEX
8
0
10
85.804
20
33.703
30
0
42
0.198912367379658
0
VERTEX
8
0
10
85.91559375
20
33.43359375
30
0
0
VERTEX
8
0
10
91.67859375
20
27.670593750000002
30
0
42
0.198912367379658
0
VERTEX
8
0
10
91.94800000000001
20
27.559
30
0
0
VERTEX
8
0
10
99.18700000000001
20
27.559
30
0
0
VERTEX
8
0
10
99.18700000000001
20
24.2878125
30
0
0
VERTEX
8
0
10
88.3611875
20
13.462000000000002
30
0
0
VERTEX
8
0
10
86.8988125
20
13.462000000000002
30
0
0
VERTEX
8
0
10
88.20040625
20
14.76359375
30
0
42
0.198912367379658
0
VERTEX
8
0
10
88.312
20
15.033000000000001
30
0
0
VERTEX
8
0
10
88.312
20
16.397000000000002
30
0
42
0.9999999999999999
0
VERTEX
8
0
10
87.55
20
16.397000000000002
30
0
0
VERTEX
8
0
10
87.55
20
15.190812500000002
30
0
0
VERTEX
8
0
10
84.4961875
20
12.137
30
0
0
VERTEX
8
0
10
82.20198125
20
12.137
30
0
0
VERTEX
8
0
10
81.044
20
13.294981250000001
30
0
0
VERTEX
8
0
10
81.044
20
18.905
30
0
42
0.198912367379658
0
VERTEX
8
0
10
80.93240625
20
19.17440625
30
0
0
VERTEX
8
0
10
78.88240625
20
21.22440625
30
0
42
0.198912367379658
0
VERTEX
8
0
10
78.613
20
21.336000000000002
30
0
0
VERTEX
8
0
10
77.50081250000001
20
21.336000000000002
30
0
0
VERTEX
8
0
10
76.83500000000001
20
22.0018125
30
0
0
VERTEX
8
0
10
76.83500000000001
20
25.146
30
0
42
0.198912367379658
0
VERTEX
8
0
10
76.72340625000001
20
25.41540625
30
0
0
VERTEX
8
0
10
73.80240625
20
28.336406250000003
30
0
42
0.198912367379658
0
VERTEX
8
0
10
73.533
20
28.448
30
0
0
VERTEX
8
0
10
62.611000000000004
20
28.448
30
0
42
0.198912367379658
0
VERTEX
8
0
10
62.34159375
20
28.336406250000003
30
0
0
VERTEX
8
0
10
59.80159375
20
25.79640625
30
0
42
0.198912367379658
0
VERTEX
8
0
10
59.690000000000005
20
25.527
30
0
0
VERTEX
8
0
10
59.690000000000005
20
18.064812500000002
30
0
0
VERTEX
8
0
10
55.437593750000005
20
13.81240625
30
0
42
0.15712585890260544
0
VERTEX
8
0
10
55.331346875
20
13.604390625
30
0
0
VERTEX
8
0
10
52.90295625
20
11.176
30
0
0
VERTEX
8
0
10
40.670812500000004
20
11.176
30
0
0
VERTEX
8
0
10
38.862
20
12.9848125
30
0
0
VERTEX
8
0
10
38.862
20
20.543187500000002
30
0
0
VERTEX
8
0
10
39.5278125
20
21.209
30
0
0
VERTEX
8
0
10
40.734
20
21.209
30
0
42
0.198912367379658
0
VERTEX
8
0
10
41.003406250000005
20
21.32059375
30
0
0
VERTEX
8
0
10
43.91040625
20
24.22759375
30
0
42
0.9999999999999999
0
VERTEX
8
0
10
43.37159375
20
24.766406250000003
30
0
0
VERTEX
8
0
10
40.5761875
20
21.971
30
0
0
VERTEX
8
0
10
33.274
20
21.971
30
0
42
0.198912367379658
0
VERTEX
8
0
10
33.004593750000005
20
21.859406250000003
30
0
0
VERTEX
8
0
10
26.781593750000003
20
15.63640625
30
0
42
0.9999999999999999
0
VERTEX
8
0
10
27.32040625
20
15.097593750000001
30
0
0
VERTEX
8
0
10
33.4318125
20
21.209
30
0
0
VERTEX
8
0
10
38.4501875
20
21.209
30
0
0
VERTEX
8
0
10
38.21159375
20
20.97040625
30
0
42
0.198912367379658
0
VERTEX
8
0
10
38.1
20
20.701
30
0
0
VERTEX
8
0
10
38.1
20
12.827
30
0
42
0.198912367379658
0
VERTEX
8
0
10
38.21159375
20
12.55759375
30
0
0
VERTEX
8
0
10
40.24359375
20
10.52559375
30
0
42
0.198912367379658
0
VERTEX
8
0
10
40.513000000000005
20
10.414
30
0
0
VERTEX
8
0
10
53.06076875
20
10.414
30
0
42
0.198912367379658
0
VERTEX
8
0
10
53.330175000000004
20
10.52559375
30
0
0
VERTEX
8
0
10
55.976406250000004
20
13.171825
30
0
42
0.15712585890260544
0
VERTEX
8
0
10
56.082653125
20
13.379840625
30
0
0
VERTEX
8
0
10
60.34040625
20
17.63759375
30
0
42
0.198912367379658
0
VERTEX
8
0
10
60.452000000000005
20
17.907
30
0
0
VERTEX
8
0
10
60.452000000000005
20
25.369187500000002
30
0
0
VERTEX
8
0
10
62.7688125
20
27.686
30
0
0
VERTEX
8
0
10
73.37518750000001
20
27.686
30
0
0
SEQEND
0
POLYLINE
66
1
8
1_copper
10
0.0
20
0.0
30
0.0
70
1
0
VERTEX
8
0
10
53.37159375
20
24.22759375
30
0
42
0.9999999999999999
0
VERTEX
8
0
10
53.91040625
20
24.766406250000003
30
0
0
VERTEX
8
0
10
53.55140625
20
25.12540625
30
0
42
0.198912367379658
0
VERTEX
8
0
10
53.282000000000004
20
25.237000000000002
30
0
0
VERTEX
8
0
10
47.911981250000004
20
25.237000000000002
30
0
0
VERTEX
8
0
10
46.316575
20
26.832406250000002
30
0
42
0.198912367379658
0
VERTEX
8
0
10
46.047168750000004
20
26.944000000000003
30
0
0
VERTEX
8
0
10
42.78523125
20
26.944000000000003
30
0
42
0.198912367379658
0
VERTEX
8
0
10
42.515825
20
26.832406250000002
30
0
0
VERTEX
8
0
10
41.59141875
20
25.908
30
0
0
VERTEX
8
0
10
27.051000000000002
20
25.908
30
0
42
0.966963462347794
0
VERTEX
8
0
10
27.025425000000002
20
25.146859375000002
30
0
0
VERTEX
8
0
10
27.051000000000002
20
25.146
30
0
0
VERTEX
8
0
10
33.48934375
20
25.146
30
0
0
VERTEX
8
0
10
24.80039375
20
16.457050000000002
30
0
42
0.198912367379658
0
VERTEX
8
0
10
24.6888
20
16.18764375
30
0
0
VERTEX
8
0
10
24.6888
20
14.3002
30
0
42
0.198912367379658
0
VERTEX
8
0
10
24.80039375
20
14.03079375
30
0
0
VERTEX
8
0
10
26.400593750000002
20
12.43059375
30
0
42
0.198912367379658
0
VERTEX
8
0
10
26.67
20
12.319
30
0
0
VERTEX
8
0
10
28.194000000000003
20
12.319
30
0
42
0.198912367379658
0
VERTEX
8
0
10
28.463406250000002
20
12.43059375
30
0
0
VERTEX
8
0
10
30.336959375000003
20
14.304146875
30
0
42
0.6980242320579779
0
VERTEX
8
0
10
31.5214
20
14.674156250000001
30
0
0
VERTEX
8
0
10
31.5214
20
16.059843750000002
30
0
42
0.9520786018124834
0
VERTEX
8
0
10
30.2006
20
16.059843750000002
30
0
0
VERTEX
8
0
10
30.2006
20
15.2454125
30
0
0
VERTEX
8
0
10
28.0361875
20
13.081000000000001
30
0
0
VERTEX
8
0
10
26.8278125
20
13.081000000000001
30
0
0
VERTEX
8
0
10
25.4508
20
14.4580125
30
0
0
VERTEX
8
0
10
25.4508
20
16.02983125
30
0
0
VERTEX
8
0
10
34.55940625
20
25.138437500000002
30
0
0
VERTEX
8
0
10
34.566059375
20
25.146
30
0
0
VERTEX
8
0
10
41.74923125
20
25.146
30
0
42
0.198912367379658
0
VERTEX
8
0
10
42.018637500000004
20
25.25759375
30
0
0
VERTEX
8
0
10
42.94304375
20
26.182000000000002
30
0
0
VERTEX
8
0
10
45.88935625
20
26.182000000000002
30
0
0
VERTEX
8
0
10
47.4847625
20
24.586593750000002
30
0
42
0.198912367379658
0
VERTEX
8
0
10
47.754168750000005
20
24.475
30
0
0
VERTEX
8
0
10
53.124187500000005
20
24.475
30
0
0
SEQEND
0
POLYLINE
66
1
8
16_copper
10
0.0
20
0.0
30
0.0
70
1
0
VERTEX
8
0
10
30.95801875
20
14.052559375000001
30
0
42
0.3578051432831595
0
VERTEX
8
0
10
31.5214
20
14.674156250000001
30
0
0
VERTEX
8
0
10
31.5214
20
16.059843750000002
30
0
42
0.9520786018124834
0
VERTEX
8
0
10
30.2006
20
16.059843750000002
30
0
0
VERTEX
8
0
10
30.2006
20
14.674156250000001
30
0
0
VERTEX
8
0
10
30.206959375
20
14.609581250000002
30
0
0
VERTEX
8
0
10
30.219618750000002
20
14.545943750000001
30
0
0
VERTEX
8
0
10
30.238453125000003
20
14.48385
30
0
0
VERTEX
8
0
10
30.263284375
20
14.423903125
30
0
0
VERTEX
8
0
10
30.293871875
20
14.366678125
30
0
0
VERTEX
8
0
10
30.329921875
20
14.312725
30
0
0
VERTEX
8
0
10
30.371084375000002
20
14.26256875
30
0
0
VERTEX
8
0
10
30.416968750000002
20
14.216684375
30
0
0
VERTEX
8
0
10
30.467125000000003
20
14.175521875000001
30
0
0
VERTEX
8
0
10
30.521078125000003
20
14.139471875
30
0
0
VERTEX
8
0
10
30.578303125
20
14.108884375
30
0
0
VERTEX
8
0
10
30.638250000000003
20
14.084053125
30
0
0
VERTEX
8
0
10
30.700343750000002
20
14.065218750000001
30
0
0
VERTEX
8
0
10
30.76398125
20
14.052559375000001
30
0
0
VERTEX
8
0
10
30.828556250000002
20
14.0462
30
0
0
VERTEX
8
0
10
30.893443750000003
20
14.0462
30
0
0
SEQEND
0
POLYLINE
66
1
8
1_copper
10
0.0
20
0.0
30
0.0
70
1
0
VERTEX
8
0
10
69.08824375
20
13.491721875000001
30
0
42
0.18886222861965715
0
VERTEX
8
0
10
68.9864
20
13.233400000000001
30
0
0
VERTEX
8
0
10
68.9864
20
11.669550000000001
30
0
0
VERTEX
8
0
10
67.04059375
20
9.72374375
30
0
42
0.198912367379658
0
VERTEX
8
0
10
66.929
20
9.454337500000001
30
0
0
VERTEX
8
0
10
66.929
20
7.7778125000000005
30
0
0
VERTEX
8
0
10
66.1361875
20
6.985
30
0
0
VERTEX
8
0
10
64.30439375
20
6.985
30
0
0
VERTEX
8
0
10
63.84719375
20
7.442200000000001
30
0
0
VERTEX
8
0
10
63.152806250000005
20
7.442200000000001
30
0
0
VERTEX
8
0
10
62.6618
20
6.951193750000001
30
0
0
VERTEX
8
0
10
62.6618
20
6.25680625
30
0
0
VERTEX
8
0
10
63.152806250000005
20
5.7658000000000005
30
0
0
VERTEX
8
0
10
63.84719375
20
5.7658000000000005
30
0
0
VERTEX
8
0
10
64.30439375
20
6.223
30
0
0
VERTEX
8
0
10
66.294
20
6.223
30
0
42
0.198912367379658
0
VERTEX
8
0
10
66.56340625
20
6.334593750000001
30
0
0
VERTEX
8
0
10
67.57940625
20
7.350593750000001
30
0
42
0.198912367379658
0
VERTEX
8
0
10
67.691
20
7.62
30
0
0
VERTEX
8
0
10
67.691
20
9.296525
30
0
0
VERTEX
8
0
10
69.63680625
20
11.242331250000001
30
0
42
0.198912367379658
0
VERTEX
8
0
10
69.7484
20
11.5117375
30
0
0
VERTEX
8
0
10
69.7484
20
12.985253125
30
0
42
0.6625387761374
0
VERTEX
8
0
10
70.8914
20
13.40415625
30
0
0
VERTEX
8
0
10
70.8914
20
14.789843750000001
30
0
42
0.9520786018124834
0
VERTEX
8
0
10
69.5706
20
14.789843750000001
30
0
0
VERTEX
8
0
10
69.5706
20
13.975412500000001
30
0
0
VERTEX
8
0
10
69.09799375
20
13.50280625
30
0
0
SEQEND
0
POLYLINE
66
1
8
16_copper
10
0.0
20
0.0
30
0.0
70
1
0
VERTEX
8
0
10
70.32801875
20
12.782559375
30
0
42
0.3578051432831595
0
VERTEX
8
0
10
70.8914
20
13.40415625
30
0
0
VERTEX
8
0
10
70.8914
20
14.789843750000001
30
0
42
0.9520786018124834
0
VERTEX
8
0
10
69.5706
20
14.789843750000001
30
0
0
VERTEX
8
0
10
69.5706
20
13.40415625
30
0
0
VERTEX
8
0
10
69.576959375
20
13.33958125
30
0
0
VERTEX
8
0
10
69.58961875
20
13.275943750000001
30
0
0
VERTEX
8
0
10
69.608453125
20
13.21385
30
0
0
VERTEX
8
0
10
69.633284375
20
13.153903125000001
30
0
0
VERTEX
8
0
10
69.663871875
20
13.096678125
30
0
0
VERTEX
8
0
10
69.699921875
20
13.042725
30
0
0
VERTEX
8
0
10
69.741084375
20
12.99256875
30
0
0
VERTEX
8
0
10
69.78696875
20
12.946684375
30
0
0
VERTEX
8
0
10
69.837125
20
12.905521875
30
0
0
VERTEX
8
0
10
69.891078125
20
12.869471875
30
0
0
VERTEX
8
0
10
69.94830312500001
20
12.838884375000001
30
0
0
VERTEX
8
0
10
70.00825
20
12.814053125000001
30
0
0
VERTEX
8
0
10
70.07034375
20
12.79521875
30
0
0
VERTEX
8
0
10
70.13398125
20
12.782559375
30
0
0
VERTEX
8
0
10
70.19855625000001
20
12.776200000000001
30
0
0
VERTEX
8
0
10
70.26344375000001
20
12.776200000000001
30
0
0
SEQEND
0
POLYLINE
66
1
8
16_copper
10
0.0
20
0.0
30
0.0
70
1
0
VERTEX
8
0
10
64.3382
20
6.25680625
30
0
0
VERTEX
8
0
10
64.3382
20
6.951193750000001
30
0
0
VERTEX
8
0
10
63.84719375
20
7.442200000000001
30
0
0
VERTEX
8
0
10
63.152806250000005
20
7.442200000000001
30
0
0
VERTEX
8
0
10
62.6618
20
6.951193750000001
30
0
0
VERTEX
8
0
10
62.6618
20
6.25680625
30
0
0
VERTEX
8
0
10
63.152806250000005
20
5.7658000000000005
30
0
0
VERTEX
8
0
10
63.84719375
20
5.7658000000000005
30
0
0
SEQEND
0
POLYLINE
66
1
8
1_copper
10
0.0
20
0.0
30
0.0
70
1
0
VERTEX
8
0
10
20.334778125
20
23.749946875000003
30
0
42
0.18883090533686178
0
VERTEX
8
0
10
20.58940625
20
23.86059375
30
0
0
VERTEX
8
0
10
25.811812500000002
20
29.083000000000002
30
0
0
VERTEX
8
0
10
45.974000000000004
20
29.083000000000002
30
0
42
0.198912367379658
0
VERTEX
8
0
10
46.24340625
20
29.194593750000003
30
0
0
VERTEX
8
0
10
48.798812500000004
20
31.75
30
0
0
VERTEX
8
0
10
82.2391875
20
31.75
30
0
0
VERTEX
8
0
10
87.66159375000001
20
26.327593750000002
30
0
42
0.9999999999999999
0
VERTEX
8
0
10
88.20040625
20
26.86640625
30
0
0
VERTEX
8
0
10
82.66640625000001
20
32.40040625
30
0
42
0.198912367379658
0
VERTEX
8
0
10
82.397
20
32.512
30
0
0
VERTEX
8
0
10
48.641000000000005
20
32.512
30
0
42
0.198912367379658
0
VERTEX
8
0
10
48.37159375
20
32.40040625
30
0
0
VERTEX
8
0
10
45.816187500000005
20
29.845000000000002
30
0
0
VERTEX
8
0
10
25.654
20
29.845000000000002
30
0
42
0.198912367379658
0
VERTEX
8
0
10
25.38459375
20
29.73340625
30
0
0
VERTEX
8
0
10
20.1621875
20
24.511000000000003
30
0
0
VERTEX
8
0
10
9.5558125
20
24.511000000000003
30
0
0
VERTEX
8
0
10
8.27040625
20
25.79640625
30
0
42
0.9999999999999999
0
VERTEX
8
0
10
7.73159375
20
25.25759375
30
0
0
VERTEX
8
0
10
9.12859375
20
23.86059375
30
0
42
0.198912367379658
0
VERTEX
8
0
10
9.398
20
23.749000000000002
30
0
0
VERTEX
8
0
10
20.32
20
23.749000000000002
30
0
0
SEQEND
0
POLYLINE
66
1
8
1_copper
10
0.0
20
0.0
30
0.0
70
1
0
VERTEX
8
0
10
66.162678125
20
16.35784375
30
0
42
0.18886222861965715
0
VERTEX
8
0
10
66.421
20
16.256
30
0
0
VERTEX
8
0
10
71.3431875
20
16.256
30
0
0
VERTEX
8
0
10
72.340646875
20
15.258540625
30
0
42
0.20587638170195222
0
VERTEX
8
0
10
72.1106
20
14.789843750000001
30
0
0
VERTEX
8
0
10
72.1106
20
13.40415625
30
0
42
0.9520786018124834
0
VERTEX
8
0
10
73.4314
20
13.40415625
30
0
0
VERTEX
8
0
10
73.4314
20
14.789843750000001
30
0
42
0.19891291481786078
0
VERTEX
8
0
10
73.21503125000001
20
15.247315625
30
0
0
VERTEX
8
0
10
73.16487500000001
20
15.288478125000001
30
0
42
0.250600678677969
0
VERTEX
8
0
10
73.04040625
20
15.63640625
30
0
0
VERTEX
8
0
10
71.77040625000001
20
16.90640625
30
0
42
0.198912367379658
0
VERTEX
8
0
10
71.501
20
17.018
30
0
0
VERTEX
8
0
10
66.5788125
20
17.018
30
0
0
VERTEX
8
0
10
65.4358125
20
18.161
30
0
0
VERTEX
8
0
10
75.62818750000001
20
18.161
30
0
0
VERTEX
8
0
10
77.66159375000001
20
16.12759375
30
0
42
0.9999999999999999
0
VERTEX
8
0
10
78.20040625
20
16.66640625
30
0
0
VERTEX
8
0
10
76.05540625
20
18.81140625
30
0
42
0.198912367379658
0
VERTEX
8
0
10
75.786
20
18.923000000000002
30
0
0
VERTEX
8
0
10
64.6738125
20
18.923000000000002
30
0
0
VERTEX
8
0
10
64.262
20
19.3348125
30
0
0
VERTEX
8
0
10
64.262
20
24.257
30
0
42
0.9999999999999999
0
VERTEX
8
0
10
63.5
20
24.257
30
0
0
VERTEX
8
0
10
63.5
20
19.177
30
0
42
0.198912367379658
0
VERTEX
8
0
10
63.611593750000004
20
18.90759375
30
0
0
VERTEX
8
0
10
66.15159375
20
16.36759375
30
0
0
SEQEND
0
POLYLINE
66
1
8
16_copper
10
0.0
20
0.0
30
0.0
70
1
0
VERTEX
8
0
10
72.86801875
20
12.782559375
30
0
42
0.3578051432831595
0
VERTEX
8
0
10
73.4314
20
13.40415625
30
0
0
VERTEX
8
0
10
73.4314
20
14.789843750000001
30
0
42
0.9520786018124834
0
VERTEX
8
0
10
72.1106
20
14.789843750000001
30
0
0
VERTEX
8
0
10
72.1106
20
13.40415625
30
0
0
VERTEX
8
0
10
72.11695937500001
20
13.33958125
30
0
0
VERTEX
8
0
10
72.12961875
20
13.275943750000001
30
0
0
VERTEX
8
0
10
72.148453125
20
13.21385
30
0
0
VERTEX
8
0
10
72.17328437500001
20
13.153903125000001
30
0
0
VERTEX
8
0
10
72.203871875
20
13.096678125
30
0
0
VERTEX
8
0
10
72.23992187500001
20
13.042725
30
0
0
VERTEX
8
0
10
72.281084375
20
12.99256875
30
0
0
VERTEX
8
0
10
72.32696875
20
12.946684375
30
0
0
VERTEX
8
0
10
72.377125
20
12.905521875
30
0
0
VERTEX
8
0
10
72.431078125
20
12.869471875
30
0
0
VERTEX
8
0
10
72.488303125
20
12.838884375000001
30
0
0
VERTEX
8
0
10
72.54825000000001
20
12.814053125000001
30
0
0
VERTEX
8
0
10
72.61034375
20
12.79521875
30
0
0
VERTEX
8
0
10
72.67398125
20
12.782559375
30
0
0
VERTEX
8
0
10
72.73855625
20
12.776200000000001
30
0
0
VERTEX
8
0
10
72.80344375
20
12.776200000000001
30
0
0
SEQEND
0
POLYLINE
66
1
8
1_copper
10
0.0
20
0.0
30
0.0
70
1
0
VERTEX
8
0
10
25.023321875
20
50.063156250000006
30
0
42
0.18886222861965715
0
VERTEX
8
0
10
24.765
20
50.165
30
0
0
VERTEX
8
0
10
19.5888125
20
50.165
30
0
0
VERTEX
8
0
10
17.424400000000002
20
52.329412500000004
30
0
0
VERTEX
8
0
10
17.424400000000002
20
53.14384375
30
0
42
0.9520786018124834
0
VERTEX
8
0
10
16.1036
20
53.14384375
30
0
0
VERTEX
8
0
10
16.1036
20
51.75815625
30
0
42
0.6980242320579779
0
VERTEX
8
0
10
17.288040625
20
51.388146875000004
30
0
0
VERTEX
8
0
10
19.16159375
20
49.51459375
30
0
42
0.198912367379658
0
VERTEX
8
0
10
19.431
20
49.403000000000006
30
0
0
VERTEX
8
0
10
24.607187500000002
20
49.403000000000006
30
0
0
VERTEX
8
0
10
25.6231875
20
48.387
30
0
0
VERTEX
8
0
10
22.352
20
48.387
30
0
42
0.966963462347794
0
VERTEX
8
0
10
22.326425
20
47.625859375000005
30
0
0
VERTEX
8
0
10
22.352
20
47.625
30
0
0
VERTEX
8
0
10
26.3851875
20
47.625
30
0
0
VERTEX
8
0
10
27.258000000000003
20
46.752187500000005
30
0
0
VERTEX
8
0
10
27.258000000000003
20
40.908
30
0
42
0.966963462347794
0
VERTEX
8
0
10
28.019140625000002
20
40.882425000000005
30
0
0
VERTEX
8
0
10
28.02
20
40.908
30
0
0
VERTEX
8
0
10
28.02
20
46.910000000000004
30
0
42
0.198912367379658
0
VERTEX
8
0
10
27.908406250000002
20
47.17940625
30
0
0
VERTEX
8
0
10
25.03440625
20
50.05340625
30
0
0
SEQEND
0
POLYLINE
66
1
8
16_copper
10
0.0
20
0.0
30
0.0
70
1
0
VERTEX
8
0
10
16.86101875
20
51.136559375000004
30
0
42
0.3578051432831595
0
VERTEX
8
0
10
17.424400000000002
20
51.75815625
30
0
0
VERTEX
8
0
10
17.424400000000002
20
53.14384375
30
0
42
0.9520786018124834
0
VERTEX
8
0
10
16.1036
20
53.14384375
30
0
0
VERTEX
8
0
10
16.1036
20
51.75815625
30
0
0
VERTEX
8
0
10
16.109959375000003
20
51.69358125
30
0
0
VERTEX
8
0
10
16.12261875
20
51.62994375
30
0
0
VERTEX
8
0
10
16.141453125
20
51.56785
30
0
0
VERTEX
8
0
10
16.166284375
20
51.507903125000006
30
0
0
VERTEX
8
0
10
16.196871875
20
51.450678125
30
0
0
VERTEX
8
0
10
16.232921875000002
20
51.396725
30
0
0
VERTEX
8
0
10
16.274084375
20
51.34656875
30
0
0
VERTEX
8
0
10
16.31996875
20
51.300684375
30
0
0
VERTEX
8
0
10
16.370125
20
51.259521875000004
30
0
0
VERTEX
8
0
10
16.424078125
20
51.223471875
30
0
0
VERTEX
8
0
10
16.481303125
20
51.192884375000006
30
0
0
VERTEX
8
0
10
16.54125
20
51.168053125
30
0
0
VERTEX
8
0
10
16.60334375
20
51.14921875
30
0
0
VERTEX
8
0
10
16.66698125
20
51.136559375000004
30
0
0
VERTEX
8
0
10
16.73155625
20
51.1302
30
0
0
VERTEX
8
0
10
16.79644375
20
51.1302
30
0
0
SEQEND
0
POLYLINE
66
1
8
1_copper
10
0.0
20
0.0
30
0.0
70
1
0
VERTEX
8
0
10
17.9832
20
46.134806250000004
30
0
0
VERTEX
8
0
10
17.9832
20
46.82919375
30
0
0
VERTEX
8
0
10
17.492193750000002
20
47.3202
30
0
0
VERTEX
8
0
10
16.8456125
20
47.3202
30
0
0
VERTEX
8
0
10
14.605
20
49.560812500000004
30
0
0
VERTEX
8
0
10
14.605
20
51.250918750000004
30
0
42
0.230713938450642
0
VERTEX
8
0
10
14.884400000000001
20
51.75815625
30
0
0
VERTEX
8
0
10
14.884400000000001
20
53.14384375
30
0
42
0.9520786018124834
0
VERTEX
8
0
10
13.563600000000001
20
53.14384375
30
0
0
VERTEX
8
0
10
13.563600000000001
20
51.75815625
30
0
42
0.230713938450642
0
VERTEX
8
0
10
13.843
20
51.250918750000004
30
0
0
VERTEX
8
0
10
13.843
20
49.403000000000006
30
0
42
0.198912367379658
0
VERTEX
8
0
10
13.95459375
20
49.13359375
30
0
0
VERTEX
8
0
10
16.3068
20
46.7813875
30
0
0
VERTEX
8
0
10
16.3068
20
46.134806250000004
30
0
0
VERTEX
8
0
10
16.79780625
20
45.6438
30
0
0
VERTEX
8
0
10
17.492193750000002
20
45.6438
30
0
0
SEQEND
0
POLYLINE
66
1
8
16_copper
10
0.0
20
0.0
30
0.0
70
1
0
VERTEX
8
0
10
14.32101875
20
51.136559375000004
30
0
42
0.3578051432831595
0
VERTEX
8
0
10
14.884400000000001
20
51.75815625
30
0
0
VERTEX
8
0
10
14.884400000000001
20
53.14384375
30
0
42
0.9520786018124834
0
VERTEX
8
0
10
13.563600000000001
20
53.14384375
30
0
0
VERTEX
8
0
10
13.563600000000001
20
51.75815625
30
0
0
VERTEX
8
0
10
13.569959375
20
51.69358125
30
0
0
VERTEX
8
0
10
13.58261875
20
51.62994375
30
0
0
VERTEX
8
0
10
13.601453125
20
51.56785
30
0
0
VERTEX
8
0
10
13.626284375000001
20
51.507903125000006
30
0
0
VERTEX
8
0
10
13.656871875
20
51.450678125
30
0
0
VERTEX
8
0
10
13.692921875000001
20
51.396725
30
0
0
VERTEX
8
0
10
13.734084375
20
51.34656875
30
0
0
VERTEX
8
0
10
13.77996875
20
51.300684375
30
0
0
VERTEX
8
0
10
13.830125
20
51.259521875000004
30
0
0
VERTEX
8
0
10
13.884078125
20
51.223471875
30
0
0
VERTEX
8
0
10
13.941303125000001
20
51.192884375000006
30
0
0
VERTEX
8
0
10
14.00125
20
51.168053125
30
0
0
VERTEX
8
0
10
14.063343750000001
20
51.14921875
30
0
0
VERTEX
8
0
10
14.12698125
20
51.136559375000004
30
0
0
VERTEX
8
0
10
14.191556250000001
20
51.1302
30
0
0
VERTEX
8
0
10
14.25644375
20
51.1302
30
0
0
SEQEND
0
POLYLINE
66
1
8
16_copper
10
0.0
20
0.0
30
0.0
70
1
0
VERTEX
8
0
10
17.9832
20
46.134806250000004
30
0
0
VERTEX
8
0
10
17.9832
20
46.82919375
30
0
0
VERTEX
8
0
10
17.492193750000002
20
47.3202
30
0
0
VERTEX
8
0
10
16.79780625
20
47.3202
30
0
0
VERTEX
8
0
10
16.3068
20
46.82919375
30
0
0
VERTEX
8
0
10
16.3068
20
46.134806250000004
30
0
0
VERTEX
8
0
10
16.79780625
20
45.6438
30
0
0
VERTEX
8
0
10
17.492193750000002
20
45.6438
30
0
0
SEQEND
0
POLYLINE
66
1
8
1_copper
10
0.0
20
0.0
30
0.0
70
1
0
VERTEX
8
0
10
42.798053125
20
49.163778125
30
0
42
0.18883090533686178
0
VERTEX
8
0
10
42.68740625
20
49.418406250000004
30
0
0
VERTEX
8
0
10
40.72840625
20
51.37740625
30
0
42
0.198912367379658
0
VERTEX
8
0
10
40.459
20
51.489000000000004
30
0
0
VERTEX
8
0
10
37.639
20
51.489000000000004
30
0
42
0.966963462347794
0
VERTEX
8
0
10
37.613425
20
50.727859375
30
0
0
VERTEX
8
0
10
37.639
20
50.727000000000004
30
0
0
VERTEX
8
0
10
40.301187500000005
20
50.727000000000004
30
0
0
VERTEX
8
0
10
42.037
20
48.9911875
30
0
0
VERTEX
8
0
10
42.037
20
36.2258125
30
0
0
VERTEX
8
0
10
40.228187500000004
20
34.417
30
0
0
VERTEX
8
0
10
22.606
20
34.417
30
0
42
0.198912367379658
0
VERTEX
8
0
10
22.336593750000002
20
34.305406250000004
30
0
0
VERTEX
8
0
10
20.1621875
20
32.131
30
0
0
VERTEX
8
0
10
9.5558125
20
32.131
30
0
0
VERTEX
8
0
10
8.27040625
20
33.41640625
30
0
42
0.9999999999999999
0
VERTEX
8
0
10
7.73159375
20
32.87759375
30
0
0
VERTEX
8
0
10
9.12859375
20
31.48059375
30
0
42
0.198912367379658
0
VERTEX
8
0
10
9.398
20
31.369
30
0
0
VERTEX
8
0
10
20.32
20
31.369
30
0
42
0.198912367379658
0
VERTEX
8
0
10
20.58940625
20
31.48059375
30
0
0
VERTEX
8
0
10
22.7638125
20
33.655
30
0
0
VERTEX
8
0
10
40.386
20
33.655
30
0
42
0.198912367379658
0
VERTEX
8
0
10
40.65540625
20
33.76659375
30
0
0
VERTEX
8
0
10
42.68740625
20
35.79859375
30
0
42
0.198912367379658
0
VERTEX
8
0
10
42.799
20
36.068000000000005
30
0
0
VERTEX
8
0
10
42.799
20
49.149
30
0
0
SEQEND
0
POLYLINE
66
1
8
1_copper
10
0.0
20
0.0
30
0.0
70
1
0
VERTEX
8
0
10
68.23885
20
55.626000000000005
30
0
0
VERTEX
8
0
10
69.977
20
53.88785
30
0
0
VERTEX
8
0
10
69.977
20
50.96
30
0
42
0.198912367379658
0
VERTEX
8
0
10
70.08859375
20
50.690593750000005
30
0
0
VERTEX
8
0
10
71.15159375
20
49.62759375
30
0
42
0.9999999999999999
0
VERTEX
8
0
10
71.69040625000001
20
50.16640625
30
0
0
VERTEX
8
0
10
70.739
20
51.1178125
30
0
0
VERTEX
8
0
10
70.739
20
54.045662500000006
30
0
42
0.198912367379658
0
VERTEX
8
0
10
70.62740625
20
54.31506875
30
0
0
VERTEX
8
0
10
68.66606875000001
20
56.27640625
30
0
42
0.198912367379658
0
VERTEX
8
0
10
68.3966625
20
56.388000000000005
30
0
0
VERTEX
8
0
10
65.02750625
20
56.388000000000005
30
0
42
0.198912367379658
0
VERTEX
8
0
10
64.7581
20
56.27640625
30
0
0
VERTEX
8
0
10
61.05969375
20
52.578
30
0
0
VERTEX
8
0
10
58.1914
20
52.578
30
0
0
VERTEX
8
0
10
58.1914
20
52.889843750000004
30
0
42
0.9520786018124834
0
VERTEX
8
0
10
56.8706
20
52.889843750000004
30
0
0
VERTEX
8
0
10
56.8706
20
51.50415625
30
0
42
0.9520786018124834
0
VERTEX
8
0
10
58.1914
20
51.50415625
30
0
0
VERTEX
8
0
10
58.1914
20
51.816
30
0
0
VERTEX
8
0
10
59.879418750000006
20
51.816
30
0
0
VERTEX
8
0
10
59.08559375
20
51.022175000000004
30
0
42
0.198912367379658
0
VERTEX
8
0
10
58.974000000000004
20
50.75276875
30
0
0
VERTEX
8
0
10
58.974000000000004
20
50.492306250000006
30
0
0
VERTEX
8
0
10
58.39269375
20
49.911
30
0
0
VERTEX
8
0
10
49.8148125
20
49.911
30
0
0
VERTEX
8
0
10
49.67240625
20
50.05340625
30
0
42
0.9999999999999999
0
VERTEX
8
0
10
49.13359375
20
49.51459375
30
0
0
VERTEX
8
0
10
49.38759375
20
49.260593750000005
30
0
42
0.198912367379658
0
VERTEX
8
0
10
49.657000000000004
20
49.149
30
0
0
VERTEX
8
0
10
58.550506250000005
20
49.149
30
0
42
0.198912367379658
0
VERTEX
8
0
10
58.8199125
20
49.260593750000005
30
0
0
VERTEX
8
0
10
59.62440625
20
50.065087500000004
30
0
42
0.198912367379658
0
VERTEX
8
0
10
59.736000000000004
20
50.33449375
30
0
0
VERTEX
8
0
10
59.736000000000004
20
50.59495625
30
0
0
VERTEX
8
0
10
60.72304375
20
51.582
30
0
0
VERTEX
8
0
10
60.983506250000005
20
51.582
30
0
42
0.198912367379658
0
VERTEX
8
0
10
61.2529125
20
51.693593750000005
30
0
0
VERTEX
8
0
10
65.18531875000001
20
55.626000000000005
30
0
0
SEQEND
0
POLYLINE
66
1
8
16_copper
10
0.0
20
0.0
30
0.0
70
1
0
VERTEX
8
0
10
57.62801875
20
50.882559375
30
0
42
0.3578051432831595
0
VERTEX
8
0
10
58.1914
20
51.50415625
30
0
0
VERTEX
8
0
10
58.1914
20
52.889843750000004
30
0
42
0.9520786018124834
0
VERTEX
8
0
10
56.8706
20
52.889843750000004
30
0
0
VERTEX
8
0
10
56.8706
20
51.50415625
30
0
0
VERTEX
8
0
10
56.876959375000006
20
51.43958125
30
0
0
VERTEX
8
0
10
56.889618750000004
20
51.375943750000005
30
0
0
VERTEX
8
0
10
56.908453125
20
51.31385
30
0
0
VERTEX
8
0
10
56.933284375
20
51.253903125
30
0
0
VERTEX
8
0
10
56.963871875
20
51.196678125000005
30
0
0
VERTEX
8
0
10
56.999921875000005
20
51.142725000000006
30
0
0
VERTEX
8
0
10
57.041084375000004
20
51.092568750000005
30
0
0
VERTEX
8
0
10
57.086968750000004
20
51.046684375000005
30
0
0
VERTEX
8
0
10
57.137125000000005
20
51.005521875
30
0
0
VERTEX
8
0
10
57.191078125000004
20
50.969471875
30
0
0
VERTEX
8
0
10
57.248303125
20
50.938884375
30
0
0
VERTEX
8
0
10
57.30825
20
50.914053125
30
0
0
VERTEX
8
0
10
57.37034375
20
50.895218750000005
30
0
0
VERTEX
8
0
10
57.43398125
20
50.882559375
30
0
0
VERTEX
8
0
10
57.49855625
20
50.876200000000004
30
0
0
VERTEX
8
0
10
57.563443750000005
20
50.876200000000004
30
0
0
SEQEND
0
POLYLINE
66
1
8
1_copper
10
0.0
20
0.0
30
0.0
70
1
0
VERTEX
8
0
10
55.08801875
20
50.882559375
30
0
42
0.3578051432831595
0
VERTEX
8
0
10
55.6514
20
51.50415625
30
0
0
VERTEX
8
0
10
55.6514
20
52.889843750000004
30
0
42
0.230713938450642
0
VERTEX
8
0
10
55.372
20
53.39708125
30
0
0
VERTEX
8
0
10
55.372
20
54.229
30
0
42
0.198912367379658
0
VERTEX
8
0
10
55.26040625
20
54.49840625
30
0
0
VERTEX
8
0
10
53.60940625
20
56.149406250000006
30
0
42
0.198912367379658
0
VERTEX
8
0
10
53.34
20
56.261
30
0
0
VERTEX
8
0
10
46.5128125
20
56.261
30
0
0
VERTEX
8
0
10
45.669200000000004
20
57.1046125
30
0
0
VERTEX
8
0
10
45.669200000000004
20
57.751193750000006
30
0
0
VERTEX
8
0
10
45.178193750000005
20
58.242200000000004
30
0
0
VERTEX
8
0
10
44.48380625
20
58.242200000000004
30
0
0
VERTEX
8
0
10
43.9928
20
57.751193750000006
30
0
0
VERTEX
8
0
10
43.9928
20
57.05680625
30
0
0
VERTEX
8
0
10
44.48380625
20
56.5658
30
0
0
VERTEX
8
0
10
45.130387500000005
20
56.5658
30
0
0
VERTEX
8
0
10
46.08559375
20
55.61059375
30
0
42
0.198912367379658
0
VERTEX
8
0
10
46.355000000000004
20
55.499
30
0
0
VERTEX
8
0
10
53.182187500000005
20
55.499
30
0
0
VERTEX
8
0
10
54.61
20
54.0711875
30
0
0
VERTEX
8
0
10
54.61
20
53.39708125
30
0
42
0.230713938450642
0
VERTEX
8
0
10
54.330600000000004
20
52.889843750000004
30
0
0
VERTEX
8
0
10
54.330600000000004
20
51.50415625
30
0
0
VERTEX
8
0
10
54.336959375
20
51.43958125
30
0
0
VERTEX
8
0
10
54.349618750000005
20
51.375943750000005
30
0
0
VERTEX
8
0
10
54.368453125
20
51.31385
30
0
0
VERTEX
8
0
10
54.393284375
20
51.253903125
30
0
0
VERTEX
8
0
10
54.423871875
20
51.196678125000005
30
0
0
VERTEX
8
0
10
54.459921875
20
51.142725000000006
30
0
0
VERTEX
8
0
10
54.501084375000005
20
51.092568750000005
30
0
0
VERTEX
8
0
10
54.546968750000005
20
51.046684375000005
30
0
0
VERTEX
8
0
10
54.597125000000005
20
51.005521875
30
0
0
VERTEX
8
0
10
54.651078125000005
20
50.969471875
30
0
0
VERTEX
8
0
10
54.708303125
20
50.938884375
30
0
0
VERTEX
8
0
10
54.76825
20
50.914053125
30
0
0
VERTEX
8
0
10
54.830343750000004
20
50.895218750000005
30
0
0
VERTEX
8
0
10
54.89398125
20
50.882559375
30
0
0
VERTEX
8
0
10
54.95855625
20
50.876200000000004
30
0
0
VERTEX
8
0
10
55.023443750000006
20
50.876200000000004
30
0
0
SEQEND
0
POLYLINE
66
1
8
16_copper
10
0.0
20
0.0
30
0.0
70
1
0
VERTEX
8
0
10
45.669200000000004
20
57.05680625
30
0
0
VERTEX
8
0
10
45.669200000000004
20
57.751193750000006
30
0
0
VERTEX
8
0
10
45.178193750000005
20
58.242200000000004
30
0
0
VERTEX
8
0
10
44.48380625
20
58.242200000000004
30
0
0
VERTEX
8
0
10
43.9928
20
57.751193750000006
30
0
0
VERTEX
8
0
10
43.9928
20
57.05680625
30
0
0
VERTEX
8
0
10
44.48380625
20
56.5658
30
0
0
VERTEX
8
0
10
45.178193750000005
20
56.5658
30
0
0
SEQEND
0
POLYLINE
66
1
8
16_copper
10
0.0
20
0.0
30
0.0
70
1
0
VERTEX
8
0
10
55.08801875
20
50.882559375
30
0
42
0.3578051432831595
0
VERTEX
8
0
10
55.6514
20
51.50415625
30
0
0
VERTEX
8
0
10
55.6514
20
52.889843750000004
30
0
42
0.9520786018124834
0
VERTEX
8
0
10
54.330600000000004
20
52.889843750000004
30
0
0
VERTEX
8
0
10
54.330600000000004
20
51.50415625
30
0
0
VERTEX
8
0
10
54.336959375
20
51.43958125
30
0
0
VERTEX
8
0
10
54.349618750000005
20
51.375943750000005
30
0
0
VERTEX
8
0
10
54.368453125
20
51.31385
30
0
0
VERTEX
8
0
10
54.393284375
20
51.253903125
30
0
0
VERTEX
8
0
10
54.423871875
20
51.196678125000005
30
0
0
VERTEX
8
0
10
54.459921875
20
51.142725000000006
30
0
0
VERTEX
8
0
10
54.501084375000005
20
51.092568750000005
30
0
0
VERTEX
8
0
10
54.546968750000005
20
51.046684375000005
30
0
0
VERTEX
8
0
10
54.597125000000005
20
51.005521875
30
0
0
VERTEX
8
0
10
54.651078125000005
20
50.969471875
30
0
0
VERTEX
8
0
10
54.708303125
20
50.938884375
30
0
0
VERTEX
8
0
10
54.76825
20
50.914053125
30
0
0
VERTEX
8
0
10
54.830343750000004
20
50.895218750000005
30
0
0
VERTEX
8
0
10
54.89398125
20
50.882559375
30
0
0
VERTEX
8
0
10
54.95855625
20
50.876200000000004
30
0
0
VERTEX
8
0
10
55.023443750000006
20
50.876200000000004
30
0
0
SEQEND
0
POLYLINE
66
1
8
1_copper
10
0.0
20
0.0
30
0.0
70
1
0
VERTEX
8
0
10
57.284000000000006
20
35.179
30
0
42
0.198912367379658
0
VERTEX
8
0
10
57.55340625
20
35.29059375
30
0
0
VERTEX
8
0
10
61.69040625
20
39.42759375
30
0
42
0.9999999999999999
0
VERTEX
8
0
10
61.15159375
20
39.96640625
30
0
0
VERTEX
8
0
10
57.1261875
20
35.941
30
0
0
VERTEX
8
0
10
46.99
20
35.941
30
0
42
0.198912367379658
0
VERTEX
8
0
10
46.72059375
20
35.829406250000005
30
0
0
VERTEX
8
0
10
43.6571875
20
32.766
30
0
0
VERTEX
8
0
10
23.495
20
32.766
30
0
42
0.198912367379658
0
VERTEX
8
0
10
23.22559375
20
32.65440625
30
0
0
VERTEX
8
0
10
20.1621875
20
29.591
30
0
0
VERTEX
8
0
10
9.5558125
20
29.591
30
0
0
VERTEX
8
0
10
8.27040625
20
30.876406250000002
30
0
42
0.9999999999999999
0
VERTEX
8
0
10
7.73159375
20
30.33759375
30
0
0
VERTEX
8
0
10
9.12859375
20
28.94059375
30
0
42
0.198912367379658
0
VERTEX
8
0
10
9.398
20
28.829
30
0
0
VERTEX
8
0
10
20.32
20
28.829
30
0
42
0.198912367379658
0
VERTEX
8
0
10
20.58940625
20
28.94059375
30
0
0
VERTEX
8
0
10
23.6528125
20
32.004000000000005
30
0
0
VERTEX
8
0
10
43.815000000000005
20
32.004000000000005
30
0
42
0.198912367379658
0
VERTEX
8
0
10
44.08440625
20
32.11559375
30
0
0
VERTEX
8
0
10
47.1478125
20
35.179
30
0
0
SEQEND
0
POLYLINE
66
1
8
1_copper
10
0.0
20
0.0
30
0.0
70
1
0
VERTEX
8
0
10
90.94487500000001
20
37.035521875
30
0
42
0.22455716190406486
0
VERTEX
8
0
10
91.2114
20
37.53415625
30
0
0
VERTEX
8
0
10
91.2114
20
38.919843750000005
30
0
42
0.9520786018124834
0
VERTEX
8
0
10
89.8906
20
38.919843750000005
30
0
0
VERTEX
8
0
10
89.8906
20
37.53415625
30
0
42
0.230713938450642
0
VERTEX
8
0
10
90.17
20
37.02691875
30
0
0
VERTEX
8
0
10
90.17
20
35.179
30
0
42
0.198912367379658
0
VERTEX
8
0
10
90.28159375
20
34.90959375
30
0
0
VERTEX
8
0
10
93.32959375
20
31.86159375
30
0
42
0.198912367379658
0
VERTEX
8
0
10
93.599
20
31.75
30
0
0
VERTEX
8
0
10
94.69960625
20
31.75
30
0
0
VERTEX
8
0
10
95.15680625
20
31.2928
30
0
0
VERTEX
8
0
10
95.85119375000001
20
31.2928
30
0
0
VERTEX
8
0
10
96.3422
20
31.78380625
30
0
0
VERTEX
8
0
10
96.3422
20
32.47819375
30
0
0
VERTEX
8
0
10
95.85119375000001
20
32.9692
30
0
0
VERTEX
8
0
10
95.15680625
20
32.9692
30
0
0
VERTEX
8
0
10
94.69960625
20
32.512
30
0
0
VERTEX
8
0
10
93.75681250000001
20
32.512
30
0
0
VERTEX
8
0
10
90.932
20
35.3368125
30
0
0
VERTEX
8
0
10
90.932
20
37.02691875
30
0
0
SEQEND
0
POLYLINE
66
1
8
16_copper
10
0.0
20
0.0
30
0.0
70
1
0
VERTEX
8
0
10
90.64801875
20
36.912559375
30
0
42
0.3578051432831595
0
VERTEX
8
0
10
91.2114
20
37.53415625
30
0
0
VERTEX
8
0
10
91.2114
20
38.919843750000005
30
0
42
0.9520786018124834
0
VERTEX
8
0
10
89.8906
20
38.919843750000005
30
0
0
VERTEX
8
0
10
89.8906
20
37.53415625
30
0
0
VERTEX
8
0
10
89.89695937500001
20
37.469581250000005
30
0
0
VERTEX
8
0
10
89.90961875
20
37.40594375
30
0
0
VERTEX
8
0
10
89.928453125
20
37.34385
30
0
0
VERTEX
8
0
10
89.95328437500001
20
37.283903125
30
0
0
VERTEX
8
0
10
89.983871875
20
37.226678125
30
0
0
VERTEX
8
0
10
90.01992187500001
20
37.172725
30
0
0
VERTEX
8
0
10
90.06108437500001
20
37.12256875
30
0
0
VERTEX
8
0
10
90.10696875000001
20
37.076684375
30
0
0
VERTEX
8
0
10
90.15712500000001
20
37.035521875
30
0
0
VERTEX
8
0
10
90.211078125
20
36.999471875000005
30
0
0
VERTEX
8
0
10
90.268303125
20
36.968884375
30
0
0
VERTEX
8
0
10
90.32825000000001
20
36.944053125
30
0
0
VERTEX
8
0
10
90.39034375
20
36.92521875
30
0
0
VERTEX
8
0
10
90.45398125
20
36.912559375
30
0
0
VERTEX
8
0
10
90.51855625
20
36.9062
30
0
0
VERTEX
8
0
10
90.58344375
20
36.9062
30
0
0
SEQEND
0
POLYLINE
66
1
8
16_copper
10
0.0
20
0.0
30
0.0
70
1
0
VERTEX
8
0
10
96.3422
20
31.78380625
30
0
0
VERTEX
8
0
10
96.3422
20
32.47819375
30
0
0
VERTEX
8
0
10
95.85119375000001
20
32.9692
30
0
0
VERTEX
8
0
10
95.15680625
20
32.9692
30
0
0
VERTEX
8
0
10
94.6658
20
32.47819375
30
0
0
VERTEX
8
0
10
94.6658
20
31.78380625
30
0
0
VERTEX
8
0
10
95.15680625
20
31.2928
30
0
0
VERTEX
8
0
10
95.85119375000001
20
31.2928
30
0
0
SEQEND
0
POLYLINE
66
1
8
1_copper
10
0.0
20
0.0
30
0.0
70
1
0
VERTEX
8
0
10
91.741
20
43.768
30
0
0
VERTEX
8
0
10
88.251
20
43.768
30
0
42
0.966963462347794
0
VERTEX
8
0
10
88.225425
20
43.006859375000005
30
0
0
VERTEX
8
0
10
88.251
20
43.006
30
0
0
VERTEX
8
0
10
91.5875125
20
43.006
30
0
42
0.37787323307924786
0
VERTEX
8
0
10
92.09040625
20
43.03759375
30
0
0
VERTEX
8
0
10
92.71000000000001
20
43.6571875
30
0
0
VERTEX
8
0
10
92.71000000000001
20
39.42708125
30
0
42
0.230713938450642
0
VERTEX
8
0
10
92.4306
20
38.919843750000005
30
0
0
VERTEX
8
0
10
92.4306
20
37.53415625
30
0
42
0.9520786018124834
0
VERTEX
8
0
10
93.7514
20
37.53415625
30
0
0
VERTEX
8
0
10
93.7514
20
38.919843750000005
30
0
42
0.230713938450642
0
VERTEX
8
0
10
93.47200000000001
20
39.42708125
30
0
0
VERTEX
8
0
10
93.47200000000001
20
44.4191875
30
0
0
VERTEX
8
0
10
94.63040625000001
20
45.577593750000005
30
0
42
0.198912367379658
0
VERTEX
8
0
10
94.742
20
45.847
30
0
0
VERTEX
8
0
10
94.742
20
54.737
30
0
42
0.198912367379658
0
VERTEX
8
0
10
94.63040625000001
20
55.006406250000005
30
0
0
VERTEX
8
0
10
92.202
20
57.4348125
30
0
0
VERTEX
8
0
10
92.202
20
58.547000000000004
30
0
42
0.9999999999999999
0
VERTEX
8
0
10
91.44
20
58.547000000000004
30
0
0
VERTEX
8
0
10
91.44
20
57.277
30
0
42
0.198912367379658
0
VERTEX
8
0
10
91.55159375000001
20
57.007593750000005
30
0
0
VERTEX
8
0
10
93.98
20
54.5791875
30
0
0
VERTEX
8
0
10
93.98
20
46.0048125
30
0
0
VERTEX
8
0
10
91.743115625
20
43.767928125000005
30
0
0
SEQEND
0
POLYLINE
66
1
8
16_copper
10
0.0
20
0.0
30
0.0
70
1
0
VERTEX
8
0
10
93.18801875
20
36.912559375
30
0
42
0.3578051432831595
0
VERTEX
8
0
10
93.7514
20
37.53415625
30
0
0
VERTEX
8
0
10
93.7514
20
38.919843750000005
30
0
42
0.9520786018124834
0
VERTEX
8
0
10
92.4306
20
38.919843750000005
30
0
0
VERTEX
8
0
10
92.4306
20
37.53415625
30
0
0
VERTEX
8
0
10
92.436959375
20
37.469581250000005
30
0
0
VERTEX
8
0
10
92.44961875
20
37.40594375
30
0
0
VERTEX
8
0
10
92.46845312500001
20
37.34385
30
0
0
VERTEX
8
0
10
92.493284375
20
37.283903125
30
0
0
VERTEX
8
0
10
92.523871875
20
37.226678125
30
0
0
VERTEX
8
0
10
92.559921875
20
37.172725
30
0
0
VERTEX
8
0
10
92.601084375
20
37.12256875
30
0
0
VERTEX
8
0
10
92.64696875
20
37.076684375
30
0
0
VERTEX
8
0
10
92.697125
20
37.035521875
30
0
0
VERTEX
8
0
10
92.751078125
20
36.999471875000005
30
0
0
VERTEX
8
0
10
92.80830312500001
20
36.968884375
30
0
0
VERTEX
8
0
10
92.86825
20
36.944053125
30
0
0
VERTEX
8
0
10
92.93034375
20
36.92521875
30
0
0
VERTEX
8
0
10
92.99398125
20
36.912559375
30
0
0
VERTEX
8
0
10
93.05855625000001
20
36.9062
30
0
0
VERTEX
8
0
10
93.12344375
20
36.9062
30
0
0
SEQEND
0
POLYLINE
66
1
8
1_copper
10
0.0
20
0.0
30
0.0
70
1
0
VERTEX
8
0
10
81.040778125
20
33.401946875
30
0
42
0.18883090533686178
0
VERTEX
8
0
10
81.29540625
20
33.51259375
30
0
0
VERTEX
8
0
10
83.20040625
20
35.41759375
30
0
42
0.198912367379658
0
VERTEX
8
0
10
83.312
20
35.687000000000005
30
0
0
VERTEX
8
0
10
83.312
20
43.307
30
0
42
0.198912367379658
0
VERTEX
8
0
10
83.20040625
20
43.576406250000005
30
0
0
VERTEX
8
0
10
82.43840625
20
44.338406250000006
30
0
42
0.198912367379658
0
VERTEX
8
0
10
82.169
20
44.45
30
0
0
VERTEX
8
0
10
81.0568125
20
44.45
30
0
0
VERTEX
8
0
10
78.232
20
47.2748125
30
0
0
VERTEX
8
0
10
78.232
20
53.0291875
30
0
42
0.9968573320969324
0
VERTEX
8
0
10
77.88116562500001
20
53.728053125
30
0
0
VERTEX
8
0
10
77.8389875
20
53.703562500000004
30
0
42
0.04885766899402711
0
VERTEX
8
0
10
77.78159375
20
53.65640625
30
0
0
VERTEX
8
0
10
77.58159375000001
20
53.45640625
30
0
42
0.198912367379658
0
VERTEX
8
0
10
77.47
20
53.187000000000005
30
0
0
VERTEX
8
0
10
77.47
20
47.117000000000004
30
0
42
0.198912367379658
0
VERTEX
8
0
10
77.58159375000001
20
46.84759375
30
0
0
VERTEX
8
0
10
80.62959375
20
43.79959375
30
0
42
0.198912367379658
0
VERTEX
8
0
10
80.899
20
43.688
30
0
0
VERTEX
8
0
10
82.0111875
20
43.688
30
0
0
VERTEX
8
0
10
82.55
20
43.149187500000004
30
0
0
VERTEX
8
0
10
82.55
20
35.8448125
30
0
0
VERTEX
8
0
10
80.8681875
20
34.163000000000004
30
0
0
VERTEX
8
0
10
48.006
20
34.163000000000004
30
0
42
0.198912367379658
0
VERTEX
8
0
10
47.736593750000004
20
34.05140625
30
0
0
VERTEX
8
0
10
44.9271875
20
31.242
30
0
0
VERTEX
8
0
10
24.511000000000003
20
31.242
30
0
42
0.198912367379658
0
VERTEX
8
0
10
24.24159375
20
31.13040625
30
0
0
VERTEX
8
0
10
20.1621875
20
27.051000000000002
30
0
0
VERTEX
8
0
10
9.5558125
20
27.051000000000002
30
0
0
VERTEX
8
0
10
8.27040625
20
28.336406250000003
30
0
42
0.9999999999999999
0
VERTEX
8
0
10
7.73159375
20
27.79759375
30
0
0
VERTEX
8
0
10
9.12859375
20
26.400593750000002
30
0
42
0.198912367379658
0
VERTEX
8
0
10
9.398
20
26.289
30
0
0
VERTEX
8
0
10
20.32
20
26.289
30
0
42
0.198912367379658
0
VERTEX
8
0
10
20.58940625
20
26.400593750000002
30
0
0
VERTEX
8
0
10
24.6688125
20
30.48
30
0
0
VERTEX
8
0
10
45.085
20
30.48
30
0
42
0.198912367379658
0
VERTEX
8
0
10
45.354406250000004
20
30.59159375
30
0
0
VERTEX
8
0
10
48.1638125
20
33.401
30
0
0
VERTEX
8
0
10
81.02600000000001
20
33.401
30
0
0
SEQEND
0
POLYLINE
66
1
8
1_copper
10
0.0
20
0.0
30
0.0
70
1
0
VERTEX
8
0
10
43.670581250000005
20
13.917150000000001
30
0
42
0.17878902707204153
0
VERTEX
8
0
10
43.91040625
20
14.027593750000001
30
0
0
VERTEX
8
0
10
48.6788125
20
18.796
30
0
0
VERTEX
8
0
10
53.283662500000005
20
18.796
30
0
42
0.198912367379658
0
VERTEX
8
0
10
53.55306875
20
18.90759375
30
0
0
VERTEX
8
0
10
57.41940625
20
22.77393125
30
0
42
0.198912367379658
0
VERTEX
8
0
10
57.531000000000006
20
23.0433375
30
0
0
VERTEX
8
0
10
57.531000000000006
20
27.94
30
0
42
0.3221727626444285
0
VERTEX
8
0
10
57.271328125000004
20
28.301146875
30
0
0
VERTEX
8
0
10
54.56906875
20
31.00340625
30
0
42
0.198912367379658
0
VERTEX
8
0
10
54.299662500000004
20
31.115000000000002
30
0
0
VERTEX
8
0
10
50.4023375
20
31.115000000000002
30
0
42
0.198912367379658
0
VERTEX
8
0
10
50.132931250000006
20
31.00340625
30
0
0
VERTEX
8
0
10
48.648525
20
29.519000000000002
30
0
0
VERTEX
8
0
10
47.754168750000005
20
29.519000000000002
30
0
42
0.198912367379658
0
VERTEX
8
0
10
47.4847625
20
29.40740625
30
0
0
VERTEX
8
0
10
46.41835625
20
28.341
30
0
0
VERTEX
8
0
10
26.682156250000002
20
28.341
30
0
42
0.198912367379658
0
VERTEX
8
0
10
26.412750000000003
20
28.22940625
30
0
0
VERTEX
8
0
10
24.80039375
20
26.617050000000003
30
0
42
0.198912367379658
0
VERTEX
8
0
10
24.6888
20
26.34764375
30
0
0
VERTEX
8
0
10
24.6888
20
25.5578125
30
0
0
VERTEX
8
0
10
19.8319875
20
20.701
30
0
0
VERTEX
8
0
10
10.3178125
20
20.701
30
0
0
VERTEX
8
0
10
8.382
20
22.6368125
30
0
0
VERTEX
8
0
10
8.382
20
22.987000000000002
30
0
42
0.9999999999999999
0
VERTEX
8
0
10
7.62
20
22.987000000000002
30
0
0
VERTEX
8
0
10
7.62
20
22.479000000000003
30
0
42
0.198912367379658
0
VERTEX
8
0
10
7.73159375
20
22.20959375
30
0
0
VERTEX
8
0
10
9.89059375
20
20.05059375
30
0
42
0.198912367379658
0
VERTEX
8
0
10
10.16
20
19.939
30
0
0
VERTEX
8
0
10
19.989800000000002
20
19.939
30
0
42
0.198912367379658
0
VERTEX
8
0
10
20.259206250000002
20
20.05059375
30
0
0
VERTEX
8
0
10
25.33920625
20
25.130593750000003
30
0
42
0.198912367379658
0
VERTEX
8
0
10
25.4508
20
25.400000000000002
30
0
0
VERTEX
8
0
10
25.4508
20
26.18983125
30
0
0
VERTEX
8
0
10
26.83996875
20
27.579
30
0
0
VERTEX
8
0
10
46.57616875
20
27.579
30
0
42
0.198912367379658
0
VERTEX
8
0
10
46.845575000000004
20
27.69059375
30
0
0
VERTEX
8
0
10
47.911981250000004
20
28.757
30
0
0
VERTEX
8
0
10
48.806337500000005
20
28.757
30
0
42
0.198912367379658
0
VERTEX
8
0
10
49.07574375
20
28.868593750000002
30
0
0
VERTEX
8
0
10
50.56015
20
30.353
30
0
0
VERTEX
8
0
10
54.141850000000005
20
30.353
30
0
0
VERTEX
8
0
10
56.769000000000005
20
27.72585
30
0
0
VERTEX
8
0
10
56.769000000000005
20
23.201150000000002
30
0
0
VERTEX
8
0
10
53.12585
20
19.558
30
0
0
VERTEX
8
0
10
48.521
20
19.558
30
0
42
0.198912367379658
0
VERTEX
8
0
10
48.251593750000005
20
19.446406250000003
30
0
0
VERTEX
8
0
10
43.37159375
20
14.56640625
30
0
0
VERTEX
8
0
10
43.33938125
20
14.529784375
30
0
0
VERTEX
8
0
10
43.312115625000004
20
14.489343750000002
30
0
0
VERTEX
8
0
10
43.2902375
20
14.445753125000001
30
0
0
VERTEX
8
0
10
43.274109375
20
14.399725
30
0
0
VERTEX
8
0
10
43.263993750000004
20
14.3520125
30
0
0
VERTEX
8
0
10
43.260053125
20
14.303396875
30
0
0
VERTEX
8
0
10
43.26235625
20
14.254678125
30
0
0
VERTEX
8
0
10
43.270865625
20
14.206653125
30
0
0
VERTEX
8
0
10
43.285440625
20
14.160109375000001
30
0
0
VERTEX
8
0
10
43.30584375
20
14.115809375000001
30
0
0
VERTEX
8
0
10
43.331734375
20
14.074478125
30
0
0
VERTEX
8
0
10
43.362696875000005
20
14.036790625
30
0
0
VERTEX
8
0
10
43.398218750000005
20
14.00336875
30
0
0
VERTEX
8
0
10
43.43771875
20
13.974759375000001
30
0
0
VERTEX
8
0
10
43.480553125
20
13.95143125
30
0
0
VERTEX
8
0
10
43.5260125
20
13.933765625000001
30
0
0
VERTEX
8
0
10
43.573359375
20
13.922053125000001
30
0
0
VERTEX
8
0
10
43.621812500000004
20
13.916484375000001
30
0
0
SEQEND
0
POLYLINE
66
1
8
1_copper
10
0.0
20
0.0
30
0.0
70
1
0
VERTEX
8
0
10
9.285778125
20
35.306946875
30
0
42
0.18883090533686178
0
VERTEX
8
0
10
9.54040625
20
35.41759375
30
0
0
VERTEX
8
0
10
10.81040625
20
36.687593750000005
30
0
42
0.198912367379658
0
VERTEX
8
0
10
10.922
20
36.957
30
0
0
VERTEX
8
0
10
10.922
20
39.497
30
0
42
0.198912367379658
0
VERTEX
8
0
10
10.81040625
20
39.76640625
30
0
0
VERTEX
8
0
10
9.54040625
20
41.03640625
30
0
42
0.198912367379658
0
VERTEX
8
0
10
9.271
20
41.148
30
0
0
VERTEX
8
0
10
8.001000000000001
20
41.148
30
0
42
0.966963462347794
0
VERTEX
8
0
10
7.975425
20
40.386859375
30
0
0
VERTEX
8
0
10
8.001000000000001
20
40.386
30
0
0
VERTEX
8
0
10
9.1131875
20
40.386
30
0
0
VERTEX
8
0
10
10.16
20
39.3391875
30
0
0
VERTEX
8
0
10
10.16
20
37.1148125
30
0
0
VERTEX
8
0
10
9.1131875
20
36.068000000000005
30
0
0
VERTEX
8
0
10
8.001000000000001
20
36.068000000000005
30
0
42
0.966963462347794
0
VERTEX
8
0
10
7.975425
20
35.306859375
30
0
0
VERTEX
8
0
10
8.001000000000001
20
35.306000000000004
30
0
0
VERTEX
8
0
10
9.271
20
35.306000000000004
30
0
0
SEQEND
0
POLYLINE
66
1
8
1_copper
10
0.0
20
0.0
30
0.0
70
1
0
VERTEX
8
0
10
86.3291875
20
24.130000000000003
30
0
0
VERTEX
8
0
10
84.43959375
20
22.24040625
30
0
42
0.198912367379658
0
VERTEX
8
0
10
84.328
20
21.971
30
0
0
VERTEX
8
0
10
84.328
20
15.832812500000001
30
0
0
VERTEX
8
0
10
82.66159375000001
20
14.166406250000001
30
0
42
0.9999999999999999
0
VERTEX
8
0
10
83.20040625
20
13.62759375
30
0
0
VERTEX
8
0
10
84.97840625
20
15.405593750000001
30
0
42
0.198912367379658
0
VERTEX
8
0
10
85.09
20
15.675
30
0
0
VERTEX
8
0
10
85.09
20
21.8131875
30
0
0
VERTEX
8
0
10
87.15281250000001
20
23.876
30
0
0
VERTEX
8
0
10
89.281
20
23.876
30
0
42
0.198912367379658
0
VERTEX
8
0
10
89.55040625000001
20
23.987593750000002
30
0
0
VERTEX
8
0
10
90.82040625
20
25.25759375
30
0
42
0.198912367379658
0
VERTEX
8
0
10
90.932
20
25.527
30
0
0
VERTEX
8
0
10
90.932
20
26.924000000000003
30
0
42
0.198912367379658
0
VERTEX
8
0
10
90.82040625
20
27.193406250000002
30
0
0
VERTEX
8
0
10
84.836
20
33.1778125
30
0
0
VERTEX
8
0
10
84.836
20
44.673187500000004
30
0
0
VERTEX
8
0
10
88.1688125
20
48.006
30
0
0
VERTEX
8
0
10
90.751
20
48.006
30
0
42
0.9999999999999999
0
VERTEX
8
0
10
90.751
20
48.768
30
0
0
VERTEX
8
0
10
88.01100000000001
20
48.768
30
0
42
0.198912367379658
0
VERTEX
8
0
10
87.74159375
20
48.65640625
30
0
0
VERTEX
8
0
10
85.852
20
46.7668125
30
0
0
VERTEX
8
0
10
85.852
20
48.888768750000004
30
0
42
0.198912367379658
0
VERTEX
8
0
10
85.74040625
20
49.158175
30
0
0
VERTEX
8
0
10
79.176175
20
55.722406250000006
30
0
42
0.198912367379658
0
VERTEX
8
0
10
78.90676875
20
55.834
30
0
0
VERTEX
8
0
10
76.027
20
55.834
30
0
42
0.198912367379658
0
VERTEX
8
0
10
75.75759375
20
55.722406250000006
30
0
0
VERTEX
8
0
10
75.04159375
20
55.006406250000005
30
0
42
0.198912367379658
0
VERTEX
8
0
10
74.93
20
54.737
30
0
0
VERTEX
8
0
10
74.93
20
47.2748125
30
0
0
VERTEX
8
0
10
72.23218750000001
20
44.577000000000005
30
0
0
VERTEX
8
0
10
66.802
20
44.577000000000005
30
0
0
VERTEX
8
0
10
66.802
20
52.397000000000006
30
0
42
0.9999999999999999
0
VERTEX
8
0
10
66.04
20
52.397000000000006
30
0
0
VERTEX
8
0
10
66.04
20
44.734812500000004
30
0
0
VERTEX
8
0
10
63.4491875
20
42.144000000000005
30
0
0
VERTEX
8
0
10
60.559000000000005
20
42.144000000000005
30
0
42
0.198912367379658
0
VERTEX
8
0
10
60.28959375
20
42.03240625
30
0
0
VERTEX
8
0
10
55.8491875
20
37.592
30
0
0
VERTEX
8
0
10
47.9098125
20
37.592
30
0
0
VERTEX
8
0
10
44.7802
20
40.7216125
30
0
0
VERTEX
8
0
10
44.7802
20
49.7078
30
0
42
0.198912367379658
0
VERTEX
8
0
10
44.66860625
20
49.97720625
30
0
0
VERTEX
8
0
10
41.16340625
20
53.482406250000004
30
0
42
0.198912367379658
0
VERTEX
8
0
10
40.894000000000005
20
53.594
30
0
0
VERTEX
8
0
10
36.703
20
53.594
30
0
42
0.198912367379658
0
VERTEX
8
0
10
36.43359375
20
53.482406250000004
30
0
0
VERTEX
8
0
10
35.29059375
20
52.33940625
30
0
42
0.198912367379658
0
VERTEX
8
0
10
35.179
20
52.07
30
0
0
VERTEX
8
0
10
35.179
20
44.577000000000005
30
0
42
0.198912367379658
0
VERTEX
8
0
10
35.29059375
20
44.30759375
30
0
0
VERTEX
8
0
10
36.89359375
20
42.70459375
30
0
42
0.198912367379658
0
VERTEX
8
0
10
37.163000000000004
20
42.593
30
0
0
VERTEX
8
0
10
38.33695625
20
42.593
30
0
0
VERTEX
8
0
10
39.878
20
41.05195625
30
0
0
VERTEX
8
0
10
39.878
20
36.606812500000004
30
0
0
VERTEX
8
0
10
39.2121875
20
35.941
30
0
0
VERTEX
8
0
10
30.710812500000003
20
35.941
30
0
0
VERTEX
8
0
10
32.90840625
20
38.13859375
30
0
42
0.9999999999999999
0
VERTEX
8
0
10
32.36959375
20
38.677406250000004
30
0
0
VERTEX
8
0
10
29.633187500000002
20
35.941
30
0
0
VERTEX
8
0
10
22.1543375
20
35.941
30
0
42
0.198912367379658
0
VERTEX
8
0
10
21.88493125
20
35.829406250000005
30
0
0
VERTEX
8
0
10
20.726525000000002
20
34.671
30
0
0
VERTEX
8
0
10
14.127812500000001
20
34.671
30
0
0
VERTEX
8
0
10
12.319
20
36.4798125
30
0
0
VERTEX
8
0
10
12.319
20
40.132000000000005
30
0
42
0.198912367379658
0
VERTEX
8
0
10
12.20740625
20
40.40140625
30
0
0
VERTEX
8
0
10
10.541
20
42.0678125
30
0
0
VERTEX
8
0
10
10.541
20
44.45
30
0
42
0.198912367379658
0
VERTEX
8
0
10
10.429406250000001
20
44.71940625
30
0
0
VERTEX
8
0
10
9.032406250000001
20
46.116406250000004
30
0
42
0.198912367379658
0
VERTEX
8
0
10
8.763
20
46.228
30
0
0
VERTEX
8
0
10
8.001000000000001
20
46.228
30
0
42
0.966963462347794
0
VERTEX
8
0
10
7.975425
20
45.466859375000006
30
0
0
VERTEX
8
0
10
8.001000000000001
20
45.466
30
0
0
VERTEX
8
0
10
8.6051875
20
45.466
30
0
0
VERTEX
8
0
10
9.779
20
44.292187500000004
30
0
0
VERTEX
8
0
10
9.779
20
41.910000000000004
30
0
42
0.198912367379658
0
VERTEX
8
0
10
9.89059375
20
41.64059375
30
0
0
VERTEX
8
0
10
11.557
20
39.9741875
30
0
0
VERTEX
8
0
10
11.557
20
36.322
30
0
42
0.198912367379658
0
VERTEX
8
0
10
11.668593750000001
20
36.05259375
30
0
0
VERTEX
8
0
10
13.700593750000001
20
34.02059375
30
0
42
0.198912367379658
0
VERTEX
8
0
10
13.97
20
33.909
30
0
0
VERTEX
8
0
10
20.8843375
20
33.909
30
0
42
0.198912367379658
0
VERTEX
8
0
10
21.15374375
20
34.02059375
30
0
0
VERTEX
8
0
10
22.312150000000003
20
35.179
30
0
0
VERTEX
8
0
10
39.370000000000005
20
35.179
30
0
42
0.198912367379658
0
VERTEX
8
0
10
39.63940625
20
35.29059375
30
0
0
VERTEX
8
0
10
40.52840625
20
36.17959375
30
0
42
0.198912367379658
0
VERTEX
8
0
10
40.64
20
36.449000000000005
30
0
0
VERTEX
8
0
10
40.64
20
41.20976875
30
0
42
0.198912367379658
0
VERTEX
8
0
10
40.52840625
20
41.479175000000005
30
0
0
VERTEX
8
0
10
38.764175
20
43.24340625
30
0
42
0.198912367379658
0
VERTEX
8
0
10
38.49476875
20
43.355000000000004
30
0
0
VERTEX
8
0
10
37.3208125
20
43.355000000000004
30
0
0
VERTEX
8
0
10
35.941
20
44.734812500000004
30
0
0
VERTEX
8
0
10
35.941
20
51.9121875
30
0
0
VERTEX
8
0
10
36.8608125
20
52.832
30
0
0
VERTEX
8
0
10
40.7361875
20
52.832
30
0
0
VERTEX
8
0
10
44.0182
20
49.5499875
30
0
0
VERTEX
8
0
10
44.0182
20
40.5638
30
0
42
0.198912367379658
0
VERTEX
8
0
10
44.129793750000005
20
40.294393750000005
30
0
0
VERTEX
8
0
10
47.48259375
20
36.94159375
30
0
42
0.198912367379658
0
VERTEX
8
0
10
47.752
20
36.83
30
0
0
VERTEX
8
0
10
56.007000000000005
20
36.83
30
0
42
0.198912367379658
0
VERTEX
8
0
10
56.27640625
20
36.94159375
30
0
0
VERTEX
8
0
10
60.7168125
20
41.382000000000005
30
0
0
VERTEX
8
0
10
63.607000000000006
20
41.382000000000005
30
0
42
0.198912367379658
0
VERTEX
8
0
10
63.87640625
20
41.49359375
30
0
0
VERTEX
8
0
10
66.1978125
20
43.815000000000005
30
0
0
VERTEX
8
0
10
72.39
20
43.815000000000005
30
0
42
0.198912367379658
0
VERTEX
8
0
10
72.65940625
20
43.92659375
30
0
0
VERTEX
8
0
10
75.58040625000001
20
46.84759375
30
0
42
0.198912367379658
0
VERTEX
8
0
10
75.69200000000001
20
47.117000000000004
30
0
0
VERTEX
8
0
10
75.69200000000001
20
54.5791875
30
0
0
VERTEX
8
0
10
76.1848125
20
55.072
30
0
0
VERTEX
8
0
10
78.74895625
20
55.072
30
0
0
VERTEX
8
0
10
85.09
20
48.730956250000006
30
0
0
VERTEX
8
0
10
85.09
20
46.0048125
30
0
0
VERTEX
8
0
10
84.18559375000001
20
45.10040625
30
0
42
0.198912367379658
0
VERTEX
8
0
10
84.074
20
44.831
30
0
0
VERTEX
8
0
10
84.074
20
33.02
30
0
42
0.198912367379658
0
VERTEX
8
0
10
84.18559375000001
20
32.75059375
30
0
0
VERTEX
8
0
10
90.17
20
26.7661875
30
0
0
VERTEX
8
0
10
90.17
20
25.6848125
30
0
0
VERTEX
8
0
10
89.1231875
20
24.638
30
0
0
VERTEX
8
0
10
86.8988125
20
24.638
30
0
0
VERTEX
8
0
10
81.21920625
20
30.31760625
30
0
42
0.198912367379658
0
VERTEX
8
0
10
80.94980000000001
20
30.4292
30
0
0
VERTEX
8
0
10
61.28235625
20
30.4292
30
0
42
0.198912367379658
0
VERTEX
8
0
10
61.012950000000004
20
30.31760625
30
0
0
VERTEX
8
0
10
58.328393750000004
20
27.63305
30
0
42
0.198912367379658
0
VERTEX
8
0
10
58.216800000000006
20
27.36364375
30
0
0
VERTEX
8
0
10
58.216800000000006
20
20.90418125
30
0
0
VERTEX
8
0
10
54.33061875
20
17.018
30
0
0
VERTEX
8
0
10
51.181000000000004
20
17.018
30
0
42
0.198912367379658
0
VERTEX
8
0
10
50.91159375
20
16.90640625
30
0
0
VERTEX
8
0
10
46.6171875
20
12.612
30
0
0
VERTEX
8
0
10
42.94304375
20
12.612
30
0
0
VERTEX
8
0
10
41.956
20
13.59904375
30
0
0
VERTEX
8
0
10
41.956
20
14.994956250000001
30
0
0
VERTEX
8
0
10
48.42404375
20
21.463
30
0
0
VERTEX
8
0
10
53.975
20
21.463
30
0
42
0.198912367379658
0
VERTEX
8
0
10
54.244406250000004
20
21.574593750000002
30
0
0
VERTEX
8
0
10
56.02240625
20
23.35259375
30
0
42
0.198912367379658
0
VERTEX
8
0
10
56.134
20
23.622
30
0
0
VERTEX
8
0
10
56.134
20
27.305
30
0
42
0.198912367379658
0
VERTEX
8
0
10
56.02240625
20
27.574406250000003
30
0
0
VERTEX
8
0
10
53.99040625
20
29.606406250000003
30
0
42
0.198912367379658
0
VERTEX
8
0
10
53.721000000000004
20
29.718
30
0
0
VERTEX
8
0
10
50.981
20
29.718
30
0
42
0.198912367379658
0
VERTEX
8
0
10
50.711593750000006
20
29.606406250000003
30
0
0
VERTEX
8
0
10
48.37159375
20
27.266406250000003
30
0
42
0.9999999999999999
0
VERTEX
8
0
10
48.91040625
20
26.72759375
30
0
0
VERTEX
8
0
10
51.1388125
20
28.956000000000003
30
0
0
VERTEX
8
0
10
53.563187500000005
20
28.956000000000003
30
0
0
VERTEX
8
0
10
55.372
20
27.1471875
30
0
0
VERTEX
8
0
10
55.372
20
23.779812500000002
30
0
0
VERTEX
8
0
10
53.8171875
20
22.225
30
0
0
VERTEX
8
0
10
48.266231250000004
20
22.225
30
0
42
0.198912367379658
0
VERTEX
8
0
10
47.996825
20
22.11340625
30
0
0
VERTEX
8
0
10
41.30559375
20
15.422175000000001
30
0
42
0.198912367379658
0
VERTEX
8
0
10
41.194
20
15.15276875
30
0
0
VERTEX
8
0
10
41.194
20
13.441231250000001
30
0
42
0.198912367379658
0
VERTEX
8
0
10
41.30559375
20
13.171825
30
0
0
VERTEX
8
0
10
42.515825
20
11.96159375
30
0
42
0.198912367379658
0
VERTEX
8
0
10
42.78523125
20
11.850000000000001
30
0
0
VERTEX
8
0
10
46.775000000000006
20
11.850000000000001
30
0
42
0.198912367379658
0
VERTEX
8
0
10
47.04440625
20
11.96159375
30
0
0
VERTEX
8
0
10
51.3388125
20
16.256
30
0
0
VERTEX
8
0
10
54.488431250000005
20
16.256
30
0
42
0.198912367379658
0
VERTEX
8
0
10
54.7578375
20
16.36759375
30
0
0
VERTEX
8
0
10
58.86720625
20
20.476962500000003
30
0
42
0.198912367379658
0
VERTEX
8
0
10
58.9788
20
20.746368750000002
30
0
0
VERTEX
8
0
10
58.9788
20
27.205831250000003
30
0
0
VERTEX
8
0
10
61.440168750000005
20
29.6672
30
0
0
VERTEX
8
0
10
80.7919875
20
29.6672
30
0
0
SEQEND
0
POLYLINE
66
1
8
1_copper
10
0.0
20
0.0
30
0.0
70
1
0
VERTEX
8
0
10
122.569778125
20
1.6519468750000001
30
0
42
0.18883090533686178
0
VERTEX
8
0
10
122.82440625000001
20
1.7625937500000002
30
0
0
VERTEX
8
0
10
124.85640625
20
3.79459375
30
0
42
0.198912367379658
0
VERTEX
8
0
10
124.968
20
4.064
30
0
0
VERTEX
8
0
10
124.968
20
25.273
30
0
42
0.198912367379658
0
VERTEX
8
0
10
124.85640625
20
25.542406250000003
30
0
0
VERTEX
8
0
10
122.06240625000001
20
28.336406250000003
30
0
42
0.198912367379658
0
VERTEX
8
0
10
121.793
20
28.448
30
0
0
VERTEX
8
0
10
119.76100000000001
20
28.448
30
0
42
0.966963462347794
0
VERTEX
8
0
10
119.735425
20
27.686859375
30
0
0
VERTEX
8
0
10
119.76100000000001
20
27.686
30
0
0
VERTEX
8
0
10
121.6351875
20
27.686
30
0
0
VERTEX
8
0
10
124.206
20
25.1151875
30
0
0
VERTEX
8
0
10
124.206
20
4.2218125
30
0
0
VERTEX
8
0
10
122.3971875
20
2.4130000000000003
30
0
0
VERTEX
8
0
10
43.8458125
20
2.4130000000000003
30
0
0
VERTEX
8
0
10
38.2524
20
8.0064125
30
0
0
VERTEX
8
0
10
38.2524
20
8.82084375
30
0
42
0.9520786018124834
0
VERTEX
8
0
10
36.9316
20
8.82084375
30
0
0
VERTEX
8
0
10
36.9316
20
7.43515625
30
0
42
0.6980242320579779
0
VERTEX
8
0
10
38.116040625000004
20
7.065146875
30
0
0
VERTEX
8
0
10
43.41859375
20
1.7625937500000002
30
0
42
0.198912367379658
0
VERTEX
8
0
10
43.688
20
1.651
30
0
0
VERTEX
8
0
10
122.555
20
1.651
30
0
0
SEQEND
0
POLYLINE
66
1
8
16_copper
10
0.0
20
0.0
30
0.0
70
1
0
VERTEX
8
0
10
37.68901875
20
6.8135593750000005
30
0
42
0.3578051432831595
0
VERTEX
8
0
10
38.2524
20
7.43515625
30
0
0
VERTEX
8
0
10
38.2524
20
8.82084375
30
0
42
0.9520786018124834
0
VERTEX
8
0
10
36.9316
20
8.82084375
30
0
0
VERTEX
8
0
10
36.9316
20
7.43515625
30
0
0
VERTEX
8
0
10
36.937959375
20
7.370581250000001
30
0
0
VERTEX
8
0
10
36.950618750000004
20
7.30694375
30
0
0
VERTEX
8
0
10
36.969453125
20
7.2448500000000005
30
0
0
VERTEX
8
0
10
36.994284375
20
7.184903125
30
0
0
VERTEX
8
0
10
37.024871875
20
7.127678125
30
0
0
VERTEX
8
0
10
37.060921875
20
7.0737250000000005
30
0
0
VERTEX
8
0
10
37.102084375000004
20
7.02356875
30
0
0
VERTEX
8
0
10
37.147968750000004
20
6.977684375
30
0
0
VERTEX
8
0
10
37.198125000000005
20
6.936521875
30
0
0
VERTEX
8
0
10
37.252078125000004
20
6.900471875
30
0
0
VERTEX
8
0
10
37.309303125
20
6.869884375000001
30
0
0
VERTEX
8
0
10
37.36925
20
6.845053125000001
30
0
0
VERTEX
8
0
10
37.43134375
20
6.826218750000001
30
0
0
VERTEX
8
0
10
37.49498125
20
6.8135593750000005
30
0
0
VERTEX
8
0
10
37.55955625
20
6.8072
30
0
0
VERTEX
8
0
10
37.624443750000005
20
6.8072
30
0
0
SEQEND
0
POLYLINE
66
1
8
1_copper
10
0.0
20
0.0
30
0.0
70
1
0
VERTEX
8
0
10
121.680778125
20
3.175946875
30
0
42
0.18883090533686178
0
VERTEX
8
0
10
121.93540625
20
3.28659375
30
0
0
VERTEX
8
0
10
123.45940625
20
4.810593750000001
30
0
42
0.198912367379658
0
VERTEX
8
0
10
123.57100000000001
20
5.08
30
0
0
VERTEX
8
0
10
123.57100000000001
20
22.86
30
0
42
0.198912367379658
0
VERTEX
8
0
10
123.45940625
20
23.129406250000002
30
0
0
VERTEX
8
0
10
120.79240625
20
25.79640625
30
0
42
0.198912367379658
0
VERTEX
8
0
10
120.52300000000001
20
25.908
30
0
0
VERTEX
8
0
10
119.76100000000001
20
25.908
30
0
42
0.966963462347794
0
VERTEX
8
0
10
119.735425
20
25.146859375000002
30
0
0
VERTEX
8
0
10
119.76100000000001
20
25.146
30
0
0
VERTEX
8
0
10
120.3651875
20
25.146
30
0
0
VERTEX
8
0
10
122.80900000000001
20
22.7021875
30
0
0
VERTEX
8
0
10
122.80900000000001
20
5.2378125
30
0
0
VERTEX
8
0
10
121.5081875
20
3.9370000000000003
30
0
0
VERTEX
8
0
10
99.4718125
20
3.9370000000000003
30
0
0
VERTEX
8
0
10
95.64640625
20
7.762406250000001
30
0
42
0.198912367379658
0
VERTEX
8
0
10
95.37700000000001
20
7.8740000000000006
30
0
0
VERTEX
8
0
10
85.6234
20
7.8740000000000006
30
0
0
VERTEX
8
0
10
85.6234
20
8.18584375
30
0
42
0.9520786018124834
0
VERTEX
8
0
10
84.3026
20
8.18584375
30
0
0
VERTEX
8
0
10
84.3026
20
6.800156250000001
30
0
42
0.9520786018124834
0
VERTEX
8
0
10
85.6234
20
6.800156250000001
30
0
0
VERTEX
8
0
10
85.6234
20
7.112
30
0
0
VERTEX
8
0
10
95.2191875
20
7.112
30
0
0
VERTEX
8
0
10
99.04459375
20
3.28659375
30
0
42
0.198912367379658
0
VERTEX
8
0
10
99.31400000000001
20
3.1750000000000003
30
0
0
VERTEX
8
0
10
121.66600000000001
20
3.1750000000000003
30
0
0
SEQEND
0
POLYLINE
66
1
8
16_copper
10
0.0
20
0.0
30
0.0
70
1
0
VERTEX
8
0
10
85.06001875
20
6.178559375
30
0
42
0.3578051432831595
0
VERTEX
8
0
10
85.6234
20
6.800156250000001
30
0
0
VERTEX
8
0
10
85.6234
20
8.18584375
30
0
42
0.9520786018124834
0
VERTEX
8
0
10
84.3026
20
8.18584375
30
0
0
VERTEX
8
0
10
84.3026
20
6.800156250000001
30
0
0
VERTEX
8
0
10
84.308959375
20
6.73558125
30
0
0
VERTEX
8
0
10
84.32161875
20
6.6719437500000005
30
0
0
VERTEX
8
0
10
84.34045312500001
20
6.609850000000001
30
0
0
VERTEX
8
0
10
84.365284375
20
6.549903125
30
0
0
VERTEX
8
0
10
84.395871875
20
6.492678125
30
0
0
VERTEX
8
0
10
84.431921875
20
6.438725000000001
30
0
0
VERTEX
8
0
10
84.473084375
20
6.38856875
30
0
0
VERTEX
8
0
10
84.51896875
20
6.342684375
30
0
0
VERTEX
8
0
10
84.569125
20
6.301521875000001
30
0
0
VERTEX
8
0
10
84.623078125
20
6.265471875
30
0
0
VERTEX
8
0
10
84.68030312500001
20
6.234884375
30
0
0
VERTEX
8
0
10
84.74025
20
6.210053125
30
0
0
VERTEX
8
0
10
84.80234375
20
6.19121875
30
0
0
VERTEX
8
0
10
84.86598125
20
6.178559375
30
0
0
VERTEX
8
0
10
84.93055625000001
20
6.1722
30
0
0
VERTEX
8
0
10
84.99544375
20
6.1722
30
0
0
SEQEND
0
POLYLINE
66
1
8
1_copper
10
0.0
20
0.0
30
0.0
70
1
0
VERTEX
8
0
10
120.79177812500001
20
30.226946875000003
30
0
42
0.18883090533686178
0
VERTEX
8
0
10
121.04640625
20
30.33759375
30
0
0
VERTEX
8
0
10
123.45940625
20
32.75059375
30
0
42
0.198912367379658
0
VERTEX
8
0
10
123.57100000000001
20
33.02
30
0
0
VERTEX
8
0
10
123.57100000000001
20
37.236525
30
0
0
VERTEX
8
0
10
127.52340625000001
20
41.18893125
30
0
42
0.198912367379658
0
VERTEX
8
0
10
127.635
20
41.4583375
30
0
0
VERTEX
8
0
10
127.635
20
47.37255625
30
0
42
0.198912367379658
0
VERTEX
8
0
10
127.52340625000001
20
47.641962500000005
30
0
0
VERTEX
8
0
10
118.76196250000001
20
56.40340625
30
0
42
0.198912367379658
0
VERTEX
8
0
10
118.49255625
20
56.515
30
0
0
VERTEX
8
0
10
101.6451375
20
56.515
30
0
0
VERTEX
8
0
10
94.13673125000001
20
64.02340625000001
30
0
42
0.198912367379658
0
VERTEX
8
0
10
93.86732500000001
20
64.135
30
0
0
VERTEX
8
0
10
79.55833750000001
20
64.135
30
0
42
0.198912367379658
0
VERTEX
8
0
10
79.28893125
20
64.02340625000001
30
0
0
VERTEX
8
0
10
77.495525
20
62.230000000000004
30
0
0
VERTEX
8
0
10
74.52035000000001
20
62.230000000000004
30
0
42
0.198912367379658
0
VERTEX
8
0
10
74.25094375
20
62.11840625
30
0
0
VERTEX
8
0
10
73.6005375
20
61.468
30
0
0
VERTEX
8
0
10
43.7443375
20
61.468
30
0
42
0.198912367379658
0
VERTEX
8
0
10
43.474931250000004
20
61.356406250000006
30
0
0
VERTEX
8
0
10
39.903525
20
57.785000000000004
30
0
0
VERTEX
8
0
10
34.9670125
20
57.785000000000004
30
0
42
0.198912367379658
0
VERTEX
8
0
10
34.69760625
20
57.67340625
30
0
0
VERTEX
8
0
10
32.2128625
20
55.1886625
30
0
0
VERTEX
8
0
10
21.550150000000002
20
55.1886625
30
0
0
VERTEX
8
0
10
17.92240625
20
58.81640625
30
0
42
0.198912367379658
0
VERTEX
8
0
10
17.653000000000002
20
58.928000000000004
30
0
0
VERTEX
8
0
10
14.6304
20
58.928000000000004
30
0
0
VERTEX
8
0
10
14.6304
20
59.239843750000006
30
0
42
0.9520786018124834
0
VERTEX
8
0
10
13.309600000000001
20
59.239843750000006
30
0
0
VERTEX
8
0
10
13.309600000000001
20
57.85415625
30
0
42
0.9520786018124834
0
VERTEX
8
0
10
14.6304
20
57.85415625
30
0
0
VERTEX
8
0
10
14.6304
20
58.166000000000004
30
0
0
VERTEX
8
0
10
17.4951875
20
58.166000000000004
30
0
0
VERTEX
8
0
10
21.12293125
20
54.53825625
30
0
42
0.198912367379658
0
VERTEX
8
0
10
21.3923375
20
54.4266625
30
0
0
VERTEX
8
0
10
32.370675
20
54.4266625
30
0
42
0.198912367379658
0
VERTEX
8
0
10
32.64008125
20
54.53825625
30
0
0
VERTEX
8
0
10
35.124825
20
57.023
30
0
0
VERTEX
8
0
10
40.0613375
20
57.023
30
0
42
0.198912367379658
0
VERTEX
8
0
10
40.33074375
20
57.13459375
30
0
0
VERTEX
8
0
10
43.90215
20
60.706
30
0
0
VERTEX
8
0
10
73.75835000000001
20
60.706
30
0
42
0.198912367379658
0
VERTEX
8
0
10
74.02775625000001
20
60.81759375
30
0
0
VERTEX
8
0
10
74.6781625
20
61.468
30
0
0
VERTEX
8
0
10
77.6533375
20
61.468
30
0
42
0.198912367379658
0
VERTEX
8
0
10
77.92274375000001
20
61.57959375
30
0
0
VERTEX
8
0
10
79.71615
20
63.373000000000005
30
0
0
VERTEX
8
0
10
93.7095125
20
63.373000000000005
30
0
0
VERTEX
8
0
10
101.21791875000001
20
55.864593750000004
30
0
42
0.198912367379658
0
VERTEX
8
0
10
101.487325
20
55.753
30
0
0
VERTEX
8
0
10
118.33474375
20
55.753
30
0
0
VERTEX
8
0
10
126.873
20
47.214743750000004
30
0
0
VERTEX
8
0
10
126.873
20
41.616150000000005
30
0
0
VERTEX
8
0
10
122.92059375000001
20
37.66374375
30
0
42
0.198912367379658
0
VERTEX
8
0
10
122.80900000000001
20
37.3943375
30
0
0
VERTEX
8
0
10
122.80900000000001
20
33.1778125
30
0
0
VERTEX
8
0
10
120.61918750000001
20
30.988000000000003
30
0
0
VERTEX
8
0
10
119.76100000000001
20
30.988000000000003
30
0
42
0.966963462347794
0
VERTEX
8
0
10
119.735425
20
30.226859375
30
0
0
VERTEX
8
0
10
119.76100000000001
20
30.226000000000003
30
0
0
VERTEX
8
0
10
120.777
20
30.226000000000003
30
0
0
SEQEND
0
POLYLINE
66
1
8
16_copper
10
0.0
20
0.0
30
0.0
70
1
0
VERTEX
8
0
10
14.06701875
20
57.232559375
30
0
42
0.3578051432831595
0
VERTEX
8
0
10
14.6304
20
57.85415625
30
0
0
VERTEX
8
0
10
14.6304
20
59.239843750000006
30
0
42
0.9520786018124834
0
VERTEX
8
0
10
13.309600000000001
20
59.239843750000006
30
0
0
VERTEX
8
0
10
13.309600000000001
20
57.85415625
30
0
0
VERTEX
8
0
10
13.315959375
20
57.789581250000005
30
0
0
VERTEX
8
0
10
13.32861875
20
57.725943750000006
30
0
0
VERTEX
8
0
10
13.347453125000001
20
57.663850000000004
30
0
0
VERTEX
8
0
10
13.372284375000001
20
57.603903125
30
0
0
VERTEX
8
0
10
13.402871875
20
57.546678125
30
0
0
VERTEX
8
0
10
13.438921875
20
57.492725
30
0
0
VERTEX
8
0
10
13.480084375
20
57.44256875
30
0
0
VERTEX
8
0
10
13.52596875
20
57.396684375
30
0
0
VERTEX
8
0
10
13.576125000000001
20
57.355521875
30
0
0
VERTEX
8
0
10
13.630078125
20
57.319471875000005
30
0
0
VERTEX
8
0
10
13.687303125000001
20
57.288884375
30
0
0
VERTEX
8
0
10
13.747250000000001
20
57.264053125000004
30
0
0
VERTEX
8
0
10
13.80934375
20
57.24521875
30
0
0
VERTEX
8
0
10
13.87298125
20
57.232559375
30
0
0
VERTEX
8
0
10
13.93755625
20
57.226200000000006
30
0
0
VERTEX
8
0
10
14.002443750000001
20
57.226200000000006
30
0
0
SEQEND
0
POLYLINE
66
1
8
1_copper
10
0.0
20
0.0
30
0.0
70
1
0
VERTEX
8
0
10
119.809671875
20
35.309121875
30
0
42
0.9379180080723117
0
VERTEX
8
0
10
119.76100000000001
20
36.068000000000005
30
0
0
VERTEX
8
0
10
117.221
20
36.068000000000005
30
0
0
VERTEX
8
0
10
117.221
20
48.260000000000005
30
0
42
0.198912367379658
0
VERTEX
8
0
10
117.10940625
20
48.52940625
30
0
0
VERTEX
8
0
10
112.02940625000001
20
53.60940625
30
0
42
0.198912367379658
0
VERTEX
8
0
10
111.76
20
53.721000000000004
30
0
0
VERTEX
8
0
10
100.4878125
20
53.721000000000004
30
0
0
VERTEX
8
0
10
92.97940625000001
20
61.229406250000004
30
0
42
0.198912367379658
0
VERTEX
8
0
10
92.71000000000001
20
61.341
30
0
0
VERTEX
8
0
10
81.28
20
61.341
30
0
42
0.198912367379658
0
VERTEX
8
0
10
81.01059375
20
61.229406250000004
30
0
0
VERTEX
8
0
10
80.618959375
20
60.837771875
30
0
42
0.04116388125241817
0
VERTEX
8
0
10
80.57095000000001
20
60.79760625
30
0
0
VERTEX
8
0
10
79.41039375
20
59.63705
30
0
42
0.03983865015976289
0
VERTEX
8
0
10
79.371075
20
59.5898875
30
0
0
VERTEX
8
0
10
78.83618750000001
20
59.055
30
0
0
VERTEX
8
0
10
75.29667500000001
20
59.055
30
0
42
0.198912367379658
0
VERTEX
8
0
10
75.02726875
20
58.94340625
30
0
0
VERTEX
8
0
10
73.8688625
20
57.785000000000004
30
0
0
VERTEX
8
0
10
61.4934
20
57.785000000000004
30
0
42
0.9907251249793989
0
VERTEX
8
0
10
60.19161875
20
58.098056250000006
30
0
0
VERTEX
8
0
10
60.178959375000005
20
58.03441875
30
0
0
VERTEX
8
0
10
60.1726
20
57.96984375
30
0
0
VERTEX
8
0
10
60.1726
20
56.58415625
30
0
42
0.9520786018124834
0
VERTEX
8
0
10
61.4934
20
56.58415625
30
0
0
VERTEX
8
0
10
61.4934
20
57.023
30
0
0
VERTEX
8
0
10
74.026675
20
57.023
30
0
42
0.198912367379658
0
VERTEX
8
0
10
74.29608125
20
57.13459375
30
0
0
VERTEX
8
0
10
75.4544875
20
58.293
30
0
0
VERTEX
8
0
10
78.994
20
58.293
30
0
42
0.198912367379658
0
VERTEX
8
0
10
79.26340625
20
58.404593750000004
30
0
0
VERTEX
8
0
10
79.94920625
20
59.090393750000004
30
0
42
0.04038611365357621
0
VERTEX
8
0
10
79.98852500000001
20
59.13755625
30
0
0
VERTEX
8
0
10
81.069596875
20
60.218628125
30
0
42
0.040609028274280735
0
VERTEX
8
0
10
81.11760625000001
20
60.25879375
30
0
0
VERTEX
8
0
10
81.4378125
20
60.579
30
0
0
VERTEX
8
0
10
92.5521875
20
60.579
30
0
0
VERTEX
8
0
10
100.06059375000001
20
53.07059375
30
0
42
0.198912367379658
0
VERTEX
8
0
10
100.33
20
52.959
30
0
0
VERTEX
8
0
10
111.6021875
20
52.959
30
0
0
VERTEX
8
0
10
116.459
20
48.1021875
30
0
0
VERTEX
8
0
10
116.459
20
35.687000000000005
30
0
42
0.41421356237309503
0
VERTEX
8
0
10
116.84
20
35.306000000000004
30
0
0
VERTEX
8
0
10
119.76100000000001
20
35.306000000000004
30
0
0
SEQEND
0
POLYLINE
66
1
8
16_copper
10
0.0
20
0.0
30
0.0
70
1
0
VERTEX
8
0
10
60.93001875
20
55.962559375000005
30
0
42
0.3578051432831595
0
VERTEX
8
0
10
61.4934
20
56.58415625
30
0
0
VERTEX
8
0
10
61.4934
20
57.96984375
30
0
42
0.9520786018124834
0
VERTEX
8
0
10
60.1726
20
57.96984375
30
0
0
VERTEX
8
0
10
60.1726
20
56.58415625
30
0
0
VERTEX
8
0
10
60.178959375000005
20
56.51958125
30
0
0
VERTEX
8
0
10
60.19161875
20
56.45594375
30
0
0
VERTEX
8
0
10
60.210453125
20
56.39385
30
0
0
VERTEX
8
0
10
60.235284375000006
20
56.333903125000006
30
0
0
VERTEX
8
0
10
60.265871875
20
56.276678125000004
30
0
0
VERTEX
8
0
10
60.301921875000005
20
56.222725000000004
30
0
0
VERTEX
8
0
10
60.343084375000004
20
56.17256875
30
0
0
VERTEX
8
0
10
60.388968750000004
20
56.126684375
30
0
0
VERTEX
8
0
10
60.439125000000004
20
56.085521875000005
30
0
0
VERTEX
8
0
10
60.493078125000004
20
56.049471875
30
0
0
VERTEX
8
0
10
60.550303125000006
20
56.018884375000006
30
0
0
VERTEX
8
0
10
60.61025
20
55.994053125
30
0
0
VERTEX
8
0
10
60.67234375
20
55.97521875
30
0
0
VERTEX
8
0
10
60.73598125
20
55.962559375000005
30
0
0
VERTEX
8
0
10
60.80055625
20
55.9562
30
0
0
VERTEX
8
0
10
60.865443750000004
20
55.9562
30
0
0
SEQEND
0
POLYLINE
66
1
8
1_copper
10
0.0
20
0.0
30
0.0
70
1
0
VERTEX
8
0
10
119.809671875
20
32.769121875
30
0
42
0.9379180080723117
0
VERTEX
8
0
10
119.76100000000001
20
33.528
30
0
0
VERTEX
8
0
10
115.6008125
20
33.528
30
0
0
VERTEX
8
0
10
109.601
20
39.5278125
30
0
0
VERTEX
8
0
10
109.601
20
46.920893750000005
30
0
42
0.198912367379658
0
VERTEX
8
0
10
109.48940625
20
47.1903
30
0
0
VERTEX
8
0
10
105.7373
20
50.942406250000005
30
0
42
0.198912367379658
0
VERTEX
8
0
10
105.46789375
20
51.054
30
0
0
VERTEX
8
0
10
103.19310625
20
51.054
30
0
42
0.198912367379658
0
VERTEX
8
0
10
102.92370000000001
20
50.942406250000005
30
0
0
VERTEX
8
0
10
100.18759375
20
48.2063
30
0
42
0.198912367379658
0
VERTEX
8
0
10
100.07600000000001
20
47.93689375
30
0
0
VERTEX
8
0
10
100.07600000000001
20
47.047081250000005
30
0
42
0.230713938450642
0
VERTEX
8
0
10
99.7966
20
46.53984375
30
0
0
VERTEX
8
0
10
99.7966
20
45.15415625
30
0
42
0.9520786018124834
0
VERTEX
8
0
10
101.1174
20
45.15415625
30
0
0
VERTEX
8
0
10
101.1174
20
46.53984375
30
0
42
0.230713938450642
0
VERTEX
8
0
10
100.83800000000001
20
47.047081250000005
30
0
0
VERTEX
8
0
10
100.83800000000001
20
47.779081250000004
30
0
0
VERTEX
8
0
10
103.35091875
20
50.292
30
0
0
VERTEX
8
0
10
105.31008125000001
20
50.292
30
0
0
VERTEX
8
0
10
108.839
20
46.76308125
30
0
0
VERTEX
8
0
10
108.839
20
39.370000000000005
30
0
42
0.198912367379658
0
VERTEX
8
0
10
108.95059375000001
20
39.10059375
30
0
0
VERTEX
8
0
10
115.17359375000001
20
32.87759375
30
0
42
0.198912367379658
0
VERTEX
8
0
10
115.44300000000001
20
32.766
30
0
0
VERTEX
8
0
10
119.76100000000001
20
32.766
30
0
0
SEQEND
0
POLYLINE
66
1
8
16_copper
10
0.0
20
0.0
30
0.0
70
1
0
VERTEX
8
0
10
100.55401875000001
20
44.532559375000005
30
0
42
0.3578051432831595
0
VERTEX
8
0
10
101.1174
20
45.15415625
30
0
0
VERTEX
8
0
10
101.1174
20
46.53984375
30
0
42
0.9520786018124834
0
VERTEX
8
0
10
99.7966
20
46.53984375
30
0
0
VERTEX
8
0
10
99.7966
20
45.15415625
30
0
0
VERTEX
8
0
10
99.802959375
20
45.08958125
30
0
0
VERTEX
8
0
10
99.81561875
20
45.02594375
30
0
0
VERTEX
8
0
10
99.83445312500001
20
44.96385
30
0
0
VERTEX
8
0
10
99.859284375
20
44.903903125
30
0
0
VERTEX
8
0
10
99.88987187500001
20
44.846678125000004
30
0
0
VERTEX
8
0
10
99.925921875
20
44.792725000000004
30
0
0
VERTEX
8
0
10
99.967084375
20
44.742568750000004
30
0
0
VERTEX
8
0
10
100.01296875
20
44.696684375000004
30
0
0
VERTEX
8
0
10
100.063125
20
44.655521875000005
30
0
0
VERTEX
8
0
10
100.117078125
20
44.619471875
30
0
0
VERTEX
8
0
10
100.17430312500001
20
44.588884375
30
0
0
VERTEX
8
0
10
100.23425
20
44.564053125
30
0
0
VERTEX
8
0
10
100.29634375
20
44.545218750000004
30
0
0
VERTEX
8
0
10
100.35998125
20
44.532559375000005
30
0
0
VERTEX
8
0
10
100.42455625000001
20
44.5262
30
0
0
VERTEX
8
0
10
100.48944375
20
44.5262
30
0
0
SEQEND
0
POLYLINE
66
1
8
1_copper
10
0.0
20
0.0
30
0.0
70
1
0
VERTEX
8
0
10
74.46439375
20
6.223
30
0
0
VERTEX
8
0
10
78.74000000000001
20
6.223
30
0
42
0.198912367379658
0
VERTEX
8
0
10
79.00940625
20
6.334593750000001
30
0
0
VERTEX
8
0
10
79.78681250000001
20
7.112
30
0
0
VERTEX
8
0
10
81.7626
20
7.112
30
0
0
VERTEX
8
0
10
81.7626
20
6.800156250000001
30
0
42
0.9520786018124834
0
VERTEX
8
0
10
83.0834
20
6.800156250000001
30
0
0
VERTEX
8
0
10
83.0834
20
8.18584375
30
0
42
0.9520786018124834
0
VERTEX
8
0
10
81.7626
20
8.18584375
30
0
0
VERTEX
8
0
10
81.7626
20
7.8740000000000006
30
0
0
VERTEX
8
0
10
79.629
20
7.8740000000000006
30
0
42
0.198912367379658
0
VERTEX
8
0
10
79.35959375
20
7.762406250000001
30
0
0
VERTEX
8
0
10
78.5821875
20
6.985
30
0
0
VERTEX
8
0
10
74.46439375
20
6.985
30
0
0
VERTEX
8
0
10
74.00719375
20
7.442200000000001
30
0
0
VERTEX
8
0
10
73.31280625000001
20
7.442200000000001
30
0
0
VERTEX
8
0
10
72.82180000000001
20
6.951193750000001
30
0
0
VERTEX
8
0
10
72.82180000000001
20
6.25680625
30
0
0
VERTEX
8
0
10
73.31280625000001
20
5.7658000000000005
30
0
0
VERTEX
8
0
10
74.00719375
20
5.7658000000000005
30
0
0
SEQEND
0
POLYLINE
66
1
8
16_copper
10
0.0
20
0.0
30
0.0
70
1
0
VERTEX
8
0
10
82.52001875
20
6.178559375
30
0
42
0.3578051432831595
0
VERTEX
8
0
10
83.0834
20
6.800156250000001
30
0
0
VERTEX
8
0
10
83.0834
20
8.18584375
30
0
42
0.9520786018124834
0
VERTEX
8
0
10
81.7626
20
8.18584375
30
0
0
VERTEX
8
0
10
81.7626
20
6.800156250000001
30
0
0
VERTEX
8
0
10
81.76895937500001
20
6.73558125
30
0
0
VERTEX
8
0
10
81.78161875
20
6.6719437500000005
30
0
0
VERTEX
8
0
10
81.800453125
20
6.609850000000001
30
0
0
VERTEX
8
0
10
81.82528437500001
20
6.549903125
30
0
0
VERTEX
8
0
10
81.855871875
20
6.492678125
30
0
0
VERTEX
8
0
10
81.89192187500001
20
6.438725000000001
30
0
0
VERTEX
8
0
10
81.933084375
20
6.38856875
30
0
0
VERTEX
8
0
10
81.97896875
20
6.342684375
30
0
0
VERTEX
8
0
10
82.02912500000001
20
6.301521875000001
30
0
0
VERTEX
8
0
10
82.083078125
20
6.265471875
30
0
0
VERTEX
8
0
10
82.140303125
20
6.234884375
30
0
0
VERTEX
8
0
10
82.20025
20
6.210053125
30
0
0
VERTEX
8
0
10
82.26234375
20
6.19121875
30
0
0
VERTEX
8
0
10
82.32598125
20
6.178559375
30
0
0
VERTEX
8
0
10
82.39055625
20
6.1722
30
0
0
VERTEX
8
0
10
82.45544375
20
6.1722
30
0
0
SEQEND
0
POLYLINE
66
1
8
16_copper
10
0.0
20
0.0
30
0.0
70
1
0
VERTEX
8
0
10
74.4982
20
6.25680625
30
0
0
VERTEX
8
0
10
74.4982
20
6.951193750000001
30
0
0
VERTEX
8
0
10
74.00719375
20
7.442200000000001
30
0
0
VERTEX
8
0
10
73.31280625000001
20
7.442200000000001
30
0
0
VERTEX
8
0
10
72.82180000000001
20
6.951193750000001
30
0
0
VERTEX
8
0
10
72.82180000000001
20
6.25680625
30
0
0
VERTEX
8
0
10
73.31280625000001
20
5.7658000000000005
30
0
0
VERTEX
8
0
10
74.00719375
20
5.7658000000000005
30
0
0
SEQEND
0
POLYLINE
66
1
8
1_copper
10
0.0
20
0.0
30
0.0
70
1
0
VERTEX
8
0
10
35.14901875
20
6.8135593750000005
30
0
42
0.3578051432831595
0
VERTEX
8
0
10
35.7124
20
7.43515625
30
0
0
VERTEX
8
0
10
35.7124
20
8.82084375
30
0
42
0.9520786018124834
0
VERTEX
8
0
10
34.391600000000004
20
8.82084375
30
0
0
VERTEX
8
0
10
34.391600000000004
20
8.509
30
0
0
VERTEX
8
0
10
31.792393750000002
20
8.509
30
0
0
VERTEX
8
0
10
31.335193750000002
20
8.9662
30
0
0
VERTEX
8
0
10
30.64080625
20
8.9662
30
0
0
VERTEX
8
0
10
30.149800000000003
20
8.47519375
30
0
0
VERTEX
8
0
10
30.149800000000003
20
7.78080625
30
0
0
VERTEX
8
0
10
30.64080625
20
7.2898000000000005
30
0
0
VERTEX
8
0
10
31.335193750000002
20
7.2898000000000005
30
0
0
VERTEX
8
0
10
31.792393750000002
20
7.747000000000001
30
0
0
VERTEX
8
0
10
34.391600000000004
20
7.747000000000001
30
0
0
VERTEX
8
0
10
34.391600000000004
20
7.43515625
30
0
0
VERTEX
8
0
10
34.397959375
20
7.370581250000001
30
0
0
VERTEX
8
0
10
34.410618750000005
20
7.30694375
30
0
0
VERTEX
8
0
10
34.429453125
20
7.2448500000000005
30
0
0
VERTEX
8
0
10
34.454284375
20
7.184903125
30
0
0
VERTEX
8
0
10
34.484871875
20
7.127678125
30
0
0
VERTEX
8
0
10
34.520921875
20
7.0737250000000005
30
0
0
VERTEX
8
0
10
34.562084375000005
20
7.02356875
30
0
0
VERTEX
8
0
10
34.607968750000005
20
6.977684375
30
0
0
VERTEX
8
0
10
34.658125
20
6.936521875
30
0
0
VERTEX
8
0
10
34.712078125000005
20
6.900471875
30
0
0
VERTEX
8
0
10
34.769303125
20
6.869884375000001
30
0
0
VERTEX
8
0
10
34.82925
20
6.845053125000001
30
0
0
VERTEX
8
0
10
34.891343750000004
20
6.826218750000001
30
0
0
VERTEX
8
0
10
34.95498125
20
6.8135593750000005
30
0
0
VERTEX
8
0
10
35.01955625
20
6.8072
30
0
0
VERTEX
8
0
10
35.08444375
20
6.8072
30
0
0
SEQEND
0
POLYLINE
66
1
8
16_copper
10
0.0
20
0.0
30
0.0
70
1
0
VERTEX
8
0
10
35.14901875
20
6.8135593750000005
30
0
42
0.3578051432831595
0
VERTEX
8
0
10
35.7124
20
7.43515625
30
0
0
VERTEX
8
0
10
35.7124
20
8.82084375
30
0
42
0.9520786018124834
0
VERTEX
8
0
10
34.391600000000004
20
8.82084375
30
0
0
VERTEX
8
0
10
34.391600000000004
20
7.43515625
30
0
0
VERTEX
8
0
10
34.397959375
20
7.370581250000001
30
0
0
VERTEX
8
0
10
34.410618750000005
20
7.30694375
30
0
0
VERTEX
8
0
10
34.429453125
20
7.2448500000000005
30
0
0
VERTEX
8
0
10
34.454284375
20
7.184903125
30
0
0
VERTEX
8
0
10
34.484871875
20
7.127678125
30
0
0
VERTEX
8
0
10
34.520921875
20
7.0737250000000005
30
0
0
VERTEX
8
0
10
34.562084375000005
20
7.02356875
30
0
0
VERTEX
8
0
10
34.607968750000005
20
6.977684375
30
0
0
VERTEX
8
0
10
34.658125
20
6.936521875
30
0
0
VERTEX
8
0
10
34.712078125000005
20
6.900471875
30
0
0
VERTEX
8
0
10
34.769303125
20
6.869884375000001
30
0
0
VERTEX
8
0
10
34.82925
20
6.845053125000001
30
0
0
VERTEX
8
0
10
34.891343750000004
20
6.826218750000001
30
0
0
VERTEX
8
0
10
34.95498125
20
6.8135593750000005
30
0
0
VERTEX
8
0
10
35.01955625
20
6.8072
30
0
0
VERTEX
8
0
10
35.08444375
20
6.8072
30
0
0
SEQEND
0
POLYLINE
66
1
8
16_copper
10
0.0
20
0.0
30
0.0
70
1
0
VERTEX
8
0
10
31.8262
20
7.78080625
30
0
0
VERTEX
8
0
10
31.8262
20
8.47519375
30
0
0
VERTEX
8
0
10
31.335193750000002
20
8.9662
30
0
0
VERTEX
8
0
10
30.64080625
20
8.9662
30
0
0
VERTEX
8
0
10
30.149800000000003
20
8.47519375
30
0
0
VERTEX
8
0
10
30.149800000000003
20
7.78080625
30
0
0
VERTEX
8
0
10
30.64080625
20
7.2898000000000005
30
0
0
VERTEX
8
0
10
31.335193750000002
20
7.2898000000000005
30
0
0
SEQEND
0
POLYLINE
66
1
8
1_copper
10
0.0
20
0.0
30
0.0
70
1
0
VERTEX
8
0
10
17.9832
20
35.97480625
30
0
0
VERTEX
8
0
10
17.9832
20
36.669193750000005
30
0
0
VERTEX
8
0
10
17.492193750000002
20
37.1602
30
0
0
VERTEX
8
0
10
16.8456125
20
37.1602
30
0
0
VERTEX
8
0
10
14.351
20
39.6548125
30
0
0
VERTEX
8
0
10
14.351
20
46.99
30
0
42
0.198912367379658
0
VERTEX
8
0
10
14.23940625
20
47.259406250000005
30
0
0
VERTEX
8
0
10
9.017000000000001
20
52.481812500000004
30
0
0
VERTEX
8
0
10
9.017000000000001
20
56.7381875
30
0
0
VERTEX
8
0
10
10.444812500000001
20
58.166000000000004
30
0
0
VERTEX
8
0
10
10.7696
20
58.166000000000004
30
0
0
VERTEX
8
0
10
10.7696
20
57.85415625
30
0
42
0.9520786018124834
0
VERTEX
8
0
10
12.0904
20
57.85415625
30
0
0
VERTEX
8
0
10
12.0904
20
59.239843750000006
30
0
42
0.9520786018124834
0
VERTEX
8
0
10
10.7696
20
59.239843750000006
30
0
0
VERTEX
8
0
10
10.7696
20
58.928000000000004
30
0
0
VERTEX
8
0
10
10.287
20
58.928000000000004
30
0
42
0.198912367379658
0
VERTEX
8
0
10
10.01759375
20
58.81640625
30
0
0
VERTEX
8
0
10
8.36659375
20
57.165406250000004
30
0
42
0.198912367379658
0
VERTEX
8
0
10
8.255
20
56.896
30
0
0
VERTEX
8
0
10
8.255
20
52.324000000000005
30
0
42
0.198912367379658
0
VERTEX
8
0
10
8.36659375
20
52.05459375
30
0
0
VERTEX
8
0
10
13.589
20
46.8321875
30
0
0
VERTEX
8
0
10
13.589
20
39.497
30
0
42
0.198912367379658
0
VERTEX
8
0
10
13.700593750000001
20
39.227593750000004
30
0
0
VERTEX
8
0
10
16.3068
20
36.621387500000004
30
0
0
VERTEX
8
0
10
16.3068
20
35.97480625
30
0
0
VERTEX
8
0
10
16.79780625
20
35.4838
30
0
0
VERTEX
8
0
10
17.492193750000002
20
35.4838
30
0
0
SEQEND
0
POLYLINE
66
1
8
16_copper
10
0.0
20
0.0
30
0.0
70
1
0
VERTEX
8
0
10
11.52701875
20
57.232559375
30
0
42
0.3578051432831595
0
VERTEX
8
0
10
12.0904
20
57.85415625
30
0
0
VERTEX
8
0
10
12.0904
20
59.239843750000006
30
0
42
0.9520786018124834
0
VERTEX
8
0
10
10.7696
20
59.239843750000006
30
0
0
VERTEX
8
0
10
10.7696
20
57.85415625
30
0
0
VERTEX
8
0
10
10.775959375000001
20
57.789581250000005
30
0
0
VERTEX
8
0
10
10.788618750000001
20
57.725943750000006
30
0
0
VERTEX
8
0
10
10.807453125
20
57.663850000000004
30
0
0
VERTEX
8
0
10
10.832284375
20
57.603903125
30
0
0
VERTEX
8
0
10
10.862871875
20
57.546678125
30
0
0
VERTEX
8
0
10
10.898921875000001
20
57.492725
30
0
0
VERTEX
8
0
10
10.940084375
20
57.44256875
30
0
0
VERTEX
8
0
10
10.985968750000001
20
57.396684375
30
0
0
VERTEX
8
0
10
11.036125
20
57.355521875
30
0
0
VERTEX
8
0
10
11.090078125
20
57.319471875000005
30
0
0
VERTEX
8
0
10
11.147303125
20
57.288884375
30
0
0
VERTEX
8
0
10
11.20725
20
57.264053125000004
30
0
0
VERTEX
8
0
10
11.26934375
20
57.24521875
30
0
0
VERTEX
8
0
10
11.332981250000001
20
57.232559375
30
0
0
VERTEX
8
0
10
11.397556250000001
20
57.226200000000006
30
0
0
VERTEX
8
0
10
11.46244375
20
57.226200000000006
30
0
0
SEQEND
0
POLYLINE
66
1
8
16_copper
10
0.0
20
0.0
30
0.0
70
1
0
VERTEX
8
0
10
17.9832
20
35.97480625
30
0
0
VERTEX
8
0
10
17.9832
20
36.669193750000005
30
0
0
VERTEX
8
0
10
17.492193750000002
20
37.1602
30
0
0
VERTEX
8
0
10
16.79780625
20
37.1602
30
0
0
VERTEX
8
0
10
16.3068
20
36.669193750000005
30
0
0
VERTEX
8
0
10
16.3068
20
35.97480625
30
0
0
VERTEX
8
0
10
16.79780625
20
35.4838
30
0
0
VERTEX
8
0
10
17.492193750000002
20
35.4838
30
0
0
SEQEND
0
POLYLINE
66
1
8
1_copper
10
0.0
20
0.0
30
0.0
70
1
0
VERTEX
8
0
10
58.39001875
20
55.962559375000005
30
0
42
0.3578051432831595
0
VERTEX
8
0
10
58.9534
20
56.58415625
30
0
0
VERTEX
8
0
10
58.9534
20
57.96984375
30
0
42
0.9520786018124834
0
VERTEX
8
0
10
57.632600000000004
20
57.96984375
30
0
0
VERTEX
8
0
10
57.632600000000004
20
57.658
30
0
0
VERTEX
8
0
10
55.8292
20
57.658
30
0
0
VERTEX
8
0
10
55.8292
20
57.751193750000006
30
0
0
VERTEX
8
0
10
55.33819375
20
58.242200000000004
30
0
0
VERTEX
8
0
10
54.643806250000004
20
58.242200000000004
30
0
0
VERTEX
8
0
10
54.1528
20
57.751193750000006
30
0
0
VERTEX
8
0
10
54.1528
20
57.05680625
30
0
0
VERTEX
8
0
10
54.643806250000004
20
56.5658
30
0
0
VERTEX
8
0
10
55.33819375
20
56.5658
30
0
0
VERTEX
8
0
10
55.66839375
20
56.896
30
0
0
VERTEX
8
0
10
57.632600000000004
20
56.896
30
0
0
VERTEX
8
0
10
57.632600000000004
20
56.58415625
30
0
0
VERTEX
8
0
10
57.638959375000006
20
56.51958125
30
0
0
VERTEX
8
0
10
57.651618750000004
20
56.45594375
30
0
0
VERTEX
8
0
10
57.670453125
20
56.39385
30
0
0
VERTEX
8
0
10
57.695284375
20
56.333903125000006
30
0
0
VERTEX
8
0
10
57.725871875
20
56.276678125000004
30
0
0
VERTEX
8
0
10
57.761921875000006
20
56.222725000000004
30
0
0
VERTEX
8
0
10
57.803084375000005
20
56.17256875
30
0
0
VERTEX
8
0
10
57.848968750000004
20
56.126684375
30
0
0
VERTEX
8
0
10
57.899125000000005
20
56.085521875000005
30
0
0
VERTEX
8
0
10
57.953078125000005
20
56.049471875
30
0
0
VERTEX
8
0
10
58.010303125
20
56.018884375000006
30
0
0
VERTEX
8
0
10
58.07025
20
55.994053125
30
0
0
VERTEX
8
0
10
58.132343750000004
20
55.97521875
30
0
0
VERTEX
8
0
10
58.19598125
20
55.962559375000005
30
0
0
VERTEX
8
0
10
58.26055625
20
55.9562
30
0
0
VERTEX
8
0
10
58.325443750000005
20
55.9562
30
0
0
SEQEND
0
POLYLINE
66
1
8
16_copper
10
0.0
20
0.0
30
0.0
70
1
0
VERTEX
8
0
10
58.39001875
20
55.962559375000005
30
0
42
0.3578051432831595
0
VERTEX
8
0
10
58.9534
20
56.58415625
30
0
0
VERTEX
8
0
10
58.9534
20
57.96984375
30
0
42
0.9520786018124834
0
VERTEX
8
0
10
57.632600000000004
20
57.96984375
30
0
0
VERTEX
8
0
10
57.632600000000004
20
56.58415625
30
0
0
VERTEX
8
0
10
57.638959375000006
20
56.51958125
30
0
0
VERTEX
8
0
10
57.651618750000004
20
56.45594375
30
0
0
VERTEX
8
0
10
57.670453125
20
56.39385
30
0
0
VERTEX
8
0
10
57.695284375
20
56.333903125000006
30
0
0
VERTEX
8
0
10
57.725871875
20
56.276678125000004
30
0
0
VERTEX
8
0
10
57.761921875000006
20
56.222725000000004
30
0
0
VERTEX
8
0
10
57.803084375000005
20
56.17256875
30
0
0
VERTEX
8
0
10
57.848968750000004
20
56.126684375
30
0
0
VERTEX
8
0
10
57.899125000000005
20
56.085521875000005
30
0
0
VERTEX
8
0
10
57.953078125000005
20
56.049471875
30
0
0
VERTEX
8
0
10
58.010303125
20
56.018884375000006
30
0
0
VERTEX
8
0
10
58.07025
20
55.994053125
30
0
0
VERTEX
8
0
10
58.132343750000004
20
55.97521875
30
0
0
VERTEX
8
0
10
58.19598125
20
55.962559375000005
30
0
0
VERTEX
8
0
10
58.26055625
20
55.9562
30
0
0
VERTEX
8
0
10
58.325443750000005
20
55.9562
30
0
0
SEQEND
0
POLYLINE
66
1
8
16_copper
10
0.0
20
0.0
30
0.0
70
1
0
VERTEX
8
0
10
55.8292
20
57.05680625
30
0
0
VERTEX
8
0
10
55.8292
20
57.751193750000006
30
0
0
VERTEX
8
0
10
55.33819375
20
58.242200000000004
30
0
0
VERTEX
8
0
10
54.643806250000004
20
58.242200000000004
30
0
0
VERTEX
8
0
10
54.1528
20
57.751193750000006
30
0
0
VERTEX
8
0
10
54.1528
20
57.05680625
30
0
0
VERTEX
8
0
10
54.643806250000004
20
56.5658
30
0
0
VERTEX
8
0
10
55.33819375
20
56.5658
30
0
0
SEQEND
0
POLYLINE
66
1
8
1_copper
10
0.0
20
0.0
30
0.0
70
1
0
VERTEX
8
0
10
96.3422
20
41.94380625
30
0
0
VERTEX
8
0
10
96.3422
20
42.5903875
30
0
0
VERTEX
8
0
10
97.17040625
20
43.41859375
30
0
42
0.198912367379658
0
VERTEX
8
0
10
97.28200000000001
20
43.688
30
0
0
VERTEX
8
0
10
97.28200000000001
20
44.673187500000004
30
0
0
VERTEX
8
0
10
97.392959375
20
44.784146875000005
30
0
42
0.6980242320579779
0
VERTEX
8
0
10
98.57740000000001
20
45.15415625
30
0
0
VERTEX
8
0
10
98.57740000000001
20
46.53984375
30
0
42
0.9520786018124834
0
VERTEX
8
0
10
97.2566
20
46.53984375
30
0
0
VERTEX
8
0
10
97.2566
20
45.725412500000004
30
0
0
VERTEX
8
0
10
96.63159375000001
20
45.10040625
30
0
42
0.198912367379658
0
VERTEX
8
0
10
96.52000000000001
20
44.831
30
0
0
VERTEX
8
0
10
96.52000000000001
20
43.8458125
30
0
0
VERTEX
8
0
10
95.8033875
20
43.129200000000004
30
0
0
VERTEX
8
0
10
95.15680625
20
43.129200000000004
30
0
0
VERTEX
8
0
10
94.6658
20
42.63819375
30
0
0
VERTEX
8
0
10
94.6658
20
41.94380625
30
0
0
VERTEX
8
0
10
95.15680625
20
41.4528
30
0
0
VERTEX
8
0
10
95.85119375000001
20
41.4528
30
0
0
SEQEND
0
POLYLINE
66
1
8
16_copper
10
0.0
20
0.0
30
0.0
70
1
0
VERTEX
8
0
10
98.01401875
20
44.532559375000005
30
0
42
0.3578051432831595
0
VERTEX
8
0
10
98.57740000000001
20
45.15415625
30
0
0
VERTEX
8
0
10
98.57740000000001
20
46.53984375
30
0
42
0.9520786018124834
0
VERTEX
8
0
10
97.2566
20
46.53984375
30
0
0
VERTEX
8
0
10
97.2566
20
45.15415625
30
0
0
VERTEX
8
0
10
97.26295937500001
20
45.08958125
30
0
0
VERTEX
8
0
10
97.27561875
20
45.02594375
30
0
0
VERTEX
8
0
10
97.294453125
20
44.96385
30
0
0
VERTEX
8
0
10
97.31928437500001
20
44.903903125
30
0
0
VERTEX
8
0
10
97.349871875
20
44.846678125000004
30
0
0
VERTEX
8
0
10
97.38592187500001
20
44.792725000000004
30
0
0
VERTEX
8
0
10
97.427084375
20
44.742568750000004
30
0
0
VERTEX
8
0
10
97.47296875
20
44.696684375000004
30
0
0
VERTEX
8
0
10
97.52312500000001
20
44.655521875000005
30
0
0
VERTEX
8
0
10
97.577078125
20
44.619471875
30
0
0
VERTEX
8
0
10
97.634303125
20
44.588884375
30
0
0
VERTEX
8
0
10
97.69425000000001
20
44.564053125
30
0
0
VERTEX
8
0
10
97.75634375
20
44.545218750000004
30
0
0
VERTEX
8
0
10
97.81998125
20
44.532559375000005
30
0
0
VERTEX
8
0
10
97.88455625
20
44.5262
30
0
0
VERTEX
8
0
10
97.94944375
20
44.5262
30
0
0
SEQEND
0
POLYLINE
66
1
8
16_copper
10
0.0
20
0.0
30
0.0
70
1
0
VERTEX
8
0
10
96.3422
20
41.94380625
30
0
0
VERTEX
8
0
10
96.3422
20
42.63819375
30
0
0
VERTEX
8
0
10
95.85119375000001
20
43.129200000000004
30
0
0
VERTEX
8
0
10
95.15680625
20
43.129200000000004
30
0
0
VERTEX
8
0
10
94.6658
20
42.63819375
30
0
0
VERTEX
8
0
10
94.6658
20
41.94380625
30
0
0
VERTEX
8
0
10
95.15680625
20
41.4528
30
0
0
VERTEX
8
0
10
95.85119375000001
20
41.4528
30
0
0
SEQEND
0
CIRCLE
8
drills_NPTH
10
104.521
20
7.747000000000001
30
0
40
0.889
0
CIRCLE
8
drills_NPTH
10
119.76100000000001
20
7.747000000000001
30
0
40
0.889
0
CIRCLE
8
drills_NPTH
10
119.76100000000001
20
48.387
30
0
40
0.889
0
CIRCLE
8
drills_NPTH
10
104.521
20
48.387
30
0
40
0.889
0
CIRCLE
8
drills_PTH
10
66.421
20
52.397000000000006
30
0
40
0.75
0
CIRCLE
8
drills_PTH
10
82.931
20
13.897
30
0
40
0.75
0
CIRCLE
8
drills_PTH
10
48.641000000000005
20
26.997
30
0
40
0.75
0
CIRCLE
8
drills_PTH
10
90.751
20
48.387
30
0
40
0.75
0
CIRCLE
8
drills_PTH
10
32.639
20
38.408
30
0
40
0.75
0
CIRCLE
8
drills_PTH
10
71.421
20
49.897000000000006
30
0
40
0.7000000000000001
0
CIRCLE
8
drills_PTH
10
61.42100000000001
20
49.897000000000006
30
0
40
0.7000000000000001
0
CIRCLE
8
drills_PTH
10
53.641000000000005
20
24.497
30
0
40
0.7000000000000001
0
CIRCLE
8
drills_PTH
10
43.641000000000005
20
24.497
30
0
40
0.7000000000000001
0
CIRCLE
8
drills_PTH
10
53.641000000000005
20
14.297
30
0
40
0.7000000000000001
0
CIRCLE
8
drills_PTH
10
43.641000000000005
20
14.297
30
0
40
0.7000000000000001
0
CIRCLE
8
drills_PTH
10
88.251
20
43.387
30
0
40
0.7000000000000001
0
CIRCLE
8
drills_PTH
10
88.251
20
53.387
30
0
40
0.7000000000000001
0
CIRCLE
8
drills_PTH
10
77.931
20
16.397000000000002
30
0
40
0.7000000000000001
0
CIRCLE
8
drills_PTH
10
87.931
20
16.397000000000002
30
0
40
0.7000000000000001
0
CIRCLE
8
drills_PTH
10
77.931
20
26.597
30
0
40
0.7000000000000001
0
CIRCLE
8
drills_PTH
10
87.931
20
26.597
30
0
40
0.7000000000000001
0
CIRCLE
8
drills_PTH
10
78.051
20
43.387
30
0
40
0.7000000000000001
0
CIRCLE
8
drills_PTH
10
78.051
20
53.387
30
0
40
0.7000000000000001
0
CIRCLE
8
drills_PTH
10
61.42100000000001
20
39.697
30
0
40
0.7000000000000001
0
CIRCLE
8
drills_PTH
10
27.639000000000003
20
40.908
30
0
40
0.7000000000000001
0
CIRCLE
8
drills_PTH
10
37.639
20
40.908
30
0
40
0.7000000000000001
0
CIRCLE
8
drills_PTH
10
27.639000000000003
20
51.108000000000004
30
0
40
0.7000000000000001
0
CIRCLE
8
drills_PTH
10
37.639
20
51.108000000000004
30
0
40
0.7000000000000001
0
CIRCLE
8
drills_PTH
10
71.421
20
39.697
30
0
40
0.7000000000000001
0
CIRCLE
8
drills_PTH
10
27.051000000000002
20
25.527
30
0
40
0.5588000000000001
0
CIRCLE
8
drills_PTH
10
27.051000000000002
20
15.367
30
0
40
0.5588000000000001
0
CIRCLE
8
drills_PTH
10
49.403000000000006
20
49.784
30
0
40
0.5588000000000001
0
CIRCLE
8
drills_PTH
10
49.403000000000006
20
39.624
30
0
40
0.5588000000000001
0
CIRCLE
8
drills_PTH
10
63.881
20
24.257
30
0
40
0.5588000000000001
0
CIRCLE
8
drills_PTH
10
74.041
20
24.257
30
0
40
0.5588000000000001
0
CIRCLE
8
drills_PTH
10
22.352
20
48.006
30
0
40
0.5588000000000001
0
CIRCLE
8
drills_PTH
10
22.352
20
37.846000000000004
30
0
40
0.5588000000000001
0
CIRCLE
8
drills_PTH
10
91.821
20
58.547000000000004
30
0
40
0.5588000000000001
0
CIRCLE
8
drills_PTH
10
81.661
20
58.547000000000004
30
0
40
0.5588000000000001
0
CIRCLE
8
drills_PTH
10
8.001000000000001
20
28.067
30
0
40
0.508
0
CIRCLE
8
drills_PTH
10
8.001000000000001
20
45.847
30
0
40
0.508
0
CIRCLE
8
drills_PTH
10
8.001000000000001
20
43.307
30
0
40
0.508
0
CIRCLE
8
drills_PTH
10
8.001000000000001
20
40.767
30
0
40
0.508
0
CIRCLE
8
drills_PTH
10
8.001000000000001
20
35.687000000000005
30
0
40
0.508
0
CIRCLE
8
drills_PTH
10
8.001000000000001
20
33.147
30
0
40
0.508
0
CIRCLE
8
drills_PTH
10
8.001000000000001
20
38.227000000000004
30
0
40
0.508
0
CIRCLE
8
drills_PTH
10
8.001000000000001
20
30.607000000000003
30
0
40
0.508
0
CIRCLE
8
drills_PTH
10
8.001000000000001
20
22.987000000000002
30
0
40
0.508
0
CIRCLE
8
drills_PTH
10
8.001000000000001
20
25.527
30
0
40
0.508
0
CIRCLE
8
drills_PTH
10
119.76100000000001
20
22.987000000000002
30
0
40
0.5
0
CIRCLE
8
drills_PTH
10
119.76100000000001
20
20.447000000000003
30
0
40
0.5
0
CIRCLE
8
drills_PTH
10
119.76100000000001
20
17.907
30
0
40
0.5
0
CIRCLE
8
drills_PTH
10
119.76100000000001
20
15.367
30
0
40
0.5
0
CIRCLE
8
drills_PTH
10
119.76100000000001
20
12.827
30
0
40
0.5
0
CIRCLE
8
drills_PTH
10
119.76100000000001
20
10.287
30
0
40
0.5
0
CIRCLE
8
drills_PTH
10
104.521
20
12.827
30
0
40
0.5
0
CIRCLE
8
drills_PTH
10
104.521
20
15.367
30
0
40
0.5
0
CIRCLE
8
drills_PTH
10
104.521
20
17.907
30
0
40
0.5
0
CIRCLE
8
drills_PTH
10
104.521
20
20.447000000000003
30
0
40
0.5
0
CIRCLE
8
drills_PTH
10
104.521
20
22.987000000000002
30
0
40
0.5
0
CIRCLE
8
drills_PTH
10
104.521
20
25.527
30
0
40
0.5
0
CIRCLE
8
drills_PTH
10
104.521
20
28.067
30
0
40
0.5
0
CIRCLE
8
drills_PTH
10
104.521
20
30.607000000000003
30
0
40
0.5
0
CIRCLE
8
drills_PTH
10
104.521
20
33.147
30
0
40
0.5
0
CIRCLE
8
drills_PTH
10
104.521
20
35.687000000000005
30
0
40
0.5
0
CIRCLE
8
drills_PTH
10
104.521
20
38.227000000000004
30
0
40
0.5
0
CIRCLE
8
drills_PTH
10
104.521
20
40.767
30
0
40
0.5
0
CIRCLE
8
drills_PTH
10
104.521
20
43.307
30
0
40
0.5
0
CIRCLE
8
drills_PTH
10
104.521
20
45.847
30
0
40
0.5
0
CIRCLE
8
drills_PTH
10
119.76100000000001
20
45.847
30
0
40
0.5
0
CIRCLE
8
drills_PTH
10
119.76100000000001
20
43.307
30
0
40
0.5
0
CIRCLE
8
drills_PTH
10
119.76100000000001
20
40.767
30
0
40
0.5
0
CIRCLE
8
drills_PTH
10
119.76100000000001
20
38.227000000000004
30
0
40
0.5
0
CIRCLE
8
drills_PTH
10
119.76100000000001
20
35.687000000000005
30
0
40
0.5
0
CIRCLE
8
drills_PTH
10
119.76100000000001
20
33.147
30
0
40
0.5
0
CIRCLE
8
drills_PTH
10
119.76100000000001
20
30.607000000000003
30
0
40
0.5
0
CIRCLE
8
drills_PTH
10
119.76100000000001
20
28.067
30
0
40
0.5
0
CIRCLE
8
drills_PTH
10
119.76100000000001
20
25.527
30
0
40
0.5
0
CIRCLE
8
drills_PTH
10
104.521
20
10.287
30
0
40
0.45
0
CIRCLE
8
drills_PTH
10
30.861
20
15.367
30
0
40
0.40640000000000004
0
CIRCLE
8
drills_PTH
10
35.941
20
15.367
30
0
40
0.40640000000000004
0
CIRCLE
8
drills_PTH
10
33.401
20
15.367
30
0
40
0.40640000000000004
0
CIRCLE
8
drills_PTH
10
72.771
20
14.097000000000001
30
0
40
0.40640000000000004
0
CIRCLE
8
drills_PTH
10
67.691
20
14.097000000000001
30
0
40
0.40640000000000004
0
CIRCLE
8
drills_PTH
10
70.23100000000001
20
14.097000000000001
30
0
40
0.40640000000000004
0
CIRCLE
8
drills_PTH
10
90.551
20
38.227000000000004
30
0
40
0.40640000000000004
0
CIRCLE
8
drills_PTH
10
88.01100000000001
20
38.227000000000004
30
0
40
0.40640000000000004
0
CIRCLE
8
drills_PTH
10
93.09100000000001
20
38.227000000000004
30
0
40
0.40640000000000004
0
CIRCLE
8
drills_PTH
10
54.991
20
52.197
30
0
40
0.40640000000000004
0
CIRCLE
8
drills_PTH
10
52.451
20
52.197
30
0
40
0.40640000000000004
0
CIRCLE
8
drills_PTH
10
57.531000000000006
20
52.197
30
0
40
0.40640000000000004
0
CIRCLE
8
drills_PTH
10
14.224
20
52.451
30
0
40
0.40640000000000004
0
CIRCLE
8
drills_PTH
10
11.684000000000001
20
52.451
30
0
40
0.40640000000000004
0
CIRCLE
8
drills_PTH
10
16.764
20
52.451
30
0
40
0.40640000000000004
0
CIRCLE
8
drills_PTH
10
82.423
20
7.493
30
0
40
0.40640000000000004
0
CIRCLE
8
drills_PTH
10
84.96300000000001
20
7.493
30
0
40
0.40640000000000004
0
CIRCLE
8
drills_PTH
10
11.43
20
58.547000000000004
30
0
40
0.40640000000000004
0
CIRCLE
8
drills_PTH
10
13.97
20
58.547000000000004
30
0
40
0.40640000000000004
0
CIRCLE
8
drills_PTH
10
58.293
20
57.277
30
0
40
0.40640000000000004
0
CIRCLE
8
drills_PTH
10
60.833000000000006
20
57.277
30
0
40
0.40640000000000004
0
CIRCLE
8
drills_PTH
10
97.917
20
45.847
30
0
40
0.40640000000000004
0
CIRCLE
8
drills_PTH
10
100.45700000000001
20
45.847
30
0
40
0.40640000000000004
0
CIRCLE
8
drills_PTH
10
35.052
20
8.128
30
0
40
0.40640000000000004
0
CIRCLE
8
drills_PTH
10
37.592
20
8.128
30
0
40
0.40640000000000004
0
CIRCLE
8
drills_PTH
10
63.5
20
6.604
30
0
40
0.40640000000000004
0
CIRCLE
8
drills_PTH
10
73.66
20
6.604
30
0
40
0.40640000000000004
0
CIRCLE
8
drills_PTH
10
17.145
20
46.482
30
0
40
0.40640000000000004
0
CIRCLE
8
drills_PTH
10
17.145
20
36.322
30
0
40
0.40640000000000004
0
CIRCLE
8
drills_PTH
10
44.831
20
57.404
30
0
40
0.40640000000000004
0
CIRCLE
8
drills_PTH
10
54.991
20
57.404
30
0
40
0.40640000000000004
0
CIRCLE
8
drills_PTH
10
95.504
20
32.131
30
0
40
0.40640000000000004
0
CIRCLE
8
drills_PTH
10
95.504
20
42.291000000000004
30
0
40
0.40640000000000004
0
CIRCLE
8
drills_PTH
10
20.828
20
8.128
30
0
40
0.40640000000000004
0
CIRCLE
8
drills_PTH
10
30.988000000000003
20
8.128
30
0
40
0.40640000000000004
0
ENDSEC
0
EOF