G04 EAGLE Gerber X2 export*
%TF.Part,Single*%
%TF.FileFunction,Copper,L1,Top,Mixed*%
%TF.FilePolarity,Positive*%
%TF.GenerationSoftware,Autodesk,EAGLE,9.1.2*%
%TF.CreationDate,2019-01-09T08:49:19Z*%
G75*
%MOMM*%
%FSLAX34Y34*%
%LPD*%
%AMOC8*
5,1,8,0,0,1.08239X$1,22.5*%
G01*
%ADD10C,1.930400*%
%ADD11C,2.250000*%
%ADD12C,2.100000*%
%ADD13P,1.429621X8X22.500000*%
%ADD14C,1.320800*%
%ADD15P,1.429621X8X112.500000*%
%ADD16R,1.778000X1.778000*%
%ADD17C,1.778000*%
%ADD18C,1.524000*%
%ADD19C,0.762000*%
%ADD20C,0.762000*%


D10*
X270510Y255270D03*
X270510Y153670D03*
D11*
X486410Y269970D03*
D12*
X536410Y244970D03*
X436410Y244970D03*
X536410Y142970D03*
X436410Y142970D03*
D13*
X298450Y107950D03*
X323850Y107950D03*
D14*
X308610Y147066D02*
X308610Y160274D01*
X359410Y160274D02*
X359410Y147066D01*
X334010Y147066D02*
X334010Y160274D01*
D11*
X829310Y138970D03*
D12*
X779310Y163970D03*
X879310Y163970D03*
X779310Y265970D03*
X879310Y265970D03*
D14*
X727710Y147574D02*
X727710Y134366D01*
X676910Y134366D02*
X676910Y147574D01*
X702310Y147574D02*
X702310Y134366D01*
D10*
X638810Y242570D03*
X740410Y242570D03*
D13*
X697230Y91440D03*
X722630Y91440D03*
D10*
X223520Y480060D03*
X223520Y378460D03*
D14*
X156210Y524256D02*
X156210Y537464D01*
X105410Y537464D02*
X105410Y524256D01*
X130810Y524256D02*
X130810Y537464D01*
D15*
X74930Y532130D03*
X74930Y557530D03*
D11*
X326390Y384080D03*
D12*
X276390Y409080D03*
X376390Y409080D03*
X276390Y511080D03*
X376390Y511080D03*
D10*
X494030Y497840D03*
X494030Y396240D03*
D14*
X575310Y515366D02*
X575310Y528574D01*
X524510Y528574D02*
X524510Y515366D01*
X549910Y515366D02*
X549910Y528574D01*
D15*
X505460Y548640D03*
X505460Y574040D03*
D11*
X664210Y523970D03*
D12*
X714210Y498970D03*
X614210Y498970D03*
X714210Y396970D03*
X614210Y396970D03*
D10*
X918210Y585470D03*
X816610Y585470D03*
D14*
X930910Y388874D02*
X930910Y375666D01*
X880110Y375666D02*
X880110Y388874D01*
X905510Y388874D02*
X905510Y375666D01*
D11*
X907510Y483870D03*
D12*
X882510Y433870D03*
X882510Y533870D03*
X780510Y433870D03*
X780510Y533870D03*
D13*
X930910Y318770D03*
X956310Y318770D03*
D16*
X1045210Y90170D03*
D17*
X1045210Y115570D03*
X1045210Y140970D03*
X1045210Y166370D03*
X1045210Y191770D03*
X1045210Y217170D03*
X1045210Y242570D03*
X1045210Y267970D03*
X1045210Y293370D03*
X1045210Y318770D03*
X1045210Y344170D03*
X1045210Y369570D03*
X1045210Y394970D03*
X1045210Y420370D03*
X1045210Y445770D03*
X1197610Y445770D03*
X1197610Y420370D03*
X1197610Y394970D03*
X1197610Y369570D03*
X1197610Y344170D03*
X1197610Y318770D03*
X1197610Y293370D03*
X1197610Y267970D03*
X1197610Y242570D03*
X1197610Y217170D03*
X1197610Y191770D03*
X1197610Y166370D03*
X1197610Y140970D03*
X1197610Y115570D03*
X1197610Y90170D03*
D18*
X80010Y280670D03*
X80010Y255270D03*
X80010Y229870D03*
X80010Y306070D03*
X80010Y331470D03*
X80010Y356870D03*
X80010Y382270D03*
X80010Y407670D03*
X80010Y433070D03*
X80010Y458470D03*
D14*
X764540Y95504D02*
X764540Y82296D01*
X789940Y82296D02*
X789940Y95504D01*
X105410Y591566D02*
X105410Y604774D01*
X130810Y604774D02*
X130810Y591566D01*
X549910Y579374D02*
X549910Y566166D01*
X575310Y566166D02*
X575310Y579374D01*
X966470Y414274D02*
X966470Y401066D01*
X991870Y401066D02*
X991870Y414274D01*
X350520Y87884D02*
X350520Y74676D01*
X375920Y74676D02*
X375920Y87884D01*
D19*
X373380Y114300D02*
X359410Y128270D01*
X373380Y114300D02*
X393700Y93980D01*
X654050Y95250D02*
X657860Y99060D01*
X676910Y118110D01*
X584200Y93980D02*
X393700Y93980D01*
X584200Y93980D02*
X589280Y93980D01*
X359410Y128270D02*
X359410Y153670D01*
X880110Y382270D02*
X888746Y373634D01*
X888746Y329891D01*
X958850Y293370D02*
X980440Y314960D01*
X981710Y316230D01*
X925267Y293370D02*
X888746Y329891D01*
X925267Y293370D02*
X958850Y293370D01*
X657860Y99060D02*
X652780Y93980D01*
X980440Y314960D02*
X980440Y347417D01*
X1016000Y382977D02*
X1016000Y406400D01*
X1029970Y420370D01*
X1045210Y420370D01*
X1016000Y382977D02*
X980440Y347417D01*
X524510Y521970D02*
X468630Y521970D01*
X355457Y560070D02*
X329493Y534107D01*
X450850Y539750D02*
X468630Y521970D01*
X450850Y539750D02*
X444500Y546100D01*
X438150Y552450D01*
X430530Y560070D01*
X406400Y560070D01*
X355457Y560070D01*
X329493Y534107D02*
X189793Y534107D01*
X165100Y558800D02*
X127000Y558800D01*
X105410Y537210D02*
X105410Y530860D01*
X165100Y558800D02*
X189793Y534107D01*
X127000Y558800D02*
X105410Y537210D01*
X584200Y93980D02*
X647700Y93980D01*
X652780Y93980D01*
D20*
X450850Y539750D03*
X438150Y552450D03*
X438150Y552450D03*
X629920Y93980D03*
D19*
X676910Y118110D02*
X676910Y140970D01*
X406400Y560070D02*
X455930Y609600D01*
X622300Y609600D02*
X635000Y596900D01*
X743370Y596900D02*
X744640Y598170D01*
X775970Y598170D01*
X743370Y596900D02*
X635000Y596900D01*
X775970Y598170D02*
X801370Y623570D01*
X1017270Y539187D02*
X1017270Y528320D01*
X1017270Y539187D02*
X932887Y623570D01*
X801370Y623570D01*
X1017270Y528320D02*
X1023620Y521970D01*
X1179139Y521970D02*
X1220470Y480639D01*
X1179139Y521970D02*
X1023620Y521970D01*
X1219200Y381000D02*
X1220470Y382270D01*
X1219200Y381000D02*
X1206500Y368300D01*
X1198880Y368300D01*
X1197610Y369570D01*
X622300Y609600D02*
X455930Y609600D01*
X1220470Y480639D02*
X1220470Y382270D01*
X298450Y118110D02*
X298450Y107950D01*
X325374Y145034D02*
X334010Y153670D01*
X325374Y145034D02*
X325374Y140122D01*
X315554Y130302D01*
X310642Y130302D01*
X298450Y118110D01*
X277792Y378460D02*
X310812Y411480D01*
X341292Y411480D02*
X373990Y411480D01*
X376390Y409080D01*
X277792Y378460D02*
X223520Y378460D01*
X600710Y471170D02*
X614210Y484670D01*
X614210Y498970D01*
X816610Y560070D02*
X816610Y585470D01*
X816610Y560070D02*
X816610Y547370D01*
X830110Y533870D02*
X855980Y533870D01*
X882510Y533870D01*
X830110Y533870D02*
X816610Y547370D01*
X689610Y534670D02*
X678180Y546100D01*
X689610Y534670D02*
X689610Y483870D01*
X702310Y471170D01*
X341292Y526148D02*
X341292Y411480D01*
X341292Y526148D02*
X361243Y546100D01*
X419807Y546100D02*
X461010Y504897D01*
X419807Y546100D02*
X361243Y546100D01*
X384810Y128270D02*
X405130Y107950D01*
X557070Y134412D02*
X557070Y135430D01*
X600710Y179070D01*
X557070Y134412D02*
X530608Y107950D01*
X453390Y107950D02*
X405130Y107950D01*
X453390Y107950D02*
X530608Y107950D01*
X600710Y179070D02*
X600710Y255270D01*
X626110Y280670D01*
X660400Y280670D01*
X664210Y280670D01*
X632460Y522498D02*
X656062Y546100D01*
X678180Y546100D01*
X632460Y522498D02*
X632460Y482600D01*
X608330Y458470D01*
X588010Y458470D01*
X702310Y471170D02*
X722630Y471170D01*
X734870Y507528D02*
X734060Y508338D01*
X734870Y483410D02*
X722630Y471170D01*
X734870Y483410D02*
X734870Y507528D01*
X803284Y560070D02*
X816610Y560070D01*
X794854Y568500D02*
X754483Y568500D01*
X794854Y568500D02*
X803284Y560070D01*
X734060Y548077D02*
X734060Y508338D01*
X734060Y548077D02*
X754483Y568500D01*
X995680Y279400D02*
X995680Y266700D01*
X995680Y279400D02*
X995680Y342900D01*
X1022350Y369570D01*
X1045210Y369570D01*
X881380Y508470D02*
X855980Y533870D01*
X881380Y508470D02*
X881380Y508000D01*
X913658Y508000D01*
X928920Y492738D02*
X928920Y475002D01*
X928920Y492738D02*
X913658Y508000D01*
X908448Y454530D02*
X873952Y454530D01*
X908448Y454530D02*
X928920Y475002D01*
X861850Y442428D02*
X861850Y337030D01*
X861850Y442428D02*
X873952Y454530D01*
X919480Y279400D02*
X995680Y279400D01*
X919480Y279400D02*
X861850Y337030D01*
X806630Y189050D02*
X806630Y131372D01*
X820442Y117560D01*
X879310Y150330D02*
X879310Y163970D01*
X764540Y218440D02*
X740410Y242570D01*
X764540Y218440D02*
X773430Y209550D01*
X786130Y209550D02*
X806630Y189050D01*
X820442Y117560D02*
X838200Y117560D01*
X846540Y117560D01*
X859790Y130810D01*
X879310Y150330D01*
X885190Y130810D02*
X859790Y130810D01*
X995680Y241300D02*
X995680Y266700D01*
X995680Y241300D02*
X885190Y130810D01*
X786130Y209550D02*
X773430Y209550D01*
X341292Y411480D02*
X310812Y411480D01*
X660400Y280670D02*
X735330Y280670D01*
X764540Y251460D02*
X764540Y218440D01*
X764540Y251460D02*
X735330Y280670D01*
X332740Y215900D02*
X270510Y153670D01*
X407340Y215900D02*
X436410Y244970D01*
X393700Y215900D02*
X332740Y215900D01*
X393700Y215900D02*
X407340Y215900D01*
X384810Y207010D02*
X384810Y128270D01*
X384810Y207010D02*
X393700Y215900D01*
X461010Y445770D02*
X461010Y504897D01*
X461010Y445770D02*
X491490Y415290D01*
X492760Y414020D01*
X588010Y458470D02*
X600710Y471170D01*
X547370Y417830D02*
X525780Y396240D01*
X547370Y417830D02*
X588010Y458470D01*
X525780Y396240D02*
X494030Y396240D01*
X491490Y415290D02*
X544830Y415290D01*
X547370Y417830D01*
X532820Y248560D02*
X536410Y244970D01*
X482600Y248560D02*
X477542Y248560D01*
X482600Y248560D02*
X532820Y248560D01*
X427852Y265630D02*
X417492Y255270D01*
X342900Y255270D01*
X270510Y255270D01*
X460472Y265630D02*
X477542Y248560D01*
X460472Y265630D02*
X427852Y265630D01*
X308610Y153670D02*
X281940Y127000D01*
X266700Y127000D01*
X342900Y254078D02*
X342900Y255270D01*
X342900Y254078D02*
X250698Y161876D01*
X250698Y143002D01*
X266700Y127000D01*
X697230Y135890D02*
X697230Y91440D01*
X697230Y135890D02*
X702310Y140970D01*
X879310Y265970D02*
X823970Y321310D01*
X486410Y321310D02*
X459740Y294640D01*
X256540Y294640D01*
X93980Y241300D02*
X80010Y255270D01*
X203200Y241300D02*
X256540Y294640D01*
X203200Y241300D02*
X93980Y241300D01*
D20*
X483870Y318770D03*
D19*
X486410Y321310D02*
X823970Y321310D01*
X715010Y166370D02*
X727710Y153670D01*
X715010Y166370D02*
X664210Y166370D01*
X638810Y191770D02*
X638810Y242570D01*
X651510Y179070D02*
X664210Y166370D01*
X757860Y185420D02*
X779310Y163970D01*
X757860Y185420D02*
X645160Y185420D01*
X651510Y179070D01*
X727710Y153670D02*
X727710Y140970D01*
X645160Y185420D02*
X638810Y191770D01*
X265430Y480060D02*
X223520Y480060D01*
X276390Y469100D02*
X276390Y409080D01*
X276390Y469100D02*
X265430Y480060D01*
X247650Y497840D02*
X189230Y497840D01*
X247650Y497840D02*
X265430Y480060D01*
X189230Y497840D02*
X156210Y530860D01*
X130810Y530860D02*
X130810Y511810D01*
X98466Y507492D02*
X97958Y508000D01*
X88900Y508000D01*
X126492Y507492D02*
X130810Y511810D01*
X126492Y507492D02*
X98466Y507492D01*
X74930Y521970D02*
X74930Y532130D01*
X74930Y521970D02*
X88900Y508000D01*
X376390Y511080D02*
X404590Y511080D01*
X424180Y491490D02*
X424180Y445770D01*
X424180Y491490D02*
X404590Y511080D01*
X424180Y360680D02*
X403860Y340360D01*
X226060Y340360D01*
X203200Y317500D01*
X93980Y317500D02*
X80010Y331470D01*
X424180Y360680D02*
X424180Y445770D01*
X203200Y317500D02*
X93980Y317500D01*
X703580Y509600D02*
X714210Y498970D01*
X703580Y509600D02*
X703580Y540457D01*
X683967Y560070D01*
X650275Y560070D01*
X612175Y521970D02*
X575310Y521970D01*
X612175Y521970D02*
X650275Y560070D01*
X496570Y495300D02*
X494030Y497840D01*
X585505Y495300D02*
X593550Y503345D01*
X593550Y507528D01*
X605652Y519630D01*
X609835Y519630D01*
X612175Y521970D01*
X585505Y495300D02*
X496570Y495300D01*
X549910Y521970D02*
X549910Y542290D01*
X543560Y548640D02*
X505460Y548640D01*
X543560Y548640D02*
X549910Y542290D01*
X614210Y396970D02*
X597570Y380330D01*
X594430Y377190D01*
X597570Y380330D02*
X572840Y355600D01*
D20*
X522040Y355600D03*
D19*
X572840Y355600D02*
X469900Y355600D01*
X444500Y330200D01*
X438150Y323850D01*
X234950Y323850D01*
X203200Y292100D01*
X93980Y292100D02*
X80010Y306070D01*
X93980Y292100D02*
X203200Y292100D01*
X930910Y318770D02*
X930910Y336550D01*
X905510Y361950D01*
X905510Y382270D01*
X918210Y572770D02*
X918210Y585470D01*
X918210Y572770D02*
X943610Y547370D01*
X943610Y458470D02*
X930910Y445770D01*
X918210Y433070D01*
X917410Y433870D01*
X882510Y433870D01*
X943610Y458470D02*
X943610Y547370D01*
X930910Y445770D02*
X930910Y382270D01*
X780510Y533870D02*
X778510Y531870D01*
X778510Y471170D02*
X808990Y440690D01*
X821690Y440690D02*
X829310Y433070D01*
X829310Y356870D01*
X810260Y337820D01*
X584200Y337820D01*
X581660Y337820D01*
X778510Y471170D02*
X778510Y531870D01*
X584200Y337820D02*
X480060Y337820D01*
X450850Y308610D02*
X245110Y308610D01*
X203200Y266700D01*
X93980Y266700D02*
X80010Y280670D01*
X450850Y308610D02*
X480060Y337820D01*
X203200Y266700D02*
X93980Y266700D01*
X808990Y440690D02*
X821690Y440690D01*
X485210Y191770D02*
X436410Y142970D01*
X532837Y191770D02*
X571500Y230433D01*
X532837Y191770D02*
X485210Y191770D01*
X571500Y230433D02*
X571500Y279400D01*
X570937Y279400D01*
X542997Y307340D01*
X477542Y291380D02*
X465762Y279600D01*
X250698Y263476D02*
X250698Y254000D01*
X250698Y263476D02*
X266822Y279600D01*
X465762Y279600D01*
X250698Y254000D02*
X199898Y203200D01*
X101600Y203200D01*
X80010Y224790D01*
X80010Y229870D01*
X488063Y291380D02*
X504023Y307340D01*
X542997Y307340D01*
X488063Y291380D02*
X477542Y291380D01*
X92710Y356870D02*
X80010Y356870D01*
X92710Y356870D02*
X105410Y369570D01*
X105410Y394970D01*
X92710Y407670D01*
X80010Y407670D01*
X612824Y300482D02*
X638810Y300482D01*
X612824Y300482D02*
X585978Y273636D01*
X585978Y207464D02*
X544884Y166370D01*
X585978Y207464D02*
X585978Y273636D01*
X544884Y166370D02*
X511810Y166370D01*
X427852Y122310D02*
X415750Y134412D01*
X427852Y122310D02*
X467750Y122310D01*
X511810Y166370D01*
X482662Y218440D02*
X415750Y151528D01*
X482662Y218440D02*
X539750Y218440D01*
X415750Y151528D02*
X415750Y134412D01*
X539750Y218440D02*
X557530Y236220D01*
X557530Y273050D01*
X355600Y445770D02*
X355600Y520700D01*
X355600Y445770D02*
X371630Y429740D01*
X384948Y429740D01*
X402590Y412098D01*
X355600Y520700D02*
X367030Y532130D01*
X408940Y532130D02*
X443992Y497078D01*
X408940Y532130D02*
X367030Y532130D01*
X664210Y523970D02*
X664210Y445770D01*
X660400Y441960D01*
X636070Y417630D01*
X638810Y300482D02*
X702310Y300482D01*
X809498Y300482D01*
X867410Y242570D01*
X872490Y242570D01*
X892810Y242570D01*
X905510Y255270D01*
X905510Y269240D01*
X844550Y330200D01*
X844550Y448310D01*
X854710Y458470D02*
X880110Y483870D01*
X907510Y483870D01*
X402590Y412098D02*
X402590Y386080D01*
X509810Y293370D02*
X486410Y269970D01*
X537210Y293370D02*
X557530Y273050D01*
X537210Y293370D02*
X509810Y293370D01*
X854710Y458470D02*
X854710Y488888D01*
X789068Y554530D02*
X760270Y554530D01*
X789068Y554530D02*
X854710Y488888D01*
X760270Y554530D02*
X753110Y547370D01*
X443992Y497078D02*
X443992Y405638D01*
X477520Y372110D01*
X560070Y372110D01*
X753110Y471170D02*
X753110Y547370D01*
X723900Y441960D02*
X660400Y441960D01*
X723900Y441960D02*
X753110Y471170D01*
X844550Y448310D02*
X854710Y458470D01*
X636070Y417630D02*
X605590Y417630D01*
X560070Y372110D01*
X829310Y138970D02*
X847090Y156750D01*
X847090Y219710D01*
X869950Y242570D01*
X872490Y242570D01*
X101600Y419100D02*
X101600Y444500D01*
X87630Y458470D01*
X80010Y458470D01*
X292100Y355600D02*
X393700Y355600D01*
X292100Y355600D02*
X221543Y355600D01*
X208843Y342900D01*
X393700Y355600D02*
X402590Y364490D01*
X119380Y363220D02*
X119380Y401320D01*
X119380Y363220D02*
X139700Y342900D01*
X119380Y401320D02*
X101600Y419100D01*
X139700Y342900D02*
X208843Y342900D01*
X402590Y364490D02*
X402590Y386080D01*
X326390Y384080D02*
X297910Y355600D01*
X292100Y355600D01*
X789940Y88900D02*
X939800Y88900D01*
X1219200Y38100D02*
X1231900Y50800D01*
X1231900Y228600D01*
X1217930Y242570D01*
X1197610Y242570D01*
X990600Y38100D02*
X939800Y88900D01*
X990600Y38100D02*
X1219200Y38100D01*
X163830Y598170D02*
X130810Y598170D01*
X163830Y598170D02*
X213923Y548077D01*
X323707Y548077D02*
X349670Y574040D01*
X323707Y548077D02*
X213923Y548077D01*
X400613Y574040D02*
X450143Y623570D01*
X628087Y623570D01*
X640787Y610870D01*
X400613Y574040D02*
X349670Y574040D01*
X737584Y610870D02*
X738854Y612140D01*
X770183Y612140D01*
X737584Y610870D02*
X640787Y610870D01*
X795583Y637540D02*
X938673Y637540D01*
X795583Y637540D02*
X770183Y612140D01*
X1040273Y535940D02*
X1184926Y535940D01*
X1040273Y535940D02*
X938673Y637540D01*
X1234440Y486426D02*
X1234440Y376483D01*
X1219200Y361243D01*
X1234440Y486426D02*
X1184926Y535940D01*
X1219200Y304800D02*
X1206500Y292100D01*
X1205230Y293370D01*
X1197610Y293370D01*
X1219200Y304800D02*
X1219200Y361243D01*
X740267Y574040D02*
X576580Y574040D01*
X740267Y574040D02*
X750427Y584200D01*
X787400Y584200D01*
X796798Y593598D01*
X796798Y593676D01*
X808404Y605282D01*
X808482Y605282D01*
X812800Y609600D01*
X1003300Y533400D02*
X1003300Y520700D01*
X1016000Y508000D01*
X1130300Y508000D02*
X1168400Y469900D01*
X1168400Y355600D02*
X1179830Y344170D01*
X1197610Y344170D01*
X927100Y609600D02*
X812800Y609600D01*
X927100Y609600D02*
X1003300Y533400D01*
X1016000Y508000D02*
X1130300Y508000D01*
X1168400Y469900D02*
X1168400Y355600D01*
X576580Y574040D02*
X575310Y572770D01*
X991870Y450159D02*
X991870Y407670D01*
X1035741Y494030D02*
X1054679Y494030D01*
X1079500Y469209D01*
X1035741Y494030D02*
X991870Y450159D01*
X1079500Y469209D02*
X1079500Y406400D01*
X1167130Y318770D01*
D20*
X1167130Y318770D03*
D19*
X1197610Y318770D01*
X764540Y88900D02*
X742315Y111125D01*
X722630Y91440D01*
X323850Y95250D02*
X323850Y107950D01*
X337820Y81280D02*
X350520Y81280D01*
X337820Y81280D02*
X323850Y95250D01*
X74930Y557530D02*
X76200Y558800D01*
X76200Y584200D01*
X90170Y598170D01*
X105410Y598170D01*
X505460Y574040D02*
X548640Y574040D01*
X549910Y572770D01*
X956310Y397510D02*
X956310Y318770D01*
X956310Y397510D02*
X966470Y407670D01*
M02*
