M48
;GenerationSoftware,Autodesk,EAGLE,9.1.2*%
;CreationDate,2019-01-09T08:49:19Z*%
FMAT,2
ICI,OFF
METRIC,TZ,000.000
T8C0.813
T7C0.900
T6C1.000
T5C1.016
T4C1.118
T3C1.400
T2C1.500
T1C1.778
%
G90
M71
T1
X104521Y6477
X119761Y6477
X119761Y47117
X104521Y47117
T2
X32639Y38408
X66421Y52397
X48641Y26997
X90751Y48387
X82931Y13897
T3
X37639Y51108
X78051Y53387
X53641Y24497
X43641Y24497
X53641Y14297
X43641Y14297
X61421Y49897
X71421Y39697
X61421Y39697
X77931Y16397
X87931Y16397
X77931Y26597
X87931Y26597
X78051Y43387
X88251Y53387
X71421Y49897
X88251Y43387
X27639Y40908
X37639Y40908
X27639Y51108
T4
X27051Y25527
X27051Y15367
X81661Y58547
X74041Y24257
X22352Y37846
X49403Y49784
X49403Y39624
X63881Y24257
X91821Y58547
X22352Y48006
T5
X8001Y38227
X8001Y33147
X8001Y30607
X8001Y22987
X8001Y45847
X8001Y43307
X8001Y28067
X8001Y35687
X8001Y40767
X8001Y25527
T6
X119761Y24257
X119761Y21717
X119761Y19177
X119761Y16637
X119761Y14097
X119761Y11557
X119761Y9017
X119761Y29337
X104521Y26797
X104521Y11557
X104521Y14097
X104521Y16637
X104521Y19177
X104521Y21717
X104521Y24257
X104521Y29337
X104521Y31877
X104521Y34417
X104521Y36957
X104521Y39497
X104521Y42037
X104521Y44577
X119761Y44577
X119761Y42037
X119761Y39497
X119761Y36957
X119761Y34417
X119761Y31877
X119761Y26797
T7
X104521Y9017
T8
X29845Y10795
X32385Y10795
X30861Y15367
X33401Y15367
X72771Y14097
X67691Y14097
X70231Y14097
X69723Y9144
X93091Y31877
X95631Y31877
X52451Y52197
X90551Y38227
X88011Y38227
X93091Y38227
X50546Y57404
X54991Y52197
X57531Y52197
X7493Y55753
X7493Y53213
X13081Y53086
X50546Y54864
X10541Y53086
X15621Y53086
X35941Y15367
X72263Y9144
X76454Y8890
X78994Y8890
X10541Y59817
X13081Y59817
X54991Y57277
X57531Y57277
X96647Y40767
X99187Y40767
X35052Y8128
X37592Y8128
M30