G04 EAGLE Gerber X2 export*
%TF.Part,Single*%
%TF.FileFunction,Profile,NP*%
%TF.FilePolarity,Positive*%
%TF.GenerationSoftware,Autodesk,EAGLE,9.1.2*%
%TF.CreationDate,2019-01-09T08:49:19Z*%
G75*
%MOMM*%
%FSLAX34Y34*%
%LPD*%
%AMOC8*
5,1,8,0,0,1.08239X$1,22.5*%
G01*
%ADD10C,0.254000*%


D10*
X0Y0D02*
X1346000Y0D01*
X1346000Y733300D01*
X0Y733300D01*
X0Y0D01*
X1044822Y73660D02*
X1044049Y73592D01*
X1043284Y73458D01*
X1042534Y73257D01*
X1041805Y72991D01*
X1041101Y72663D01*
X1040429Y72275D01*
X1039793Y71830D01*
X1039198Y71331D01*
X1038649Y70782D01*
X1038150Y70187D01*
X1037705Y69551D01*
X1037317Y68879D01*
X1036989Y68175D01*
X1036723Y67446D01*
X1036522Y66696D01*
X1036388Y65931D01*
X1036320Y65158D01*
X1036320Y64382D01*
X1036388Y63609D01*
X1036522Y62844D01*
X1036723Y62094D01*
X1036989Y61365D01*
X1037317Y60661D01*
X1037705Y59989D01*
X1038150Y59353D01*
X1038649Y58758D01*
X1039198Y58209D01*
X1039793Y57710D01*
X1040429Y57265D01*
X1041101Y56877D01*
X1041805Y56549D01*
X1042534Y56283D01*
X1043284Y56082D01*
X1044049Y55948D01*
X1044822Y55880D01*
X1045598Y55880D01*
X1046371Y55948D01*
X1047136Y56082D01*
X1047886Y56283D01*
X1048615Y56549D01*
X1049319Y56877D01*
X1049991Y57265D01*
X1050627Y57710D01*
X1051222Y58209D01*
X1051771Y58758D01*
X1052270Y59353D01*
X1052715Y59989D01*
X1053103Y60661D01*
X1053431Y61365D01*
X1053697Y62094D01*
X1053898Y62844D01*
X1054032Y63609D01*
X1054100Y64382D01*
X1054100Y65158D01*
X1054032Y65931D01*
X1053898Y66696D01*
X1053697Y67446D01*
X1053431Y68175D01*
X1053103Y68879D01*
X1052715Y69551D01*
X1052270Y70187D01*
X1051771Y70782D01*
X1051222Y71331D01*
X1050627Y71830D01*
X1049991Y72275D01*
X1049319Y72663D01*
X1048615Y72991D01*
X1047886Y73257D01*
X1047136Y73458D01*
X1046371Y73592D01*
X1045598Y73660D01*
X1044822Y73660D01*
X1197222Y73660D02*
X1196449Y73592D01*
X1195684Y73458D01*
X1194934Y73257D01*
X1194205Y72991D01*
X1193501Y72663D01*
X1192829Y72275D01*
X1192193Y71830D01*
X1191598Y71331D01*
X1191049Y70782D01*
X1190550Y70187D01*
X1190105Y69551D01*
X1189717Y68879D01*
X1189389Y68175D01*
X1189123Y67446D01*
X1188922Y66696D01*
X1188788Y65931D01*
X1188720Y65158D01*
X1188720Y64382D01*
X1188788Y63609D01*
X1188922Y62844D01*
X1189123Y62094D01*
X1189389Y61365D01*
X1189717Y60661D01*
X1190105Y59989D01*
X1190550Y59353D01*
X1191049Y58758D01*
X1191598Y58209D01*
X1192193Y57710D01*
X1192829Y57265D01*
X1193501Y56877D01*
X1194205Y56549D01*
X1194934Y56283D01*
X1195684Y56082D01*
X1196449Y55948D01*
X1197222Y55880D01*
X1197998Y55880D01*
X1198771Y55948D01*
X1199536Y56082D01*
X1200286Y56283D01*
X1201015Y56549D01*
X1201719Y56877D01*
X1202391Y57265D01*
X1203027Y57710D01*
X1203622Y58209D01*
X1204171Y58758D01*
X1204670Y59353D01*
X1205115Y59989D01*
X1205503Y60661D01*
X1205831Y61365D01*
X1206097Y62094D01*
X1206298Y62844D01*
X1206432Y63609D01*
X1206500Y64382D01*
X1206500Y65158D01*
X1206432Y65931D01*
X1206298Y66696D01*
X1206097Y67446D01*
X1205831Y68175D01*
X1205503Y68879D01*
X1205115Y69551D01*
X1204670Y70187D01*
X1204171Y70782D01*
X1203622Y71331D01*
X1203027Y71830D01*
X1202391Y72275D01*
X1201719Y72663D01*
X1201015Y72991D01*
X1200286Y73257D01*
X1199536Y73458D01*
X1198771Y73592D01*
X1197998Y73660D01*
X1197222Y73660D01*
X1197222Y480060D02*
X1196449Y479992D01*
X1195684Y479858D01*
X1194934Y479657D01*
X1194205Y479391D01*
X1193501Y479063D01*
X1192829Y478675D01*
X1192193Y478230D01*
X1191598Y477731D01*
X1191049Y477182D01*
X1190550Y476587D01*
X1190105Y475951D01*
X1189717Y475279D01*
X1189389Y474575D01*
X1189123Y473846D01*
X1188922Y473096D01*
X1188788Y472331D01*
X1188720Y471558D01*
X1188720Y470782D01*
X1188788Y470009D01*
X1188922Y469244D01*
X1189123Y468494D01*
X1189389Y467765D01*
X1189717Y467061D01*
X1190105Y466389D01*
X1190550Y465753D01*
X1191049Y465158D01*
X1191598Y464609D01*
X1192193Y464110D01*
X1192829Y463665D01*
X1193501Y463277D01*
X1194205Y462949D01*
X1194934Y462683D01*
X1195684Y462482D01*
X1196449Y462348D01*
X1197222Y462280D01*
X1197998Y462280D01*
X1198771Y462348D01*
X1199536Y462482D01*
X1200286Y462683D01*
X1201015Y462949D01*
X1201719Y463277D01*
X1202391Y463665D01*
X1203027Y464110D01*
X1203622Y464609D01*
X1204171Y465158D01*
X1204670Y465753D01*
X1205115Y466389D01*
X1205503Y467061D01*
X1205831Y467765D01*
X1206097Y468494D01*
X1206298Y469244D01*
X1206432Y470009D01*
X1206500Y470782D01*
X1206500Y471558D01*
X1206432Y472331D01*
X1206298Y473096D01*
X1206097Y473846D01*
X1205831Y474575D01*
X1205503Y475279D01*
X1205115Y475951D01*
X1204670Y476587D01*
X1204171Y477182D01*
X1203622Y477731D01*
X1203027Y478230D01*
X1202391Y478675D01*
X1201719Y479063D01*
X1201015Y479391D01*
X1200286Y479657D01*
X1199536Y479858D01*
X1198771Y479992D01*
X1197998Y480060D01*
X1197222Y480060D01*
X1044822Y480060D02*
X1044049Y479992D01*
X1043284Y479858D01*
X1042534Y479657D01*
X1041805Y479391D01*
X1041101Y479063D01*
X1040429Y478675D01*
X1039793Y478230D01*
X1039198Y477731D01*
X1038649Y477182D01*
X1038150Y476587D01*
X1037705Y475951D01*
X1037317Y475279D01*
X1036989Y474575D01*
X1036723Y473846D01*
X1036522Y473096D01*
X1036388Y472331D01*
X1036320Y471558D01*
X1036320Y470782D01*
X1036388Y470009D01*
X1036522Y469244D01*
X1036723Y468494D01*
X1036989Y467765D01*
X1037317Y467061D01*
X1037705Y466389D01*
X1038150Y465753D01*
X1038649Y465158D01*
X1039198Y464609D01*
X1039793Y464110D01*
X1040429Y463665D01*
X1041101Y463277D01*
X1041805Y462949D01*
X1042534Y462683D01*
X1043284Y462482D01*
X1044049Y462348D01*
X1044822Y462280D01*
X1045598Y462280D01*
X1046371Y462348D01*
X1047136Y462482D01*
X1047886Y462683D01*
X1048615Y462949D01*
X1049319Y463277D01*
X1049991Y463665D01*
X1050627Y464110D01*
X1051222Y464609D01*
X1051771Y465158D01*
X1052270Y465753D01*
X1052715Y466389D01*
X1053103Y467061D01*
X1053431Y467765D01*
X1053697Y468494D01*
X1053898Y469244D01*
X1054032Y470009D01*
X1054100Y470782D01*
X1054100Y471558D01*
X1054032Y472331D01*
X1053898Y473096D01*
X1053697Y473846D01*
X1053431Y474575D01*
X1053103Y475279D01*
X1052715Y475951D01*
X1052270Y476587D01*
X1051771Y477182D01*
X1051222Y477731D01*
X1050627Y478230D01*
X1049991Y478675D01*
X1049319Y479063D01*
X1048615Y479391D01*
X1047886Y479657D01*
X1047136Y479858D01*
X1046371Y479992D01*
X1045598Y480060D01*
X1044822Y480060D01*
M02*
