G04 EAGLE Gerber X2 export*
%TF.Part,Single*%
%TF.FileFunction,Legend,Bot,1*%
%TF.FilePolarity,Positive*%
%TF.GenerationSoftware,Autodesk,EAGLE,9.1.2*%
%TF.CreationDate,2019-01-09T08:49:19Z*%
G75*
%MOMM*%
%FSLAX34Y34*%
%LPD*%
%AMOC8*
5,1,8,0,0,1.08239X$1,22.5*%
G01*
%ADD10C,0.203200*%
%ADD11C,0.101600*%
%ADD12C,0.127000*%
%ADD13C,0.076200*%
%ADD14C,0.050800*%
%ADD15C,0.254000*%


D10*
X545410Y274874D02*
X545408Y275028D01*
X545402Y275183D01*
X545392Y275337D01*
X545379Y275491D01*
X545361Y275644D01*
X545340Y275797D01*
X545314Y275949D01*
X545285Y276101D01*
X545252Y276252D01*
X545215Y276402D01*
X545175Y276551D01*
X545130Y276699D01*
X545082Y276846D01*
X545031Y276991D01*
X544975Y277135D01*
X544916Y277278D01*
X544853Y277419D01*
X544787Y277559D01*
X544717Y277696D01*
X544644Y277832D01*
X544567Y277966D01*
X544487Y278099D01*
X544404Y278229D01*
X544317Y278356D01*
X544228Y278482D01*
X544135Y278605D01*
X544038Y278726D01*
X543939Y278845D01*
X543837Y278961D01*
X543732Y279074D01*
X543625Y279185D01*
X543514Y279292D01*
X543401Y279397D01*
X543285Y279499D01*
X543166Y279598D01*
X543045Y279695D01*
X542922Y279788D01*
X542796Y279877D01*
X542669Y279964D01*
X542539Y280047D01*
X542406Y280127D01*
X542272Y280204D01*
X542136Y280277D01*
X541999Y280347D01*
X541859Y280413D01*
X541718Y280476D01*
X541575Y280535D01*
X541431Y280591D01*
X541286Y280642D01*
X541139Y280690D01*
X540991Y280735D01*
X540842Y280775D01*
X540692Y280812D01*
X540541Y280845D01*
X540389Y280874D01*
X540237Y280900D01*
X540084Y280921D01*
X539931Y280939D01*
X539777Y280952D01*
X539623Y280962D01*
X539468Y280968D01*
X539314Y280970D01*
X433506Y280970D02*
X433350Y280968D01*
X433195Y280962D01*
X433040Y280952D01*
X432885Y280938D01*
X432731Y280921D01*
X432577Y280899D01*
X432424Y280873D01*
X432271Y280844D01*
X432119Y280810D01*
X431968Y280773D01*
X431819Y280732D01*
X431670Y280687D01*
X431522Y280638D01*
X431376Y280586D01*
X431231Y280530D01*
X431088Y280470D01*
X430946Y280406D01*
X430806Y280339D01*
X430667Y280269D01*
X430531Y280195D01*
X430396Y280117D01*
X430263Y280036D01*
X430133Y279952D01*
X430004Y279864D01*
X429878Y279773D01*
X429755Y279679D01*
X429633Y279582D01*
X429515Y279482D01*
X429398Y279379D01*
X429285Y279272D01*
X429174Y279163D01*
X429066Y279052D01*
X428961Y278937D01*
X428859Y278820D01*
X428760Y278700D01*
X428664Y278578D01*
X428571Y278453D01*
X428481Y278327D01*
X428395Y278197D01*
X428312Y278066D01*
X428232Y277933D01*
X428156Y277797D01*
X428083Y277660D01*
X428014Y277521D01*
X427948Y277380D01*
X427886Y277237D01*
X427828Y277093D01*
X427773Y276948D01*
X427722Y276801D01*
X427675Y276653D01*
X427631Y276504D01*
X427592Y276354D01*
X427556Y276203D01*
X427524Y276050D01*
X427496Y275898D01*
X427472Y275744D01*
X427451Y275590D01*
X427435Y275435D01*
X427423Y275281D01*
X427414Y275125D01*
X427410Y274970D01*
X427410Y274874D01*
X427410Y134066D02*
X427412Y133912D01*
X427418Y133757D01*
X427428Y133603D01*
X427441Y133449D01*
X427459Y133296D01*
X427480Y133143D01*
X427506Y132991D01*
X427535Y132839D01*
X427568Y132688D01*
X427605Y132538D01*
X427645Y132389D01*
X427690Y132241D01*
X427738Y132094D01*
X427789Y131949D01*
X427845Y131805D01*
X427904Y131662D01*
X427967Y131521D01*
X428033Y131381D01*
X428103Y131244D01*
X428176Y131108D01*
X428253Y130974D01*
X428333Y130841D01*
X428416Y130711D01*
X428503Y130584D01*
X428592Y130458D01*
X428685Y130335D01*
X428782Y130214D01*
X428881Y130095D01*
X428983Y129979D01*
X429088Y129866D01*
X429195Y129755D01*
X429306Y129648D01*
X429419Y129543D01*
X429535Y129441D01*
X429654Y129342D01*
X429775Y129245D01*
X429898Y129152D01*
X430024Y129063D01*
X430151Y128976D01*
X430281Y128893D01*
X430414Y128813D01*
X430548Y128736D01*
X430684Y128663D01*
X430821Y128593D01*
X430961Y128527D01*
X431102Y128464D01*
X431245Y128405D01*
X431389Y128349D01*
X431534Y128298D01*
X431681Y128250D01*
X431829Y128205D01*
X431978Y128165D01*
X432128Y128128D01*
X432279Y128095D01*
X432431Y128066D01*
X432583Y128040D01*
X432736Y128019D01*
X432889Y128001D01*
X433043Y127988D01*
X433197Y127978D01*
X433352Y127972D01*
X433506Y127970D01*
X539314Y127970D01*
X539468Y127972D01*
X539623Y127978D01*
X539777Y127988D01*
X539931Y128001D01*
X540084Y128019D01*
X540237Y128040D01*
X540389Y128066D01*
X540541Y128095D01*
X540692Y128128D01*
X540842Y128165D01*
X540991Y128205D01*
X541139Y128250D01*
X541286Y128298D01*
X541431Y128349D01*
X541575Y128405D01*
X541718Y128464D01*
X541859Y128527D01*
X541999Y128593D01*
X542136Y128663D01*
X542272Y128736D01*
X542406Y128813D01*
X542539Y128893D01*
X542669Y128976D01*
X542796Y129063D01*
X542922Y129152D01*
X543045Y129245D01*
X543166Y129342D01*
X543285Y129441D01*
X543401Y129543D01*
X543514Y129648D01*
X543625Y129755D01*
X543732Y129866D01*
X543837Y129979D01*
X543939Y130095D01*
X544038Y130214D01*
X544135Y130335D01*
X544228Y130458D01*
X544317Y130584D01*
X544404Y130711D01*
X544487Y130841D01*
X544567Y130974D01*
X544644Y131108D01*
X544717Y131244D01*
X544787Y131381D01*
X544853Y131521D01*
X544916Y131662D01*
X544975Y131805D01*
X545031Y131949D01*
X545082Y132094D01*
X545130Y132241D01*
X545175Y132389D01*
X545215Y132538D01*
X545252Y132688D01*
X545285Y132839D01*
X545314Y132991D01*
X545340Y133143D01*
X545361Y133296D01*
X545379Y133449D01*
X545392Y133603D01*
X545402Y133757D01*
X545408Y133912D01*
X545410Y134066D01*
X545410Y154470D02*
X545410Y233970D01*
X545410Y234470D01*
X538910Y280970D02*
X497410Y280970D01*
X475410Y280970D02*
X433910Y280970D01*
X427410Y274970D02*
X427410Y255470D01*
X427410Y234970D02*
X427410Y153470D01*
X545410Y153970D02*
X545410Y233970D01*
D11*
X511302Y154178D02*
X499618Y154178D01*
X504162Y154178D02*
X511302Y160669D01*
X506758Y156774D02*
X499618Y160669D01*
X499618Y165058D02*
X499618Y168952D01*
X499620Y169051D01*
X499626Y169151D01*
X499635Y169250D01*
X499648Y169348D01*
X499665Y169446D01*
X499686Y169544D01*
X499711Y169640D01*
X499739Y169735D01*
X499771Y169829D01*
X499806Y169922D01*
X499845Y170014D01*
X499888Y170104D01*
X499933Y170192D01*
X499983Y170279D01*
X500035Y170363D01*
X500091Y170446D01*
X500149Y170526D01*
X500211Y170604D01*
X500276Y170679D01*
X500344Y170752D01*
X500414Y170822D01*
X500487Y170890D01*
X500562Y170955D01*
X500640Y171017D01*
X500720Y171075D01*
X500803Y171131D01*
X500887Y171183D01*
X500974Y171233D01*
X501062Y171278D01*
X501152Y171321D01*
X501244Y171360D01*
X501337Y171395D01*
X501431Y171427D01*
X501526Y171455D01*
X501622Y171480D01*
X501720Y171501D01*
X501818Y171518D01*
X501916Y171531D01*
X502015Y171540D01*
X502115Y171546D01*
X502214Y171548D01*
X502214Y171549D02*
X503513Y171549D01*
X503513Y171548D02*
X503612Y171546D01*
X503712Y171540D01*
X503811Y171531D01*
X503909Y171518D01*
X504007Y171501D01*
X504105Y171480D01*
X504201Y171455D01*
X504296Y171427D01*
X504390Y171395D01*
X504483Y171360D01*
X504575Y171321D01*
X504665Y171278D01*
X504753Y171233D01*
X504840Y171183D01*
X504924Y171131D01*
X505007Y171075D01*
X505087Y171017D01*
X505165Y170955D01*
X505240Y170890D01*
X505313Y170822D01*
X505383Y170752D01*
X505451Y170679D01*
X505516Y170604D01*
X505578Y170526D01*
X505636Y170446D01*
X505692Y170363D01*
X505744Y170279D01*
X505794Y170192D01*
X505839Y170104D01*
X505882Y170014D01*
X505921Y169922D01*
X505956Y169829D01*
X505988Y169735D01*
X506016Y169640D01*
X506041Y169544D01*
X506062Y169446D01*
X506079Y169348D01*
X506092Y169250D01*
X506101Y169151D01*
X506107Y169051D01*
X506109Y168952D01*
X506109Y165058D01*
X511302Y165058D01*
X511302Y171549D01*
D10*
X770310Y134066D02*
X770312Y133912D01*
X770318Y133757D01*
X770328Y133603D01*
X770341Y133449D01*
X770359Y133296D01*
X770380Y133143D01*
X770406Y132991D01*
X770435Y132839D01*
X770468Y132688D01*
X770505Y132538D01*
X770545Y132389D01*
X770590Y132241D01*
X770638Y132094D01*
X770689Y131949D01*
X770745Y131805D01*
X770804Y131662D01*
X770867Y131521D01*
X770933Y131381D01*
X771003Y131244D01*
X771076Y131108D01*
X771153Y130974D01*
X771233Y130841D01*
X771316Y130711D01*
X771403Y130584D01*
X771492Y130458D01*
X771585Y130335D01*
X771682Y130214D01*
X771781Y130095D01*
X771883Y129979D01*
X771988Y129866D01*
X772095Y129755D01*
X772206Y129648D01*
X772319Y129543D01*
X772435Y129441D01*
X772554Y129342D01*
X772675Y129245D01*
X772798Y129152D01*
X772924Y129063D01*
X773051Y128976D01*
X773181Y128893D01*
X773314Y128813D01*
X773448Y128736D01*
X773584Y128663D01*
X773721Y128593D01*
X773861Y128527D01*
X774002Y128464D01*
X774145Y128405D01*
X774289Y128349D01*
X774434Y128298D01*
X774581Y128250D01*
X774729Y128205D01*
X774878Y128165D01*
X775028Y128128D01*
X775179Y128095D01*
X775331Y128066D01*
X775483Y128040D01*
X775636Y128019D01*
X775789Y128001D01*
X775943Y127988D01*
X776097Y127978D01*
X776252Y127972D01*
X776406Y127970D01*
X882214Y127970D02*
X882370Y127972D01*
X882525Y127978D01*
X882680Y127988D01*
X882835Y128002D01*
X882989Y128019D01*
X883143Y128041D01*
X883296Y128067D01*
X883449Y128096D01*
X883601Y128130D01*
X883752Y128167D01*
X883901Y128208D01*
X884050Y128253D01*
X884198Y128302D01*
X884344Y128354D01*
X884489Y128410D01*
X884632Y128470D01*
X884774Y128534D01*
X884914Y128601D01*
X885053Y128671D01*
X885189Y128745D01*
X885324Y128823D01*
X885457Y128904D01*
X885587Y128988D01*
X885716Y129076D01*
X885842Y129167D01*
X885965Y129261D01*
X886087Y129358D01*
X886205Y129458D01*
X886322Y129561D01*
X886435Y129668D01*
X886546Y129777D01*
X886654Y129888D01*
X886759Y130003D01*
X886861Y130120D01*
X886960Y130240D01*
X887056Y130362D01*
X887149Y130487D01*
X887239Y130613D01*
X887325Y130743D01*
X887408Y130874D01*
X887488Y131007D01*
X887564Y131143D01*
X887637Y131280D01*
X887706Y131419D01*
X887772Y131560D01*
X887834Y131703D01*
X887892Y131847D01*
X887947Y131992D01*
X887998Y132139D01*
X888045Y132287D01*
X888089Y132436D01*
X888128Y132586D01*
X888164Y132737D01*
X888196Y132890D01*
X888224Y133042D01*
X888248Y133196D01*
X888269Y133350D01*
X888285Y133505D01*
X888297Y133659D01*
X888306Y133815D01*
X888310Y133970D01*
X888310Y134066D01*
X888310Y274874D02*
X888308Y275028D01*
X888302Y275183D01*
X888292Y275337D01*
X888279Y275491D01*
X888261Y275644D01*
X888240Y275797D01*
X888214Y275949D01*
X888185Y276101D01*
X888152Y276252D01*
X888115Y276402D01*
X888075Y276551D01*
X888030Y276699D01*
X887982Y276846D01*
X887931Y276991D01*
X887875Y277135D01*
X887816Y277278D01*
X887753Y277419D01*
X887687Y277559D01*
X887617Y277696D01*
X887544Y277832D01*
X887467Y277966D01*
X887387Y278099D01*
X887304Y278229D01*
X887217Y278356D01*
X887128Y278482D01*
X887035Y278605D01*
X886938Y278726D01*
X886839Y278845D01*
X886737Y278961D01*
X886632Y279074D01*
X886525Y279185D01*
X886414Y279292D01*
X886301Y279397D01*
X886185Y279499D01*
X886066Y279598D01*
X885945Y279695D01*
X885822Y279788D01*
X885696Y279877D01*
X885569Y279964D01*
X885439Y280047D01*
X885306Y280127D01*
X885172Y280204D01*
X885036Y280277D01*
X884899Y280347D01*
X884759Y280413D01*
X884618Y280476D01*
X884475Y280535D01*
X884331Y280591D01*
X884186Y280642D01*
X884039Y280690D01*
X883891Y280735D01*
X883742Y280775D01*
X883592Y280812D01*
X883441Y280845D01*
X883289Y280874D01*
X883137Y280900D01*
X882984Y280921D01*
X882831Y280939D01*
X882677Y280952D01*
X882523Y280962D01*
X882368Y280968D01*
X882214Y280970D01*
X776406Y280970D01*
X776252Y280968D01*
X776097Y280962D01*
X775943Y280952D01*
X775789Y280939D01*
X775636Y280921D01*
X775483Y280900D01*
X775331Y280874D01*
X775179Y280845D01*
X775028Y280812D01*
X774878Y280775D01*
X774729Y280735D01*
X774581Y280690D01*
X774434Y280642D01*
X774289Y280591D01*
X774145Y280535D01*
X774002Y280476D01*
X773861Y280413D01*
X773721Y280347D01*
X773584Y280277D01*
X773448Y280204D01*
X773314Y280127D01*
X773181Y280047D01*
X773051Y279964D01*
X772924Y279877D01*
X772798Y279788D01*
X772675Y279695D01*
X772554Y279598D01*
X772435Y279499D01*
X772319Y279397D01*
X772206Y279292D01*
X772095Y279185D01*
X771988Y279074D01*
X771883Y278961D01*
X771781Y278845D01*
X771682Y278726D01*
X771585Y278605D01*
X771492Y278482D01*
X771403Y278356D01*
X771316Y278229D01*
X771233Y278099D01*
X771153Y277966D01*
X771076Y277832D01*
X771003Y277696D01*
X770933Y277559D01*
X770867Y277419D01*
X770804Y277278D01*
X770745Y277135D01*
X770689Y276991D01*
X770638Y276846D01*
X770590Y276699D01*
X770545Y276551D01*
X770505Y276402D01*
X770468Y276252D01*
X770435Y276101D01*
X770406Y275949D01*
X770380Y275797D01*
X770359Y275644D01*
X770341Y275491D01*
X770328Y275337D01*
X770318Y275183D01*
X770312Y275028D01*
X770310Y274874D01*
X770310Y254470D02*
X770310Y174970D01*
X770310Y174470D01*
X776810Y127970D02*
X818310Y127970D01*
X840310Y127970D02*
X881810Y127970D01*
X888310Y133970D02*
X888310Y153470D01*
X888310Y173970D02*
X888310Y255470D01*
X770310Y254970D02*
X770310Y174970D01*
D11*
X804418Y237391D02*
X816102Y237391D01*
X816102Y243882D02*
X808962Y237391D01*
X811558Y239988D02*
X804418Y243882D01*
X813506Y248271D02*
X816102Y251516D01*
X804418Y251516D01*
X804418Y248271D02*
X804418Y254762D01*
D10*
X273486Y373080D02*
X273332Y373082D01*
X273177Y373088D01*
X273023Y373098D01*
X272869Y373111D01*
X272716Y373129D01*
X272563Y373150D01*
X272411Y373176D01*
X272259Y373205D01*
X272108Y373238D01*
X271958Y373275D01*
X271809Y373315D01*
X271661Y373360D01*
X271514Y373408D01*
X271369Y373459D01*
X271225Y373515D01*
X271082Y373574D01*
X270941Y373637D01*
X270801Y373703D01*
X270664Y373773D01*
X270528Y373846D01*
X270394Y373923D01*
X270261Y374003D01*
X270131Y374086D01*
X270004Y374173D01*
X269878Y374262D01*
X269755Y374355D01*
X269634Y374452D01*
X269515Y374551D01*
X269399Y374653D01*
X269286Y374758D01*
X269175Y374865D01*
X269068Y374976D01*
X268963Y375089D01*
X268861Y375205D01*
X268762Y375324D01*
X268665Y375445D01*
X268572Y375568D01*
X268483Y375694D01*
X268396Y375821D01*
X268313Y375951D01*
X268233Y376084D01*
X268156Y376218D01*
X268083Y376354D01*
X268013Y376491D01*
X267947Y376631D01*
X267884Y376772D01*
X267825Y376915D01*
X267769Y377059D01*
X267718Y377204D01*
X267670Y377351D01*
X267625Y377499D01*
X267585Y377648D01*
X267548Y377798D01*
X267515Y377949D01*
X267486Y378101D01*
X267460Y378253D01*
X267439Y378406D01*
X267421Y378559D01*
X267408Y378713D01*
X267398Y378867D01*
X267392Y379022D01*
X267390Y379176D01*
X379294Y373080D02*
X379450Y373082D01*
X379605Y373088D01*
X379760Y373098D01*
X379915Y373112D01*
X380069Y373129D01*
X380223Y373151D01*
X380376Y373177D01*
X380529Y373206D01*
X380681Y373240D01*
X380832Y373277D01*
X380981Y373318D01*
X381130Y373363D01*
X381278Y373412D01*
X381424Y373464D01*
X381569Y373520D01*
X381712Y373580D01*
X381854Y373644D01*
X381994Y373711D01*
X382133Y373781D01*
X382269Y373855D01*
X382404Y373933D01*
X382537Y374014D01*
X382667Y374098D01*
X382796Y374186D01*
X382922Y374277D01*
X383045Y374371D01*
X383167Y374468D01*
X383285Y374568D01*
X383402Y374671D01*
X383515Y374778D01*
X383626Y374887D01*
X383734Y374998D01*
X383839Y375113D01*
X383941Y375230D01*
X384040Y375350D01*
X384136Y375472D01*
X384229Y375597D01*
X384319Y375723D01*
X384405Y375853D01*
X384488Y375984D01*
X384568Y376117D01*
X384644Y376253D01*
X384717Y376390D01*
X384786Y376529D01*
X384852Y376670D01*
X384914Y376813D01*
X384972Y376957D01*
X385027Y377102D01*
X385078Y377249D01*
X385125Y377397D01*
X385169Y377546D01*
X385208Y377696D01*
X385244Y377847D01*
X385276Y378000D01*
X385304Y378152D01*
X385328Y378306D01*
X385349Y378460D01*
X385365Y378615D01*
X385377Y378769D01*
X385386Y378925D01*
X385390Y379080D01*
X385390Y379176D01*
X385390Y519984D02*
X385388Y520138D01*
X385382Y520293D01*
X385372Y520447D01*
X385359Y520601D01*
X385341Y520754D01*
X385320Y520907D01*
X385294Y521059D01*
X385265Y521211D01*
X385232Y521362D01*
X385195Y521512D01*
X385155Y521661D01*
X385110Y521809D01*
X385062Y521956D01*
X385011Y522101D01*
X384955Y522245D01*
X384896Y522388D01*
X384833Y522529D01*
X384767Y522669D01*
X384697Y522806D01*
X384624Y522942D01*
X384547Y523076D01*
X384467Y523209D01*
X384384Y523339D01*
X384297Y523466D01*
X384208Y523592D01*
X384115Y523715D01*
X384018Y523836D01*
X383919Y523955D01*
X383817Y524071D01*
X383712Y524184D01*
X383605Y524295D01*
X383494Y524402D01*
X383381Y524507D01*
X383265Y524609D01*
X383146Y524708D01*
X383025Y524805D01*
X382902Y524898D01*
X382776Y524987D01*
X382649Y525074D01*
X382519Y525157D01*
X382386Y525237D01*
X382252Y525314D01*
X382116Y525387D01*
X381979Y525457D01*
X381839Y525523D01*
X381698Y525586D01*
X381555Y525645D01*
X381411Y525701D01*
X381266Y525752D01*
X381119Y525800D01*
X380971Y525845D01*
X380822Y525885D01*
X380672Y525922D01*
X380521Y525955D01*
X380369Y525984D01*
X380217Y526010D01*
X380064Y526031D01*
X379911Y526049D01*
X379757Y526062D01*
X379603Y526072D01*
X379448Y526078D01*
X379294Y526080D01*
X273486Y526080D01*
X273332Y526078D01*
X273177Y526072D01*
X273023Y526062D01*
X272869Y526049D01*
X272716Y526031D01*
X272563Y526010D01*
X272411Y525984D01*
X272259Y525955D01*
X272108Y525922D01*
X271958Y525885D01*
X271809Y525845D01*
X271661Y525800D01*
X271514Y525752D01*
X271369Y525701D01*
X271225Y525645D01*
X271082Y525586D01*
X270941Y525523D01*
X270801Y525457D01*
X270664Y525387D01*
X270528Y525314D01*
X270394Y525237D01*
X270261Y525157D01*
X270131Y525074D01*
X270004Y524987D01*
X269878Y524898D01*
X269755Y524805D01*
X269634Y524708D01*
X269515Y524609D01*
X269399Y524507D01*
X269286Y524402D01*
X269175Y524295D01*
X269068Y524184D01*
X268963Y524071D01*
X268861Y523955D01*
X268762Y523836D01*
X268665Y523715D01*
X268572Y523592D01*
X268483Y523466D01*
X268396Y523339D01*
X268313Y523209D01*
X268233Y523076D01*
X268156Y522942D01*
X268083Y522806D01*
X268013Y522669D01*
X267947Y522529D01*
X267884Y522388D01*
X267825Y522245D01*
X267769Y522101D01*
X267718Y521956D01*
X267670Y521809D01*
X267625Y521661D01*
X267585Y521512D01*
X267548Y521362D01*
X267515Y521211D01*
X267486Y521059D01*
X267460Y520907D01*
X267439Y520754D01*
X267421Y520601D01*
X267408Y520447D01*
X267398Y520293D01*
X267392Y520138D01*
X267390Y519984D01*
X267390Y499580D02*
X267390Y420080D01*
X267390Y419580D01*
X273890Y373080D02*
X315390Y373080D01*
X337390Y373080D02*
X378890Y373080D01*
X385390Y379080D02*
X385390Y398580D01*
X385390Y419080D02*
X385390Y500580D01*
X267390Y500080D02*
X267390Y420080D01*
D11*
X301498Y482501D02*
X313182Y482501D01*
X313182Y488992D02*
X306042Y482501D01*
X308638Y485098D02*
X301498Y488992D01*
X310261Y499872D02*
X310368Y499870D01*
X310474Y499864D01*
X310580Y499854D01*
X310686Y499841D01*
X310792Y499823D01*
X310896Y499802D01*
X311000Y499777D01*
X311103Y499748D01*
X311204Y499716D01*
X311304Y499679D01*
X311403Y499639D01*
X311501Y499596D01*
X311597Y499549D01*
X311691Y499498D01*
X311783Y499444D01*
X311873Y499387D01*
X311961Y499327D01*
X312046Y499263D01*
X312129Y499196D01*
X312210Y499126D01*
X312288Y499054D01*
X312364Y498978D01*
X312436Y498900D01*
X312506Y498819D01*
X312573Y498736D01*
X312637Y498651D01*
X312697Y498563D01*
X312754Y498473D01*
X312808Y498381D01*
X312859Y498287D01*
X312906Y498191D01*
X312949Y498093D01*
X312989Y497994D01*
X313026Y497894D01*
X313058Y497793D01*
X313087Y497690D01*
X313112Y497586D01*
X313133Y497482D01*
X313151Y497376D01*
X313164Y497270D01*
X313174Y497164D01*
X313180Y497058D01*
X313182Y496951D01*
X313180Y496830D01*
X313174Y496709D01*
X313164Y496589D01*
X313151Y496468D01*
X313133Y496349D01*
X313112Y496229D01*
X313087Y496111D01*
X313058Y495994D01*
X313025Y495877D01*
X312989Y495762D01*
X312948Y495648D01*
X312905Y495535D01*
X312857Y495423D01*
X312806Y495314D01*
X312751Y495206D01*
X312693Y495099D01*
X312632Y494995D01*
X312567Y494893D01*
X312499Y494793D01*
X312428Y494695D01*
X312354Y494599D01*
X312277Y494506D01*
X312196Y494416D01*
X312113Y494328D01*
X312027Y494243D01*
X311938Y494160D01*
X311847Y494081D01*
X311753Y494004D01*
X311657Y493931D01*
X311559Y493861D01*
X311458Y493794D01*
X311355Y493730D01*
X311250Y493670D01*
X311143Y493613D01*
X311035Y493559D01*
X310925Y493509D01*
X310813Y493463D01*
X310700Y493420D01*
X310585Y493381D01*
X307989Y498899D02*
X308066Y498978D01*
X308147Y499054D01*
X308230Y499127D01*
X308315Y499197D01*
X308403Y499264D01*
X308493Y499328D01*
X308585Y499388D01*
X308680Y499445D01*
X308776Y499499D01*
X308874Y499550D01*
X308974Y499597D01*
X309076Y499641D01*
X309179Y499681D01*
X309283Y499717D01*
X309389Y499749D01*
X309495Y499778D01*
X309603Y499803D01*
X309711Y499825D01*
X309821Y499842D01*
X309930Y499856D01*
X310040Y499865D01*
X310151Y499871D01*
X310261Y499873D01*
X307989Y498898D02*
X301498Y493381D01*
X301498Y499872D01*
D10*
X717114Y534970D02*
X717268Y534968D01*
X717423Y534962D01*
X717577Y534952D01*
X717731Y534939D01*
X717884Y534921D01*
X718037Y534900D01*
X718189Y534874D01*
X718341Y534845D01*
X718492Y534812D01*
X718642Y534775D01*
X718791Y534735D01*
X718939Y534690D01*
X719086Y534642D01*
X719231Y534591D01*
X719375Y534535D01*
X719518Y534476D01*
X719659Y534413D01*
X719799Y534347D01*
X719936Y534277D01*
X720072Y534204D01*
X720206Y534127D01*
X720339Y534047D01*
X720469Y533964D01*
X720596Y533877D01*
X720722Y533788D01*
X720845Y533695D01*
X720966Y533598D01*
X721085Y533499D01*
X721201Y533397D01*
X721314Y533292D01*
X721425Y533185D01*
X721532Y533074D01*
X721637Y532961D01*
X721739Y532845D01*
X721838Y532726D01*
X721935Y532605D01*
X722028Y532482D01*
X722117Y532356D01*
X722204Y532229D01*
X722287Y532099D01*
X722367Y531966D01*
X722444Y531832D01*
X722517Y531696D01*
X722587Y531559D01*
X722653Y531419D01*
X722716Y531278D01*
X722775Y531135D01*
X722831Y530991D01*
X722882Y530846D01*
X722930Y530699D01*
X722975Y530551D01*
X723015Y530402D01*
X723052Y530252D01*
X723085Y530101D01*
X723114Y529949D01*
X723140Y529797D01*
X723161Y529644D01*
X723179Y529491D01*
X723192Y529337D01*
X723202Y529183D01*
X723208Y529028D01*
X723210Y528874D01*
X611306Y534970D02*
X611150Y534968D01*
X610995Y534962D01*
X610840Y534952D01*
X610685Y534938D01*
X610531Y534921D01*
X610377Y534899D01*
X610224Y534873D01*
X610071Y534844D01*
X609919Y534810D01*
X609768Y534773D01*
X609619Y534732D01*
X609470Y534687D01*
X609322Y534638D01*
X609176Y534586D01*
X609031Y534530D01*
X608888Y534470D01*
X608746Y534406D01*
X608606Y534339D01*
X608467Y534269D01*
X608331Y534195D01*
X608196Y534117D01*
X608063Y534036D01*
X607933Y533952D01*
X607804Y533864D01*
X607678Y533773D01*
X607555Y533679D01*
X607433Y533582D01*
X607315Y533482D01*
X607198Y533379D01*
X607085Y533272D01*
X606974Y533163D01*
X606866Y533052D01*
X606761Y532937D01*
X606659Y532820D01*
X606560Y532700D01*
X606464Y532578D01*
X606371Y532453D01*
X606281Y532327D01*
X606195Y532197D01*
X606112Y532066D01*
X606032Y531933D01*
X605956Y531797D01*
X605883Y531660D01*
X605814Y531521D01*
X605748Y531380D01*
X605686Y531237D01*
X605628Y531093D01*
X605573Y530948D01*
X605522Y530801D01*
X605475Y530653D01*
X605431Y530504D01*
X605392Y530354D01*
X605356Y530203D01*
X605324Y530050D01*
X605296Y529898D01*
X605272Y529744D01*
X605251Y529590D01*
X605235Y529435D01*
X605223Y529281D01*
X605214Y529125D01*
X605210Y528970D01*
X605210Y528874D01*
X605210Y388066D02*
X605212Y387912D01*
X605218Y387757D01*
X605228Y387603D01*
X605241Y387449D01*
X605259Y387296D01*
X605280Y387143D01*
X605306Y386991D01*
X605335Y386839D01*
X605368Y386688D01*
X605405Y386538D01*
X605445Y386389D01*
X605490Y386241D01*
X605538Y386094D01*
X605589Y385949D01*
X605645Y385805D01*
X605704Y385662D01*
X605767Y385521D01*
X605833Y385381D01*
X605903Y385244D01*
X605976Y385108D01*
X606053Y384974D01*
X606133Y384841D01*
X606216Y384711D01*
X606303Y384584D01*
X606392Y384458D01*
X606485Y384335D01*
X606582Y384214D01*
X606681Y384095D01*
X606783Y383979D01*
X606888Y383866D01*
X606995Y383755D01*
X607106Y383648D01*
X607219Y383543D01*
X607335Y383441D01*
X607454Y383342D01*
X607575Y383245D01*
X607698Y383152D01*
X607824Y383063D01*
X607951Y382976D01*
X608081Y382893D01*
X608214Y382813D01*
X608348Y382736D01*
X608484Y382663D01*
X608621Y382593D01*
X608761Y382527D01*
X608902Y382464D01*
X609045Y382405D01*
X609189Y382349D01*
X609334Y382298D01*
X609481Y382250D01*
X609629Y382205D01*
X609778Y382165D01*
X609928Y382128D01*
X610079Y382095D01*
X610231Y382066D01*
X610383Y382040D01*
X610536Y382019D01*
X610689Y382001D01*
X610843Y381988D01*
X610997Y381978D01*
X611152Y381972D01*
X611306Y381970D01*
X717114Y381970D01*
X717268Y381972D01*
X717423Y381978D01*
X717577Y381988D01*
X717731Y382001D01*
X717884Y382019D01*
X718037Y382040D01*
X718189Y382066D01*
X718341Y382095D01*
X718492Y382128D01*
X718642Y382165D01*
X718791Y382205D01*
X718939Y382250D01*
X719086Y382298D01*
X719231Y382349D01*
X719375Y382405D01*
X719518Y382464D01*
X719659Y382527D01*
X719799Y382593D01*
X719936Y382663D01*
X720072Y382736D01*
X720206Y382813D01*
X720339Y382893D01*
X720469Y382976D01*
X720596Y383063D01*
X720722Y383152D01*
X720845Y383245D01*
X720966Y383342D01*
X721085Y383441D01*
X721201Y383543D01*
X721314Y383648D01*
X721425Y383755D01*
X721532Y383866D01*
X721637Y383979D01*
X721739Y384095D01*
X721838Y384214D01*
X721935Y384335D01*
X722028Y384458D01*
X722117Y384584D01*
X722204Y384711D01*
X722287Y384841D01*
X722367Y384974D01*
X722444Y385108D01*
X722517Y385244D01*
X722587Y385381D01*
X722653Y385521D01*
X722716Y385662D01*
X722775Y385805D01*
X722831Y385949D01*
X722882Y386094D01*
X722930Y386241D01*
X722975Y386389D01*
X723015Y386538D01*
X723052Y386688D01*
X723085Y386839D01*
X723114Y386991D01*
X723140Y387143D01*
X723161Y387296D01*
X723179Y387449D01*
X723192Y387603D01*
X723202Y387757D01*
X723208Y387912D01*
X723210Y388066D01*
X723210Y408470D02*
X723210Y487970D01*
X723210Y488470D01*
X716710Y534970D02*
X675210Y534970D01*
X653210Y534970D02*
X611710Y534970D01*
X605210Y528970D02*
X605210Y509470D01*
X605210Y488970D02*
X605210Y407470D01*
X723210Y407970D02*
X723210Y487970D01*
D11*
X689102Y408178D02*
X677418Y408178D01*
X681962Y408178D02*
X689102Y414669D01*
X684558Y410774D02*
X677418Y414669D01*
X677418Y419058D02*
X677418Y422303D01*
X677420Y422416D01*
X677426Y422529D01*
X677436Y422642D01*
X677450Y422755D01*
X677467Y422867D01*
X677489Y422978D01*
X677514Y423088D01*
X677544Y423198D01*
X677577Y423306D01*
X677614Y423413D01*
X677654Y423519D01*
X677699Y423623D01*
X677747Y423726D01*
X677798Y423827D01*
X677853Y423926D01*
X677911Y424023D01*
X677973Y424118D01*
X678038Y424211D01*
X678106Y424301D01*
X678177Y424389D01*
X678252Y424475D01*
X678329Y424558D01*
X678409Y424638D01*
X678492Y424715D01*
X678578Y424790D01*
X678666Y424861D01*
X678756Y424929D01*
X678849Y424994D01*
X678944Y425056D01*
X679041Y425114D01*
X679140Y425169D01*
X679241Y425220D01*
X679344Y425268D01*
X679448Y425313D01*
X679554Y425353D01*
X679661Y425390D01*
X679769Y425423D01*
X679879Y425453D01*
X679989Y425478D01*
X680100Y425500D01*
X680212Y425517D01*
X680325Y425531D01*
X680438Y425541D01*
X680551Y425547D01*
X680664Y425549D01*
X680777Y425547D01*
X680890Y425541D01*
X681003Y425531D01*
X681116Y425517D01*
X681228Y425500D01*
X681339Y425478D01*
X681449Y425453D01*
X681559Y425423D01*
X681667Y425390D01*
X681774Y425353D01*
X681880Y425313D01*
X681984Y425268D01*
X682087Y425220D01*
X682188Y425169D01*
X682287Y425114D01*
X682384Y425056D01*
X682479Y424994D01*
X682572Y424929D01*
X682662Y424861D01*
X682750Y424790D01*
X682836Y424715D01*
X682919Y424638D01*
X682999Y424558D01*
X683076Y424475D01*
X683151Y424389D01*
X683222Y424301D01*
X683290Y424211D01*
X683355Y424118D01*
X683417Y424023D01*
X683475Y423926D01*
X683530Y423827D01*
X683581Y423726D01*
X683629Y423623D01*
X683674Y423519D01*
X683714Y423413D01*
X683751Y423306D01*
X683784Y423198D01*
X683814Y423088D01*
X683839Y422978D01*
X683861Y422867D01*
X683878Y422755D01*
X683892Y422642D01*
X683902Y422529D01*
X683908Y422416D01*
X683910Y422303D01*
X689102Y422952D02*
X689102Y419058D01*
X689102Y422952D02*
X689100Y423053D01*
X689094Y423153D01*
X689084Y423253D01*
X689071Y423353D01*
X689053Y423452D01*
X689032Y423551D01*
X689007Y423648D01*
X688978Y423745D01*
X688945Y423840D01*
X688909Y423934D01*
X688869Y424026D01*
X688826Y424117D01*
X688779Y424206D01*
X688729Y424293D01*
X688675Y424379D01*
X688618Y424462D01*
X688558Y424542D01*
X688495Y424621D01*
X688428Y424697D01*
X688359Y424770D01*
X688287Y424840D01*
X688213Y424908D01*
X688136Y424973D01*
X688056Y425034D01*
X687974Y425093D01*
X687890Y425148D01*
X687804Y425200D01*
X687716Y425249D01*
X687626Y425294D01*
X687534Y425336D01*
X687441Y425374D01*
X687346Y425408D01*
X687251Y425439D01*
X687154Y425466D01*
X687056Y425489D01*
X686957Y425509D01*
X686857Y425524D01*
X686757Y425536D01*
X686657Y425544D01*
X686556Y425548D01*
X686456Y425548D01*
X686355Y425544D01*
X686255Y425536D01*
X686155Y425524D01*
X686055Y425509D01*
X685956Y425489D01*
X685858Y425466D01*
X685761Y425439D01*
X685666Y425408D01*
X685571Y425374D01*
X685478Y425336D01*
X685386Y425294D01*
X685296Y425249D01*
X685208Y425200D01*
X685122Y425148D01*
X685038Y425093D01*
X684956Y425034D01*
X684876Y424973D01*
X684799Y424908D01*
X684725Y424840D01*
X684653Y424770D01*
X684584Y424697D01*
X684517Y424621D01*
X684454Y424542D01*
X684394Y424462D01*
X684337Y424379D01*
X684283Y424293D01*
X684233Y424206D01*
X684186Y424117D01*
X684143Y424026D01*
X684103Y423934D01*
X684067Y423840D01*
X684034Y423745D01*
X684005Y423648D01*
X683980Y423551D01*
X683959Y423452D01*
X683941Y423353D01*
X683928Y423253D01*
X683918Y423153D01*
X683912Y423053D01*
X683910Y422952D01*
X683909Y422952D02*
X683909Y420356D01*
D10*
X912414Y424870D02*
X912568Y424872D01*
X912723Y424878D01*
X912877Y424888D01*
X913031Y424901D01*
X913184Y424919D01*
X913337Y424940D01*
X913489Y424966D01*
X913641Y424995D01*
X913792Y425028D01*
X913942Y425065D01*
X914091Y425105D01*
X914239Y425150D01*
X914386Y425198D01*
X914531Y425249D01*
X914675Y425305D01*
X914818Y425364D01*
X914959Y425427D01*
X915099Y425493D01*
X915236Y425563D01*
X915372Y425636D01*
X915506Y425713D01*
X915639Y425793D01*
X915769Y425876D01*
X915896Y425963D01*
X916022Y426052D01*
X916145Y426145D01*
X916266Y426242D01*
X916385Y426341D01*
X916501Y426443D01*
X916614Y426548D01*
X916725Y426655D01*
X916832Y426766D01*
X916937Y426879D01*
X917039Y426995D01*
X917138Y427114D01*
X917235Y427235D01*
X917328Y427358D01*
X917417Y427484D01*
X917504Y427611D01*
X917587Y427741D01*
X917667Y427874D01*
X917744Y428008D01*
X917817Y428144D01*
X917887Y428281D01*
X917953Y428421D01*
X918016Y428562D01*
X918075Y428705D01*
X918131Y428849D01*
X918182Y428994D01*
X918230Y429141D01*
X918275Y429289D01*
X918315Y429438D01*
X918352Y429588D01*
X918385Y429739D01*
X918414Y429891D01*
X918440Y430043D01*
X918461Y430196D01*
X918479Y430349D01*
X918492Y430503D01*
X918502Y430657D01*
X918508Y430812D01*
X918510Y430966D01*
X918510Y536774D02*
X918508Y536930D01*
X918502Y537085D01*
X918492Y537240D01*
X918478Y537395D01*
X918461Y537549D01*
X918439Y537703D01*
X918413Y537856D01*
X918384Y538009D01*
X918350Y538161D01*
X918313Y538312D01*
X918272Y538461D01*
X918227Y538610D01*
X918178Y538758D01*
X918126Y538904D01*
X918070Y539049D01*
X918010Y539192D01*
X917946Y539334D01*
X917879Y539474D01*
X917809Y539613D01*
X917735Y539749D01*
X917657Y539884D01*
X917576Y540017D01*
X917492Y540147D01*
X917404Y540276D01*
X917313Y540402D01*
X917219Y540525D01*
X917122Y540647D01*
X917022Y540765D01*
X916919Y540882D01*
X916812Y540995D01*
X916703Y541106D01*
X916592Y541214D01*
X916477Y541319D01*
X916360Y541421D01*
X916240Y541520D01*
X916118Y541616D01*
X915993Y541709D01*
X915867Y541799D01*
X915737Y541885D01*
X915606Y541968D01*
X915473Y542048D01*
X915337Y542124D01*
X915200Y542197D01*
X915061Y542266D01*
X914920Y542332D01*
X914777Y542394D01*
X914633Y542452D01*
X914488Y542507D01*
X914341Y542558D01*
X914193Y542605D01*
X914044Y542649D01*
X913894Y542688D01*
X913743Y542724D01*
X913590Y542756D01*
X913438Y542784D01*
X913284Y542808D01*
X913130Y542829D01*
X912975Y542845D01*
X912821Y542857D01*
X912665Y542866D01*
X912510Y542870D01*
X912414Y542870D01*
X771606Y542870D02*
X771452Y542868D01*
X771297Y542862D01*
X771143Y542852D01*
X770989Y542839D01*
X770836Y542821D01*
X770683Y542800D01*
X770531Y542774D01*
X770379Y542745D01*
X770228Y542712D01*
X770078Y542675D01*
X769929Y542635D01*
X769781Y542590D01*
X769634Y542542D01*
X769489Y542491D01*
X769345Y542435D01*
X769202Y542376D01*
X769061Y542313D01*
X768921Y542247D01*
X768784Y542177D01*
X768648Y542104D01*
X768514Y542027D01*
X768381Y541947D01*
X768251Y541864D01*
X768124Y541777D01*
X767998Y541688D01*
X767875Y541595D01*
X767754Y541498D01*
X767635Y541399D01*
X767519Y541297D01*
X767406Y541192D01*
X767295Y541085D01*
X767188Y540974D01*
X767083Y540861D01*
X766981Y540745D01*
X766882Y540626D01*
X766785Y540505D01*
X766692Y540382D01*
X766603Y540256D01*
X766516Y540129D01*
X766433Y539999D01*
X766353Y539866D01*
X766276Y539732D01*
X766203Y539596D01*
X766133Y539459D01*
X766067Y539319D01*
X766004Y539178D01*
X765945Y539035D01*
X765889Y538891D01*
X765838Y538746D01*
X765790Y538599D01*
X765745Y538451D01*
X765705Y538302D01*
X765668Y538152D01*
X765635Y538001D01*
X765606Y537849D01*
X765580Y537697D01*
X765559Y537544D01*
X765541Y537391D01*
X765528Y537237D01*
X765518Y537083D01*
X765512Y536928D01*
X765510Y536774D01*
X765510Y430966D01*
X765512Y430812D01*
X765518Y430657D01*
X765528Y430503D01*
X765541Y430349D01*
X765559Y430196D01*
X765580Y430043D01*
X765606Y429891D01*
X765635Y429739D01*
X765668Y429588D01*
X765705Y429438D01*
X765745Y429289D01*
X765790Y429141D01*
X765838Y428994D01*
X765889Y428849D01*
X765945Y428705D01*
X766004Y428562D01*
X766067Y428421D01*
X766133Y428281D01*
X766203Y428144D01*
X766276Y428008D01*
X766353Y427874D01*
X766433Y427741D01*
X766516Y427611D01*
X766603Y427484D01*
X766692Y427358D01*
X766785Y427235D01*
X766882Y427114D01*
X766981Y426995D01*
X767083Y426879D01*
X767188Y426766D01*
X767295Y426655D01*
X767406Y426548D01*
X767519Y426443D01*
X767635Y426341D01*
X767754Y426242D01*
X767875Y426145D01*
X767998Y426052D01*
X768124Y425963D01*
X768251Y425876D01*
X768381Y425793D01*
X768514Y425713D01*
X768648Y425636D01*
X768784Y425563D01*
X768921Y425493D01*
X769061Y425427D01*
X769202Y425364D01*
X769345Y425305D01*
X769489Y425249D01*
X769634Y425198D01*
X769781Y425150D01*
X769929Y425105D01*
X770078Y425065D01*
X770228Y425028D01*
X770379Y424995D01*
X770531Y424966D01*
X770683Y424940D01*
X770836Y424919D01*
X770989Y424901D01*
X771143Y424888D01*
X771297Y424878D01*
X771452Y424872D01*
X771606Y424870D01*
X792010Y424870D02*
X871510Y424870D01*
X872010Y424870D01*
X918510Y431370D02*
X918510Y472870D01*
X918510Y494870D02*
X918510Y536370D01*
X912510Y542870D02*
X893010Y542870D01*
X872510Y542870D02*
X791010Y542870D01*
X791510Y424870D02*
X871510Y424870D01*
D11*
X809089Y458978D02*
X809089Y470662D01*
X802598Y470662D02*
X809089Y463522D01*
X806492Y466118D02*
X802598Y458978D01*
X798209Y461574D02*
X795613Y470662D01*
X798209Y461574D02*
X791718Y461574D01*
X793665Y464171D02*
X793665Y458978D01*
D12*
X1210310Y483870D02*
X1210310Y52070D01*
X1210310Y483870D02*
X1159510Y483870D01*
X1083310Y483870D01*
X1032510Y483870D01*
X1032510Y52070D01*
X1146810Y52070D01*
X1210310Y52070D01*
X1146810Y52070D02*
X1146810Y39370D01*
X1096010Y39370D01*
X1096010Y102870D02*
X1146810Y102870D01*
X1146810Y52070D01*
X1096010Y39370D02*
X1096010Y102870D01*
D11*
X1121918Y116078D02*
X1133602Y119973D01*
X1121918Y123867D01*
X1124839Y122894D02*
X1124839Y117052D01*
X1121918Y128612D02*
X1133602Y128612D01*
X1133602Y131857D01*
X1133600Y131970D01*
X1133594Y132083D01*
X1133584Y132196D01*
X1133570Y132309D01*
X1133553Y132421D01*
X1133531Y132532D01*
X1133506Y132642D01*
X1133476Y132752D01*
X1133443Y132860D01*
X1133406Y132967D01*
X1133366Y133073D01*
X1133321Y133177D01*
X1133273Y133280D01*
X1133222Y133381D01*
X1133167Y133480D01*
X1133109Y133577D01*
X1133047Y133672D01*
X1132982Y133765D01*
X1132914Y133855D01*
X1132843Y133943D01*
X1132768Y134029D01*
X1132691Y134112D01*
X1132611Y134192D01*
X1132528Y134269D01*
X1132442Y134344D01*
X1132354Y134415D01*
X1132264Y134483D01*
X1132171Y134548D01*
X1132076Y134610D01*
X1131979Y134668D01*
X1131880Y134723D01*
X1131779Y134774D01*
X1131676Y134822D01*
X1131572Y134867D01*
X1131466Y134907D01*
X1131359Y134944D01*
X1131251Y134977D01*
X1131141Y135007D01*
X1131031Y135032D01*
X1130920Y135054D01*
X1130808Y135071D01*
X1130695Y135085D01*
X1130582Y135095D01*
X1130469Y135101D01*
X1130356Y135103D01*
X1130243Y135101D01*
X1130130Y135095D01*
X1130017Y135085D01*
X1129904Y135071D01*
X1129792Y135054D01*
X1129681Y135032D01*
X1129571Y135007D01*
X1129461Y134977D01*
X1129353Y134944D01*
X1129246Y134907D01*
X1129140Y134867D01*
X1129036Y134822D01*
X1128933Y134774D01*
X1128832Y134723D01*
X1128733Y134668D01*
X1128636Y134610D01*
X1128541Y134548D01*
X1128448Y134483D01*
X1128358Y134415D01*
X1128270Y134344D01*
X1128184Y134269D01*
X1128101Y134192D01*
X1128021Y134112D01*
X1127944Y134029D01*
X1127869Y133943D01*
X1127798Y133855D01*
X1127730Y133765D01*
X1127665Y133672D01*
X1127603Y133577D01*
X1127545Y133480D01*
X1127490Y133381D01*
X1127439Y133280D01*
X1127391Y133177D01*
X1127346Y133073D01*
X1127306Y132967D01*
X1127269Y132860D01*
X1127236Y132752D01*
X1127206Y132642D01*
X1127181Y132532D01*
X1127159Y132421D01*
X1127142Y132309D01*
X1127128Y132196D01*
X1127118Y132083D01*
X1127112Y131970D01*
X1127110Y131857D01*
X1127111Y131857D02*
X1127111Y128612D01*
X1127111Y132506D02*
X1121918Y135103D01*
X1121918Y140349D02*
X1133602Y140349D01*
X1133602Y143595D01*
X1133600Y143708D01*
X1133594Y143821D01*
X1133584Y143934D01*
X1133570Y144047D01*
X1133553Y144159D01*
X1133531Y144270D01*
X1133506Y144380D01*
X1133476Y144490D01*
X1133443Y144598D01*
X1133406Y144705D01*
X1133366Y144811D01*
X1133321Y144915D01*
X1133273Y145018D01*
X1133222Y145119D01*
X1133167Y145218D01*
X1133109Y145315D01*
X1133047Y145410D01*
X1132982Y145503D01*
X1132914Y145593D01*
X1132843Y145681D01*
X1132768Y145767D01*
X1132691Y145850D01*
X1132611Y145930D01*
X1132528Y146007D01*
X1132442Y146082D01*
X1132354Y146153D01*
X1132264Y146221D01*
X1132171Y146286D01*
X1132076Y146348D01*
X1131979Y146406D01*
X1131880Y146461D01*
X1131779Y146512D01*
X1131676Y146560D01*
X1131572Y146605D01*
X1131466Y146645D01*
X1131359Y146682D01*
X1131251Y146715D01*
X1131141Y146745D01*
X1131031Y146770D01*
X1130920Y146792D01*
X1130808Y146809D01*
X1130695Y146823D01*
X1130582Y146833D01*
X1130469Y146839D01*
X1130356Y146841D01*
X1130356Y146840D02*
X1125164Y146840D01*
X1125164Y146841D02*
X1125051Y146839D01*
X1124938Y146833D01*
X1124825Y146823D01*
X1124712Y146809D01*
X1124600Y146792D01*
X1124489Y146770D01*
X1124379Y146745D01*
X1124269Y146715D01*
X1124161Y146682D01*
X1124054Y146645D01*
X1123948Y146605D01*
X1123844Y146560D01*
X1123741Y146512D01*
X1123640Y146461D01*
X1123541Y146406D01*
X1123444Y146348D01*
X1123349Y146286D01*
X1123256Y146221D01*
X1123166Y146153D01*
X1123078Y146082D01*
X1122992Y146007D01*
X1122909Y145930D01*
X1122829Y145850D01*
X1122752Y145767D01*
X1122677Y145681D01*
X1122606Y145593D01*
X1122538Y145503D01*
X1122473Y145410D01*
X1122411Y145315D01*
X1122353Y145218D01*
X1122298Y145119D01*
X1122247Y145018D01*
X1122199Y144915D01*
X1122154Y144811D01*
X1122114Y144705D01*
X1122077Y144598D01*
X1122044Y144490D01*
X1122014Y144380D01*
X1121989Y144270D01*
X1121967Y144159D01*
X1121950Y144047D01*
X1121936Y143934D01*
X1121926Y143821D01*
X1121920Y143708D01*
X1121918Y143595D01*
X1121918Y140349D01*
X1125164Y152541D02*
X1133602Y152541D01*
X1125164Y152541D02*
X1125051Y152543D01*
X1124938Y152549D01*
X1124825Y152559D01*
X1124712Y152573D01*
X1124600Y152590D01*
X1124489Y152612D01*
X1124379Y152637D01*
X1124269Y152667D01*
X1124161Y152700D01*
X1124054Y152737D01*
X1123948Y152777D01*
X1123844Y152822D01*
X1123741Y152870D01*
X1123640Y152921D01*
X1123541Y152976D01*
X1123444Y153034D01*
X1123349Y153096D01*
X1123256Y153161D01*
X1123166Y153229D01*
X1123078Y153300D01*
X1122992Y153375D01*
X1122909Y153452D01*
X1122829Y153532D01*
X1122752Y153615D01*
X1122677Y153701D01*
X1122606Y153789D01*
X1122538Y153879D01*
X1122473Y153972D01*
X1122411Y154067D01*
X1122353Y154164D01*
X1122298Y154263D01*
X1122247Y154364D01*
X1122199Y154467D01*
X1122154Y154571D01*
X1122114Y154677D01*
X1122077Y154784D01*
X1122044Y154892D01*
X1122014Y155002D01*
X1121989Y155112D01*
X1121967Y155223D01*
X1121950Y155335D01*
X1121936Y155448D01*
X1121926Y155561D01*
X1121920Y155674D01*
X1121918Y155787D01*
X1121920Y155900D01*
X1121926Y156013D01*
X1121936Y156126D01*
X1121950Y156239D01*
X1121967Y156351D01*
X1121989Y156462D01*
X1122014Y156572D01*
X1122044Y156682D01*
X1122077Y156790D01*
X1122114Y156897D01*
X1122154Y157003D01*
X1122199Y157107D01*
X1122247Y157210D01*
X1122298Y157311D01*
X1122353Y157410D01*
X1122411Y157507D01*
X1122473Y157602D01*
X1122538Y157695D01*
X1122606Y157785D01*
X1122677Y157873D01*
X1122752Y157959D01*
X1122829Y158042D01*
X1122909Y158122D01*
X1122992Y158199D01*
X1123078Y158274D01*
X1123166Y158345D01*
X1123256Y158413D01*
X1123349Y158478D01*
X1123444Y158540D01*
X1123541Y158598D01*
X1123640Y158653D01*
X1123741Y158704D01*
X1123844Y158752D01*
X1123948Y158797D01*
X1124054Y158837D01*
X1124161Y158874D01*
X1124269Y158907D01*
X1124379Y158937D01*
X1124489Y158962D01*
X1124600Y158984D01*
X1124712Y159001D01*
X1124825Y159015D01*
X1124938Y159025D01*
X1125051Y159031D01*
X1125164Y159033D01*
X1125164Y159032D02*
X1133602Y159032D01*
X1133602Y165312D02*
X1121918Y165312D01*
X1121918Y166610D02*
X1121918Y164013D01*
X1133602Y164013D02*
X1133602Y166610D01*
X1133602Y171591D02*
X1121918Y171591D01*
X1121918Y178082D02*
X1133602Y171591D01*
X1133602Y178082D02*
X1121918Y178082D01*
X1125164Y183402D02*
X1130356Y183402D01*
X1130469Y183404D01*
X1130582Y183410D01*
X1130695Y183420D01*
X1130808Y183434D01*
X1130920Y183451D01*
X1131031Y183473D01*
X1131141Y183498D01*
X1131251Y183528D01*
X1131359Y183561D01*
X1131466Y183598D01*
X1131572Y183638D01*
X1131676Y183683D01*
X1131779Y183731D01*
X1131880Y183782D01*
X1131979Y183837D01*
X1132076Y183895D01*
X1132171Y183957D01*
X1132264Y184022D01*
X1132354Y184090D01*
X1132442Y184161D01*
X1132528Y184236D01*
X1132611Y184313D01*
X1132691Y184393D01*
X1132768Y184476D01*
X1132843Y184562D01*
X1132914Y184650D01*
X1132982Y184740D01*
X1133047Y184833D01*
X1133109Y184928D01*
X1133167Y185025D01*
X1133222Y185124D01*
X1133273Y185225D01*
X1133321Y185328D01*
X1133366Y185432D01*
X1133406Y185538D01*
X1133443Y185645D01*
X1133476Y185753D01*
X1133506Y185863D01*
X1133531Y185973D01*
X1133553Y186084D01*
X1133570Y186196D01*
X1133584Y186309D01*
X1133594Y186422D01*
X1133600Y186535D01*
X1133602Y186648D01*
X1133600Y186761D01*
X1133594Y186874D01*
X1133584Y186987D01*
X1133570Y187100D01*
X1133553Y187212D01*
X1133531Y187323D01*
X1133506Y187433D01*
X1133476Y187543D01*
X1133443Y187651D01*
X1133406Y187758D01*
X1133366Y187864D01*
X1133321Y187968D01*
X1133273Y188071D01*
X1133222Y188172D01*
X1133167Y188271D01*
X1133109Y188368D01*
X1133047Y188463D01*
X1132982Y188556D01*
X1132914Y188646D01*
X1132843Y188734D01*
X1132768Y188820D01*
X1132691Y188903D01*
X1132611Y188983D01*
X1132528Y189060D01*
X1132442Y189135D01*
X1132354Y189206D01*
X1132264Y189274D01*
X1132171Y189339D01*
X1132076Y189401D01*
X1131979Y189459D01*
X1131880Y189514D01*
X1131779Y189565D01*
X1131676Y189613D01*
X1131572Y189658D01*
X1131466Y189698D01*
X1131359Y189735D01*
X1131251Y189768D01*
X1131141Y189798D01*
X1131031Y189823D01*
X1130920Y189845D01*
X1130808Y189862D01*
X1130695Y189876D01*
X1130582Y189886D01*
X1130469Y189892D01*
X1130356Y189894D01*
X1130356Y189893D02*
X1125164Y189893D01*
X1125164Y189894D02*
X1125051Y189892D01*
X1124938Y189886D01*
X1124825Y189876D01*
X1124712Y189862D01*
X1124600Y189845D01*
X1124489Y189823D01*
X1124379Y189798D01*
X1124269Y189768D01*
X1124161Y189735D01*
X1124054Y189698D01*
X1123948Y189658D01*
X1123844Y189613D01*
X1123741Y189565D01*
X1123640Y189514D01*
X1123541Y189459D01*
X1123444Y189401D01*
X1123349Y189339D01*
X1123256Y189274D01*
X1123166Y189206D01*
X1123078Y189135D01*
X1122992Y189060D01*
X1122909Y188983D01*
X1122829Y188903D01*
X1122752Y188820D01*
X1122677Y188734D01*
X1122606Y188646D01*
X1122538Y188556D01*
X1122473Y188463D01*
X1122411Y188368D01*
X1122353Y188271D01*
X1122298Y188172D01*
X1122247Y188071D01*
X1122199Y187968D01*
X1122154Y187864D01*
X1122114Y187758D01*
X1122077Y187651D01*
X1122044Y187543D01*
X1122014Y187433D01*
X1121989Y187323D01*
X1121967Y187212D01*
X1121950Y187100D01*
X1121936Y186987D01*
X1121926Y186874D01*
X1121920Y186761D01*
X1121918Y186648D01*
X1121920Y186535D01*
X1121926Y186422D01*
X1121936Y186309D01*
X1121950Y186196D01*
X1121967Y186084D01*
X1121989Y185973D01*
X1122014Y185863D01*
X1122044Y185753D01*
X1122077Y185645D01*
X1122114Y185538D01*
X1122154Y185432D01*
X1122199Y185328D01*
X1122247Y185225D01*
X1122298Y185124D01*
X1122353Y185025D01*
X1122411Y184928D01*
X1122473Y184833D01*
X1122538Y184740D01*
X1122606Y184650D01*
X1122677Y184562D01*
X1122752Y184476D01*
X1122829Y184393D01*
X1122909Y184313D01*
X1122992Y184236D01*
X1123078Y184161D01*
X1123166Y184090D01*
X1123256Y184022D01*
X1123349Y183957D01*
X1123444Y183895D01*
X1123541Y183837D01*
X1123640Y183782D01*
X1123741Y183731D01*
X1123844Y183683D01*
X1123948Y183638D01*
X1124054Y183598D01*
X1124161Y183561D01*
X1124269Y183528D01*
X1124379Y183498D01*
X1124489Y183473D01*
X1124600Y183451D01*
X1124712Y183434D01*
X1124825Y183420D01*
X1124938Y183410D01*
X1125051Y183404D01*
X1125164Y183402D01*
X1120620Y194338D02*
X1120620Y199531D01*
X1121918Y204357D02*
X1133602Y204357D01*
X1121918Y210848D01*
X1133602Y210848D01*
X1133602Y219413D02*
X1121918Y215519D01*
X1121918Y223308D02*
X1133602Y219413D01*
X1124839Y222334D02*
X1124839Y216492D01*
X1121918Y227979D02*
X1133602Y227979D01*
X1121918Y234470D01*
X1133602Y234470D01*
X1130356Y239790D02*
X1125164Y239790D01*
X1130356Y239789D02*
X1130469Y239791D01*
X1130582Y239797D01*
X1130695Y239807D01*
X1130808Y239821D01*
X1130920Y239838D01*
X1131031Y239860D01*
X1131141Y239885D01*
X1131251Y239915D01*
X1131359Y239948D01*
X1131466Y239985D01*
X1131572Y240025D01*
X1131676Y240070D01*
X1131779Y240118D01*
X1131880Y240169D01*
X1131979Y240224D01*
X1132076Y240282D01*
X1132171Y240344D01*
X1132264Y240409D01*
X1132354Y240477D01*
X1132442Y240548D01*
X1132528Y240623D01*
X1132611Y240700D01*
X1132691Y240780D01*
X1132768Y240863D01*
X1132843Y240949D01*
X1132914Y241037D01*
X1132982Y241127D01*
X1133047Y241220D01*
X1133109Y241315D01*
X1133167Y241412D01*
X1133222Y241511D01*
X1133273Y241612D01*
X1133321Y241715D01*
X1133366Y241819D01*
X1133406Y241925D01*
X1133443Y242032D01*
X1133476Y242140D01*
X1133506Y242250D01*
X1133531Y242360D01*
X1133553Y242471D01*
X1133570Y242583D01*
X1133584Y242696D01*
X1133594Y242809D01*
X1133600Y242922D01*
X1133602Y243035D01*
X1133600Y243148D01*
X1133594Y243261D01*
X1133584Y243374D01*
X1133570Y243487D01*
X1133553Y243599D01*
X1133531Y243710D01*
X1133506Y243820D01*
X1133476Y243930D01*
X1133443Y244038D01*
X1133406Y244145D01*
X1133366Y244251D01*
X1133321Y244355D01*
X1133273Y244458D01*
X1133222Y244559D01*
X1133167Y244658D01*
X1133109Y244755D01*
X1133047Y244850D01*
X1132982Y244943D01*
X1132914Y245033D01*
X1132843Y245121D01*
X1132768Y245207D01*
X1132691Y245290D01*
X1132611Y245370D01*
X1132528Y245447D01*
X1132442Y245522D01*
X1132354Y245593D01*
X1132264Y245661D01*
X1132171Y245726D01*
X1132076Y245788D01*
X1131979Y245846D01*
X1131880Y245901D01*
X1131779Y245952D01*
X1131676Y246000D01*
X1131572Y246045D01*
X1131466Y246085D01*
X1131359Y246122D01*
X1131251Y246155D01*
X1131141Y246185D01*
X1131031Y246210D01*
X1130920Y246232D01*
X1130808Y246249D01*
X1130695Y246263D01*
X1130582Y246273D01*
X1130469Y246279D01*
X1130356Y246281D01*
X1125164Y246281D01*
X1125051Y246279D01*
X1124938Y246273D01*
X1124825Y246263D01*
X1124712Y246249D01*
X1124600Y246232D01*
X1124489Y246210D01*
X1124379Y246185D01*
X1124269Y246155D01*
X1124161Y246122D01*
X1124054Y246085D01*
X1123948Y246045D01*
X1123844Y246000D01*
X1123741Y245952D01*
X1123640Y245901D01*
X1123541Y245846D01*
X1123444Y245788D01*
X1123349Y245726D01*
X1123256Y245661D01*
X1123166Y245593D01*
X1123078Y245522D01*
X1122992Y245447D01*
X1122909Y245370D01*
X1122829Y245290D01*
X1122752Y245207D01*
X1122677Y245121D01*
X1122606Y245033D01*
X1122538Y244943D01*
X1122473Y244850D01*
X1122411Y244755D01*
X1122353Y244658D01*
X1122298Y244559D01*
X1122247Y244458D01*
X1122199Y244355D01*
X1122154Y244251D01*
X1122114Y244145D01*
X1122077Y244038D01*
X1122044Y243930D01*
X1122014Y243820D01*
X1121989Y243710D01*
X1121967Y243599D01*
X1121950Y243487D01*
X1121936Y243374D01*
X1121926Y243261D01*
X1121920Y243148D01*
X1121918Y243035D01*
X1121920Y242922D01*
X1121926Y242809D01*
X1121936Y242696D01*
X1121950Y242583D01*
X1121967Y242471D01*
X1121989Y242360D01*
X1122014Y242250D01*
X1122044Y242140D01*
X1122077Y242032D01*
X1122114Y241925D01*
X1122154Y241819D01*
X1122199Y241715D01*
X1122247Y241612D01*
X1122298Y241511D01*
X1122353Y241412D01*
X1122411Y241315D01*
X1122473Y241220D01*
X1122538Y241127D01*
X1122606Y241037D01*
X1122677Y240949D01*
X1122752Y240863D01*
X1122829Y240780D01*
X1122909Y240700D01*
X1122992Y240623D01*
X1123078Y240548D01*
X1123166Y240477D01*
X1123256Y240409D01*
X1123349Y240344D01*
X1123444Y240282D01*
X1123541Y240224D01*
X1123640Y240169D01*
X1123741Y240118D01*
X1123844Y240070D01*
X1123948Y240025D01*
X1124054Y239985D01*
X1124161Y239948D01*
X1124269Y239915D01*
X1124379Y239885D01*
X1124489Y239860D01*
X1124600Y239838D01*
X1124712Y239821D01*
X1124825Y239807D01*
X1124938Y239797D01*
X1125051Y239791D01*
X1125164Y239789D01*
X1131006Y251220D02*
X1133602Y254465D01*
X1121918Y254465D01*
X1121918Y251220D02*
X1121918Y257711D01*
D12*
X1103449Y293370D02*
X1103454Y293811D01*
X1103471Y294251D01*
X1103498Y294691D01*
X1103535Y295130D01*
X1103584Y295569D01*
X1103643Y296005D01*
X1103713Y296441D01*
X1103794Y296874D01*
X1103885Y297305D01*
X1103987Y297734D01*
X1104100Y298160D01*
X1104222Y298584D01*
X1104356Y299004D01*
X1104499Y299421D01*
X1104653Y299834D01*
X1104816Y300243D01*
X1104990Y300649D01*
X1105173Y301049D01*
X1105367Y301445D01*
X1105570Y301837D01*
X1105782Y302223D01*
X1106004Y302604D01*
X1106236Y302979D01*
X1106476Y303349D01*
X1106725Y303712D01*
X1106984Y304069D01*
X1107251Y304420D01*
X1107526Y304764D01*
X1107810Y305102D01*
X1108102Y305432D01*
X1108402Y305755D01*
X1108710Y306070D01*
X1109025Y306378D01*
X1109348Y306678D01*
X1109678Y306970D01*
X1110016Y307254D01*
X1110360Y307529D01*
X1110711Y307796D01*
X1111068Y308055D01*
X1111431Y308304D01*
X1111801Y308544D01*
X1112176Y308776D01*
X1112557Y308998D01*
X1112943Y309210D01*
X1113335Y309413D01*
X1113731Y309607D01*
X1114131Y309790D01*
X1114537Y309964D01*
X1114946Y310127D01*
X1115359Y310281D01*
X1115776Y310424D01*
X1116196Y310558D01*
X1116620Y310680D01*
X1117046Y310793D01*
X1117475Y310895D01*
X1117906Y310986D01*
X1118339Y311067D01*
X1118775Y311137D01*
X1119211Y311196D01*
X1119650Y311245D01*
X1120089Y311282D01*
X1120529Y311309D01*
X1120969Y311326D01*
X1121410Y311331D01*
X1121851Y311326D01*
X1122291Y311309D01*
X1122731Y311282D01*
X1123170Y311245D01*
X1123609Y311196D01*
X1124045Y311137D01*
X1124481Y311067D01*
X1124914Y310986D01*
X1125345Y310895D01*
X1125774Y310793D01*
X1126200Y310680D01*
X1126624Y310558D01*
X1127044Y310424D01*
X1127461Y310281D01*
X1127874Y310127D01*
X1128283Y309964D01*
X1128689Y309790D01*
X1129089Y309607D01*
X1129485Y309413D01*
X1129877Y309210D01*
X1130263Y308998D01*
X1130644Y308776D01*
X1131019Y308544D01*
X1131389Y308304D01*
X1131752Y308055D01*
X1132109Y307796D01*
X1132460Y307529D01*
X1132804Y307254D01*
X1133142Y306970D01*
X1133472Y306678D01*
X1133795Y306378D01*
X1134110Y306070D01*
X1134418Y305755D01*
X1134718Y305432D01*
X1135010Y305102D01*
X1135294Y304764D01*
X1135569Y304420D01*
X1135836Y304069D01*
X1136095Y303712D01*
X1136344Y303349D01*
X1136584Y302979D01*
X1136816Y302604D01*
X1137038Y302223D01*
X1137250Y301837D01*
X1137453Y301445D01*
X1137647Y301049D01*
X1137830Y300649D01*
X1138004Y300243D01*
X1138167Y299834D01*
X1138321Y299421D01*
X1138464Y299004D01*
X1138598Y298584D01*
X1138720Y298160D01*
X1138833Y297734D01*
X1138935Y297305D01*
X1139026Y296874D01*
X1139107Y296441D01*
X1139177Y296005D01*
X1139236Y295569D01*
X1139285Y295130D01*
X1139322Y294691D01*
X1139349Y294251D01*
X1139366Y293811D01*
X1139371Y293370D01*
X1139366Y292929D01*
X1139349Y292489D01*
X1139322Y292049D01*
X1139285Y291610D01*
X1139236Y291171D01*
X1139177Y290735D01*
X1139107Y290299D01*
X1139026Y289866D01*
X1138935Y289435D01*
X1138833Y289006D01*
X1138720Y288580D01*
X1138598Y288156D01*
X1138464Y287736D01*
X1138321Y287319D01*
X1138167Y286906D01*
X1138004Y286497D01*
X1137830Y286091D01*
X1137647Y285691D01*
X1137453Y285295D01*
X1137250Y284903D01*
X1137038Y284517D01*
X1136816Y284136D01*
X1136584Y283761D01*
X1136344Y283391D01*
X1136095Y283028D01*
X1135836Y282671D01*
X1135569Y282320D01*
X1135294Y281976D01*
X1135010Y281638D01*
X1134718Y281308D01*
X1134418Y280985D01*
X1134110Y280670D01*
X1133795Y280362D01*
X1133472Y280062D01*
X1133142Y279770D01*
X1132804Y279486D01*
X1132460Y279211D01*
X1132109Y278944D01*
X1131752Y278685D01*
X1131389Y278436D01*
X1131019Y278196D01*
X1130644Y277964D01*
X1130263Y277742D01*
X1129877Y277530D01*
X1129485Y277327D01*
X1129089Y277133D01*
X1128689Y276950D01*
X1128283Y276776D01*
X1127874Y276613D01*
X1127461Y276459D01*
X1127044Y276316D01*
X1126624Y276182D01*
X1126200Y276060D01*
X1125774Y275947D01*
X1125345Y275845D01*
X1124914Y275754D01*
X1124481Y275673D01*
X1124045Y275603D01*
X1123609Y275544D01*
X1123170Y275495D01*
X1122731Y275458D01*
X1122291Y275431D01*
X1121851Y275414D01*
X1121410Y275409D01*
X1120969Y275414D01*
X1120529Y275431D01*
X1120089Y275458D01*
X1119650Y275495D01*
X1119211Y275544D01*
X1118775Y275603D01*
X1118339Y275673D01*
X1117906Y275754D01*
X1117475Y275845D01*
X1117046Y275947D01*
X1116620Y276060D01*
X1116196Y276182D01*
X1115776Y276316D01*
X1115359Y276459D01*
X1114946Y276613D01*
X1114537Y276776D01*
X1114131Y276950D01*
X1113731Y277133D01*
X1113335Y277327D01*
X1112943Y277530D01*
X1112557Y277742D01*
X1112176Y277964D01*
X1111801Y278196D01*
X1111431Y278436D01*
X1111068Y278685D01*
X1110711Y278944D01*
X1110360Y279211D01*
X1110016Y279486D01*
X1109678Y279770D01*
X1109348Y280062D01*
X1109025Y280362D01*
X1108710Y280670D01*
X1108402Y280985D01*
X1108102Y281308D01*
X1107810Y281638D01*
X1107526Y281976D01*
X1107251Y282320D01*
X1106984Y282671D01*
X1106725Y283028D01*
X1106476Y283391D01*
X1106236Y283761D01*
X1106004Y284136D01*
X1105782Y284517D01*
X1105570Y284903D01*
X1105367Y285295D01*
X1105173Y285691D01*
X1104990Y286091D01*
X1104816Y286497D01*
X1104653Y286906D01*
X1104499Y287319D01*
X1104356Y287736D01*
X1104222Y288156D01*
X1104100Y288580D01*
X1103987Y289006D01*
X1103885Y289435D01*
X1103794Y289866D01*
X1103713Y290299D01*
X1103643Y290735D01*
X1103584Y291171D01*
X1103535Y291610D01*
X1103498Y292049D01*
X1103471Y292489D01*
X1103454Y292929D01*
X1103449Y293370D01*
D13*
X1137121Y323723D02*
X1137121Y331089D01*
X1135075Y331089D01*
X1134986Y331087D01*
X1134897Y331081D01*
X1134808Y331071D01*
X1134720Y331058D01*
X1134632Y331041D01*
X1134545Y331019D01*
X1134460Y330994D01*
X1134375Y330966D01*
X1134292Y330933D01*
X1134210Y330897D01*
X1134130Y330858D01*
X1134052Y330815D01*
X1133976Y330769D01*
X1133901Y330719D01*
X1133829Y330666D01*
X1133760Y330610D01*
X1133693Y330551D01*
X1133628Y330490D01*
X1133567Y330425D01*
X1133508Y330358D01*
X1133452Y330289D01*
X1133399Y330217D01*
X1133349Y330142D01*
X1133303Y330066D01*
X1133260Y329988D01*
X1133221Y329908D01*
X1133185Y329826D01*
X1133152Y329743D01*
X1133124Y329658D01*
X1133099Y329573D01*
X1133077Y329486D01*
X1133060Y329398D01*
X1133047Y329310D01*
X1133037Y329221D01*
X1133031Y329132D01*
X1133029Y329043D01*
X1133031Y328954D01*
X1133037Y328865D01*
X1133047Y328776D01*
X1133060Y328688D01*
X1133077Y328600D01*
X1133099Y328513D01*
X1133124Y328428D01*
X1133152Y328343D01*
X1133185Y328260D01*
X1133221Y328178D01*
X1133260Y328098D01*
X1133303Y328020D01*
X1133349Y327944D01*
X1133399Y327869D01*
X1133452Y327797D01*
X1133508Y327728D01*
X1133567Y327661D01*
X1133628Y327596D01*
X1133693Y327535D01*
X1133760Y327476D01*
X1133829Y327420D01*
X1133901Y327367D01*
X1133976Y327317D01*
X1134052Y327271D01*
X1134130Y327228D01*
X1134210Y327189D01*
X1134292Y327153D01*
X1134375Y327120D01*
X1134460Y327092D01*
X1134545Y327067D01*
X1134632Y327045D01*
X1134720Y327028D01*
X1134808Y327015D01*
X1134897Y327005D01*
X1134986Y326999D01*
X1135075Y326997D01*
X1137121Y326997D01*
X1134666Y326997D02*
X1133029Y323723D01*
X1128708Y323723D02*
X1126662Y323723D01*
X1128708Y323723D02*
X1128777Y323725D01*
X1128845Y323731D01*
X1128914Y323740D01*
X1128981Y323754D01*
X1129048Y323771D01*
X1129114Y323792D01*
X1129178Y323816D01*
X1129241Y323845D01*
X1129302Y323876D01*
X1129361Y323911D01*
X1129419Y323949D01*
X1129474Y323991D01*
X1129526Y324035D01*
X1129576Y324083D01*
X1129624Y324133D01*
X1129668Y324185D01*
X1129710Y324240D01*
X1129748Y324298D01*
X1129783Y324357D01*
X1129814Y324418D01*
X1129843Y324481D01*
X1129867Y324545D01*
X1129888Y324611D01*
X1129905Y324678D01*
X1129919Y324745D01*
X1129928Y324814D01*
X1129934Y324882D01*
X1129936Y324951D01*
X1129935Y324951D02*
X1129935Y326997D01*
X1129936Y326997D02*
X1129934Y327076D01*
X1129928Y327155D01*
X1129919Y327234D01*
X1129906Y327312D01*
X1129888Y327389D01*
X1129868Y327465D01*
X1129843Y327540D01*
X1129815Y327614D01*
X1129784Y327687D01*
X1129748Y327758D01*
X1129710Y327827D01*
X1129668Y327894D01*
X1129623Y327959D01*
X1129575Y328022D01*
X1129524Y328083D01*
X1129470Y328140D01*
X1129414Y328196D01*
X1129355Y328248D01*
X1129293Y328298D01*
X1129229Y328344D01*
X1129163Y328388D01*
X1129095Y328428D01*
X1129025Y328464D01*
X1128953Y328498D01*
X1128879Y328528D01*
X1128805Y328554D01*
X1128729Y328577D01*
X1128652Y328595D01*
X1128575Y328611D01*
X1128496Y328622D01*
X1128418Y328630D01*
X1128339Y328634D01*
X1128259Y328634D01*
X1128180Y328630D01*
X1128102Y328622D01*
X1128023Y328611D01*
X1127946Y328595D01*
X1127869Y328577D01*
X1127793Y328554D01*
X1127719Y328528D01*
X1127645Y328498D01*
X1127573Y328464D01*
X1127503Y328428D01*
X1127435Y328388D01*
X1127369Y328344D01*
X1127305Y328298D01*
X1127243Y328248D01*
X1127184Y328196D01*
X1127128Y328140D01*
X1127074Y328083D01*
X1127023Y328022D01*
X1126975Y327959D01*
X1126930Y327894D01*
X1126888Y327827D01*
X1126850Y327758D01*
X1126814Y327687D01*
X1126783Y327614D01*
X1126755Y327540D01*
X1126730Y327465D01*
X1126710Y327389D01*
X1126692Y327312D01*
X1126679Y327234D01*
X1126670Y327155D01*
X1126664Y327076D01*
X1126662Y326997D01*
X1126662Y326178D01*
X1129935Y326178D01*
X1122982Y326588D02*
X1120936Y325769D01*
X1122982Y326588D02*
X1123041Y326613D01*
X1123098Y326642D01*
X1123153Y326675D01*
X1123206Y326711D01*
X1123257Y326749D01*
X1123305Y326791D01*
X1123351Y326836D01*
X1123394Y326883D01*
X1123434Y326933D01*
X1123471Y326985D01*
X1123505Y327040D01*
X1123536Y327096D01*
X1123563Y327154D01*
X1123586Y327214D01*
X1123606Y327274D01*
X1123622Y327336D01*
X1123635Y327399D01*
X1123643Y327463D01*
X1123648Y327526D01*
X1123649Y327590D01*
X1123646Y327654D01*
X1123639Y327718D01*
X1123628Y327781D01*
X1123614Y327843D01*
X1123596Y327905D01*
X1123574Y327965D01*
X1123549Y328024D01*
X1123520Y328081D01*
X1123487Y328136D01*
X1123452Y328189D01*
X1123413Y328240D01*
X1123371Y328289D01*
X1123327Y328335D01*
X1123279Y328378D01*
X1123230Y328418D01*
X1123177Y328455D01*
X1123123Y328489D01*
X1123067Y328520D01*
X1123009Y328547D01*
X1122950Y328571D01*
X1122889Y328590D01*
X1122827Y328607D01*
X1122764Y328619D01*
X1122701Y328628D01*
X1122637Y328633D01*
X1122573Y328634D01*
X1122437Y328630D01*
X1122302Y328622D01*
X1122166Y328610D01*
X1122032Y328594D01*
X1121897Y328574D01*
X1121764Y328551D01*
X1121631Y328523D01*
X1121499Y328492D01*
X1121368Y328457D01*
X1121238Y328418D01*
X1121109Y328375D01*
X1120982Y328328D01*
X1120856Y328278D01*
X1120731Y328224D01*
X1120936Y325769D02*
X1120877Y325744D01*
X1120820Y325715D01*
X1120765Y325682D01*
X1120712Y325646D01*
X1120661Y325608D01*
X1120613Y325566D01*
X1120567Y325521D01*
X1120524Y325474D01*
X1120484Y325424D01*
X1120447Y325372D01*
X1120413Y325317D01*
X1120382Y325261D01*
X1120355Y325203D01*
X1120332Y325143D01*
X1120312Y325083D01*
X1120296Y325021D01*
X1120283Y324958D01*
X1120275Y324894D01*
X1120270Y324831D01*
X1120269Y324767D01*
X1120272Y324703D01*
X1120279Y324639D01*
X1120290Y324576D01*
X1120304Y324514D01*
X1120322Y324452D01*
X1120344Y324392D01*
X1120369Y324333D01*
X1120398Y324276D01*
X1120431Y324221D01*
X1120466Y324168D01*
X1120505Y324117D01*
X1120547Y324068D01*
X1120591Y324022D01*
X1120639Y323979D01*
X1120688Y323939D01*
X1120741Y323902D01*
X1120795Y323868D01*
X1120851Y323837D01*
X1120909Y323810D01*
X1120968Y323786D01*
X1121029Y323767D01*
X1121091Y323750D01*
X1121154Y323738D01*
X1121217Y323729D01*
X1121281Y323724D01*
X1121345Y323723D01*
X1121509Y323727D01*
X1121673Y323735D01*
X1121837Y323747D01*
X1122000Y323763D01*
X1122163Y323783D01*
X1122326Y323806D01*
X1122487Y323834D01*
X1122649Y323865D01*
X1122809Y323900D01*
X1122968Y323939D01*
X1123127Y323982D01*
X1123284Y324028D01*
X1123441Y324078D01*
X1123596Y324132D01*
X1116028Y323723D02*
X1113982Y323723D01*
X1116028Y323723D02*
X1116097Y323725D01*
X1116165Y323731D01*
X1116234Y323740D01*
X1116301Y323754D01*
X1116368Y323771D01*
X1116434Y323792D01*
X1116498Y323816D01*
X1116561Y323845D01*
X1116622Y323876D01*
X1116681Y323911D01*
X1116739Y323949D01*
X1116794Y323991D01*
X1116846Y324035D01*
X1116896Y324083D01*
X1116944Y324133D01*
X1116988Y324185D01*
X1117030Y324240D01*
X1117068Y324298D01*
X1117103Y324357D01*
X1117134Y324418D01*
X1117163Y324481D01*
X1117187Y324545D01*
X1117208Y324611D01*
X1117225Y324678D01*
X1117239Y324745D01*
X1117248Y324814D01*
X1117254Y324882D01*
X1117256Y324951D01*
X1117256Y326997D01*
X1117254Y327076D01*
X1117248Y327155D01*
X1117239Y327234D01*
X1117226Y327312D01*
X1117208Y327389D01*
X1117188Y327465D01*
X1117163Y327540D01*
X1117135Y327614D01*
X1117104Y327687D01*
X1117068Y327758D01*
X1117030Y327827D01*
X1116988Y327894D01*
X1116943Y327959D01*
X1116895Y328022D01*
X1116844Y328083D01*
X1116790Y328140D01*
X1116734Y328196D01*
X1116675Y328248D01*
X1116613Y328298D01*
X1116549Y328344D01*
X1116483Y328388D01*
X1116415Y328428D01*
X1116345Y328464D01*
X1116273Y328498D01*
X1116199Y328528D01*
X1116125Y328554D01*
X1116049Y328577D01*
X1115972Y328595D01*
X1115895Y328611D01*
X1115816Y328622D01*
X1115738Y328630D01*
X1115659Y328634D01*
X1115579Y328634D01*
X1115500Y328630D01*
X1115422Y328622D01*
X1115343Y328611D01*
X1115266Y328595D01*
X1115189Y328577D01*
X1115113Y328554D01*
X1115039Y328528D01*
X1114965Y328498D01*
X1114893Y328464D01*
X1114823Y328428D01*
X1114755Y328388D01*
X1114689Y328344D01*
X1114625Y328298D01*
X1114563Y328248D01*
X1114504Y328196D01*
X1114448Y328140D01*
X1114394Y328083D01*
X1114343Y328022D01*
X1114295Y327959D01*
X1114250Y327894D01*
X1114208Y327827D01*
X1114170Y327758D01*
X1114134Y327687D01*
X1114103Y327614D01*
X1114075Y327540D01*
X1114050Y327465D01*
X1114030Y327389D01*
X1114012Y327312D01*
X1113999Y327234D01*
X1113990Y327155D01*
X1113984Y327076D01*
X1113982Y326997D01*
X1113982Y326178D01*
X1117256Y326178D01*
X1111546Y328634D02*
X1109091Y328634D01*
X1110728Y331089D02*
X1110728Y324951D01*
X1110726Y324882D01*
X1110720Y324814D01*
X1110711Y324745D01*
X1110697Y324678D01*
X1110680Y324611D01*
X1110659Y324545D01*
X1110635Y324481D01*
X1110606Y324418D01*
X1110575Y324357D01*
X1110540Y324298D01*
X1110502Y324240D01*
X1110460Y324185D01*
X1110416Y324133D01*
X1110368Y324083D01*
X1110318Y324035D01*
X1110266Y323991D01*
X1110211Y323950D01*
X1110153Y323911D01*
X1110094Y323876D01*
X1110033Y323845D01*
X1109970Y323816D01*
X1109906Y323792D01*
X1109840Y323771D01*
X1109773Y323754D01*
X1109706Y323740D01*
X1109638Y323731D01*
X1109569Y323725D01*
X1109500Y323723D01*
X1109091Y323723D01*
X1067689Y93162D02*
X1065601Y90551D01*
X1067689Y93162D02*
X1058291Y93162D01*
X1058291Y95772D02*
X1058291Y90551D01*
D14*
X1153668Y70488D02*
X1159256Y70488D01*
X1156152Y72350D01*
X1159256Y74213D01*
X1153668Y74213D01*
X1153668Y76739D02*
X1157393Y76739D01*
X1158946Y76584D02*
X1159256Y76584D01*
X1159256Y76895D01*
X1158946Y76895D01*
X1158946Y76584D01*
X1157393Y79155D02*
X1153668Y79155D01*
X1157393Y79155D02*
X1157393Y80707D01*
X1157391Y80765D01*
X1157386Y80824D01*
X1157377Y80881D01*
X1157364Y80939D01*
X1157347Y80995D01*
X1157328Y81050D01*
X1157304Y81103D01*
X1157278Y81156D01*
X1157248Y81206D01*
X1157215Y81254D01*
X1157179Y81300D01*
X1157141Y81344D01*
X1157099Y81386D01*
X1157055Y81424D01*
X1157009Y81460D01*
X1156961Y81493D01*
X1156911Y81523D01*
X1156858Y81549D01*
X1156805Y81573D01*
X1156750Y81592D01*
X1156694Y81609D01*
X1156636Y81622D01*
X1156579Y81631D01*
X1156520Y81636D01*
X1156462Y81638D01*
X1156462Y81639D02*
X1153668Y81639D01*
X1153668Y84055D02*
X1157393Y84055D01*
X1158946Y83899D02*
X1159256Y83899D01*
X1159256Y84210D01*
X1158946Y84210D01*
X1158946Y83899D01*
X1155841Y86398D02*
X1155841Y90123D01*
X1156772Y92826D02*
X1156772Y94379D01*
X1156770Y94456D01*
X1156764Y94534D01*
X1156755Y94610D01*
X1156741Y94687D01*
X1156724Y94762D01*
X1156703Y94836D01*
X1156678Y94910D01*
X1156650Y94982D01*
X1156618Y95052D01*
X1156583Y95121D01*
X1156544Y95188D01*
X1156502Y95253D01*
X1156457Y95316D01*
X1156409Y95377D01*
X1156358Y95435D01*
X1156304Y95490D01*
X1156247Y95543D01*
X1156188Y95592D01*
X1156126Y95639D01*
X1156062Y95683D01*
X1155996Y95723D01*
X1155928Y95760D01*
X1155858Y95794D01*
X1155787Y95824D01*
X1155714Y95850D01*
X1155640Y95873D01*
X1155565Y95892D01*
X1155490Y95907D01*
X1155413Y95919D01*
X1155336Y95927D01*
X1155259Y95931D01*
X1155181Y95931D01*
X1155104Y95927D01*
X1155027Y95919D01*
X1154950Y95907D01*
X1154875Y95892D01*
X1154800Y95873D01*
X1154726Y95850D01*
X1154653Y95824D01*
X1154582Y95794D01*
X1154512Y95760D01*
X1154444Y95723D01*
X1154378Y95683D01*
X1154314Y95639D01*
X1154252Y95592D01*
X1154193Y95543D01*
X1154136Y95490D01*
X1154082Y95435D01*
X1154031Y95377D01*
X1153983Y95316D01*
X1153938Y95253D01*
X1153896Y95188D01*
X1153857Y95121D01*
X1153822Y95052D01*
X1153790Y94982D01*
X1153762Y94910D01*
X1153737Y94836D01*
X1153716Y94762D01*
X1153699Y94687D01*
X1153685Y94610D01*
X1153676Y94534D01*
X1153670Y94456D01*
X1153668Y94379D01*
X1153668Y92826D01*
X1159256Y92826D01*
X1159256Y94379D01*
X1159254Y94449D01*
X1159248Y94518D01*
X1159238Y94587D01*
X1159225Y94655D01*
X1159207Y94723D01*
X1159186Y94789D01*
X1159161Y94854D01*
X1159133Y94918D01*
X1159101Y94980D01*
X1159066Y95040D01*
X1159027Y95098D01*
X1158985Y95153D01*
X1158940Y95207D01*
X1158892Y95257D01*
X1158842Y95305D01*
X1158788Y95350D01*
X1158733Y95392D01*
X1158675Y95431D01*
X1158615Y95466D01*
X1158553Y95498D01*
X1158489Y95526D01*
X1158424Y95551D01*
X1158358Y95572D01*
X1158290Y95590D01*
X1158222Y95603D01*
X1158153Y95613D01*
X1158084Y95619D01*
X1158014Y95621D01*
X1157944Y95619D01*
X1157875Y95613D01*
X1157806Y95603D01*
X1157738Y95590D01*
X1157670Y95572D01*
X1157604Y95551D01*
X1157539Y95526D01*
X1157475Y95498D01*
X1157413Y95466D01*
X1157353Y95431D01*
X1157295Y95392D01*
X1157240Y95350D01*
X1157186Y95305D01*
X1157136Y95257D01*
X1157088Y95207D01*
X1157043Y95153D01*
X1157001Y95098D01*
X1156962Y95040D01*
X1156927Y94980D01*
X1156895Y94918D01*
X1156867Y94854D01*
X1156842Y94789D01*
X1156821Y94723D01*
X1156803Y94655D01*
X1156790Y94587D01*
X1156780Y94518D01*
X1156774Y94449D01*
X1156772Y94379D01*
X1155220Y101156D02*
X1159256Y101156D01*
X1155220Y101156D02*
X1155143Y101158D01*
X1155065Y101164D01*
X1154989Y101173D01*
X1154912Y101187D01*
X1154837Y101204D01*
X1154763Y101225D01*
X1154689Y101250D01*
X1154617Y101278D01*
X1154547Y101310D01*
X1154478Y101345D01*
X1154411Y101384D01*
X1154346Y101426D01*
X1154283Y101471D01*
X1154222Y101519D01*
X1154164Y101570D01*
X1154109Y101624D01*
X1154056Y101681D01*
X1154007Y101740D01*
X1153960Y101802D01*
X1153916Y101866D01*
X1153876Y101932D01*
X1153839Y102000D01*
X1153805Y102070D01*
X1153775Y102141D01*
X1153749Y102214D01*
X1153726Y102288D01*
X1153707Y102363D01*
X1153692Y102438D01*
X1153680Y102515D01*
X1153672Y102592D01*
X1153668Y102669D01*
X1153668Y102747D01*
X1153672Y102824D01*
X1153680Y102901D01*
X1153692Y102978D01*
X1153707Y103053D01*
X1153726Y103128D01*
X1153749Y103202D01*
X1153775Y103275D01*
X1153805Y103346D01*
X1153839Y103416D01*
X1153876Y103484D01*
X1153916Y103550D01*
X1153960Y103614D01*
X1154007Y103676D01*
X1154056Y103735D01*
X1154109Y103792D01*
X1154164Y103846D01*
X1154222Y103897D01*
X1154283Y103945D01*
X1154346Y103990D01*
X1154411Y104032D01*
X1154478Y104071D01*
X1154547Y104106D01*
X1154617Y104138D01*
X1154689Y104166D01*
X1154763Y104191D01*
X1154837Y104212D01*
X1154912Y104229D01*
X1154989Y104243D01*
X1155065Y104252D01*
X1155143Y104258D01*
X1155220Y104260D01*
X1159256Y104260D01*
X1154910Y109747D02*
X1154840Y109745D01*
X1154771Y109739D01*
X1154702Y109729D01*
X1154634Y109716D01*
X1154566Y109698D01*
X1154500Y109677D01*
X1154435Y109652D01*
X1154371Y109624D01*
X1154309Y109592D01*
X1154249Y109557D01*
X1154191Y109518D01*
X1154136Y109476D01*
X1154082Y109431D01*
X1154032Y109383D01*
X1153984Y109333D01*
X1153939Y109279D01*
X1153897Y109224D01*
X1153858Y109166D01*
X1153823Y109106D01*
X1153791Y109044D01*
X1153763Y108980D01*
X1153738Y108915D01*
X1153717Y108849D01*
X1153699Y108781D01*
X1153686Y108713D01*
X1153676Y108644D01*
X1153670Y108575D01*
X1153668Y108505D01*
X1153670Y108406D01*
X1153675Y108308D01*
X1153685Y108210D01*
X1153698Y108112D01*
X1153714Y108015D01*
X1153734Y107918D01*
X1153758Y107823D01*
X1153786Y107728D01*
X1153817Y107634D01*
X1153851Y107542D01*
X1153889Y107451D01*
X1153930Y107361D01*
X1153975Y107273D01*
X1154023Y107187D01*
X1154074Y107103D01*
X1154128Y107021D01*
X1154186Y106940D01*
X1154246Y106862D01*
X1154309Y106787D01*
X1154375Y106713D01*
X1154444Y106643D01*
X1158014Y106797D02*
X1158084Y106799D01*
X1158153Y106805D01*
X1158222Y106815D01*
X1158290Y106828D01*
X1158358Y106846D01*
X1158424Y106867D01*
X1158489Y106892D01*
X1158553Y106920D01*
X1158615Y106952D01*
X1158675Y106987D01*
X1158733Y107026D01*
X1158788Y107068D01*
X1158842Y107113D01*
X1158892Y107161D01*
X1158940Y107211D01*
X1158985Y107265D01*
X1159027Y107320D01*
X1159066Y107378D01*
X1159101Y107438D01*
X1159133Y107500D01*
X1159161Y107564D01*
X1159186Y107629D01*
X1159207Y107695D01*
X1159225Y107763D01*
X1159238Y107831D01*
X1159248Y107900D01*
X1159254Y107969D01*
X1159256Y108039D01*
X1159254Y108133D01*
X1159248Y108226D01*
X1159239Y108319D01*
X1159226Y108412D01*
X1159209Y108504D01*
X1159189Y108595D01*
X1159164Y108686D01*
X1159137Y108775D01*
X1159105Y108863D01*
X1159070Y108950D01*
X1159032Y109036D01*
X1158990Y109119D01*
X1158945Y109201D01*
X1158897Y109282D01*
X1158845Y109360D01*
X1158790Y109436D01*
X1156928Y107419D02*
X1156964Y107360D01*
X1157004Y107304D01*
X1157047Y107250D01*
X1157092Y107198D01*
X1157141Y107149D01*
X1157192Y107103D01*
X1157245Y107060D01*
X1157301Y107019D01*
X1157359Y106982D01*
X1157419Y106947D01*
X1157480Y106917D01*
X1157543Y106889D01*
X1157608Y106865D01*
X1157674Y106845D01*
X1157741Y106828D01*
X1157808Y106815D01*
X1157876Y106806D01*
X1157945Y106800D01*
X1158014Y106798D01*
X1155996Y109125D02*
X1155960Y109184D01*
X1155920Y109240D01*
X1155877Y109294D01*
X1155832Y109346D01*
X1155783Y109395D01*
X1155732Y109441D01*
X1155679Y109484D01*
X1155623Y109525D01*
X1155565Y109562D01*
X1155505Y109597D01*
X1155444Y109627D01*
X1155381Y109655D01*
X1155316Y109679D01*
X1155250Y109699D01*
X1155183Y109716D01*
X1155116Y109729D01*
X1155048Y109738D01*
X1154979Y109744D01*
X1154910Y109746D01*
X1155996Y109126D02*
X1156928Y107418D01*
X1156772Y112212D02*
X1156772Y113764D01*
X1156770Y113841D01*
X1156764Y113919D01*
X1156755Y113995D01*
X1156741Y114072D01*
X1156724Y114147D01*
X1156703Y114221D01*
X1156678Y114295D01*
X1156650Y114367D01*
X1156618Y114437D01*
X1156583Y114506D01*
X1156544Y114573D01*
X1156502Y114638D01*
X1156457Y114701D01*
X1156409Y114762D01*
X1156358Y114820D01*
X1156304Y114875D01*
X1156247Y114928D01*
X1156188Y114977D01*
X1156126Y115024D01*
X1156062Y115068D01*
X1155996Y115108D01*
X1155928Y115145D01*
X1155858Y115179D01*
X1155787Y115209D01*
X1155714Y115235D01*
X1155640Y115258D01*
X1155565Y115277D01*
X1155490Y115292D01*
X1155413Y115304D01*
X1155336Y115312D01*
X1155259Y115316D01*
X1155181Y115316D01*
X1155104Y115312D01*
X1155027Y115304D01*
X1154950Y115292D01*
X1154875Y115277D01*
X1154800Y115258D01*
X1154726Y115235D01*
X1154653Y115209D01*
X1154582Y115179D01*
X1154512Y115145D01*
X1154444Y115108D01*
X1154378Y115068D01*
X1154314Y115024D01*
X1154252Y114977D01*
X1154193Y114928D01*
X1154136Y114875D01*
X1154082Y114820D01*
X1154031Y114762D01*
X1153983Y114701D01*
X1153938Y114638D01*
X1153896Y114573D01*
X1153857Y114506D01*
X1153822Y114437D01*
X1153790Y114367D01*
X1153762Y114295D01*
X1153737Y114221D01*
X1153716Y114147D01*
X1153699Y114072D01*
X1153685Y113995D01*
X1153676Y113919D01*
X1153670Y113841D01*
X1153668Y113764D01*
X1153668Y112212D01*
X1159256Y112212D01*
X1159256Y113764D01*
X1159254Y113834D01*
X1159248Y113903D01*
X1159238Y113972D01*
X1159225Y114040D01*
X1159207Y114108D01*
X1159186Y114174D01*
X1159161Y114239D01*
X1159133Y114303D01*
X1159101Y114365D01*
X1159066Y114425D01*
X1159027Y114483D01*
X1158985Y114538D01*
X1158940Y114592D01*
X1158892Y114642D01*
X1158842Y114690D01*
X1158788Y114735D01*
X1158733Y114777D01*
X1158675Y114816D01*
X1158615Y114851D01*
X1158553Y114883D01*
X1158489Y114911D01*
X1158424Y114936D01*
X1158358Y114957D01*
X1158290Y114975D01*
X1158222Y114988D01*
X1158153Y114998D01*
X1158084Y115004D01*
X1158014Y115006D01*
X1157944Y115004D01*
X1157875Y114998D01*
X1157806Y114988D01*
X1157738Y114975D01*
X1157670Y114957D01*
X1157604Y114936D01*
X1157539Y114911D01*
X1157475Y114883D01*
X1157413Y114851D01*
X1157353Y114816D01*
X1157295Y114777D01*
X1157240Y114735D01*
X1157186Y114690D01*
X1157136Y114642D01*
X1157088Y114592D01*
X1157043Y114538D01*
X1157001Y114483D01*
X1156962Y114425D01*
X1156927Y114365D01*
X1156895Y114303D01*
X1156867Y114239D01*
X1156842Y114174D01*
X1156821Y114108D01*
X1156803Y114040D01*
X1156790Y113972D01*
X1156780Y113903D01*
X1156774Y113834D01*
X1156772Y113764D01*
D12*
X1159510Y433070D02*
X1159510Y483870D01*
X1159510Y433070D02*
X1083310Y433070D01*
X1083310Y483870D01*
X1088010Y471170D02*
X1088012Y471366D01*
X1088020Y471563D01*
X1088032Y471759D01*
X1088049Y471954D01*
X1088070Y472149D01*
X1088097Y472344D01*
X1088128Y472538D01*
X1088164Y472731D01*
X1088204Y472923D01*
X1088250Y473114D01*
X1088300Y473304D01*
X1088354Y473492D01*
X1088414Y473679D01*
X1088478Y473865D01*
X1088546Y474049D01*
X1088619Y474231D01*
X1088696Y474412D01*
X1088778Y474590D01*
X1088864Y474767D01*
X1088955Y474941D01*
X1089049Y475113D01*
X1089148Y475283D01*
X1089251Y475450D01*
X1089358Y475615D01*
X1089469Y475776D01*
X1089584Y475936D01*
X1089703Y476092D01*
X1089826Y476245D01*
X1089952Y476395D01*
X1090082Y476542D01*
X1090216Y476686D01*
X1090353Y476827D01*
X1090494Y476964D01*
X1090638Y477098D01*
X1090785Y477228D01*
X1090935Y477354D01*
X1091088Y477477D01*
X1091244Y477596D01*
X1091404Y477711D01*
X1091565Y477822D01*
X1091730Y477929D01*
X1091897Y478032D01*
X1092067Y478131D01*
X1092239Y478225D01*
X1092413Y478316D01*
X1092590Y478402D01*
X1092768Y478484D01*
X1092949Y478561D01*
X1093131Y478634D01*
X1093315Y478702D01*
X1093501Y478766D01*
X1093688Y478826D01*
X1093876Y478880D01*
X1094066Y478930D01*
X1094257Y478976D01*
X1094449Y479016D01*
X1094642Y479052D01*
X1094836Y479083D01*
X1095031Y479110D01*
X1095226Y479131D01*
X1095421Y479148D01*
X1095617Y479160D01*
X1095814Y479168D01*
X1096010Y479170D01*
X1096206Y479168D01*
X1096403Y479160D01*
X1096599Y479148D01*
X1096794Y479131D01*
X1096989Y479110D01*
X1097184Y479083D01*
X1097378Y479052D01*
X1097571Y479016D01*
X1097763Y478976D01*
X1097954Y478930D01*
X1098144Y478880D01*
X1098332Y478826D01*
X1098519Y478766D01*
X1098705Y478702D01*
X1098889Y478634D01*
X1099071Y478561D01*
X1099252Y478484D01*
X1099430Y478402D01*
X1099607Y478316D01*
X1099781Y478225D01*
X1099953Y478131D01*
X1100123Y478032D01*
X1100290Y477929D01*
X1100455Y477822D01*
X1100616Y477711D01*
X1100776Y477596D01*
X1100932Y477477D01*
X1101085Y477354D01*
X1101235Y477228D01*
X1101382Y477098D01*
X1101526Y476964D01*
X1101667Y476827D01*
X1101804Y476686D01*
X1101938Y476542D01*
X1102068Y476395D01*
X1102194Y476245D01*
X1102317Y476092D01*
X1102436Y475936D01*
X1102551Y475776D01*
X1102662Y475615D01*
X1102769Y475450D01*
X1102872Y475283D01*
X1102971Y475113D01*
X1103065Y474941D01*
X1103156Y474767D01*
X1103242Y474590D01*
X1103324Y474412D01*
X1103401Y474231D01*
X1103474Y474049D01*
X1103542Y473865D01*
X1103606Y473679D01*
X1103666Y473492D01*
X1103720Y473304D01*
X1103770Y473114D01*
X1103816Y472923D01*
X1103856Y472731D01*
X1103892Y472538D01*
X1103923Y472344D01*
X1103950Y472149D01*
X1103971Y471954D01*
X1103988Y471759D01*
X1104000Y471563D01*
X1104008Y471366D01*
X1104010Y471170D01*
X1104008Y470974D01*
X1104000Y470777D01*
X1103988Y470581D01*
X1103971Y470386D01*
X1103950Y470191D01*
X1103923Y469996D01*
X1103892Y469802D01*
X1103856Y469609D01*
X1103816Y469417D01*
X1103770Y469226D01*
X1103720Y469036D01*
X1103666Y468848D01*
X1103606Y468661D01*
X1103542Y468475D01*
X1103474Y468291D01*
X1103401Y468109D01*
X1103324Y467928D01*
X1103242Y467750D01*
X1103156Y467573D01*
X1103065Y467399D01*
X1102971Y467227D01*
X1102872Y467057D01*
X1102769Y466890D01*
X1102662Y466725D01*
X1102551Y466564D01*
X1102436Y466404D01*
X1102317Y466248D01*
X1102194Y466095D01*
X1102068Y465945D01*
X1101938Y465798D01*
X1101804Y465654D01*
X1101667Y465513D01*
X1101526Y465376D01*
X1101382Y465242D01*
X1101235Y465112D01*
X1101085Y464986D01*
X1100932Y464863D01*
X1100776Y464744D01*
X1100616Y464629D01*
X1100455Y464518D01*
X1100290Y464411D01*
X1100123Y464308D01*
X1099953Y464209D01*
X1099781Y464115D01*
X1099607Y464024D01*
X1099430Y463938D01*
X1099252Y463856D01*
X1099071Y463779D01*
X1098889Y463706D01*
X1098705Y463638D01*
X1098519Y463574D01*
X1098332Y463514D01*
X1098144Y463460D01*
X1097954Y463410D01*
X1097763Y463364D01*
X1097571Y463324D01*
X1097378Y463288D01*
X1097184Y463257D01*
X1096989Y463230D01*
X1096794Y463209D01*
X1096599Y463192D01*
X1096403Y463180D01*
X1096206Y463172D01*
X1096010Y463170D01*
X1095814Y463172D01*
X1095617Y463180D01*
X1095421Y463192D01*
X1095226Y463209D01*
X1095031Y463230D01*
X1094836Y463257D01*
X1094642Y463288D01*
X1094449Y463324D01*
X1094257Y463364D01*
X1094066Y463410D01*
X1093876Y463460D01*
X1093688Y463514D01*
X1093501Y463574D01*
X1093315Y463638D01*
X1093131Y463706D01*
X1092949Y463779D01*
X1092768Y463856D01*
X1092590Y463938D01*
X1092413Y464024D01*
X1092239Y464115D01*
X1092067Y464209D01*
X1091897Y464308D01*
X1091730Y464411D01*
X1091565Y464518D01*
X1091404Y464629D01*
X1091244Y464744D01*
X1091088Y464863D01*
X1090935Y464986D01*
X1090785Y465112D01*
X1090638Y465242D01*
X1090494Y465376D01*
X1090353Y465513D01*
X1090216Y465654D01*
X1090082Y465798D01*
X1089952Y465945D01*
X1089826Y466095D01*
X1089703Y466248D01*
X1089584Y466404D01*
X1089469Y466564D01*
X1089358Y466725D01*
X1089251Y466890D01*
X1089148Y467057D01*
X1089049Y467227D01*
X1088955Y467399D01*
X1088864Y467573D01*
X1088778Y467750D01*
X1088696Y467928D01*
X1088619Y468109D01*
X1088546Y468291D01*
X1088478Y468475D01*
X1088414Y468661D01*
X1088354Y468848D01*
X1088300Y469036D01*
X1088250Y469226D01*
X1088204Y469417D01*
X1088164Y469609D01*
X1088128Y469802D01*
X1088097Y469996D01*
X1088070Y470191D01*
X1088049Y470386D01*
X1088032Y470581D01*
X1088020Y470777D01*
X1088012Y470974D01*
X1088010Y471170D01*
X1113410Y471170D02*
X1113412Y471366D01*
X1113420Y471563D01*
X1113432Y471759D01*
X1113449Y471954D01*
X1113470Y472149D01*
X1113497Y472344D01*
X1113528Y472538D01*
X1113564Y472731D01*
X1113604Y472923D01*
X1113650Y473114D01*
X1113700Y473304D01*
X1113754Y473492D01*
X1113814Y473679D01*
X1113878Y473865D01*
X1113946Y474049D01*
X1114019Y474231D01*
X1114096Y474412D01*
X1114178Y474590D01*
X1114264Y474767D01*
X1114355Y474941D01*
X1114449Y475113D01*
X1114548Y475283D01*
X1114651Y475450D01*
X1114758Y475615D01*
X1114869Y475776D01*
X1114984Y475936D01*
X1115103Y476092D01*
X1115226Y476245D01*
X1115352Y476395D01*
X1115482Y476542D01*
X1115616Y476686D01*
X1115753Y476827D01*
X1115894Y476964D01*
X1116038Y477098D01*
X1116185Y477228D01*
X1116335Y477354D01*
X1116488Y477477D01*
X1116644Y477596D01*
X1116804Y477711D01*
X1116965Y477822D01*
X1117130Y477929D01*
X1117297Y478032D01*
X1117467Y478131D01*
X1117639Y478225D01*
X1117813Y478316D01*
X1117990Y478402D01*
X1118168Y478484D01*
X1118349Y478561D01*
X1118531Y478634D01*
X1118715Y478702D01*
X1118901Y478766D01*
X1119088Y478826D01*
X1119276Y478880D01*
X1119466Y478930D01*
X1119657Y478976D01*
X1119849Y479016D01*
X1120042Y479052D01*
X1120236Y479083D01*
X1120431Y479110D01*
X1120626Y479131D01*
X1120821Y479148D01*
X1121017Y479160D01*
X1121214Y479168D01*
X1121410Y479170D01*
X1121606Y479168D01*
X1121803Y479160D01*
X1121999Y479148D01*
X1122194Y479131D01*
X1122389Y479110D01*
X1122584Y479083D01*
X1122778Y479052D01*
X1122971Y479016D01*
X1123163Y478976D01*
X1123354Y478930D01*
X1123544Y478880D01*
X1123732Y478826D01*
X1123919Y478766D01*
X1124105Y478702D01*
X1124289Y478634D01*
X1124471Y478561D01*
X1124652Y478484D01*
X1124830Y478402D01*
X1125007Y478316D01*
X1125181Y478225D01*
X1125353Y478131D01*
X1125523Y478032D01*
X1125690Y477929D01*
X1125855Y477822D01*
X1126016Y477711D01*
X1126176Y477596D01*
X1126332Y477477D01*
X1126485Y477354D01*
X1126635Y477228D01*
X1126782Y477098D01*
X1126926Y476964D01*
X1127067Y476827D01*
X1127204Y476686D01*
X1127338Y476542D01*
X1127468Y476395D01*
X1127594Y476245D01*
X1127717Y476092D01*
X1127836Y475936D01*
X1127951Y475776D01*
X1128062Y475615D01*
X1128169Y475450D01*
X1128272Y475283D01*
X1128371Y475113D01*
X1128465Y474941D01*
X1128556Y474767D01*
X1128642Y474590D01*
X1128724Y474412D01*
X1128801Y474231D01*
X1128874Y474049D01*
X1128942Y473865D01*
X1129006Y473679D01*
X1129066Y473492D01*
X1129120Y473304D01*
X1129170Y473114D01*
X1129216Y472923D01*
X1129256Y472731D01*
X1129292Y472538D01*
X1129323Y472344D01*
X1129350Y472149D01*
X1129371Y471954D01*
X1129388Y471759D01*
X1129400Y471563D01*
X1129408Y471366D01*
X1129410Y471170D01*
X1129408Y470974D01*
X1129400Y470777D01*
X1129388Y470581D01*
X1129371Y470386D01*
X1129350Y470191D01*
X1129323Y469996D01*
X1129292Y469802D01*
X1129256Y469609D01*
X1129216Y469417D01*
X1129170Y469226D01*
X1129120Y469036D01*
X1129066Y468848D01*
X1129006Y468661D01*
X1128942Y468475D01*
X1128874Y468291D01*
X1128801Y468109D01*
X1128724Y467928D01*
X1128642Y467750D01*
X1128556Y467573D01*
X1128465Y467399D01*
X1128371Y467227D01*
X1128272Y467057D01*
X1128169Y466890D01*
X1128062Y466725D01*
X1127951Y466564D01*
X1127836Y466404D01*
X1127717Y466248D01*
X1127594Y466095D01*
X1127468Y465945D01*
X1127338Y465798D01*
X1127204Y465654D01*
X1127067Y465513D01*
X1126926Y465376D01*
X1126782Y465242D01*
X1126635Y465112D01*
X1126485Y464986D01*
X1126332Y464863D01*
X1126176Y464744D01*
X1126016Y464629D01*
X1125855Y464518D01*
X1125690Y464411D01*
X1125523Y464308D01*
X1125353Y464209D01*
X1125181Y464115D01*
X1125007Y464024D01*
X1124830Y463938D01*
X1124652Y463856D01*
X1124471Y463779D01*
X1124289Y463706D01*
X1124105Y463638D01*
X1123919Y463574D01*
X1123732Y463514D01*
X1123544Y463460D01*
X1123354Y463410D01*
X1123163Y463364D01*
X1122971Y463324D01*
X1122778Y463288D01*
X1122584Y463257D01*
X1122389Y463230D01*
X1122194Y463209D01*
X1121999Y463192D01*
X1121803Y463180D01*
X1121606Y463172D01*
X1121410Y463170D01*
X1121214Y463172D01*
X1121017Y463180D01*
X1120821Y463192D01*
X1120626Y463209D01*
X1120431Y463230D01*
X1120236Y463257D01*
X1120042Y463288D01*
X1119849Y463324D01*
X1119657Y463364D01*
X1119466Y463410D01*
X1119276Y463460D01*
X1119088Y463514D01*
X1118901Y463574D01*
X1118715Y463638D01*
X1118531Y463706D01*
X1118349Y463779D01*
X1118168Y463856D01*
X1117990Y463938D01*
X1117813Y464024D01*
X1117639Y464115D01*
X1117467Y464209D01*
X1117297Y464308D01*
X1117130Y464411D01*
X1116965Y464518D01*
X1116804Y464629D01*
X1116644Y464744D01*
X1116488Y464863D01*
X1116335Y464986D01*
X1116185Y465112D01*
X1116038Y465242D01*
X1115894Y465376D01*
X1115753Y465513D01*
X1115616Y465654D01*
X1115482Y465798D01*
X1115352Y465945D01*
X1115226Y466095D01*
X1115103Y466248D01*
X1114984Y466404D01*
X1114869Y466564D01*
X1114758Y466725D01*
X1114651Y466890D01*
X1114548Y467057D01*
X1114449Y467227D01*
X1114355Y467399D01*
X1114264Y467573D01*
X1114178Y467750D01*
X1114096Y467928D01*
X1114019Y468109D01*
X1113946Y468291D01*
X1113878Y468475D01*
X1113814Y468661D01*
X1113754Y468848D01*
X1113700Y469036D01*
X1113650Y469226D01*
X1113604Y469417D01*
X1113564Y469609D01*
X1113528Y469802D01*
X1113497Y469996D01*
X1113470Y470191D01*
X1113449Y470386D01*
X1113432Y470581D01*
X1113420Y470777D01*
X1113412Y470974D01*
X1113410Y471170D01*
X1138810Y471170D02*
X1138812Y471366D01*
X1138820Y471563D01*
X1138832Y471759D01*
X1138849Y471954D01*
X1138870Y472149D01*
X1138897Y472344D01*
X1138928Y472538D01*
X1138964Y472731D01*
X1139004Y472923D01*
X1139050Y473114D01*
X1139100Y473304D01*
X1139154Y473492D01*
X1139214Y473679D01*
X1139278Y473865D01*
X1139346Y474049D01*
X1139419Y474231D01*
X1139496Y474412D01*
X1139578Y474590D01*
X1139664Y474767D01*
X1139755Y474941D01*
X1139849Y475113D01*
X1139948Y475283D01*
X1140051Y475450D01*
X1140158Y475615D01*
X1140269Y475776D01*
X1140384Y475936D01*
X1140503Y476092D01*
X1140626Y476245D01*
X1140752Y476395D01*
X1140882Y476542D01*
X1141016Y476686D01*
X1141153Y476827D01*
X1141294Y476964D01*
X1141438Y477098D01*
X1141585Y477228D01*
X1141735Y477354D01*
X1141888Y477477D01*
X1142044Y477596D01*
X1142204Y477711D01*
X1142365Y477822D01*
X1142530Y477929D01*
X1142697Y478032D01*
X1142867Y478131D01*
X1143039Y478225D01*
X1143213Y478316D01*
X1143390Y478402D01*
X1143568Y478484D01*
X1143749Y478561D01*
X1143931Y478634D01*
X1144115Y478702D01*
X1144301Y478766D01*
X1144488Y478826D01*
X1144676Y478880D01*
X1144866Y478930D01*
X1145057Y478976D01*
X1145249Y479016D01*
X1145442Y479052D01*
X1145636Y479083D01*
X1145831Y479110D01*
X1146026Y479131D01*
X1146221Y479148D01*
X1146417Y479160D01*
X1146614Y479168D01*
X1146810Y479170D01*
X1147006Y479168D01*
X1147203Y479160D01*
X1147399Y479148D01*
X1147594Y479131D01*
X1147789Y479110D01*
X1147984Y479083D01*
X1148178Y479052D01*
X1148371Y479016D01*
X1148563Y478976D01*
X1148754Y478930D01*
X1148944Y478880D01*
X1149132Y478826D01*
X1149319Y478766D01*
X1149505Y478702D01*
X1149689Y478634D01*
X1149871Y478561D01*
X1150052Y478484D01*
X1150230Y478402D01*
X1150407Y478316D01*
X1150581Y478225D01*
X1150753Y478131D01*
X1150923Y478032D01*
X1151090Y477929D01*
X1151255Y477822D01*
X1151416Y477711D01*
X1151576Y477596D01*
X1151732Y477477D01*
X1151885Y477354D01*
X1152035Y477228D01*
X1152182Y477098D01*
X1152326Y476964D01*
X1152467Y476827D01*
X1152604Y476686D01*
X1152738Y476542D01*
X1152868Y476395D01*
X1152994Y476245D01*
X1153117Y476092D01*
X1153236Y475936D01*
X1153351Y475776D01*
X1153462Y475615D01*
X1153569Y475450D01*
X1153672Y475283D01*
X1153771Y475113D01*
X1153865Y474941D01*
X1153956Y474767D01*
X1154042Y474590D01*
X1154124Y474412D01*
X1154201Y474231D01*
X1154274Y474049D01*
X1154342Y473865D01*
X1154406Y473679D01*
X1154466Y473492D01*
X1154520Y473304D01*
X1154570Y473114D01*
X1154616Y472923D01*
X1154656Y472731D01*
X1154692Y472538D01*
X1154723Y472344D01*
X1154750Y472149D01*
X1154771Y471954D01*
X1154788Y471759D01*
X1154800Y471563D01*
X1154808Y471366D01*
X1154810Y471170D01*
X1154808Y470974D01*
X1154800Y470777D01*
X1154788Y470581D01*
X1154771Y470386D01*
X1154750Y470191D01*
X1154723Y469996D01*
X1154692Y469802D01*
X1154656Y469609D01*
X1154616Y469417D01*
X1154570Y469226D01*
X1154520Y469036D01*
X1154466Y468848D01*
X1154406Y468661D01*
X1154342Y468475D01*
X1154274Y468291D01*
X1154201Y468109D01*
X1154124Y467928D01*
X1154042Y467750D01*
X1153956Y467573D01*
X1153865Y467399D01*
X1153771Y467227D01*
X1153672Y467057D01*
X1153569Y466890D01*
X1153462Y466725D01*
X1153351Y466564D01*
X1153236Y466404D01*
X1153117Y466248D01*
X1152994Y466095D01*
X1152868Y465945D01*
X1152738Y465798D01*
X1152604Y465654D01*
X1152467Y465513D01*
X1152326Y465376D01*
X1152182Y465242D01*
X1152035Y465112D01*
X1151885Y464986D01*
X1151732Y464863D01*
X1151576Y464744D01*
X1151416Y464629D01*
X1151255Y464518D01*
X1151090Y464411D01*
X1150923Y464308D01*
X1150753Y464209D01*
X1150581Y464115D01*
X1150407Y464024D01*
X1150230Y463938D01*
X1150052Y463856D01*
X1149871Y463779D01*
X1149689Y463706D01*
X1149505Y463638D01*
X1149319Y463574D01*
X1149132Y463514D01*
X1148944Y463460D01*
X1148754Y463410D01*
X1148563Y463364D01*
X1148371Y463324D01*
X1148178Y463288D01*
X1147984Y463257D01*
X1147789Y463230D01*
X1147594Y463209D01*
X1147399Y463192D01*
X1147203Y463180D01*
X1147006Y463172D01*
X1146810Y463170D01*
X1146614Y463172D01*
X1146417Y463180D01*
X1146221Y463192D01*
X1146026Y463209D01*
X1145831Y463230D01*
X1145636Y463257D01*
X1145442Y463288D01*
X1145249Y463324D01*
X1145057Y463364D01*
X1144866Y463410D01*
X1144676Y463460D01*
X1144488Y463514D01*
X1144301Y463574D01*
X1144115Y463638D01*
X1143931Y463706D01*
X1143749Y463779D01*
X1143568Y463856D01*
X1143390Y463938D01*
X1143213Y464024D01*
X1143039Y464115D01*
X1142867Y464209D01*
X1142697Y464308D01*
X1142530Y464411D01*
X1142365Y464518D01*
X1142204Y464629D01*
X1142044Y464744D01*
X1141888Y464863D01*
X1141735Y464986D01*
X1141585Y465112D01*
X1141438Y465242D01*
X1141294Y465376D01*
X1141153Y465513D01*
X1141016Y465654D01*
X1140882Y465798D01*
X1140752Y465945D01*
X1140626Y466095D01*
X1140503Y466248D01*
X1140384Y466404D01*
X1140269Y466564D01*
X1140158Y466725D01*
X1140051Y466890D01*
X1139948Y467057D01*
X1139849Y467227D01*
X1139755Y467399D01*
X1139664Y467573D01*
X1139578Y467750D01*
X1139496Y467928D01*
X1139419Y468109D01*
X1139346Y468291D01*
X1139278Y468475D01*
X1139214Y468661D01*
X1139154Y468848D01*
X1139100Y469036D01*
X1139050Y469226D01*
X1139004Y469417D01*
X1138964Y469609D01*
X1138928Y469802D01*
X1138897Y469996D01*
X1138870Y470191D01*
X1138849Y470386D01*
X1138832Y470581D01*
X1138820Y470777D01*
X1138812Y470974D01*
X1138810Y471170D01*
X1138810Y445770D02*
X1138812Y445966D01*
X1138820Y446163D01*
X1138832Y446359D01*
X1138849Y446554D01*
X1138870Y446749D01*
X1138897Y446944D01*
X1138928Y447138D01*
X1138964Y447331D01*
X1139004Y447523D01*
X1139050Y447714D01*
X1139100Y447904D01*
X1139154Y448092D01*
X1139214Y448279D01*
X1139278Y448465D01*
X1139346Y448649D01*
X1139419Y448831D01*
X1139496Y449012D01*
X1139578Y449190D01*
X1139664Y449367D01*
X1139755Y449541D01*
X1139849Y449713D01*
X1139948Y449883D01*
X1140051Y450050D01*
X1140158Y450215D01*
X1140269Y450376D01*
X1140384Y450536D01*
X1140503Y450692D01*
X1140626Y450845D01*
X1140752Y450995D01*
X1140882Y451142D01*
X1141016Y451286D01*
X1141153Y451427D01*
X1141294Y451564D01*
X1141438Y451698D01*
X1141585Y451828D01*
X1141735Y451954D01*
X1141888Y452077D01*
X1142044Y452196D01*
X1142204Y452311D01*
X1142365Y452422D01*
X1142530Y452529D01*
X1142697Y452632D01*
X1142867Y452731D01*
X1143039Y452825D01*
X1143213Y452916D01*
X1143390Y453002D01*
X1143568Y453084D01*
X1143749Y453161D01*
X1143931Y453234D01*
X1144115Y453302D01*
X1144301Y453366D01*
X1144488Y453426D01*
X1144676Y453480D01*
X1144866Y453530D01*
X1145057Y453576D01*
X1145249Y453616D01*
X1145442Y453652D01*
X1145636Y453683D01*
X1145831Y453710D01*
X1146026Y453731D01*
X1146221Y453748D01*
X1146417Y453760D01*
X1146614Y453768D01*
X1146810Y453770D01*
X1147006Y453768D01*
X1147203Y453760D01*
X1147399Y453748D01*
X1147594Y453731D01*
X1147789Y453710D01*
X1147984Y453683D01*
X1148178Y453652D01*
X1148371Y453616D01*
X1148563Y453576D01*
X1148754Y453530D01*
X1148944Y453480D01*
X1149132Y453426D01*
X1149319Y453366D01*
X1149505Y453302D01*
X1149689Y453234D01*
X1149871Y453161D01*
X1150052Y453084D01*
X1150230Y453002D01*
X1150407Y452916D01*
X1150581Y452825D01*
X1150753Y452731D01*
X1150923Y452632D01*
X1151090Y452529D01*
X1151255Y452422D01*
X1151416Y452311D01*
X1151576Y452196D01*
X1151732Y452077D01*
X1151885Y451954D01*
X1152035Y451828D01*
X1152182Y451698D01*
X1152326Y451564D01*
X1152467Y451427D01*
X1152604Y451286D01*
X1152738Y451142D01*
X1152868Y450995D01*
X1152994Y450845D01*
X1153117Y450692D01*
X1153236Y450536D01*
X1153351Y450376D01*
X1153462Y450215D01*
X1153569Y450050D01*
X1153672Y449883D01*
X1153771Y449713D01*
X1153865Y449541D01*
X1153956Y449367D01*
X1154042Y449190D01*
X1154124Y449012D01*
X1154201Y448831D01*
X1154274Y448649D01*
X1154342Y448465D01*
X1154406Y448279D01*
X1154466Y448092D01*
X1154520Y447904D01*
X1154570Y447714D01*
X1154616Y447523D01*
X1154656Y447331D01*
X1154692Y447138D01*
X1154723Y446944D01*
X1154750Y446749D01*
X1154771Y446554D01*
X1154788Y446359D01*
X1154800Y446163D01*
X1154808Y445966D01*
X1154810Y445770D01*
X1154808Y445574D01*
X1154800Y445377D01*
X1154788Y445181D01*
X1154771Y444986D01*
X1154750Y444791D01*
X1154723Y444596D01*
X1154692Y444402D01*
X1154656Y444209D01*
X1154616Y444017D01*
X1154570Y443826D01*
X1154520Y443636D01*
X1154466Y443448D01*
X1154406Y443261D01*
X1154342Y443075D01*
X1154274Y442891D01*
X1154201Y442709D01*
X1154124Y442528D01*
X1154042Y442350D01*
X1153956Y442173D01*
X1153865Y441999D01*
X1153771Y441827D01*
X1153672Y441657D01*
X1153569Y441490D01*
X1153462Y441325D01*
X1153351Y441164D01*
X1153236Y441004D01*
X1153117Y440848D01*
X1152994Y440695D01*
X1152868Y440545D01*
X1152738Y440398D01*
X1152604Y440254D01*
X1152467Y440113D01*
X1152326Y439976D01*
X1152182Y439842D01*
X1152035Y439712D01*
X1151885Y439586D01*
X1151732Y439463D01*
X1151576Y439344D01*
X1151416Y439229D01*
X1151255Y439118D01*
X1151090Y439011D01*
X1150923Y438908D01*
X1150753Y438809D01*
X1150581Y438715D01*
X1150407Y438624D01*
X1150230Y438538D01*
X1150052Y438456D01*
X1149871Y438379D01*
X1149689Y438306D01*
X1149505Y438238D01*
X1149319Y438174D01*
X1149132Y438114D01*
X1148944Y438060D01*
X1148754Y438010D01*
X1148563Y437964D01*
X1148371Y437924D01*
X1148178Y437888D01*
X1147984Y437857D01*
X1147789Y437830D01*
X1147594Y437809D01*
X1147399Y437792D01*
X1147203Y437780D01*
X1147006Y437772D01*
X1146810Y437770D01*
X1146614Y437772D01*
X1146417Y437780D01*
X1146221Y437792D01*
X1146026Y437809D01*
X1145831Y437830D01*
X1145636Y437857D01*
X1145442Y437888D01*
X1145249Y437924D01*
X1145057Y437964D01*
X1144866Y438010D01*
X1144676Y438060D01*
X1144488Y438114D01*
X1144301Y438174D01*
X1144115Y438238D01*
X1143931Y438306D01*
X1143749Y438379D01*
X1143568Y438456D01*
X1143390Y438538D01*
X1143213Y438624D01*
X1143039Y438715D01*
X1142867Y438809D01*
X1142697Y438908D01*
X1142530Y439011D01*
X1142365Y439118D01*
X1142204Y439229D01*
X1142044Y439344D01*
X1141888Y439463D01*
X1141735Y439586D01*
X1141585Y439712D01*
X1141438Y439842D01*
X1141294Y439976D01*
X1141153Y440113D01*
X1141016Y440254D01*
X1140882Y440398D01*
X1140752Y440545D01*
X1140626Y440695D01*
X1140503Y440848D01*
X1140384Y441004D01*
X1140269Y441164D01*
X1140158Y441325D01*
X1140051Y441490D01*
X1139948Y441657D01*
X1139849Y441827D01*
X1139755Y441999D01*
X1139664Y442173D01*
X1139578Y442350D01*
X1139496Y442528D01*
X1139419Y442709D01*
X1139346Y442891D01*
X1139278Y443075D01*
X1139214Y443261D01*
X1139154Y443448D01*
X1139100Y443636D01*
X1139050Y443826D01*
X1139004Y444017D01*
X1138964Y444209D01*
X1138928Y444402D01*
X1138897Y444596D01*
X1138870Y444791D01*
X1138849Y444986D01*
X1138832Y445181D01*
X1138820Y445377D01*
X1138812Y445574D01*
X1138810Y445770D01*
X1113410Y471170D02*
X1113412Y471366D01*
X1113420Y471563D01*
X1113432Y471759D01*
X1113449Y471954D01*
X1113470Y472149D01*
X1113497Y472344D01*
X1113528Y472538D01*
X1113564Y472731D01*
X1113604Y472923D01*
X1113650Y473114D01*
X1113700Y473304D01*
X1113754Y473492D01*
X1113814Y473679D01*
X1113878Y473865D01*
X1113946Y474049D01*
X1114019Y474231D01*
X1114096Y474412D01*
X1114178Y474590D01*
X1114264Y474767D01*
X1114355Y474941D01*
X1114449Y475113D01*
X1114548Y475283D01*
X1114651Y475450D01*
X1114758Y475615D01*
X1114869Y475776D01*
X1114984Y475936D01*
X1115103Y476092D01*
X1115226Y476245D01*
X1115352Y476395D01*
X1115482Y476542D01*
X1115616Y476686D01*
X1115753Y476827D01*
X1115894Y476964D01*
X1116038Y477098D01*
X1116185Y477228D01*
X1116335Y477354D01*
X1116488Y477477D01*
X1116644Y477596D01*
X1116804Y477711D01*
X1116965Y477822D01*
X1117130Y477929D01*
X1117297Y478032D01*
X1117467Y478131D01*
X1117639Y478225D01*
X1117813Y478316D01*
X1117990Y478402D01*
X1118168Y478484D01*
X1118349Y478561D01*
X1118531Y478634D01*
X1118715Y478702D01*
X1118901Y478766D01*
X1119088Y478826D01*
X1119276Y478880D01*
X1119466Y478930D01*
X1119657Y478976D01*
X1119849Y479016D01*
X1120042Y479052D01*
X1120236Y479083D01*
X1120431Y479110D01*
X1120626Y479131D01*
X1120821Y479148D01*
X1121017Y479160D01*
X1121214Y479168D01*
X1121410Y479170D01*
X1121606Y479168D01*
X1121803Y479160D01*
X1121999Y479148D01*
X1122194Y479131D01*
X1122389Y479110D01*
X1122584Y479083D01*
X1122778Y479052D01*
X1122971Y479016D01*
X1123163Y478976D01*
X1123354Y478930D01*
X1123544Y478880D01*
X1123732Y478826D01*
X1123919Y478766D01*
X1124105Y478702D01*
X1124289Y478634D01*
X1124471Y478561D01*
X1124652Y478484D01*
X1124830Y478402D01*
X1125007Y478316D01*
X1125181Y478225D01*
X1125353Y478131D01*
X1125523Y478032D01*
X1125690Y477929D01*
X1125855Y477822D01*
X1126016Y477711D01*
X1126176Y477596D01*
X1126332Y477477D01*
X1126485Y477354D01*
X1126635Y477228D01*
X1126782Y477098D01*
X1126926Y476964D01*
X1127067Y476827D01*
X1127204Y476686D01*
X1127338Y476542D01*
X1127468Y476395D01*
X1127594Y476245D01*
X1127717Y476092D01*
X1127836Y475936D01*
X1127951Y475776D01*
X1128062Y475615D01*
X1128169Y475450D01*
X1128272Y475283D01*
X1128371Y475113D01*
X1128465Y474941D01*
X1128556Y474767D01*
X1128642Y474590D01*
X1128724Y474412D01*
X1128801Y474231D01*
X1128874Y474049D01*
X1128942Y473865D01*
X1129006Y473679D01*
X1129066Y473492D01*
X1129120Y473304D01*
X1129170Y473114D01*
X1129216Y472923D01*
X1129256Y472731D01*
X1129292Y472538D01*
X1129323Y472344D01*
X1129350Y472149D01*
X1129371Y471954D01*
X1129388Y471759D01*
X1129400Y471563D01*
X1129408Y471366D01*
X1129410Y471170D01*
X1129408Y470974D01*
X1129400Y470777D01*
X1129388Y470581D01*
X1129371Y470386D01*
X1129350Y470191D01*
X1129323Y469996D01*
X1129292Y469802D01*
X1129256Y469609D01*
X1129216Y469417D01*
X1129170Y469226D01*
X1129120Y469036D01*
X1129066Y468848D01*
X1129006Y468661D01*
X1128942Y468475D01*
X1128874Y468291D01*
X1128801Y468109D01*
X1128724Y467928D01*
X1128642Y467750D01*
X1128556Y467573D01*
X1128465Y467399D01*
X1128371Y467227D01*
X1128272Y467057D01*
X1128169Y466890D01*
X1128062Y466725D01*
X1127951Y466564D01*
X1127836Y466404D01*
X1127717Y466248D01*
X1127594Y466095D01*
X1127468Y465945D01*
X1127338Y465798D01*
X1127204Y465654D01*
X1127067Y465513D01*
X1126926Y465376D01*
X1126782Y465242D01*
X1126635Y465112D01*
X1126485Y464986D01*
X1126332Y464863D01*
X1126176Y464744D01*
X1126016Y464629D01*
X1125855Y464518D01*
X1125690Y464411D01*
X1125523Y464308D01*
X1125353Y464209D01*
X1125181Y464115D01*
X1125007Y464024D01*
X1124830Y463938D01*
X1124652Y463856D01*
X1124471Y463779D01*
X1124289Y463706D01*
X1124105Y463638D01*
X1123919Y463574D01*
X1123732Y463514D01*
X1123544Y463460D01*
X1123354Y463410D01*
X1123163Y463364D01*
X1122971Y463324D01*
X1122778Y463288D01*
X1122584Y463257D01*
X1122389Y463230D01*
X1122194Y463209D01*
X1121999Y463192D01*
X1121803Y463180D01*
X1121606Y463172D01*
X1121410Y463170D01*
X1121214Y463172D01*
X1121017Y463180D01*
X1120821Y463192D01*
X1120626Y463209D01*
X1120431Y463230D01*
X1120236Y463257D01*
X1120042Y463288D01*
X1119849Y463324D01*
X1119657Y463364D01*
X1119466Y463410D01*
X1119276Y463460D01*
X1119088Y463514D01*
X1118901Y463574D01*
X1118715Y463638D01*
X1118531Y463706D01*
X1118349Y463779D01*
X1118168Y463856D01*
X1117990Y463938D01*
X1117813Y464024D01*
X1117639Y464115D01*
X1117467Y464209D01*
X1117297Y464308D01*
X1117130Y464411D01*
X1116965Y464518D01*
X1116804Y464629D01*
X1116644Y464744D01*
X1116488Y464863D01*
X1116335Y464986D01*
X1116185Y465112D01*
X1116038Y465242D01*
X1115894Y465376D01*
X1115753Y465513D01*
X1115616Y465654D01*
X1115482Y465798D01*
X1115352Y465945D01*
X1115226Y466095D01*
X1115103Y466248D01*
X1114984Y466404D01*
X1114869Y466564D01*
X1114758Y466725D01*
X1114651Y466890D01*
X1114548Y467057D01*
X1114449Y467227D01*
X1114355Y467399D01*
X1114264Y467573D01*
X1114178Y467750D01*
X1114096Y467928D01*
X1114019Y468109D01*
X1113946Y468291D01*
X1113878Y468475D01*
X1113814Y468661D01*
X1113754Y468848D01*
X1113700Y469036D01*
X1113650Y469226D01*
X1113604Y469417D01*
X1113564Y469609D01*
X1113528Y469802D01*
X1113497Y469996D01*
X1113470Y470191D01*
X1113449Y470386D01*
X1113432Y470581D01*
X1113420Y470777D01*
X1113412Y470974D01*
X1113410Y471170D01*
X1113410Y445770D02*
X1113412Y445966D01*
X1113420Y446163D01*
X1113432Y446359D01*
X1113449Y446554D01*
X1113470Y446749D01*
X1113497Y446944D01*
X1113528Y447138D01*
X1113564Y447331D01*
X1113604Y447523D01*
X1113650Y447714D01*
X1113700Y447904D01*
X1113754Y448092D01*
X1113814Y448279D01*
X1113878Y448465D01*
X1113946Y448649D01*
X1114019Y448831D01*
X1114096Y449012D01*
X1114178Y449190D01*
X1114264Y449367D01*
X1114355Y449541D01*
X1114449Y449713D01*
X1114548Y449883D01*
X1114651Y450050D01*
X1114758Y450215D01*
X1114869Y450376D01*
X1114984Y450536D01*
X1115103Y450692D01*
X1115226Y450845D01*
X1115352Y450995D01*
X1115482Y451142D01*
X1115616Y451286D01*
X1115753Y451427D01*
X1115894Y451564D01*
X1116038Y451698D01*
X1116185Y451828D01*
X1116335Y451954D01*
X1116488Y452077D01*
X1116644Y452196D01*
X1116804Y452311D01*
X1116965Y452422D01*
X1117130Y452529D01*
X1117297Y452632D01*
X1117467Y452731D01*
X1117639Y452825D01*
X1117813Y452916D01*
X1117990Y453002D01*
X1118168Y453084D01*
X1118349Y453161D01*
X1118531Y453234D01*
X1118715Y453302D01*
X1118901Y453366D01*
X1119088Y453426D01*
X1119276Y453480D01*
X1119466Y453530D01*
X1119657Y453576D01*
X1119849Y453616D01*
X1120042Y453652D01*
X1120236Y453683D01*
X1120431Y453710D01*
X1120626Y453731D01*
X1120821Y453748D01*
X1121017Y453760D01*
X1121214Y453768D01*
X1121410Y453770D01*
X1121606Y453768D01*
X1121803Y453760D01*
X1121999Y453748D01*
X1122194Y453731D01*
X1122389Y453710D01*
X1122584Y453683D01*
X1122778Y453652D01*
X1122971Y453616D01*
X1123163Y453576D01*
X1123354Y453530D01*
X1123544Y453480D01*
X1123732Y453426D01*
X1123919Y453366D01*
X1124105Y453302D01*
X1124289Y453234D01*
X1124471Y453161D01*
X1124652Y453084D01*
X1124830Y453002D01*
X1125007Y452916D01*
X1125181Y452825D01*
X1125353Y452731D01*
X1125523Y452632D01*
X1125690Y452529D01*
X1125855Y452422D01*
X1126016Y452311D01*
X1126176Y452196D01*
X1126332Y452077D01*
X1126485Y451954D01*
X1126635Y451828D01*
X1126782Y451698D01*
X1126926Y451564D01*
X1127067Y451427D01*
X1127204Y451286D01*
X1127338Y451142D01*
X1127468Y450995D01*
X1127594Y450845D01*
X1127717Y450692D01*
X1127836Y450536D01*
X1127951Y450376D01*
X1128062Y450215D01*
X1128169Y450050D01*
X1128272Y449883D01*
X1128371Y449713D01*
X1128465Y449541D01*
X1128556Y449367D01*
X1128642Y449190D01*
X1128724Y449012D01*
X1128801Y448831D01*
X1128874Y448649D01*
X1128942Y448465D01*
X1129006Y448279D01*
X1129066Y448092D01*
X1129120Y447904D01*
X1129170Y447714D01*
X1129216Y447523D01*
X1129256Y447331D01*
X1129292Y447138D01*
X1129323Y446944D01*
X1129350Y446749D01*
X1129371Y446554D01*
X1129388Y446359D01*
X1129400Y446163D01*
X1129408Y445966D01*
X1129410Y445770D01*
X1129408Y445574D01*
X1129400Y445377D01*
X1129388Y445181D01*
X1129371Y444986D01*
X1129350Y444791D01*
X1129323Y444596D01*
X1129292Y444402D01*
X1129256Y444209D01*
X1129216Y444017D01*
X1129170Y443826D01*
X1129120Y443636D01*
X1129066Y443448D01*
X1129006Y443261D01*
X1128942Y443075D01*
X1128874Y442891D01*
X1128801Y442709D01*
X1128724Y442528D01*
X1128642Y442350D01*
X1128556Y442173D01*
X1128465Y441999D01*
X1128371Y441827D01*
X1128272Y441657D01*
X1128169Y441490D01*
X1128062Y441325D01*
X1127951Y441164D01*
X1127836Y441004D01*
X1127717Y440848D01*
X1127594Y440695D01*
X1127468Y440545D01*
X1127338Y440398D01*
X1127204Y440254D01*
X1127067Y440113D01*
X1126926Y439976D01*
X1126782Y439842D01*
X1126635Y439712D01*
X1126485Y439586D01*
X1126332Y439463D01*
X1126176Y439344D01*
X1126016Y439229D01*
X1125855Y439118D01*
X1125690Y439011D01*
X1125523Y438908D01*
X1125353Y438809D01*
X1125181Y438715D01*
X1125007Y438624D01*
X1124830Y438538D01*
X1124652Y438456D01*
X1124471Y438379D01*
X1124289Y438306D01*
X1124105Y438238D01*
X1123919Y438174D01*
X1123732Y438114D01*
X1123544Y438060D01*
X1123354Y438010D01*
X1123163Y437964D01*
X1122971Y437924D01*
X1122778Y437888D01*
X1122584Y437857D01*
X1122389Y437830D01*
X1122194Y437809D01*
X1121999Y437792D01*
X1121803Y437780D01*
X1121606Y437772D01*
X1121410Y437770D01*
X1121214Y437772D01*
X1121017Y437780D01*
X1120821Y437792D01*
X1120626Y437809D01*
X1120431Y437830D01*
X1120236Y437857D01*
X1120042Y437888D01*
X1119849Y437924D01*
X1119657Y437964D01*
X1119466Y438010D01*
X1119276Y438060D01*
X1119088Y438114D01*
X1118901Y438174D01*
X1118715Y438238D01*
X1118531Y438306D01*
X1118349Y438379D01*
X1118168Y438456D01*
X1117990Y438538D01*
X1117813Y438624D01*
X1117639Y438715D01*
X1117467Y438809D01*
X1117297Y438908D01*
X1117130Y439011D01*
X1116965Y439118D01*
X1116804Y439229D01*
X1116644Y439344D01*
X1116488Y439463D01*
X1116335Y439586D01*
X1116185Y439712D01*
X1116038Y439842D01*
X1115894Y439976D01*
X1115753Y440113D01*
X1115616Y440254D01*
X1115482Y440398D01*
X1115352Y440545D01*
X1115226Y440695D01*
X1115103Y440848D01*
X1114984Y441004D01*
X1114869Y441164D01*
X1114758Y441325D01*
X1114651Y441490D01*
X1114548Y441657D01*
X1114449Y441827D01*
X1114355Y441999D01*
X1114264Y442173D01*
X1114178Y442350D01*
X1114096Y442528D01*
X1114019Y442709D01*
X1113946Y442891D01*
X1113878Y443075D01*
X1113814Y443261D01*
X1113754Y443448D01*
X1113700Y443636D01*
X1113650Y443826D01*
X1113604Y444017D01*
X1113564Y444209D01*
X1113528Y444402D01*
X1113497Y444596D01*
X1113470Y444791D01*
X1113449Y444986D01*
X1113432Y445181D01*
X1113420Y445377D01*
X1113412Y445574D01*
X1113410Y445770D01*
X1088010Y445770D02*
X1088012Y445966D01*
X1088020Y446163D01*
X1088032Y446359D01*
X1088049Y446554D01*
X1088070Y446749D01*
X1088097Y446944D01*
X1088128Y447138D01*
X1088164Y447331D01*
X1088204Y447523D01*
X1088250Y447714D01*
X1088300Y447904D01*
X1088354Y448092D01*
X1088414Y448279D01*
X1088478Y448465D01*
X1088546Y448649D01*
X1088619Y448831D01*
X1088696Y449012D01*
X1088778Y449190D01*
X1088864Y449367D01*
X1088955Y449541D01*
X1089049Y449713D01*
X1089148Y449883D01*
X1089251Y450050D01*
X1089358Y450215D01*
X1089469Y450376D01*
X1089584Y450536D01*
X1089703Y450692D01*
X1089826Y450845D01*
X1089952Y450995D01*
X1090082Y451142D01*
X1090216Y451286D01*
X1090353Y451427D01*
X1090494Y451564D01*
X1090638Y451698D01*
X1090785Y451828D01*
X1090935Y451954D01*
X1091088Y452077D01*
X1091244Y452196D01*
X1091404Y452311D01*
X1091565Y452422D01*
X1091730Y452529D01*
X1091897Y452632D01*
X1092067Y452731D01*
X1092239Y452825D01*
X1092413Y452916D01*
X1092590Y453002D01*
X1092768Y453084D01*
X1092949Y453161D01*
X1093131Y453234D01*
X1093315Y453302D01*
X1093501Y453366D01*
X1093688Y453426D01*
X1093876Y453480D01*
X1094066Y453530D01*
X1094257Y453576D01*
X1094449Y453616D01*
X1094642Y453652D01*
X1094836Y453683D01*
X1095031Y453710D01*
X1095226Y453731D01*
X1095421Y453748D01*
X1095617Y453760D01*
X1095814Y453768D01*
X1096010Y453770D01*
X1096206Y453768D01*
X1096403Y453760D01*
X1096599Y453748D01*
X1096794Y453731D01*
X1096989Y453710D01*
X1097184Y453683D01*
X1097378Y453652D01*
X1097571Y453616D01*
X1097763Y453576D01*
X1097954Y453530D01*
X1098144Y453480D01*
X1098332Y453426D01*
X1098519Y453366D01*
X1098705Y453302D01*
X1098889Y453234D01*
X1099071Y453161D01*
X1099252Y453084D01*
X1099430Y453002D01*
X1099607Y452916D01*
X1099781Y452825D01*
X1099953Y452731D01*
X1100123Y452632D01*
X1100290Y452529D01*
X1100455Y452422D01*
X1100616Y452311D01*
X1100776Y452196D01*
X1100932Y452077D01*
X1101085Y451954D01*
X1101235Y451828D01*
X1101382Y451698D01*
X1101526Y451564D01*
X1101667Y451427D01*
X1101804Y451286D01*
X1101938Y451142D01*
X1102068Y450995D01*
X1102194Y450845D01*
X1102317Y450692D01*
X1102436Y450536D01*
X1102551Y450376D01*
X1102662Y450215D01*
X1102769Y450050D01*
X1102872Y449883D01*
X1102971Y449713D01*
X1103065Y449541D01*
X1103156Y449367D01*
X1103242Y449190D01*
X1103324Y449012D01*
X1103401Y448831D01*
X1103474Y448649D01*
X1103542Y448465D01*
X1103606Y448279D01*
X1103666Y448092D01*
X1103720Y447904D01*
X1103770Y447714D01*
X1103816Y447523D01*
X1103856Y447331D01*
X1103892Y447138D01*
X1103923Y446944D01*
X1103950Y446749D01*
X1103971Y446554D01*
X1103988Y446359D01*
X1104000Y446163D01*
X1104008Y445966D01*
X1104010Y445770D01*
X1104008Y445574D01*
X1104000Y445377D01*
X1103988Y445181D01*
X1103971Y444986D01*
X1103950Y444791D01*
X1103923Y444596D01*
X1103892Y444402D01*
X1103856Y444209D01*
X1103816Y444017D01*
X1103770Y443826D01*
X1103720Y443636D01*
X1103666Y443448D01*
X1103606Y443261D01*
X1103542Y443075D01*
X1103474Y442891D01*
X1103401Y442709D01*
X1103324Y442528D01*
X1103242Y442350D01*
X1103156Y442173D01*
X1103065Y441999D01*
X1102971Y441827D01*
X1102872Y441657D01*
X1102769Y441490D01*
X1102662Y441325D01*
X1102551Y441164D01*
X1102436Y441004D01*
X1102317Y440848D01*
X1102194Y440695D01*
X1102068Y440545D01*
X1101938Y440398D01*
X1101804Y440254D01*
X1101667Y440113D01*
X1101526Y439976D01*
X1101382Y439842D01*
X1101235Y439712D01*
X1101085Y439586D01*
X1100932Y439463D01*
X1100776Y439344D01*
X1100616Y439229D01*
X1100455Y439118D01*
X1100290Y439011D01*
X1100123Y438908D01*
X1099953Y438809D01*
X1099781Y438715D01*
X1099607Y438624D01*
X1099430Y438538D01*
X1099252Y438456D01*
X1099071Y438379D01*
X1098889Y438306D01*
X1098705Y438238D01*
X1098519Y438174D01*
X1098332Y438114D01*
X1098144Y438060D01*
X1097954Y438010D01*
X1097763Y437964D01*
X1097571Y437924D01*
X1097378Y437888D01*
X1097184Y437857D01*
X1096989Y437830D01*
X1096794Y437809D01*
X1096599Y437792D01*
X1096403Y437780D01*
X1096206Y437772D01*
X1096010Y437770D01*
X1095814Y437772D01*
X1095617Y437780D01*
X1095421Y437792D01*
X1095226Y437809D01*
X1095031Y437830D01*
X1094836Y437857D01*
X1094642Y437888D01*
X1094449Y437924D01*
X1094257Y437964D01*
X1094066Y438010D01*
X1093876Y438060D01*
X1093688Y438114D01*
X1093501Y438174D01*
X1093315Y438238D01*
X1093131Y438306D01*
X1092949Y438379D01*
X1092768Y438456D01*
X1092590Y438538D01*
X1092413Y438624D01*
X1092239Y438715D01*
X1092067Y438809D01*
X1091897Y438908D01*
X1091730Y439011D01*
X1091565Y439118D01*
X1091404Y439229D01*
X1091244Y439344D01*
X1091088Y439463D01*
X1090935Y439586D01*
X1090785Y439712D01*
X1090638Y439842D01*
X1090494Y439976D01*
X1090353Y440113D01*
X1090216Y440254D01*
X1090082Y440398D01*
X1089952Y440545D01*
X1089826Y440695D01*
X1089703Y440848D01*
X1089584Y441004D01*
X1089469Y441164D01*
X1089358Y441325D01*
X1089251Y441490D01*
X1089148Y441657D01*
X1089049Y441827D01*
X1088955Y441999D01*
X1088864Y442173D01*
X1088778Y442350D01*
X1088696Y442528D01*
X1088619Y442709D01*
X1088546Y442891D01*
X1088478Y443075D01*
X1088414Y443261D01*
X1088354Y443448D01*
X1088300Y443636D01*
X1088250Y443826D01*
X1088204Y444017D01*
X1088164Y444209D01*
X1088128Y444402D01*
X1088097Y444596D01*
X1088070Y444791D01*
X1088049Y444986D01*
X1088032Y445181D01*
X1088020Y445377D01*
X1088012Y445574D01*
X1088010Y445770D01*
D13*
X1132911Y428117D02*
X1132911Y420751D01*
X1133729Y420751D02*
X1132092Y420751D01*
X1132092Y428117D02*
X1133729Y428117D01*
X1127491Y420751D02*
X1125854Y420751D01*
X1127491Y420751D02*
X1127569Y420753D01*
X1127647Y420758D01*
X1127724Y420768D01*
X1127801Y420781D01*
X1127877Y420797D01*
X1127952Y420817D01*
X1128026Y420841D01*
X1128099Y420868D01*
X1128171Y420899D01*
X1128241Y420933D01*
X1128310Y420970D01*
X1128376Y421011D01*
X1128441Y421055D01*
X1128503Y421101D01*
X1128563Y421151D01*
X1128621Y421203D01*
X1128676Y421258D01*
X1128728Y421316D01*
X1128778Y421376D01*
X1128824Y421438D01*
X1128868Y421503D01*
X1128909Y421570D01*
X1128946Y421638D01*
X1128980Y421708D01*
X1129011Y421780D01*
X1129038Y421853D01*
X1129062Y421927D01*
X1129082Y422002D01*
X1129098Y422078D01*
X1129111Y422155D01*
X1129121Y422232D01*
X1129126Y422310D01*
X1129128Y422388D01*
X1129128Y426480D01*
X1129126Y426558D01*
X1129121Y426636D01*
X1129111Y426713D01*
X1129098Y426790D01*
X1129082Y426866D01*
X1129062Y426941D01*
X1129038Y427015D01*
X1129011Y427088D01*
X1128980Y427160D01*
X1128946Y427230D01*
X1128909Y427299D01*
X1128868Y427365D01*
X1128824Y427430D01*
X1128778Y427492D01*
X1128728Y427552D01*
X1128676Y427610D01*
X1128621Y427665D01*
X1128563Y427717D01*
X1128503Y427767D01*
X1128441Y427813D01*
X1128376Y427857D01*
X1128310Y427898D01*
X1128241Y427935D01*
X1128171Y427969D01*
X1128099Y428000D01*
X1128026Y428027D01*
X1127952Y428051D01*
X1127877Y428071D01*
X1127801Y428087D01*
X1127724Y428100D01*
X1127647Y428110D01*
X1127569Y428115D01*
X1127491Y428117D01*
X1125854Y428117D01*
X1119160Y422388D02*
X1119162Y422310D01*
X1119167Y422232D01*
X1119177Y422155D01*
X1119190Y422078D01*
X1119206Y422002D01*
X1119226Y421927D01*
X1119250Y421853D01*
X1119277Y421780D01*
X1119308Y421708D01*
X1119342Y421638D01*
X1119379Y421569D01*
X1119420Y421503D01*
X1119464Y421438D01*
X1119510Y421376D01*
X1119560Y421316D01*
X1119612Y421258D01*
X1119667Y421203D01*
X1119725Y421151D01*
X1119785Y421101D01*
X1119847Y421055D01*
X1119912Y421011D01*
X1119979Y420970D01*
X1120047Y420933D01*
X1120117Y420899D01*
X1120189Y420868D01*
X1120262Y420841D01*
X1120336Y420817D01*
X1120411Y420797D01*
X1120487Y420781D01*
X1120564Y420768D01*
X1120641Y420758D01*
X1120719Y420753D01*
X1120797Y420751D01*
X1120911Y420753D01*
X1121024Y420758D01*
X1121138Y420768D01*
X1121251Y420781D01*
X1121363Y420798D01*
X1121475Y420818D01*
X1121586Y420842D01*
X1121697Y420870D01*
X1121806Y420901D01*
X1121914Y420936D01*
X1122021Y420975D01*
X1122127Y421017D01*
X1122231Y421062D01*
X1122334Y421111D01*
X1122435Y421164D01*
X1122534Y421219D01*
X1122632Y421278D01*
X1122727Y421340D01*
X1122820Y421405D01*
X1122912Y421473D01*
X1123000Y421544D01*
X1123087Y421618D01*
X1123171Y421695D01*
X1123252Y421774D01*
X1123048Y426480D02*
X1123046Y426558D01*
X1123041Y426636D01*
X1123031Y426713D01*
X1123018Y426790D01*
X1123002Y426866D01*
X1122982Y426941D01*
X1122958Y427015D01*
X1122931Y427088D01*
X1122900Y427160D01*
X1122866Y427230D01*
X1122829Y427299D01*
X1122788Y427365D01*
X1122744Y427430D01*
X1122698Y427492D01*
X1122648Y427552D01*
X1122596Y427610D01*
X1122541Y427665D01*
X1122483Y427717D01*
X1122423Y427767D01*
X1122361Y427813D01*
X1122296Y427857D01*
X1122230Y427898D01*
X1122161Y427935D01*
X1122091Y427969D01*
X1122019Y428000D01*
X1121946Y428027D01*
X1121872Y428051D01*
X1121797Y428071D01*
X1121721Y428087D01*
X1121644Y428100D01*
X1121567Y428110D01*
X1121489Y428115D01*
X1121411Y428117D01*
X1121301Y428115D01*
X1121192Y428109D01*
X1121082Y428099D01*
X1120974Y428086D01*
X1120865Y428068D01*
X1120758Y428047D01*
X1120651Y428021D01*
X1120545Y427992D01*
X1120440Y427960D01*
X1120337Y427923D01*
X1120235Y427883D01*
X1120134Y427839D01*
X1120035Y427791D01*
X1119938Y427741D01*
X1119843Y427686D01*
X1119750Y427628D01*
X1119659Y427567D01*
X1119570Y427503D01*
X1122229Y425047D02*
X1122296Y425089D01*
X1122361Y425133D01*
X1122423Y425181D01*
X1122483Y425231D01*
X1122541Y425284D01*
X1122596Y425340D01*
X1122648Y425399D01*
X1122698Y425459D01*
X1122745Y425523D01*
X1122788Y425588D01*
X1122829Y425655D01*
X1122866Y425724D01*
X1122900Y425795D01*
X1122931Y425867D01*
X1122958Y425941D01*
X1122982Y426015D01*
X1123002Y426091D01*
X1123018Y426168D01*
X1123031Y426245D01*
X1123041Y426323D01*
X1123046Y426402D01*
X1123048Y426480D01*
X1119979Y423820D02*
X1119913Y423779D01*
X1119848Y423734D01*
X1119786Y423687D01*
X1119726Y423636D01*
X1119668Y423583D01*
X1119613Y423527D01*
X1119560Y423469D01*
X1119511Y423408D01*
X1119464Y423345D01*
X1119421Y423280D01*
X1119380Y423213D01*
X1119343Y423144D01*
X1119309Y423073D01*
X1119278Y423001D01*
X1119251Y422927D01*
X1119227Y422852D01*
X1119207Y422777D01*
X1119191Y422700D01*
X1119178Y422623D01*
X1119168Y422545D01*
X1119163Y422466D01*
X1119161Y422388D01*
X1119979Y423820D02*
X1122229Y425048D01*
X1115820Y428117D02*
X1115820Y420751D01*
X1115820Y428117D02*
X1113773Y428117D01*
X1113684Y428115D01*
X1113595Y428109D01*
X1113506Y428099D01*
X1113418Y428086D01*
X1113330Y428069D01*
X1113243Y428047D01*
X1113158Y428022D01*
X1113073Y427994D01*
X1112990Y427961D01*
X1112908Y427925D01*
X1112828Y427886D01*
X1112750Y427843D01*
X1112674Y427797D01*
X1112599Y427747D01*
X1112527Y427694D01*
X1112458Y427638D01*
X1112391Y427579D01*
X1112326Y427518D01*
X1112265Y427453D01*
X1112206Y427386D01*
X1112150Y427317D01*
X1112097Y427245D01*
X1112047Y427170D01*
X1112001Y427094D01*
X1111958Y427016D01*
X1111919Y426936D01*
X1111883Y426854D01*
X1111850Y426771D01*
X1111822Y426686D01*
X1111797Y426601D01*
X1111775Y426514D01*
X1111758Y426426D01*
X1111745Y426338D01*
X1111735Y426249D01*
X1111729Y426160D01*
X1111727Y426071D01*
X1111729Y425982D01*
X1111735Y425893D01*
X1111745Y425804D01*
X1111758Y425716D01*
X1111775Y425628D01*
X1111797Y425541D01*
X1111822Y425456D01*
X1111850Y425371D01*
X1111883Y425288D01*
X1111919Y425206D01*
X1111958Y425126D01*
X1112001Y425048D01*
X1112047Y424972D01*
X1112097Y424897D01*
X1112150Y424825D01*
X1112206Y424756D01*
X1112265Y424689D01*
X1112326Y424624D01*
X1112391Y424563D01*
X1112458Y424504D01*
X1112527Y424448D01*
X1112599Y424395D01*
X1112674Y424345D01*
X1112750Y424299D01*
X1112828Y424256D01*
X1112908Y424217D01*
X1112990Y424181D01*
X1113073Y424148D01*
X1113158Y424120D01*
X1113243Y424095D01*
X1113330Y424073D01*
X1113418Y424056D01*
X1113506Y424043D01*
X1113595Y424033D01*
X1113684Y424027D01*
X1113773Y424025D01*
X1115820Y424025D01*
D15*
X113935Y481170D02*
X56435Y481170D01*
X113935Y481170D02*
X113935Y207170D01*
X56435Y207170D01*
X56435Y481170D01*
D11*
X67754Y201112D02*
X73850Y191968D01*
X67754Y191968D02*
X73850Y201112D01*
X61404Y201112D02*
X61310Y201110D01*
X61215Y201104D01*
X61121Y201094D01*
X61028Y201081D01*
X60935Y201063D01*
X60843Y201042D01*
X60752Y201017D01*
X60662Y200988D01*
X60573Y200956D01*
X60486Y200919D01*
X60400Y200880D01*
X60316Y200836D01*
X60234Y200790D01*
X60154Y200740D01*
X60076Y200686D01*
X60000Y200630D01*
X59927Y200570D01*
X59856Y200508D01*
X59788Y200442D01*
X59722Y200374D01*
X59660Y200303D01*
X59600Y200230D01*
X59544Y200154D01*
X59490Y200076D01*
X59440Y199996D01*
X59394Y199914D01*
X59350Y199830D01*
X59311Y199744D01*
X59274Y199657D01*
X59242Y199568D01*
X59213Y199478D01*
X59188Y199387D01*
X59167Y199295D01*
X59149Y199202D01*
X59136Y199109D01*
X59126Y199015D01*
X59120Y198920D01*
X59118Y198826D01*
X61404Y201112D02*
X61510Y201110D01*
X61615Y201104D01*
X61720Y201095D01*
X61825Y201082D01*
X61929Y201065D01*
X62032Y201044D01*
X62135Y201020D01*
X62237Y200991D01*
X62337Y200960D01*
X62437Y200924D01*
X62535Y200886D01*
X62631Y200843D01*
X62727Y200797D01*
X62820Y200748D01*
X62911Y200696D01*
X63001Y200640D01*
X63089Y200581D01*
X63174Y200519D01*
X63257Y200454D01*
X63338Y200386D01*
X63416Y200315D01*
X63491Y200241D01*
X63564Y200165D01*
X63634Y200086D01*
X63701Y200005D01*
X63766Y199921D01*
X63827Y199835D01*
X63885Y199747D01*
X63940Y199657D01*
X63991Y199565D01*
X64040Y199471D01*
X64085Y199375D01*
X64126Y199278D01*
X64164Y199180D01*
X64198Y199080D01*
X59880Y197048D02*
X59813Y197115D01*
X59748Y197184D01*
X59686Y197256D01*
X59627Y197329D01*
X59571Y197406D01*
X59517Y197484D01*
X59467Y197564D01*
X59420Y197646D01*
X59376Y197730D01*
X59336Y197816D01*
X59298Y197903D01*
X59264Y197991D01*
X59234Y198081D01*
X59207Y198171D01*
X59183Y198263D01*
X59163Y198356D01*
X59147Y198449D01*
X59134Y198543D01*
X59125Y198637D01*
X59120Y198731D01*
X59118Y198826D01*
X59880Y197048D02*
X64198Y191968D01*
X59118Y191968D01*
D15*
X57010Y230170D02*
X62010Y230170D01*
X62010Y459170D02*
X57010Y459170D01*
M02*
