G04 EAGLE Gerber X2 export*
%TF.Part,Single*%
%TF.FileFunction,Soldermask,Bot,1*%
%TF.FilePolarity,Negative*%
%TF.GenerationSoftware,Autodesk,EAGLE,9.1.2*%
%TF.CreationDate,2019-01-09T08:49:19Z*%
G75*
%MOMM*%
%FSLAX34Y34*%
%LPD*%
%AMOC8*
5,1,8,0,0,1.08239X$1,22.5*%
G01*
%ADD10C,2.133600*%
%ADD11C,2.453200*%
%ADD12C,2.303200*%
%ADD13P,1.649562X8X22.500000*%
%ADD14C,1.524000*%
%ADD15P,1.649562X8X112.500000*%
%ADD16C,1.981200*%
%ADD17R,1.981200X1.981200*%
%ADD18C,1.727200*%


D10*
X270510Y255270D03*
X270510Y153670D03*
D11*
X486410Y269970D03*
D12*
X536410Y244970D03*
X436410Y244970D03*
X536410Y142970D03*
X436410Y142970D03*
D13*
X298450Y107950D03*
X323850Y107950D03*
D14*
X308610Y147066D02*
X308610Y160274D01*
X359410Y160274D02*
X359410Y147066D01*
X334010Y147066D02*
X334010Y160274D01*
D11*
X829310Y138970D03*
D12*
X779310Y163970D03*
X879310Y163970D03*
X779310Y265970D03*
X879310Y265970D03*
D14*
X727710Y147574D02*
X727710Y134366D01*
X676910Y134366D02*
X676910Y147574D01*
X702310Y147574D02*
X702310Y134366D01*
D10*
X638810Y242570D03*
X740410Y242570D03*
D13*
X697230Y91440D03*
X722630Y91440D03*
D10*
X223520Y480060D03*
X223520Y378460D03*
D14*
X156210Y524256D02*
X156210Y537464D01*
X105410Y537464D02*
X105410Y524256D01*
X130810Y524256D02*
X130810Y537464D01*
D15*
X74930Y532130D03*
X74930Y557530D03*
D11*
X326390Y384080D03*
D12*
X276390Y409080D03*
X376390Y409080D03*
X276390Y511080D03*
X376390Y511080D03*
D10*
X494030Y497840D03*
X494030Y396240D03*
D14*
X575310Y515366D02*
X575310Y528574D01*
X524510Y528574D02*
X524510Y515366D01*
X549910Y515366D02*
X549910Y528574D01*
D15*
X505460Y548640D03*
X505460Y574040D03*
D11*
X664210Y523970D03*
D12*
X714210Y498970D03*
X614210Y498970D03*
X714210Y396970D03*
X614210Y396970D03*
D10*
X918210Y585470D03*
X816610Y585470D03*
D14*
X930910Y388874D02*
X930910Y375666D01*
X880110Y375666D02*
X880110Y388874D01*
X905510Y388874D02*
X905510Y375666D01*
D11*
X907510Y483870D03*
D12*
X882510Y433870D03*
X882510Y533870D03*
X780510Y433870D03*
X780510Y533870D03*
D13*
X930910Y318770D03*
X956310Y318770D03*
D16*
X1045210Y64770D03*
D17*
X1045210Y90170D03*
D16*
X1045210Y115570D03*
X1045210Y140970D03*
X1045210Y166370D03*
X1045210Y191770D03*
X1045210Y217170D03*
X1045210Y242570D03*
X1045210Y267970D03*
X1045210Y293370D03*
X1045210Y318770D03*
X1045210Y344170D03*
X1045210Y369570D03*
X1045210Y394970D03*
X1045210Y420370D03*
X1045210Y445770D03*
X1197610Y445770D03*
X1197610Y420370D03*
X1197610Y394970D03*
X1197610Y369570D03*
X1197610Y344170D03*
X1197610Y318770D03*
X1197610Y293370D03*
X1197610Y267970D03*
X1197610Y242570D03*
X1197610Y217170D03*
X1197610Y191770D03*
X1197610Y166370D03*
X1197610Y140970D03*
X1197610Y115570D03*
X1197610Y90170D03*
X1197610Y64770D03*
X1197610Y471170D03*
X1045210Y471170D03*
D18*
X80010Y280670D03*
X80010Y255270D03*
X80010Y229870D03*
X80010Y306070D03*
X80010Y331470D03*
X80010Y356870D03*
X80010Y382270D03*
X80010Y407670D03*
X80010Y433070D03*
X80010Y458470D03*
D14*
X764540Y95504D02*
X764540Y82296D01*
X789940Y82296D02*
X789940Y95504D01*
X105410Y591566D02*
X105410Y604774D01*
X130810Y604774D02*
X130810Y591566D01*
X549910Y579374D02*
X549910Y566166D01*
X575310Y566166D02*
X575310Y579374D01*
X966470Y414274D02*
X966470Y401066D01*
X991870Y401066D02*
X991870Y414274D01*
X350520Y87884D02*
X350520Y74676D01*
X375920Y74676D02*
X375920Y87884D01*
M02*
